<svg width="8" height="68" viewBox="0 0 13 72" fill="none" xmlns="http://www.w3.org/2000/svg">
<path d="M1.6 0.75C1.37457 0.75 1.15837 0.839553 0.998959 0.998959C0.839553 1.15837 0.75 1.37457 0.75 1.6V70.4C0.75 70.87 1.13 71.25 1.6 71.25H10.88C11.35 71.25 11.73 70.87 11.73 70.4V1.6C11.73 1.37457 11.6404 1.15837 11.481 0.998959C11.3216 0.839553 11.1054 0.75 10.88 0.75H1.6Z" fill="#00B9B6" stroke="#FAFAFA"/>
<path d="M3.92 12.25C3.77413 12.25 3.63423 12.3079 3.53109 12.4111C3.42794 12.5142 3.37 12.6541 3.37 12.8V25.93C3.37 26.234 3.616 26.48 3.92 26.48H8.56C8.63222 26.48 8.70374 26.4658 8.77047 26.4381C8.8372 26.4105 8.89783 26.37 8.9489 26.3189C8.99998 26.2678 9.04049 26.2072 9.06813 26.1405C9.09577 26.0737 9.10999 26.0022 9.10999 25.93V12.8C9.10999 12.7278 9.09577 12.6563 9.06813 12.5895C9.04049 12.5228 8.99998 12.4622 8.9489 12.4111C8.89783 12.36 8.8372 12.3195 8.77047 12.2919C8.70374 12.2642 8.63222 12.25 8.56 12.25H3.92Z" fill="white" stroke="#00B9B6"/>
<path d="M6.24 31.6071C4.78396 31.6071 3.38756 32.1855 2.35798 33.215C1.32841 34.2446 0.75 35.641 0.75 37.0971V70.4001C0.75 70.8701 1.13 71.2501 1.6 71.2501H10.88C11.35 71.2501 11.73 70.8701 11.73 70.4001V37.0971C11.73 35.641 11.1516 34.2446 10.122 33.215C9.09244 32.1855 7.69604 31.6071 6.24 31.6071V31.6071Z" fill="white" stroke="#FAFAFA"/>
<path d="M6.24 39.865C7.82505 39.865 9.10999 38.5953 9.10999 37.029C9.10999 35.4627 7.82505 34.193 6.24 34.193C4.65494 34.193 3.37 35.4627 3.37 37.029C3.37 38.5953 4.65494 39.865 6.24 39.865Z" fill="white" stroke="#00B9B6"/>
<path d="M6.24 8.86499C7.82505 8.86499 9.10999 7.59527 9.10999 6.02899C9.10999 4.46271 7.82505 3.19299 6.24 3.19299C4.65494 3.19299 3.37 4.46271 3.37 6.02899C3.37 7.59527 4.65494 8.86499 6.24 8.86499Z" fill="white" stroke="#00B9B6"/>
</svg>
