<svg width="20" height="14" viewBox="0 0 20 14" fill="none">
  <path fill-rule="evenodd" clip-rule="evenodd" d="M19.9992 4.69121C17.6146 1.82477 14.0207 0 10.0006 0C5.98049 0 2.38657 1.82478 0.00195312 4.69123L1.42324 6.11251C3.43939 3.6049 6.53258 2 10.0006 2C13.4686 2 16.5618 3.60489 18.578 6.1125L19.9992 4.69121ZM17.1535 7.53697C15.5088 5.38685 12.9167 4 10.0006 4C7.08452 4 4.49236 5.38686 2.84771 7.53698L4.27815 8.96743C5.54547 7.17232 7.63613 6 10.0006 6C12.3651 6 14.4557 7.17231 15.723 8.96741L17.1535 7.53697ZM14.2792 10.4113C13.4027 8.96584 11.8145 8 10.0006 8C8.18676 8 6.59848 8.96586 5.72205 10.4113L7.20927 11.8985C7.64838 10.7867 8.73263 10 10.0006 10C11.2686 10 12.3528 10.7866 12.7919 11.8985L14.2792 10.4113ZM11.0006 13C11.0006 13.5523 10.5529 14 10.0006 14C9.44833 14 9.00062 13.5523 9.00062 13C9.00062 12.4477 9.44833 12 10.0006 12C10.5529 12 11.0006 12.4477 11.0006 13Z" fill="#666666"/>
</svg>