<svg width="512" height="512" viewBox="0 0 512 512" fill="none" xmlns="http://www.w3.org/2000/svg">
<path fill-rule="evenodd" clip-rule="evenodd" d="M239.125 215.367C258.014 204.392 261.478 174.844 246.861 149.368C232.245 123.892 148.99 45.2005 143.367 48.4669C137.744 51.7333 163.84 163.633 178.457 189.109C193.074 214.585 220.235 226.341 239.125 215.367ZM345.485 397.479C360.601 388.698 378.747 385.277 396.17 384.216C407.196 383.545 418.24 380.355 428.458 374.419C463.649 353.973 475.706 308.692 455.388 273.28C435.071 237.867 390.072 225.735 354.881 246.18C347.772 250.309 338.521 249.799 331.882 244.942C309.089 228.267 277.765 225.606 251.786 240.699C226.062 255.644 212.699 283.858 215.306 311.789C216.124 320.555 211.594 329.426 204.017 333.829C168.826 354.274 156.768 399.555 177.086 434.968C197.403 470.38 242.402 482.514 277.594 462.068C286.54 456.87 293.991 450.067 299.795 442.229C312.361 425.262 327.275 408.059 345.485 397.479ZM328.565 126.273C343.663 152.59 342.688 181.601 326.387 191.071C310.084 200.543 284.63 186.887 269.53 160.571C264.474 151.758 262.86 139.816 261.046 126.4C257.446 99.7573 253.058 67.3075 219.362 42.0328C245.337 26.9422 313.466 99.9576 328.565 126.273ZM175.054 278.993C158.493 288.614 132.829 275.081 117.729 248.764C102.631 222.449 74.1702 126.386 100.557 111.056C105.232 153.192 131.135 173.141 152.403 189.521C163.111 197.767 172.644 205.109 177.701 213.922C192.799 240.239 191.614 269.372 175.054 278.993ZM416.664 139.045C424.933 162.056 418.893 186.379 403.174 193.37C387.456 200.362 368.01 187.375 359.742 164.364C356.973 156.657 357.726 146.526 358.571 135.145C360.249 112.541 362.293 85.0094 337.843 61.7698C362.888 50.6296 408.395 116.033 416.664 139.045ZM135.633 348.803C121.746 359.013 97.7836 352.122 82.114 333.411C66.4445 314.699 32.9251 242.329 55.0539 226.059C62.8186 258.994 87.5424 270.974 107.841 280.808C118.062 285.76 127.16 290.167 132.408 296.434C148.077 315.145 149.522 338.591 135.633 348.803Z" fill="url(#paint0_linear_1081_2)"/>
<defs>
<linearGradient id="paint0_linear_1081_2" x1="142.089" y1="49.2095" x2="355.616" y2="416.738" gradientUnits="userSpaceOnUse">
<stop offset="0.427083" stop-color="#E8006F"/>
<stop offset="0.739583" stop-color="#AC59FF"/>
</linearGradient>
</defs>
</svg>
