<svg width="490" height="490" viewBox="0 0 490 490" fill="none" xmlns="http://www.w3.org/2000/svg">
<g clip-path="url(#clip0_9_592)">
<path d="M224.968 487.535C145.459 479.522 73.0375 437.61 34.2074 376.899C18.4904 352.245 6.16335 320.811 2.15707 295.233C0.362124 277.418 -0.358256 259.511 -0.000162088 241.61C1.8489 186.138 14.7923 143.302 40.9872 105.088C49.0784 93.0895 58.5989 82.1203 69.3394 72.4214C89.868 52.3887 113.755 36.1164 139.912 24.3458C163.762 12.9185 189.227 5.22696 215.415 1.54078C235.811 -0.512901 256.367 -0.409607 276.742 1.84896C323.585 8.937 364.88 28.9684 404.635 63.7924C444.39 98.6163 474.591 144.843 484.761 189.22C488.767 205.862 489.383 212.333 489.383 232.981C489.951 248.104 488.499 263.235 485.069 277.975L482.604 289.686L473.975 291.535C448.587 296.507 423.566 303.199 399.088 311.566C384.295 317.113 381.214 318.346 359.333 327.899C337.453 337.453 328.824 340.843 317.421 343.924C293.692 350.396 268.421 351.013 251.472 345.465C228.358 337.761 211.1 319.27 207.402 298.623C206.221 289.258 206.743 279.757 208.943 270.579C213.874 253.013 224.66 234.83 241.61 216.031L247.465 209.868C247.465 209.868 248.698 217.572 249.622 226.509C250.547 235.447 251.78 243.151 251.78 243.459L258.56 241.302C278.912 233.971 300.931 232.582 322.044 237.296C338.695 241.357 355.065 246.504 371.044 252.704C378.44 255.478 386.453 258.252 389.226 258.868C405.415 261.026 421.884 258.901 436.994 252.704C440.692 251.163 441 250.855 441.924 247.157C443.16 238.572 443.16 229.855 441.924 221.27L441 216.648L425.899 206.478C335.912 146.692 260.1 110.943 196 98.6163C178.434 94.9182 147.924 92.1446 147.924 93.9937C147.924 95.8428 147.924 95.2264 147.616 95.5346C147.308 95.8428 156.245 100.774 179.666 112.176L212.025 127.893C207.504 129.809 202.873 131.455 198.157 132.824C180.64 138.372 163.544 145.169 147 153.164C134.673 159.327 116.799 169.497 116.799 170.73L131.591 172.579L146.383 173.811L138.371 182.44C127.277 193.843 121.113 201.239 105.396 220.346L92.4526 236.679H103.855C107.675 236.681 111.488 236.99 115.258 237.604C115.258 237.912 110.019 255.478 103.547 276.742C97.0753 298.006 91.8363 315.572 92.1445 315.572L104.163 313.107C112.176 311.258 116.49 310.641 116.799 311.258C117.107 311.874 118.339 328.824 119.88 349.472C121.421 370.119 122.346 387.069 122.654 387.069C126.351 384.564 129.854 381.781 133.132 378.748L144.226 370.428C144.534 370.428 153.78 384.296 165.182 401.245C176.585 418.195 185.83 432.063 186.138 432.063C189.735 428.876 193.036 425.369 196 421.585C203.396 412.956 205.553 410.799 206.17 411.723L214.799 421.893C218.805 426.824 226.201 434.836 231.132 439.767L239.761 448.396H258.251C287.528 448.396 305.711 451.17 330.056 460.107L337.453 462.572L334.987 464.421C320.503 475.208 301.704 482.296 278.283 485.994C268.883 487.233 259.412 487.852 249.931 487.843C239.761 488.151 228.358 487.843 224.968 487.535Z" fill="url(#paint0_linear_9_592)"/>
</g>
<defs>
<linearGradient id="paint0_linear_9_592" x1="97" y1="53" x2="306.5" y2="472" gradientUnits="userSpaceOnUse">
<stop offset="0.005" stop-color="#29CCC4"/>
<stop offset="0.595" stop-color="#DF01B8"/>
<stop offset="0.811459" stop-color="#EF3C8E"/>
<stop offset="1"/>
</linearGradient>
<clipPath id="clip0_9_592">
<rect width="490" height="490" fill="white"/>
</clipPath>
</defs>
</svg>
