<svg width="800" height="430" viewBox="0 0 800 430" fill="none" xmlns="http://www.w3.org/2000/svg">
<g clip-path="url(#clip0)">
<path d="M276 -85.4316L853.291 -85.4316L861.914 490.355L276 -85.4316Z" fill="url(#paint0_linear)" fill-opacity="0.3"/>
<path d="M329.874 238.523L274.725 183.374L274.725 358.013L449.365 358.014L394.216 302.865L572.533 124.547L508.192 60.2058L329.874 238.523Z" fill="url(#paint1_radial)"/>
<path d="M329.874 238.523L274.725 183.374L274.725 358.013L449.365 358.014L394.216 302.865L572.533 124.547L508.192 60.2058L329.874 238.523Z" fill="url(#paint2_radial)"/>
<path d="M625.845 126.385L570.695 71.2358L745.336 71.2358L745.336 245.877L690.186 190.727L511.868 369.044L447.527 304.703L625.845 126.385Z" fill="url(#paint3_radial)"/>
<path d="M625.845 126.385L570.695 71.2358L745.336 71.2358L745.336 245.877L690.186 190.727L511.868 369.044L447.527 304.703L625.845 126.385Z" fill="url(#paint4_radial)"/>
<path fill-rule="evenodd" clip-rule="evenodd" d="M582.742 83.792C582.917 79.7866 582.886 75.7745 582.65 71.7714L583.653 71.7986C583.904 76.1111 583.919 80.434 583.698 84.7477L582.742 83.792ZM563.054 115.578C560.464 123.483 557.019 131.187 552.72 138.557C550.498 142.367 548.506 146.265 546.745 150.235L544.83 152.149C546.842 147.343 549.184 142.634 551.856 138.054C556.206 130.595 559.675 122.792 562.261 114.784L563.054 115.578ZM279.012 353.503C287.346 327.876 286.638 300.137 276.887 274.869L276.809 271.976C287.574 298.076 288.643 326.99 280.016 353.65L279.016 353.623L279.012 353.503ZM293.747 354.021C304.213 322.335 300.826 287.367 283.584 257.805C280.665 252.801 278.14 247.644 276.009 242.374L275.929 239.423C278.24 245.546 281.079 251.527 284.447 257.301C301.784 287.025 305.231 322.17 294.79 354.049L293.747 354.021ZM308.518 354.42C319.146 322.629 315.802 287.491 298.488 257.805C286.56 237.355 281.207 214.339 282.428 191.586L283.382 192.54C282.358 214.808 287.681 237.293 299.351 257.301C316.76 287.149 320.164 322.463 309.563 354.449L308.518 354.42ZM323.288 354.819C334.077 322.923 330.779 287.615 313.392 257.805C304.093 241.863 298.791 224.362 297.483 206.641L298.572 207.73C300.011 224.904 305.239 241.842 314.255 257.301C331.737 287.273 335.096 322.757 324.333 354.848L323.288 354.819ZM338.056 355.219C349.009 323.218 345.755 287.74 328.296 257.805C322.084 247.156 317.656 235.81 315.01 224.168L316.352 225.51C319.009 236.506 323.278 247.218 329.159 257.301C346.713 287.397 350.028 323.052 339.103 355.247L338.056 355.219ZM352.823 355.618C363.939 323.513 360.732 287.864 343.2 257.805C338.983 250.576 335.589 243.027 333.015 235.282L333.807 234.49C336.377 242.337 339.796 249.985 344.063 257.301C361.69 287.522 364.959 323.347 353.871 355.646L352.823 355.618ZM367.588 356.017C378.87 323.809 375.708 287.989 358.104 257.805C351.792 246.984 347.322 235.445 344.692 223.606L345.531 222.766C348.12 234.723 352.598 246.381 358.968 257.301C376.666 287.646 379.889 323.642 368.637 356.045L367.588 356.017ZM382.351 356.416C393.8 324.105 390.685 288.114 373.008 257.805C364.44 243.117 359.265 227.104 357.481 210.816L358.391 209.907C360.076 226.333 365.236 242.495 373.872 257.301C391.643 287.771 394.82 323.938 383.401 356.444L382.351 356.416ZM398.164 356.843L397.113 356.815C402.174 342.691 404.448 327.855 403.934 313.092L404.966 314.124C405.338 328.553 403.071 343.032 398.164 356.843ZM412.926 357.242L411.873 357.214C415.359 347.595 417.55 337.642 418.445 327.603L419.364 328.522C418.427 338.256 416.281 347.904 412.926 357.242ZM427.686 357.641L426.632 357.613C428.673 352.042 430.28 346.358 431.451 340.609L432.297 341.455C431.151 346.924 429.614 352.333 427.686 357.641ZM442.444 358.04L441.389 358.011C442.071 356.17 442.706 354.316 443.293 352.451L444.09 353.248C443.576 354.853 443.028 356.451 442.444 358.04ZM464.515 322.2L463.551 321.236C463.897 311.235 462.964 301.201 460.751 291.378L461.586 290.543C463.989 300.95 464.965 311.597 464.515 322.2ZM478.06 335.745L477.184 334.869C479.99 316.468 478.393 297.571 472.395 279.735L473.184 278.946C479.444 297.306 481.069 316.797 478.06 335.745ZM490.34 348.025L489.523 347.208C496.361 321.362 494.222 293.79 483.106 269.024L483.862 268.268C495.289 293.513 497.449 321.677 490.34 348.025ZM501.596 359.281L500.82 358.505C512.984 326.13 510.378 289.817 493.001 259.129L493.734 258.396C511.457 289.528 514.078 326.44 501.596 359.281ZM512.757 368.056L511.564 369.249L511.232 368.916C528.502 333.642 527.139 292.088 507.144 257.805C505.542 255.059 504.059 252.267 502.694 249.435L503.444 248.686C504.839 251.602 506.36 254.476 508.008 257.301C527.927 291.454 529.51 332.765 512.757 368.056ZM535.83 344.983L534.457 346.355C542.046 316.773 537.91 285.001 522.048 257.805C518.504 251.729 515.541 245.427 513.157 238.972L513.937 238.193C516.327 244.745 519.318 251.141 522.912 257.301C538.619 284.232 542.925 315.612 535.83 344.983ZM553.621 327.192L552.518 328.295C554.812 304.177 549.624 279.531 536.952 257.805C531.356 248.212 527.208 238.054 524.506 227.624L525.328 226.802C528.003 237.345 532.165 247.614 537.816 257.301C550.385 278.852 555.653 303.252 553.621 327.192ZM568.835 311.977L567.873 312.94C567.184 293.873 561.845 274.932 551.856 257.805C544.064 244.447 539.078 229.993 536.897 215.232L537.78 214.35C539.884 229.241 544.864 243.833 552.72 257.301C562.632 274.296 568.003 293.062 568.835 311.977ZM581.488 299.325C579.273 284.93 574.364 270.842 566.76 257.805C556.571 240.336 551.18 220.995 550.585 201.544L551.56 200.57C552.001 220.175 557.355 239.697 567.624 257.301C575.164 270.23 580.077 284.184 582.363 298.45L581.488 299.325ZM594.629 286.184L593.812 287C591.13 276.914 587.081 267.093 581.664 257.805C568.777 235.711 563.565 210.621 566.026 186.103L567.151 184.979C564.409 209.678 569.535 235.025 582.528 257.301C587.89 266.496 591.924 276.209 594.629 286.184ZM605.873 274.939L605.098 275.715C602.785 269.581 599.942 263.59 596.568 257.805C580.468 230.203 576.347 197.924 584.202 167.927L585.621 166.509C577.231 196.722 581.168 229.417 597.432 257.301C600.756 263.002 603.57 268.901 605.873 274.939ZM616.246 264.567L615.499 265.314C614.253 262.777 612.911 260.272 611.472 257.805C590.938 222.6 589.889 179.789 608.323 143.806L610.729 141.401C590.892 177.656 591.427 221.454 612.336 257.301C613.729 259.69 615.032 262.113 616.246 264.567ZM625.153 255.659C604.744 218.958 605.152 174.443 626.376 138.054C638.03 118.073 643.354 95.6226 642.35 73.3849L643.352 73.412C644.35 95.815 638.979 118.429 627.24 138.557C606.242 174.559 605.791 218.578 625.889 254.924L625.153 255.659ZM635.11 245.702C619.885 211.112 621.941 171.209 641.28 138.054C652.863 118.194 658.194 95.8939 657.271 73.7882L658.273 73.8153C659.19 96.0863 653.813 118.55 642.144 138.557C623.034 171.321 620.943 210.726 635.869 244.943L635.11 245.702ZM645.883 234.929C635.391 203.016 638.824 167.817 656.184 138.054C667.697 118.315 673.033 96.165 672.191 74.1915L673.193 74.2185C674.028 96.3573 668.647 118.671 657.048 138.557C639.921 167.921 636.464 202.619 646.676 234.136L645.883 234.929ZM657.591 223.221C651.329 194.581 655.828 164.217 671.088 138.054C682.53 118.435 687.871 96.4358 687.11 74.5947L688.112 74.6217C688.867 96.6282 683.48 118.792 671.952 138.557C656.931 164.31 652.425 194.165 658.433 222.38L657.591 223.221ZM670.42 210.392C667.803 185.673 672.994 160.339 685.992 138.054C697.364 118.556 702.709 96.7064 702.027 74.9978L703.029 75.0249C703.705 96.8988 698.314 118.912 686.856 138.557C674.108 160.414 668.933 185.225 671.332 209.481L670.42 210.392ZM684.68 196.133C684.984 176.071 690.39 156.067 700.896 138.054C712.198 118.677 717.547 96.9768 716.943 75.401L717.945 75.428C718.542 97.1691 713.147 119.033 701.76 138.557C691.522 156.109 686.169 175.567 685.7 195.113L684.68 196.133ZM699.601 200.651C699.105 179.086 704.505 157.419 715.8 138.054C727.031 118.797 732.384 97.247 731.858 75.8041L732.859 75.8311C733.379 97.4393 727.981 119.154 716.664 138.557C705.28 158.075 699.935 179.949 700.63 201.68L699.601 200.651ZM716.034 217.084C711.64 190.281 716.53 162.355 730.704 138.054C735.25 130.259 738.833 122.088 741.453 113.701L741.534 116.684C738.988 124.202 735.666 131.531 731.568 138.557C717.268 163.074 712.498 191.309 717.256 218.306L716.034 217.084ZM736.041 237.091C725.419 206.76 727.497 173.252 742.276 144.165L742.334 146.292C728.125 175.383 726.581 208.735 737.702 238.752L736.041 237.091ZM620.525 121.575C626.582 105.972 629.217 89.4294 628.429 73.0087L627.427 72.9816C628.213 89.144 625.654 105.428 619.752 120.802L620.525 121.575ZM609.337 110.387C612.768 98.0414 614.157 85.2843 613.505 72.6054L612.503 72.5783C613.149 84.9893 611.823 97.4767 608.524 109.574L609.337 110.387ZM597.139 98.189C598.575 89.5922 599.055 80.8776 598.58 72.202L597.577 72.1749C598.043 80.5669 597.607 88.9961 596.268 97.3183L597.139 98.189ZM524.518 172.462C527.126 160.725 531.558 149.285 537.816 138.557C544.215 127.585 548.723 115.873 551.337 103.86L550.495 103.018C547.924 115.151 543.41 126.981 536.952 138.054C530.372 149.335 525.793 161.397 523.214 173.766L524.518 172.462ZM507.094 189.886C508.315 172.111 513.587 154.544 522.912 138.557C531.575 123.704 536.77 107.497 538.497 91.0196L537.584 90.1069C535.959 106.723 530.78 123.082 522.048 138.054C512.446 154.517 507.104 172.643 506.024 190.956L507.094 189.886ZM492.119 204.861C490.772 182.091 496.068 159.028 508.008 138.557C519.166 119.427 524.57 98.0507 524.221 76.7445L523.2 75.723C523.741 97.1927 518.389 118.773 507.144 138.054C494.949 158.962 489.626 182.553 491.176 205.804L492.119 204.861ZM478.774 218.206C474.046 191.239 478.822 163.043 493.104 138.557C507.116 114.532 512.055 86.9649 507.92 60.4429L507.887 60.4102L507.034 61.2635C510.949 87.357 506.018 114.431 492.24 138.054C477.715 162.956 472.94 191.663 477.912 219.068L478.774 218.206ZM466.662 230.318C457.916 199.836 461.762 166.74 478.2 138.557C489.843 118.594 495.222 96.185 494.335 73.9621L493.369 74.928C494.065 96.6596 488.72 118.535 477.336 138.054C460.663 166.639 456.836 200.238 465.855 231.125L466.662 230.318ZM455.554 241.426C442.257 208.047 444.837 170.204 463.295 138.557C472.27 123.171 477.522 106.331 479.053 89.2442L477.943 90.3538C476.291 106.885 471.121 123.156 462.432 138.054C443.744 170.095 441.195 208.436 454.785 242.195L455.554 241.426ZM445.308 251.672C426.988 215.976 428.016 173.492 448.392 138.557C454.206 128.589 458.458 118.01 461.148 107.15L459.762 108.535C457.081 118.734 453.003 128.667 447.528 138.054C426.925 173.377 425.938 216.357 444.566 252.414L445.308 251.672ZM435.705 261.275C434.993 259.94 434.254 258.615 433.487 257.301C412.029 220.511 412.029 175.348 433.487 138.557C435.026 135.92 436.455 133.24 437.775 130.523L435.531 132.766C434.61 134.546 433.641 136.309 432.624 138.054C410.984 175.155 410.984 220.704 432.624 257.805C433.435 259.196 434.216 260.6 434.966 262.014L435.705 261.275ZM448.17 305.855C448.114 305.283 448.055 304.711 447.991 304.139L448.893 303.236C449.04 304.476 449.168 305.718 449.275 306.96L448.17 305.855ZM425.601 271.379C423.591 266.579 421.252 261.876 418.584 257.301C401.009 227.17 397.828 191.421 409.042 159.256L407.444 160.853C396.921 192.787 400.346 228.019 417.72 257.805C420.436 262.462 422.808 267.253 424.836 272.144L425.601 271.379ZM414.662 282.318C412.008 273.699 408.347 265.304 403.68 257.301C389.672 233.286 384.809 205.702 389.088 179.209L387.89 180.407C383.954 206.709 388.929 233.996 402.816 257.805C407.536 265.897 411.217 274.395 413.861 283.119L414.662 282.318ZM402.758 294.222C400.23 281.431 395.569 268.95 388.775 257.301C377.638 238.207 372.282 216.856 372.705 195.592L371.689 196.608C371.454 217.71 376.861 238.859 387.912 257.805C394.765 269.556 399.43 282.161 401.906 295.074L402.758 294.222Z" fill="#FF2D55"/>
<path d="M276 50L339 113L277.658 111.342L276 50Z" fill="url(#paint5_linear)"/>
<path opacity="0.3" d="M-42 50L403 495L-30.2895 483.29L-42 50Z" fill="url(#paint6_linear)"/>
<path d="M746 399L687 340L744.447 341.553L746 399Z" fill="url(#paint7_linear)"/>
<path fill-rule="evenodd" clip-rule="evenodd" d="M315.46 106.297C315.724 110.313 315.739 114.341 315.505 118.358L316.505 118.385C316.718 114.714 316.725 111.034 316.526 107.363L315.46 106.297ZM302.342 93.179C304.001 101.379 304.604 109.737 304.151 118.051L303.151 118.024C303.63 109.28 302.929 100.488 301.048 91.8846L302.342 93.179ZM284.6 75.4365C290.129 88.9693 292.527 103.403 291.795 117.717L290.795 117.69C291.565 102.713 288.872 87.6038 282.717 73.5538L284.6 75.4365ZM265 61.0684C265.347 61.6949 265.702 62.3187 266.064 62.9397C275.874 79.7581 280.332 98.6658 279.438 117.383L278.438 117.356C279.327 98.8218 274.915 80.0982 265.201 63.4435C265.153 63.3615 265.105 63.2795 265.058 63.1974L265 61.0684ZM265.982 97.4088C267.005 103.912 267.371 110.491 267.08 117.049L266.513 117.034L265.982 97.4088Z" fill="url(#paint8_linear)"/>
<path fill-rule="evenodd" clip-rule="evenodd" d="M695.21 353.088C694.946 349.072 694.931 345.044 695.165 341.027L694.165 341C693.952 344.671 693.945 348.351 694.145 352.022L695.21 353.088ZM708.328 366.206C706.669 358.005 706.066 349.648 706.52 341.334L707.52 341.361C707.04 350.105 707.741 358.897 709.622 367.5L708.328 366.206ZM726.071 383.948C720.541 370.415 718.143 355.982 718.875 341.668L719.875 341.695C719.105 356.672 721.798 371.781 727.953 385.831L726.071 383.948ZM745.67 398.316C745.323 397.69 744.968 397.066 744.606 396.445C734.796 379.627 730.338 360.719 731.232 342.002L732.232 342.029C731.343 360.563 735.756 379.287 745.47 395.941C745.517 396.023 745.565 396.105 745.613 396.187L745.67 398.316ZM744.688 361.976C743.665 355.473 743.299 348.893 743.59 342.336L744.158 342.351L744.688 361.976Z" fill="#5AC8FA"/>
</g>
<defs>
<linearGradient id="paint0_linear" x1="928.327" y1="488.428" x2="620.395" y2="-63.2959" gradientUnits="userSpaceOnUse">
<stop stop-color="#3DB0F0"/>
<stop offset="1" stop-color="#1DA3EF" stop-opacity="0"/>
</linearGradient>
<radialGradient id="paint1_radial" cx="0" cy="0" r="1" gradientUnits="userSpaceOnUse" gradientTransform="translate(205.633 368.671) rotate(-33.8932) scale(439.603 396.647)">
<stop stop-color="#3DB0F0"/>
<stop offset="0.782422" stop-color="#1DA3EF" stop-opacity="0"/>
</radialGradient>
<radialGradient id="paint2_radial" cx="0" cy="0" r="1" gradientUnits="userSpaceOnUse" gradientTransform="translate(725.157 92.661) rotate(158.595) scale(660.707 678.987)">
<stop stop-color="#F0533D"/>
<stop offset="0.502144" stop-color="#FF5555" stop-opacity="0"/>
</radialGradient>
<radialGradient id="paint3_radial" cx="0" cy="0" r="1" gradientUnits="userSpaceOnUse" gradientTransform="translate(205.633 368.671) rotate(-33.8932) scale(439.603 396.647)">
<stop stop-color="#3DB0F0"/>
<stop offset="0.782422" stop-color="#1DA3EF" stop-opacity="0"/>
</radialGradient>
<radialGradient id="paint4_radial" cx="0" cy="0" r="1" gradientUnits="userSpaceOnUse" gradientTransform="translate(725.157 92.661) rotate(158.595) scale(660.707 678.987)">
<stop stop-color="#F0533D"/>
<stop offset="0.502144" stop-color="#FF5555" stop-opacity="0"/>
</radialGradient>
<linearGradient id="paint5_linear" x1="339" y1="132.833" x2="245.398" y2="79.8067" gradientUnits="userSpaceOnUse">
<stop offset="0.00102305" stop-color="#F0533D"/>
<stop offset="0.918138" stop-color="#FF5555" stop-opacity="0"/>
</linearGradient>
<linearGradient id="paint6_linear" x1="-42" y1="159" x2="398.329" y2="333.84" gradientUnits="userSpaceOnUse">
<stop offset="0.00102305" stop-color="#F0533D"/>
<stop offset="0.918138" stop-color="#FF5555" stop-opacity="0"/>
</linearGradient>
<linearGradient id="paint7_linear" x1="764.938" y1="340" x2="707.499" y2="377.623" gradientUnits="userSpaceOnUse">
<stop stop-color="#3DB0F0"/>
<stop offset="0.782422" stop-color="#1DA3EF" stop-opacity="0"/>
</linearGradient>
<linearGradient id="paint8_linear" x1="327.855" y1="138.525" x2="234.253" y2="85.4981" gradientUnits="userSpaceOnUse">
<stop offset="0.00102305" stop-color="#F0533D"/>
<stop offset="0.918138" stop-color="#FF5555" stop-opacity="0"/>
</linearGradient>
<clipPath id="clip0">
<rect width="800" height="429.268" fill="white"/>
</clipPath>
</defs>
</svg>
