<svg width="800" height="430" viewBox="0 0 800 430" fill="none" xmlns="http://www.w3.org/2000/svg">
<g clip-path="url(#clip0)">
<path d="M276 -85.4316L853.291 -85.4316L861.914 490.355L276 -85.4316Z" fill="url(#paint0_linear)" fill-opacity="0.3"/>
<path d="M329.874 238.523L274.725 183.374L274.725 358.013L449.365 358.014L394.216 302.865L572.533 124.547L508.192 60.2058L329.874 238.523Z" fill="url(#paint1_radial)"/>
<path d="M329.874 238.523L274.725 183.374L274.725 358.013L449.365 358.014L394.216 302.865L572.533 124.547L508.192 60.2058L329.874 238.523Z" fill="url(#paint2_radial)"/>
<path d="M625.845 126.385L570.695 71.2358L745.336 71.2358L745.336 245.877L690.186 190.727L511.868 369.044L447.527 304.703L625.845 126.385Z" fill="url(#paint3_radial)"/>
<path d="M625.845 126.385L570.695 71.2358L745.336 71.2358L745.336 245.877L690.186 190.727L511.868 369.044L447.527 304.703L625.845 126.385Z" fill="url(#paint4_radial)"/>
<path d="M276 50L339 113L277.658 111.342L276 50Z" fill="url(#paint5_linear)"/>
<path opacity="0.3" d="M-42 50L403 495L-30.2895 483.29L-42 50Z" fill="url(#paint6_linear)"/>
<path d="M746 399L687 340L744.447 341.553L746 399Z" fill="url(#paint7_linear)"/>
</g>
<defs>
<linearGradient id="paint0_linear" x1="928.327" y1="488.428" x2="620.395" y2="-63.2959" gradientUnits="userSpaceOnUse">
<stop stop-color="#3DB0F0"/>
<stop offset="1" stop-color="#1DA3EF" stop-opacity="0"/>
</linearGradient>
<radialGradient id="paint1_radial" cx="0" cy="0" r="1" gradientUnits="userSpaceOnUse" gradientTransform="translate(205.633 368.671) rotate(-33.8932) scale(439.603 396.647)">
<stop stop-color="#3DB0F0"/>
<stop offset="0.782422" stop-color="#1DA3EF" stop-opacity="0"/>
</radialGradient>
<radialGradient id="paint2_radial" cx="0" cy="0" r="1" gradientUnits="userSpaceOnUse" gradientTransform="translate(725.157 92.661) rotate(158.595) scale(660.707 678.987)">
<stop stop-color="#F0533D"/>
<stop offset="0.502144" stop-color="#FF5555" stop-opacity="0"/>
</radialGradient>
<radialGradient id="paint3_radial" cx="0" cy="0" r="1" gradientUnits="userSpaceOnUse" gradientTransform="translate(205.633 368.671) rotate(-33.8932) scale(439.603 396.647)">
<stop stop-color="#3DB0F0"/>
<stop offset="0.782422" stop-color="#1DA3EF" stop-opacity="0"/>
</radialGradient>
<radialGradient id="paint4_radial" cx="0" cy="0" r="1" gradientUnits="userSpaceOnUse" gradientTransform="translate(725.157 92.661) rotate(158.595) scale(660.707 678.987)">
<stop stop-color="#F0533D"/>
<stop offset="0.502144" stop-color="#FF5555" stop-opacity="0"/>
</radialGradient>
<linearGradient id="paint5_linear" x1="339" y1="132.833" x2="245.398" y2="79.8067" gradientUnits="userSpaceOnUse">
<stop offset="0.00102305" stop-color="#F0533D"/>
<stop offset="0.918138" stop-color="#FF5555" stop-opacity="0"/>
</linearGradient>
<linearGradient id="paint6_linear" x1="-42" y1="159" x2="398.329" y2="333.84" gradientUnits="userSpaceOnUse">
<stop offset="0.00102305" stop-color="#F0533D"/>
<stop offset="0.918138" stop-color="#FF5555" stop-opacity="0"/>
</linearGradient>
<linearGradient id="paint7_linear" x1="764.938" y1="340" x2="707.499" y2="377.623" gradientUnits="userSpaceOnUse">
<stop stop-color="#3DB0F0"/>
<stop offset="0.782422" stop-color="#1DA3EF" stop-opacity="0"/>
</linearGradient>
<clipPath id="clip0">
<rect width="800" height="429.268" fill="white"/>
</clipPath>
</defs>
</svg>
