<svg width="800" height="430" viewBox="0 0 800 430" fill="none" xmlns="http://www.w3.org/2000/svg">
<g clip-path="url(#clip0)">
<path fill-rule="evenodd" clip-rule="evenodd" d="M399.203 226.634C391.911 219.343 391.911 207.521 399.203 200.229L496.479 102.952C503.771 95.6608 515.593 95.6608 522.885 102.952L620.161 200.229C627.453 207.521 627.453 219.343 620.161 226.634L522.885 323.911C515.593 331.202 503.771 331.202 496.479 323.911L399.203 226.634ZM465.672 193.237C472.46 200.025 472.46 211.031 465.672 217.82C458.884 224.608 447.877 224.608 441.089 217.82C434.301 211.031 434.301 200.025 441.089 193.237C447.877 186.449 458.884 186.449 465.672 193.237ZM514.837 168.655C521.626 161.866 521.626 150.86 514.837 144.072C508.049 137.284 497.043 137.284 490.255 144.072C483.466 150.86 483.466 161.866 490.255 168.655C497.043 175.443 508.049 175.443 514.837 168.655ZM498.157 225.722C504.945 232.51 504.945 243.516 498.157 250.305C491.368 257.093 480.362 257.093 473.574 250.305C466.786 243.516 466.786 232.51 473.574 225.722C480.362 218.934 491.368 218.934 498.157 225.722ZM547.321 201.139C554.109 194.35 554.109 183.344 547.321 176.556C540.533 169.768 529.526 169.768 522.738 176.556C515.95 183.344 515.95 194.35 522.738 201.139C529.526 207.927 540.533 207.927 547.321 201.139ZM530.64 258.206C537.428 264.994 537.428 276 530.64 282.789C523.852 289.577 512.846 289.577 506.057 282.789C499.269 276 499.269 264.994 506.057 258.206C512.846 251.417 523.852 251.417 530.64 258.206ZM579.806 233.623C586.595 226.835 586.595 215.829 579.806 209.04C573.018 202.252 562.012 202.252 555.224 209.04C548.435 215.829 548.435 226.835 555.224 233.623C562.012 240.412 573.018 240.411 579.806 233.623Z" fill="url(#paint0_radial)"/>
<rect x="588" y="87.75" width="87.3277" height="87.3277" rx="17" transform="rotate(-45 588 87.75)" fill="url(#paint1_linear)"/>
<path fill-rule="evenodd" clip-rule="evenodd" d="M674.264 200.995C666.939 208.321 666.939 220.198 674.264 227.524L771.995 325.255C779.321 332.581 791.198 332.581 798.524 325.255L896.255 227.524C903.581 220.198 903.581 208.321 896.255 200.995L798.524 103.264C791.198 95.9386 779.321 95.9386 771.995 103.264L674.264 200.995ZM756.977 214.624C756.977 204.979 749.158 197.161 739.513 197.161C729.868 197.161 722.049 204.979 722.049 214.624C722.049 224.269 729.868 232.088 739.513 232.088C749.158 232.088 756.977 224.269 756.977 214.624ZM785.667 197.16C795.312 197.16 803.13 204.979 803.13 214.624C803.13 224.269 795.312 232.088 785.667 232.088C776.022 232.088 768.203 224.269 768.203 214.624C768.203 204.979 776.022 197.16 785.667 197.16ZM849.284 214.623C849.284 204.978 841.465 197.16 831.82 197.16C822.175 197.16 814.356 204.978 814.356 214.623C814.356 224.268 822.175 232.087 831.82 232.087C841.465 232.087 849.284 224.268 849.284 214.623Z" fill="url(#paint2_linear)"/>
<rect opacity="0.3" x="713" y="26" width="575.585" height="575.585" rx="31" transform="rotate(135 713 26)" fill="url(#paint3_linear)"/>
<rect x="574.557" y="339.443" width="104.491" height="104.491" rx="26" transform="rotate(-45 574.557 339.443)" fill="url(#paint4_radial)"/>
<rect x="290" y="443" width="155.564" height="155.564" rx="28" transform="rotate(-45 290 443)" fill="url(#paint5_linear)"/>
<rect x="522.001" y="3.75" width="125.866" height="125.866" rx="31" transform="rotate(135 522.001 3.75)" fill="url(#paint6_linear)"/>
</g>
<defs>
<radialGradient id="paint0_radial" cx="0" cy="0" r="1" gradientUnits="userSpaceOnUse" gradientTransform="translate(647.282 311.968) rotate(-157.655) scale(410.109 304.638)">
<stop stop-color="#3DB0F0"/>
<stop offset="0.782422" stop-color="#1DA3EF" stop-opacity="0"/>
</radialGradient>
<linearGradient id="paint1_linear" x1="643.611" y1="231.026" x2="620.946" y2="54.8036" gradientUnits="userSpaceOnUse">
<stop stop-color="#F0C93D"/>
<stop offset="0.903304" stop-color="#FFD362" stop-opacity="0"/>
</linearGradient>
<linearGradient id="paint2_linear" x1="944" y1="339" x2="661" y2="120.5" gradientUnits="userSpaceOnUse">
<stop stop-color="#F0C93D"/>
<stop offset="0.903304" stop-color="#FFD362" stop-opacity="0"/>
</linearGradient>
<linearGradient id="paint3_linear" x1="1194.24" y1="611.114" x2="977.99" y2="-64.5383" gradientUnits="userSpaceOnUse">
<stop stop-color="#3DB0F0"/>
<stop offset="0.857362" stop-color="#1DA3EF" stop-opacity="0"/>
</linearGradient>
<radialGradient id="paint4_radial" cx="0" cy="0" r="1" gradientUnits="userSpaceOnUse" gradientTransform="translate(643.303 491.437) rotate(-112.655) scale(244.995 181.987)">
<stop stop-color="#3DB0F0"/>
<stop offset="0.782422" stop-color="#1DA3EF" stop-opacity="0"/>
</radialGradient>
<linearGradient id="paint5_linear" x1="389.065" y1="698.23" x2="348.69" y2="384.31" gradientUnits="userSpaceOnUse">
<stop stop-color="#F0C93D"/>
<stop offset="0.903304" stop-color="#FFD362" stop-opacity="0"/>
</linearGradient>
<linearGradient id="paint6_linear" x1="384.293" y1="33.2723" x2="749.899" y2="39.5233" gradientUnits="userSpaceOnUse">
<stop stop-color="#3DB0F0"/>
<stop offset="0.857362" stop-color="#1DA3EF" stop-opacity="0"/>
</linearGradient>
<clipPath id="clip0">
<rect width="800" height="429.268" fill="white"/>
</clipPath>
</defs>
</svg>
