<svg width="800" height="430" viewBox="0 0 800 430" fill="none" xmlns="http://www.w3.org/2000/svg">
<g clip-path="url(#clip0)">
<path fill-rule="evenodd" clip-rule="evenodd" d="M399.203 226.634C391.911 219.343 391.911 207.521 399.203 200.229L496.479 102.952C503.771 95.6608 515.593 95.6608 522.885 102.952L620.161 200.229C627.453 207.521 627.453 219.343 620.161 226.634L522.885 323.911C515.593 331.202 503.771 331.202 496.479 323.911L399.203 226.634ZM465.672 193.237C472.46 200.025 472.46 211.031 465.672 217.82C458.884 224.608 447.877 224.608 441.089 217.82C434.301 211.031 434.301 200.025 441.089 193.237C447.877 186.449 458.884 186.449 465.672 193.237ZM514.837 168.655C521.626 161.866 521.626 150.86 514.837 144.072C508.049 137.284 497.043 137.284 490.255 144.072C483.466 150.86 483.466 161.866 490.255 168.655C497.043 175.443 508.049 175.443 514.837 168.655ZM498.157 225.722C504.945 232.51 504.945 243.516 498.157 250.305C491.368 257.093 480.362 257.093 473.574 250.305C466.786 243.516 466.786 232.51 473.574 225.722C480.362 218.934 491.368 218.934 498.157 225.722ZM547.321 201.139C554.109 194.35 554.109 183.344 547.321 176.556C540.533 169.768 529.526 169.768 522.738 176.556C515.95 183.344 515.95 194.35 522.738 201.139C529.526 207.927 540.533 207.927 547.321 201.139ZM530.64 258.206C537.428 264.994 537.428 276 530.64 282.789C523.852 289.577 512.846 289.577 506.057 282.789C499.269 276 499.269 264.994 506.057 258.206C512.846 251.417 523.852 251.417 530.64 258.206ZM579.806 233.623C586.595 226.835 586.595 215.829 579.806 209.04C573.018 202.252 562.012 202.252 555.224 209.04C548.435 215.829 548.435 226.835 555.224 233.623C562.012 240.412 573.018 240.411 579.806 233.623Z" fill="url(#paint0_radial)"/>
<rect x="588" y="87.75" width="87.3277" height="87.3277" rx="17" transform="rotate(-45 588 87.75)" fill="url(#paint1_linear)"/>
<path fill-rule="evenodd" clip-rule="evenodd" d="M674.264 200.995C666.939 208.321 666.939 220.198 674.264 227.524L771.995 325.255C779.321 332.581 791.198 332.581 798.524 325.255L896.255 227.524C903.581 220.198 903.581 208.321 896.255 200.995L798.524 103.264C791.198 95.9386 779.321 95.9386 771.995 103.264L674.264 200.995ZM756.977 214.624C756.977 204.979 749.158 197.161 739.513 197.161C729.868 197.161 722.049 204.979 722.049 214.624C722.049 224.269 729.868 232.088 739.513 232.088C749.158 232.088 756.977 224.269 756.977 214.624ZM785.667 197.16C795.312 197.16 803.13 204.979 803.13 214.624C803.13 224.269 795.312 232.088 785.667 232.088C776.022 232.088 768.203 224.269 768.203 214.624C768.203 204.979 776.022 197.16 785.667 197.16ZM849.284 214.623C849.284 204.978 841.465 197.16 831.82 197.16C822.175 197.16 814.356 204.978 814.356 214.623C814.356 224.268 822.175 232.087 831.82 232.087C841.465 232.087 849.284 224.268 849.284 214.623Z" fill="url(#paint2_linear)"/>
<rect opacity="0.3" x="713" y="26" width="575.585" height="575.585" rx="31" transform="rotate(135 713 26)" fill="url(#paint3_linear)"/>
<path fill-rule="evenodd" clip-rule="evenodd" d="M697.933 80.7298C696.015 85.8165 693.657 90.7855 690.859 95.5828C686.736 102.652 683.558 110.09 681.326 117.728L682.824 116.229C684.996 109.292 687.962 102.535 691.723 96.0866C694.284 91.6951 696.48 87.1612 698.312 82.5254C698.204 81.9239 698.078 81.3251 697.933 80.7298ZM690.588 67.2371C688.417 77.2257 684.67 86.9635 679.349 96.0866C672.879 107.179 668.761 119.19 666.995 131.451C666.628 131.711 666.256 131.961 665.88 132.203C667.591 119.506 671.792 107.058 678.485 95.5828C683.867 86.3558 687.622 76.4939 689.749 66.3809L689.998 66.6296C690.198 66.83 690.395 67.0325 690.588 67.2371ZM679.928 56.5604C678.496 70.2606 674.179 83.7368 666.976 96.0866C659.597 108.737 655.277 122.582 654.016 136.63C653.679 136.679 653.34 136.722 653.001 136.76C654.249 122.493 658.62 108.428 666.112 95.5828C673.384 83.1145 677.685 69.4868 679.015 55.647L679.928 56.5604ZM641.714 135.87C643.061 122.083 647.357 108.509 654.602 96.0866C663.819 80.2851 668.311 62.6395 668.079 45.0402C667.746 44.7807 667.408 44.5292 667.066 44.2857C667.439 61.9607 662.996 79.7111 653.739 95.5828C646.452 108.075 642.119 121.72 640.738 135.584C641.062 135.685 641.387 135.78 641.714 135.87ZM630.142 129.706C632.037 118.052 636.066 106.653 642.229 96.0866C652.448 78.5664 656.859 58.7791 655.463 39.3015C655.125 39.2355 654.786 39.1754 654.447 39.1211C655.885 58.4824 651.525 78.1641 641.365 95.5828C635.251 106.066 631.215 117.362 629.26 128.916C629.55 129.187 629.844 129.45 630.142 129.706ZM619.957 119.642C622.181 111.508 625.481 103.587 629.856 96.0866C640.045 78.617 644.46 58.8932 643.101 39.4701C642.772 39.5439 642.443 39.6233 642.116 39.7084C643.423 58.8801 639.049 78.3402 628.992 95.5828C624.671 102.991 621.388 110.805 619.144 118.829L619.957 119.642ZM610.641 110.326C612.517 105.453 614.797 100.691 617.482 96.0866C626.654 80.3624 631.147 62.812 630.962 45.2984C630.626 45.5675 630.295 45.8448 629.968 46.1305C630.003 63.1934 625.554 80.2633 616.618 95.5828C613.982 100.103 611.732 104.775 609.868 109.553L610.641 110.326ZM603.056 99.7864C603.712 98.5426 604.396 97.309 605.109 96.0866C612.04 84.204 616.299 71.2786 617.887 58.1142L616.732 59.2694C615.044 71.8594 610.882 84.204 604.245 95.5828C603.666 96.5753 603.106 97.5751 602.564 98.5817C602.719 98.986 602.883 99.3877 603.056 99.7864Z" fill="#5AC8FA"/>
<rect x="574.557" y="339.443" width="104.491" height="104.491" rx="26" transform="rotate(-45 574.557 339.443)" fill="url(#paint4_radial)"/>
<rect x="290" y="443" width="155.564" height="155.564" rx="28" transform="rotate(-45 290 443)" fill="url(#paint5_linear)"/>
<path opacity="0.5" fill-rule="evenodd" clip-rule="evenodd" d="M561.092 427.856C563.199 435.717 564.314 443.771 564.437 451.836C564.152 452.734 563.82 453.621 563.442 454.493C563.557 444.761 562.214 435.017 559.411 425.586C560.015 426.32 560.575 427.078 561.092 427.856ZM537.213 403.197L539.881 405.864C550.793 425.754 554.382 448.362 550.646 470.039L549.408 471.278C553.665 448.57 549.771 424.738 537.726 404.086C537.553 403.79 537.382 403.494 537.213 403.197ZM517.255 383.239C519.432 390.246 522.419 397.072 526.216 403.583C541.15 429.186 543.68 459.632 533.808 486.877L532.1 488.586C542.76 461.102 540.511 430.075 525.352 404.086C521.194 396.957 517.998 389.453 515.763 381.747L517.255 383.239ZM501.367 367.351C503.062 379.913 507.22 392.228 513.843 403.583C531.824 434.411 531.824 472.258 513.843 503.086L512.979 502.583C530.778 472.066 530.778 434.603 512.979 404.086C506.063 392.228 501.807 379.331 500.211 366.195L501.367 367.351ZM488.12 354.104C488.08 371.176 492.53 388.255 501.469 403.583C519.45 434.411 519.45 472.258 501.469 503.086L500.606 502.583C518.405 472.066 518.405 434.603 500.606 404.086C491.402 388.306 486.909 370.687 487.128 353.111L488.12 354.104ZM476.474 342.458C473.912 363.302 478.119 384.763 489.096 403.583C507.077 434.411 507.077 472.258 489.096 503.086L488.232 502.583C506.031 472.066 506.031 434.603 488.232 404.086C477.008 384.842 472.79 362.863 475.579 341.563L476.474 342.458ZM465.978 331.962C460.31 355.976 463.892 381.584 476.723 403.583C494.703 434.411 494.703 472.258 476.723 503.086L475.859 502.583C493.658 472.066 493.658 434.603 475.859 404.086C462.79 381.68 459.22 355.565 465.149 331.132L465.978 331.962ZM456.392 322.376C447.141 349.025 449.793 378.626 464.349 403.583C482.33 434.411 482.33 472.258 464.349 503.086L463.485 502.583C481.285 472.066 481.285 434.603 463.485 404.086C448.698 378.733 446.072 348.631 455.608 321.591L456.392 322.376ZM447.122 314.545C434.359 343.11 435.977 376.152 451.976 403.583C469.957 434.411 469.957 472.258 451.976 503.086L451.112 502.583C468.911 472.066 468.911 434.603 451.112 404.086C434.937 376.354 433.313 342.94 446.24 314.067C446.536 314.22 446.83 314.38 447.122 314.545ZM436.37 311.095C421.878 340.423 422.955 375.041 439.602 403.583C457.583 434.411 457.583 472.258 439.602 503.086L438.739 502.583C456.538 472.066 456.538 434.603 438.739 404.086C421.987 375.366 420.842 340.553 435.303 311C435.659 311.025 436.015 311.056 436.37 311.095ZM423.152 312.848C409.553 341.795 410.912 375.607 427.229 403.583C445.21 434.411 445.21 472.258 427.229 503.086L426.365 502.583C444.164 472.066 444.164 434.603 426.365 404.086C410.07 376.148 408.543 342.444 421.783 313.425C422.235 313.22 422.692 313.028 423.152 312.848ZM405.314 327.371C398.023 352.682 401.203 380.176 414.856 403.583C432.836 434.411 432.836 472.258 414.856 503.086L413.992 502.583C431.791 472.066 431.791 434.603 413.992 404.086C400.508 380.968 397.136 353.902 403.875 328.809L405.314 327.371ZM389.81 342.875C387.355 363.589 391.579 384.889 402.482 403.583C420.463 434.411 420.463 472.258 402.482 503.086L401.619 502.583C419.418 472.066 419.418 434.603 401.619 404.086C390.823 385.578 386.509 364.539 388.677 344.008L389.81 342.875ZM376.772 355.912C377.039 372.38 381.485 388.796 390.109 403.583C408.09 434.411 408.09 472.258 390.109 503.086L389.245 502.583C407.044 472.066 407.044 434.603 389.245 404.086C380.701 389.438 376.217 373.204 375.793 356.892L376.772 355.912ZM365.269 367.416C366.969 379.955 371.125 392.248 377.736 403.583C395.716 434.411 395.716 472.258 377.736 503.086L376.872 502.583C394.671 472.066 394.671 434.603 376.872 404.086C370.326 392.863 366.163 380.709 364.383 368.302L365.269 367.416ZM354.883 377.802C357.096 386.716 360.589 395.399 365.362 403.583C383.343 434.411 383.343 472.258 365.362 503.086L364.498 502.583C382.298 472.066 382.298 434.603 364.498 404.086C359.781 395.998 356.301 387.427 354.059 378.626L354.883 377.802ZM345.387 387.298C347.395 392.884 349.929 398.336 352.989 403.583C370.97 434.411 370.97 472.258 352.989 503.086L352.125 502.583C369.924 472.066 369.924 434.603 352.125 404.086C349.115 398.925 346.609 393.567 344.606 388.079L345.387 387.298ZM336.643 396.042C337.85 398.596 339.175 401.112 340.616 403.583C357.54 432.599 358.534 467.835 343.599 497.583L342.853 496.837C357.483 467.453 356.449 432.714 339.752 404.086C338.357 401.695 337.071 399.262 335.892 396.793L336.643 396.042ZM328.558 404.127C343.598 430.291 345.756 461.425 335.031 489.016L334.258 488.242C344.662 461.116 342.518 430.581 327.825 404.86L328.558 404.127ZM320.391 412.294C330.157 433.617 331.943 457.48 325.747 479.731L324.934 478.918C330.855 457.166 329.089 433.895 319.636 413.049L320.391 412.294ZM310.773 421.912L311.56 421.125C316.981 436.783 318.336 453.448 315.625 469.609L314.755 468.739C317.257 453.121 315.93 437.05 310.773 421.912ZM302 435.714C302.187 435.05 302.399 434.392 302.636 433.74C304.199 441.431 304.833 449.26 304.537 457.063C304.197 456.459 303.881 455.846 303.589 455.223C303.716 448.697 303.186 442.161 302 435.714Z" fill="#FFCC00"/>
<path fill-rule="evenodd" clip-rule="evenodd" d="M394 215.912C395.162 211.991 396.072 208.016 396.73 204.011C397.12 203.389 397.55 202.785 398.02 202.202C397.249 207.572 396.033 212.894 394.369 218.113C394.202 217.386 394.079 216.651 394 215.912ZM401.387 229.14C407.18 216.598 410.177 203.161 410.38 189.692L411.39 188.682C411.325 202.751 408.242 216.81 402.14 229.893L401.387 229.14ZM409.529 237.282C420.157 218.964 424.384 198.158 422.21 177.861L423.116 176.956C425.519 197.786 421.24 219.189 410.278 237.983C410.272 237.993 410.266 238.003 410.26 238.013L409.529 237.282ZM417.637 245.39C418.893 242.709 420.277 240.069 421.788 237.479C434.375 215.897 438.061 190.842 432.845 167.227L433.682 166.39C439.155 190.428 435.478 215.991 422.652 237.983C421.095 240.652 419.674 243.375 418.389 246.142L417.637 245.39ZM427.185 254.938L426.401 254.154C428.442 248.432 431.029 242.849 434.161 237.479C437.556 231.659 440.303 225.586 442.403 219.357C442.676 219.585 442.954 219.803 443.237 220.012C441.13 226.187 438.393 232.208 435.025 237.983C431.843 243.439 429.229 249.117 427.185 254.938ZM436.741 264.494L435.913 263.666C438.147 254.61 441.687 245.789 446.535 237.479C449.192 232.922 451.453 228.21 453.317 223.39C453.677 223.395 454.037 223.388 454.396 223.371C452.486 228.372 450.153 233.26 447.399 237.983C442.495 246.389 438.943 255.323 436.741 264.494ZM447.2 274.953L446.308 274.061C448.022 261.378 452.222 248.943 458.908 237.479C463.139 230.225 466.364 222.578 468.584 214.726C470.382 211.627 471.143 208.092 470.867 204.624C474.579 182.892 470.857 160.224 459.702 140.37L460.436 139.635C477.75 170.25 477.528 207.539 459.772 237.983C453.02 249.559 448.829 262.135 447.2 274.953ZM458.798 286.551L457.81 285.563C458.065 270.511 461.776 255.503 468.943 241.722C469.038 242.227 469.155 242.729 469.295 243.226C462.401 256.879 458.902 271.706 458.798 286.551ZM471.975 299.728L470.826 298.579C469.046 283.253 470.884 267.615 476.34 252.933C476.624 253.123 476.912 253.305 477.204 253.477C471.711 268.358 469.968 284.223 471.975 299.728ZM487.731 315.484L486.258 314.011C480.863 294.936 481.344 274.657 487.699 255.796C488.068 255.761 488.437 255.713 488.803 255.654C482.167 275.03 481.809 295.943 487.731 315.484ZM505.488 329.348C505.06 329.246 504.636 329.129 504.215 328.996C490.55 299.785 491.946 265.692 508.402 237.479C515.329 225.601 519.561 212.671 521.096 199.508C521.369 199.886 521.66 200.255 521.968 200.615C520.324 213.57 516.09 226.282 509.265 237.983C492.83 266.161 491.571 300.262 505.488 329.348ZM517.36 328.285C517.054 328.419 516.745 328.545 516.433 328.663C509.915 314.594 506.882 299.405 507.333 284.294C507.653 284.563 507.98 284.818 508.314 285.06C507.985 299.79 511.001 314.575 517.36 328.285ZM526.632 320.804L525.853 321.582C521.855 310.842 519.794 299.59 519.669 288.322C520.003 288.3 520.336 288.268 520.668 288.227C520.781 299.258 522.769 310.276 526.632 320.804ZM536.074 311.362L535.253 312.182C532.637 302.202 531.616 291.918 532.192 281.7C532.592 281.19 532.96 280.663 533.296 280.122C532.53 290.578 533.456 301.128 536.074 311.362ZM546.394 301.041L545.513 301.922C542.206 280.027 546.333 257.302 557.895 237.479C558.077 237.167 558.257 236.854 558.435 236.541C558.719 236.719 559.006 236.888 559.297 237.048C559.119 237.361 558.94 237.672 558.759 237.983C547.443 257.385 543.321 279.594 546.394 301.041ZM557.812 289.623L556.84 290.595C556.235 272.918 560.4 255.119 569.334 239.116C569.749 239.077 570.162 239.022 570.574 238.953C561.638 254.679 557.384 272.194 557.812 289.623ZM569.607 277.829C570.949 263.845 575.294 250.076 582.642 237.479C593.759 218.418 597.933 196.647 595.162 175.551L596.313 176.703C598.781 197.613 594.512 219.113 583.506 237.983C576.445 250.087 572.186 263.285 570.727 276.709L569.607 277.829ZM584.603 262.832C586.846 254.069 590.317 245.534 595.015 237.479C603.824 222.377 608.273 205.573 608.363 188.752L609.353 189.742C609.097 206.406 604.606 223.021 595.879 237.983C591.525 245.448 588.235 253.33 586.011 261.424L584.603 262.832ZM604.358 243.077C605.304 241.188 606.314 239.321 607.389 237.479C614.165 225.86 618.362 213.234 619.979 200.368L620.32 200.71C620.508 200.897 620.691 201.088 620.868 201.281C619.165 214.006 614.96 226.483 608.252 237.983C607.723 238.89 607.209 239.804 606.711 240.724L604.358 243.077ZM581.787 211.66C585.854 195.071 585.539 177.697 580.84 161.229L579.36 159.749C584.424 176.313 584.971 193.872 581.001 210.651C581.277 210.98 581.539 211.316 581.787 211.66ZM570.852 204.721C574.572 182.847 570.838 160.038 559.651 140.04L556.967 137.356C557.271 137.9 557.58 138.442 557.895 138.983C569.656 159.147 573.646 182.345 569.864 204.568C570.195 204.609 570.524 204.66 570.852 204.721ZM557.991 207.373C562.601 184.129 558.733 159.649 546.386 138.479C542.505 131.825 539.47 124.841 537.281 117.671L535.803 116.192C538.043 124.056 541.283 131.714 545.522 138.983C557.936 160.267 561.692 184.929 556.789 208.258C557.18 207.944 557.581 207.649 557.991 207.373ZM550.975 226.651C549.395 230.339 547.577 233.955 545.522 237.479C540.51 246.071 536.896 255.208 534.678 264.586C534.915 265.188 535.118 265.801 535.286 266.421C537.439 256.575 541.139 246.977 546.386 237.983C548.272 234.749 549.96 231.438 551.45 228.065C551.271 227.6 551.113 227.128 550.975 226.651ZM526.043 255.308C528.106 249.358 530.762 243.554 534.012 237.983C540.492 226.872 544.637 214.85 546.446 202.574C546.073 202.892 545.69 203.191 545.297 203.473C543.429 215.262 539.379 226.796 533.148 237.479C529.88 243.082 527.206 248.917 525.126 254.899C525.435 255.026 525.74 255.162 526.043 255.308ZM514.073 254.168C516.075 248.616 518.597 243.198 521.639 237.983C527.406 228.095 531.323 217.486 533.391 206.618C533.059 206.584 532.727 206.54 532.398 206.486C530.348 217.225 526.474 227.708 520.775 237.479C517.575 242.965 514.944 248.674 512.883 254.526C513.276 254.392 513.673 254.273 514.073 254.168ZM532.781 172.112C530.853 160.628 526.851 149.4 520.775 138.983C513.332 126.222 508.97 112.258 507.689 98.0881C508.02 98.0499 508.353 98.0205 508.685 98C509.954 112.026 514.271 125.847 521.639 138.479C527.787 149.02 531.833 160.381 533.776 172.003C533.444 172.029 533.112 172.066 532.781 172.112ZM522.194 177.782C521.634 172.538 520.651 167.328 519.245 162.202C519.07 162.745 518.868 163.28 518.638 163.806C519.923 168.768 520.811 173.806 521.3 178.872C521.581 178.499 521.879 178.136 522.194 177.782ZM509.445 140.816C509.104 140.202 508.756 139.591 508.402 138.983C502.003 128.011 497.881 116.151 496.036 104.035L496.638 103.433C496.731 103.341 496.824 103.25 496.918 103.16C498.687 115.405 502.803 127.4 509.265 138.479C509.859 139.497 510.434 140.523 510.989 141.557C510.484 141.283 509.969 141.036 509.445 140.816ZM497.846 140.151C497.52 140.246 497.196 140.35 496.875 140.464C496.597 139.968 496.315 139.475 496.028 138.983C491.447 131.128 488.033 122.818 485.786 114.285L486.606 113.465C488.827 122.111 492.256 130.53 496.892 138.479C497.216 139.034 497.534 139.591 497.846 140.151ZM508.23 173.329C508.552 173.222 508.871 173.104 509.188 172.978C512.192 192.12 509.507 211.922 501.131 229.885C500.933 229.539 500.723 229.199 500.501 228.865C508.546 211.305 511.123 192.004 508.23 173.329ZM488.726 146.509C487.454 143.787 486.052 141.107 484.519 138.479C481.587 133.453 479.139 128.239 477.173 122.899L476.395 123.677C478.353 128.92 480.773 134.042 483.655 138.983C485.272 141.756 486.743 144.586 488.066 147.464C488.274 147.14 488.494 146.822 488.726 146.509ZM495.772 172.789C496.128 172.944 496.488 173.086 496.851 173.216C499.378 189.574 497.751 206.407 491.971 222.156C491.657 222.042 491.34 221.937 491.021 221.841C496.82 206.058 498.404 189.174 495.772 172.789ZM479.519 222.37C489.646 194.973 487.188 164.27 472.145 138.479C470.827 136.218 469.606 133.92 468.483 131.589L467.734 132.337C468.827 134.584 470.009 136.801 471.281 138.983C486.342 164.804 488.659 195.598 478.233 222.95C478.655 222.738 479.084 222.545 479.519 222.37ZM545.655 175.447C543.98 162.804 539.812 150.407 533.148 138.983C526.257 127.166 522.006 114.319 520.398 101.231C520.777 101.491 521.148 101.767 521.512 102.059C523.19 114.686 527.357 127.068 534.012 138.479C540.929 150.338 545.185 163.236 546.781 176.374C546.415 176.047 546.04 175.738 545.655 175.447ZM460.864 190.239C461.158 175.811 458.277 161.334 452.221 147.851L451.464 148.608C457.297 161.73 460.1 175.791 459.871 189.816C460.205 189.946 460.536 190.087 460.864 190.239ZM448.504 189.368C448.632 178.353 446.908 167.321 443.334 156.737L442.544 157.527C446.012 167.972 447.664 178.849 447.499 189.705C447.832 189.582 448.167 189.47 448.504 189.368Z" fill="#5AC8FA"/>
<rect x="522.001" y="3.75" width="125.866" height="125.866" rx="31" transform="rotate(135 522.001 3.75)" fill="url(#paint6_linear)"/>
</g>
<defs>
<radialGradient id="paint0_radial" cx="0" cy="0" r="1" gradientUnits="userSpaceOnUse" gradientTransform="translate(647.282 311.968) rotate(-157.655) scale(410.109 304.638)">
<stop stop-color="#3DB0F0"/>
<stop offset="0.782422" stop-color="#1DA3EF" stop-opacity="0"/>
</radialGradient>
<linearGradient id="paint1_linear" x1="643.611" y1="231.026" x2="620.946" y2="54.8036" gradientUnits="userSpaceOnUse">
<stop stop-color="#F0C93D"/>
<stop offset="0.903304" stop-color="#FFD362" stop-opacity="0"/>
</linearGradient>
<linearGradient id="paint2_linear" x1="944" y1="339" x2="661" y2="120.5" gradientUnits="userSpaceOnUse">
<stop stop-color="#F0C93D"/>
<stop offset="0.903304" stop-color="#FFD362" stop-opacity="0"/>
</linearGradient>
<linearGradient id="paint3_linear" x1="1194.24" y1="611.114" x2="977.99" y2="-64.5383" gradientUnits="userSpaceOnUse">
<stop stop-color="#3DB0F0"/>
<stop offset="0.857362" stop-color="#1DA3EF" stop-opacity="0"/>
</linearGradient>
<radialGradient id="paint4_radial" cx="0" cy="0" r="1" gradientUnits="userSpaceOnUse" gradientTransform="translate(643.303 491.437) rotate(-112.655) scale(244.995 181.987)">
<stop stop-color="#3DB0F0"/>
<stop offset="0.782422" stop-color="#1DA3EF" stop-opacity="0"/>
</radialGradient>
<linearGradient id="paint5_linear" x1="389.065" y1="698.23" x2="348.69" y2="384.31" gradientUnits="userSpaceOnUse">
<stop stop-color="#F0C93D"/>
<stop offset="0.903304" stop-color="#FFD362" stop-opacity="0"/>
</linearGradient>
<linearGradient id="paint6_linear" x1="384.293" y1="33.2723" x2="749.899" y2="39.5233" gradientUnits="userSpaceOnUse">
<stop stop-color="#3DB0F0"/>
<stop offset="0.857362" stop-color="#1DA3EF" stop-opacity="0"/>
</linearGradient>
<clipPath id="clip0">
<rect width="800" height="429.268" fill="white"/>
</clipPath>
</defs>
</svg>
