<svg width="800" height="430" viewBox="0 0 800 430" fill="none" xmlns="http://www.w3.org/2000/svg">
<g clip-path="url(#clip0)">
<circle opacity="0.3" cx="257.84" cy="350.262" r="274.915" transform="rotate(-157.636 257.84 350.262)" fill="url(#paint0_linear)"/>
<path fill-rule="evenodd" clip-rule="evenodd" d="M311.114 269.161C297.145 326.665 306.063 482.862 360.645 496.122C397.889 505.169 446.771 445.326 478.505 388.125C486.136 374.37 498.656 363.818 513.85 359.747L563.216 346.52C578.41 342.449 594.528 345.327 608.014 353.423C664.098 387.094 736.352 414.478 764.083 388.022C804.722 349.247 734.347 209.517 693.497 166.702C652.647 123.883 586.586 120.607 545.945 159.378C540.043 165.011 535.001 171.221 530.819 177.852C523.149 190.016 512.608 200.819 498.718 204.54C484.827 208.262 470.297 204.178 457.573 197.478C450.636 193.826 443.164 190.969 435.236 189.043C380.654 175.786 325.082 211.654 311.114 269.161ZM402.393 246.072C390.572 249.239 383.557 261.39 386.724 273.211L389.274 282.726L379.761 285.275C367.94 288.442 360.924 300.593 364.092 312.414C367.259 324.235 379.41 331.251 391.231 328.083L400.744 325.534L403.293 335.046C406.46 346.867 418.611 353.882 430.432 350.715C442.254 347.547 449.269 335.396 446.101 323.575L443.553 314.064L453.066 311.515C464.887 308.347 471.902 296.196 468.735 284.375C465.567 272.554 453.417 265.539 441.595 268.706L432.082 271.255L429.533 261.741C426.365 249.919 414.215 242.904 402.393 246.072ZM659.756 207.697C662.923 219.518 655.908 231.669 644.087 234.836C632.265 238.004 620.115 230.988 616.947 219.167C613.78 207.346 620.795 195.195 632.616 192.028C644.437 188.86 656.588 195.875 659.756 207.697ZM612.193 220.442C615.361 232.263 608.346 244.414 596.524 247.582C584.703 250.749 572.552 243.734 569.385 231.913C566.217 220.091 573.233 207.941 585.054 204.773C596.875 201.606 609.026 208.621 612.193 220.442ZM609.267 295.145C621.088 291.977 628.103 279.826 624.936 268.005C621.768 256.184 609.617 249.169 597.796 252.336C585.975 255.504 578.96 267.654 582.127 279.476C585.295 291.297 597.445 298.312 609.267 295.145ZM672.501 255.26C675.669 267.081 668.653 279.232 656.832 282.399C645.011 285.567 632.86 278.552 629.693 266.73C626.525 254.909 633.54 242.758 645.362 239.591C657.183 236.423 669.334 243.439 672.501 255.26Z" fill="url(#paint1_radial)"/>
<path fill-rule="evenodd" clip-rule="evenodd" d="M311.114 269.161C297.145 326.665 306.063 482.862 360.645 496.122C397.889 505.169 446.771 445.326 478.505 388.125C486.136 374.37 498.656 363.818 513.85 359.747L563.216 346.52C578.41 342.449 594.528 345.327 608.014 353.423C664.098 387.094 736.352 414.478 764.083 388.022C804.722 349.247 734.347 209.517 693.497 166.702C652.647 123.883 586.586 120.607 545.945 159.378C540.043 165.011 535.001 171.221 530.819 177.852C523.149 190.016 512.608 200.819 498.718 204.54C484.827 208.262 470.297 204.178 457.573 197.478C450.636 193.826 443.164 190.969 435.236 189.043C380.654 175.786 325.082 211.654 311.114 269.161ZM402.393 246.072C390.572 249.239 383.557 261.39 386.724 273.211L389.274 282.726L379.761 285.275C367.94 288.442 360.924 300.593 364.092 312.414C367.259 324.235 379.41 331.251 391.231 328.083L400.744 325.534L403.293 335.046C406.46 346.867 418.611 353.882 430.432 350.715C442.254 347.547 449.269 335.396 446.101 323.575L443.553 314.064L453.066 311.515C464.887 308.347 471.902 296.196 468.735 284.375C465.567 272.554 453.417 265.539 441.595 268.706L432.082 271.255L429.533 261.741C426.365 249.919 414.215 242.904 402.393 246.072ZM659.756 207.697C662.923 219.518 655.908 231.669 644.087 234.836C632.265 238.004 620.115 230.988 616.947 219.167C613.78 207.346 620.795 195.195 632.616 192.028C644.437 188.86 656.588 195.875 659.756 207.697ZM612.193 220.442C615.361 232.263 608.346 244.414 596.524 247.582C584.703 250.749 572.552 243.734 569.385 231.913C566.217 220.091 573.233 207.941 585.054 204.773C596.875 201.606 609.026 208.621 612.193 220.442ZM609.267 295.145C621.088 291.977 628.103 279.826 624.936 268.005C621.768 256.184 609.617 249.169 597.796 252.336C585.975 255.504 578.96 267.654 582.127 279.476C585.295 291.297 597.445 298.312 609.267 295.145ZM672.501 255.26C675.669 267.081 668.653 279.232 656.832 282.399C645.011 285.567 632.86 278.552 629.693 266.73C626.525 254.909 633.54 242.758 645.362 239.591C657.183 236.423 669.334 243.439 672.501 255.26Z" fill="url(#paint2_radial)"/>
<circle cx="491.5" cy="83.5" r="33.5" fill="url(#paint3_linear)"/>
<circle cx="259.5" cy="172.5" r="22.5" fill="url(#paint4_linear)"/>
<circle cx="178.5" cy="384.221" r="65.5" transform="rotate(-15 178.5 384.221)" fill="url(#paint5_linear)"/>
</g>
<defs>
<linearGradient id="paint0_linear" x1="257.84" y1="75.3472" x2="257.84" y2="625.177" gradientUnits="userSpaceOnUse">
<stop stop-color="#4CD964"/>
<stop offset="1" stop-color="#4CD964" stop-opacity="0"/>
</linearGradient>
<radialGradient id="paint1_radial" cx="0" cy="0" r="1" gradientUnits="userSpaceOnUse" gradientTransform="translate(387 442) rotate(-95.0199) scale(371.425)">
<stop stop-color="#3DB0F0"/>
<stop offset="0.782422" stop-color="#1DA3EF" stop-opacity="0"/>
</radialGradient>
<radialGradient id="paint2_radial" cx="0" cy="0" r="1" gradientUnits="userSpaceOnUse" gradientTransform="translate(785 330.5) rotate(-163.257) scale(637.477)">
<stop stop-color="#3DF0B0"/>
<stop offset="0.502144" stop-color="#1DEFA3" stop-opacity="0"/>
</radialGradient>
<linearGradient id="paint3_linear" x1="678" y1="190" x2="394" y2="50" gradientUnits="userSpaceOnUse">
<stop offset="0.380595" stop-color="#3DF0B0"/>
<stop offset="0.779884" stop-color="#1DEFA3" stop-opacity="0"/>
</linearGradient>
<linearGradient id="paint4_linear" x1="259" y1="217.5" x2="205.688" y2="132.226" gradientUnits="userSpaceOnUse">
<stop stop-color="#3DB0F0"/>
<stop offset="0.653156" stop-color="#1DA3EF" stop-opacity="0"/>
</linearGradient>
<linearGradient id="paint5_linear" x1="207.111" y1="672.173" x2="-20.7916" y2="290.152" gradientUnits="userSpaceOnUse">
<stop offset="0.359755" stop-color="#3DB0F0"/>
<stop offset="0.779583" stop-color="#1DA3EF" stop-opacity="0"/>
</linearGradient>
<clipPath id="clip0">
<rect width="800" height="429.268" fill="white"/>
</clipPath>
</defs>
</svg>
