<svg width="800" height="430" viewBox="0 0 800 430" fill="none" xmlns="http://www.w3.org/2000/svg">
<g clip-path="url(#clip0)">
<circle opacity="0.3" cx="257.84" cy="350.262" r="274.915" transform="rotate(-157.636 257.84 350.262)" fill="url(#paint0_linear)"/>
<path fill-rule="evenodd" clip-rule="evenodd" d="M759.061 391.462C763.488 362.683 765.784 333.2 765.784 303.182C765.784 301.16 765.774 299.14 765.753 297.123C765.08 295.055 764.38 292.978 763.655 290.896C763.741 294.981 763.784 299.076 763.784 303.182C763.784 333.664 761.408 363.592 756.831 392.789C757.595 392.372 758.339 391.93 759.061 391.462ZM770.775 378.16C772.629 363.648 773.952 348.971 774.724 334.147C775.342 338.488 775.754 342.699 775.938 346.75C775.358 354.672 774.62 362.55 773.729 370.381C772.953 373.149 771.973 375.748 770.775 378.16ZM746.323 396.719C751.398 366.295 754.039 335.047 754.039 303.182C754.039 289.668 753.564 276.264 752.63 262.988C751.839 261.187 751.035 259.39 750.218 257.598C751.425 272.634 752.039 287.836 752.039 303.182C752.039 335.207 749.362 366.607 744.219 397.17C744.93 397.032 745.631 396.882 746.323 396.719ZM734.145 398.263C739.503 367.373 742.295 335.604 742.295 303.182C742.295 279.211 740.769 255.597 737.808 232.432C736.922 230.763 736.029 229.106 735.131 227.464C738.536 252.216 740.295 277.494 740.295 303.182C740.295 335.622 737.489 367.407 732.107 398.307C732.792 398.301 733.472 398.286 734.145 398.263ZM722.063 397.85C727.493 367.112 730.325 335.478 730.325 303.182C730.325 269.21 727.191 235.97 721.197 203.735C720.23 202.204 719.263 200.697 718.298 199.216C724.877 232.855 728.325 267.616 728.325 303.182C728.325 335.408 725.494 366.973 720.069 397.642C720.737 397.718 721.402 397.787 722.063 397.85ZM710.429 396.187C715.786 365.993 718.581 334.914 718.581 303.182C718.581 260.361 713.491 218.73 703.884 178.858C702.883 177.573 701.89 176.328 700.909 175.125C711.146 216.12 716.581 259.016 716.581 303.182C716.581 334.784 713.798 365.736 708.465 395.807C709.122 395.939 709.777 396.065 710.429 396.187ZM698.953 393.624C704.134 364.257 706.836 334.035 706.836 303.182C706.836 253.557 699.846 205.565 686.795 160.136C685.877 159.314 684.949 158.51 684.011 157.723C697.565 203.851 704.836 252.667 704.836 303.182C704.836 333.859 702.154 363.91 697.012 393.113C697.661 393.287 698.308 393.457 698.953 393.624ZM687.383 390.29C692.302 361.992 694.866 332.887 694.866 303.182C694.866 249.068 686.356 196.942 670.602 148.069C669.739 147.54 668.87 147.023 667.996 146.52C684.137 195.824 692.866 248.484 692.866 303.182C692.866 332.673 690.328 361.572 685.46 389.672C686.102 389.881 686.743 390.087 687.383 390.29ZM676.126 386.438C680.726 359.373 683.122 331.557 683.122 303.182C683.122 246.143 673.442 191.365 655.636 140.4C654.815 140.056 653.991 139.722 653.164 139.399C671.27 190.627 681.122 245.754 681.122 303.182C681.122 331.313 678.758 358.892 674.217 385.731C674.855 385.969 675.491 386.205 676.126 386.438ZM664.944 382.092C669.176 356.416 671.377 330.056 671.377 303.182C671.377 292.444 671.026 281.788 670.334 271.225C669.798 272.215 669.188 273.164 668.508 274.062C669.085 283.695 669.377 293.404 669.377 303.182C669.377 329.785 667.211 355.882 663.046 381.307C663.679 381.571 664.312 381.833 664.944 382.092ZM653.819 377.306C657.646 353.161 659.633 328.403 659.633 303.182C659.633 295.826 659.464 288.509 659.129 281.235C658.489 281.492 657.832 281.721 657.158 281.921C657.473 288.969 657.633 296.057 657.633 303.182C657.633 328.108 655.684 352.578 651.929 376.449C652.559 376.737 653.189 377.022 653.819 377.306ZM625.57 132.618C626.321 132.7 627.072 132.789 627.822 132.887C635.341 152.215 641.618 172.163 646.554 192.633C645.82 192.33 645.069 192.065 644.304 191.841C639.35 171.549 633.073 151.776 625.57 132.618ZM642.524 372.009C645.908 349.559 647.663 326.576 647.663 303.182C647.663 296.266 647.509 289.386 647.206 282.544C646.523 282.43 645.849 282.285 645.184 282.109C645.502 289.093 645.663 296.119 645.663 303.182C645.663 326.257 643.948 348.931 640.64 371.085C641.268 371.394 641.896 371.703 642.524 372.009ZM612.441 132.015C613.158 132.003 613.875 131.998 614.593 132.001C622.327 151.176 628.8 170.996 633.91 191.356C633.394 191.456 632.879 191.575 632.363 191.713C632.23 191.749 632.097 191.785 631.965 191.824C626.813 171.3 620.269 151.328 612.441 132.015ZM631.471 366.421C634.402 345.763 635.918 324.649 635.918 303.182C635.918 294.157 635.65 285.194 635.122 276.301C634.343 275.519 633.62 274.675 632.96 273.775C633.595 283.495 633.918 293.301 633.918 303.182C633.918 324.309 632.443 345.091 629.59 365.431C630.216 365.762 630.843 366.092 631.471 366.421ZM600.13 132.959C600.815 132.865 601.501 132.778 602.187 132.697C610.72 153.317 617.752 174.716 623.146 196.757C622.565 197.289 622.015 197.85 621.496 198.437C616.045 175.891 608.875 154.016 600.13 132.959ZM620.433 360.449C622.9 341.71 624.174 322.595 624.174 303.182C624.174 296.113 624.005 289.084 623.671 282.098C623.157 283.305 622.538 284.463 621.821 285.559C622.056 291.404 622.174 297.279 622.174 303.182C622.174 322.232 620.942 340.994 618.553 359.394C619.178 359.747 619.805 360.098 620.433 360.449ZM588.373 135.294C589.026 135.123 589.68 134.959 590.336 134.802C607.053 174.523 618.034 217.252 622.243 261.952C621.559 260.821 620.782 259.764 619.923 258.789C615.499 215.405 604.661 173.919 588.373 135.294ZM609.396 354.085C611.399 337.397 612.429 320.41 612.429 303.182C612.429 299.999 612.394 296.824 612.324 293.658C611.681 293.945 611.02 294.203 610.34 294.43C610.4 297.34 610.429 300.258 610.429 303.182C610.429 320.025 609.44 336.636 607.515 352.961C607.597 353.01 607.679 353.059 607.762 353.108C608.305 353.434 608.849 353.76 609.396 354.085ZM577.164 138.949C577.785 138.705 578.408 138.467 579.034 138.235C588.314 160.11 595.805 182.928 601.322 206.505C600.572 206.087 599.797 205.712 599.002 205.383C593.542 182.454 586.206 160.252 577.164 138.949ZM598.005 348.341C599.627 333.511 600.459 318.444 600.459 303.182C600.459 300.583 600.435 297.989 600.387 295.401C599.71 295.312 599.04 295.191 598.38 295.041C598.432 297.748 598.459 300.462 598.459 303.182C598.459 318.202 597.649 333.033 596.07 347.634C596.718 347.859 597.363 348.094 598.005 348.341ZM566.307 144.016C566.896 143.696 567.487 143.382 568.081 143.075C576.351 162.593 583.155 182.883 588.355 203.808C587.693 203.874 587.03 203.97 586.366 204.098C581.212 183.402 574.481 163.33 566.307 144.016ZM586.53 345.181C587.975 331.379 588.715 317.367 588.715 303.182C588.715 298.751 588.643 294.336 588.499 289.94C587.763 289.282 587.069 288.574 586.423 287.818C586.617 292.916 586.715 298.037 586.715 303.182C586.715 317.264 585.981 331.176 584.551 344.879C585.212 344.969 585.872 345.069 586.53 345.181ZM556.222 150.339C556.778 149.941 557.337 149.549 557.899 149.164C565.832 168.104 572.346 187.786 577.309 208.077C576.712 208.521 576.14 208.994 575.594 209.493C570.664 189.116 564.161 169.353 556.222 150.339ZM574.801 344.414C576.235 330.866 576.97 317.11 576.97 303.182C576.97 280.587 575.035 258.445 571.321 236.911C570.385 235.279 569.642 233.501 569.132 231.598C568.33 228.606 568.181 225.592 568.597 222.709C563.774 199.89 556.941 177.813 548.292 156.671C547.763 157.141 547.237 157.618 546.715 158.102C564.933 202.88 574.97 251.859 574.97 303.182C574.97 317.151 574.227 330.947 572.777 344.532C573.452 344.48 574.126 344.441 574.801 344.414ZM562.782 346.253C564.397 332.12 565.226 317.748 565.226 303.182C565.226 254.684 556.031 208.334 539.29 165.78C538.792 166.354 538.303 166.933 537.821 167.516C554.224 209.568 563.226 255.324 563.226 303.182C563.226 317.94 562.37 332.499 560.705 346.81L562.782 346.253ZM550.321 349.593C552.257 334.395 553.256 318.905 553.256 303.182C553.256 258.872 545.328 216.414 530.812 177.149C530.73 177.279 530.648 177.408 530.567 177.537C530.203 178.114 529.833 178.688 529.456 179.258C543.56 217.911 551.256 259.648 551.256 303.182C551.256 319.1 550.227 334.778 548.232 350.152L550.321 349.593ZM538.027 352.887C540.323 336.649 541.511 320.054 541.511 303.182C541.511 263.031 534.784 224.451 522.395 188.508C521.891 189.076 521.377 189.635 520.855 190.184C532.949 225.631 539.511 263.64 539.511 303.182C539.511 320.251 538.289 337.035 535.926 353.45L538.027 352.887ZM525.658 356.201C528.363 338.925 529.767 321.217 529.767 303.182C529.767 266.174 523.854 230.548 512.923 197.195C512.359 197.605 511.787 198.003 511.208 198.388C521.956 231.38 527.767 266.603 527.767 303.182C527.767 321.417 526.323 339.315 523.543 356.768L525.658 356.201ZM513.203 359.54C516.371 341.229 518.023 322.398 518.023 303.182C518.023 268.222 512.557 234.539 502.435 202.94C501.813 203.177 501.184 203.399 500.548 203.607C510.597 234.997 516.023 268.456 516.023 303.182C516.023 322.625 514.322 341.672 511.061 360.18C511.769 359.952 512.483 359.739 513.203 359.54ZM499.978 365.181C503.963 345.132 506.052 324.401 506.052 303.182C506.052 269.102 500.662 236.28 490.688 205.524C489.998 205.573 489.307 205.606 488.617 205.623C498.636 236.335 504.052 269.126 504.052 303.182C504.052 324.922 501.845 346.147 497.642 366.644C498.409 366.138 499.187 365.65 499.978 365.181ZM485.08 377.88C491.107 353.979 494.308 328.955 494.308 303.182C494.308 268.724 488.585 235.603 478.038 204.716C477.277 204.572 476.516 204.412 475.758 204.237C486.483 235.241 492.308 268.531 492.308 303.182C492.308 330.416 488.71 356.81 481.962 381.914C482.948 380.524 483.988 379.178 485.08 377.88ZM457.742 421.346C473.701 385.206 482.564 345.229 482.564 303.182C482.564 266.995 475.999 232.341 463.996 200.346C463.131 199.978 462.273 199.595 461.421 199.198C473.788 231.487 480.564 266.543 480.564 303.182C480.564 349.033 469.952 392.405 451.051 430.977C453.317 427.816 455.549 424.601 457.742 421.346ZM411.469 475.944C448.66 428.283 470.819 368.32 470.819 303.182C470.819 264.09 462.838 226.862 448.417 193.039C447.553 192.691 446.682 192.354 445.804 192.03C458.032 220.158 465.761 250.694 468.081 282.73C468.227 283.166 468.361 283.61 468.482 284.06C469.447 287.663 469.467 291.297 468.693 294.698C468.777 297.515 468.819 300.344 468.819 303.182C468.819 371.189 444.492 433.515 404.065 481.931C406.531 480.079 409 478.079 411.469 475.944ZM378.055 495.416C426.712 447.75 457.348 381.759 458.795 308.61C458.145 309.015 457.469 309.388 456.77 309.727C455.008 383.004 423.734 448.969 374.379 496.191C375.597 495.989 376.822 495.73 378.055 495.416ZM360.41 495.812C405.457 455.875 436.395 400.38 444.803 337.747C444.096 339.388 443.194 340.94 442.117 342.366C432.786 402.953 402.158 456.514 358.12 495.165C358.868 495.407 359.626 495.621 360.393 495.807C360.398 495.809 360.404 495.81 360.41 495.812ZM416.733 186.087C417.506 186.124 418.28 186.171 419.055 186.228C431.871 211.305 440.695 238.763 444.687 267.762C444.029 267.835 443.37 267.937 442.71 268.07C438.696 238.879 429.747 211.262 416.733 186.087ZM348.72 490.407C390.364 455.016 420.049 405.978 430.863 350.205C430.637 350.273 430.409 350.338 430.18 350.4C429.694 350.53 429.207 350.643 428.72 350.739C417.817 405.836 388.333 454.252 347.071 489.184C347.615 489.608 348.165 490.016 348.72 490.407ZM403.565 186.345C404.293 186.281 405.022 186.226 405.752 186.178C419.706 211.884 429.206 240.36 433.214 270.569L431.83 270.94L430.586 266.301C426.245 237.714 416.935 210.76 403.565 186.345ZM340.004 482.396C379.619 449.15 408.051 403.011 418.839 350.438C418.189 350.268 417.549 350.068 416.919 349.84C406.253 402.044 378.044 447.861 338.719 480.864C339.143 481.386 339.571 481.897 340.004 482.396ZM391.166 188.242C391.85 188.092 392.536 187.95 393.224 187.814C403.618 206.104 411.616 225.933 416.792 246.874C416.051 246.547 415.291 246.261 414.515 246.017C409.322 225.536 401.403 206.141 391.166 188.242ZM332.966 472.673C371.269 440.278 398.443 395.133 407.939 343.788C407.348 343.13 406.795 342.434 406.283 341.702C397.186 393.184 370.178 438.484 331.925 470.934C332.268 471.522 332.615 472.102 332.966 472.673ZM379.288 191.629C379.93 191.402 380.574 191.182 381.221 190.969C391.106 207.799 398.836 226.048 404.03 245.337C403.4 245.448 402.77 245.588 402.141 245.757C402.119 245.763 402.098 245.768 402.076 245.774C396.892 226.556 389.169 208.38 379.288 191.629ZM327.298 462.066C366.44 428.153 392.923 380.017 398.709 325.697L396.637 326.252C390.761 379.537 364.772 426.762 326.429 460.171C326.715 460.809 327.005 461.44 327.298 462.066ZM368.353 196.223C368.955 195.928 369.559 195.639 370.166 195.356C380.335 212.334 388.175 230.866 393.246 250.511C392.666 251.022 392.114 251.561 391.593 252.126C386.567 232.193 378.664 213.402 368.353 196.223ZM322.534 450.603C356.923 419.611 380.413 376.758 386.558 328.489C385.881 328.53 385.207 328.539 384.538 328.518C378.435 375.903 355.444 417.997 321.797 448.572C322.04 449.254 322.285 449.931 322.534 450.603ZM358.11 201.982C358.673 201.623 359.238 201.269 359.806 200.921C374.512 225.322 384.114 253.147 387.134 282.916L385.177 283.441C382.225 253.863 372.71 226.218 358.11 201.982ZM318.477 438.352C348.978 409.299 369.658 370.028 375.028 326.029C374.383 325.693 373.755 325.326 373.145 324.93C368.04 368.442 347.807 407.328 317.847 436.186C318.055 436.912 318.265 437.634 318.477 438.352ZM348.545 208.872C349.069 208.449 349.596 208.031 350.126 207.619C364.113 231.039 373.114 257.78 375.666 286.377C375.006 286.692 374.366 287.038 373.748 287.413C371.336 258.893 362.442 232.22 348.545 208.872ZM314.939 425.019C343.402 395.78 361.709 356.604 364.16 313.188C364.045 312.83 363.938 312.467 363.839 312.099C362.623 307.56 362.908 302.973 364.39 298.864C363.655 268.579 355.213 240.206 340.95 215.629C340.457 216.111 339.969 216.598 339.484 217.09C354.088 242.433 362.442 271.832 362.442 303.182C362.442 349.564 344.156 391.675 314.399 422.699C314.576 423.475 314.756 424.249 314.939 425.019ZM311.964 410.957C337.315 382.234 352.698 344.505 352.698 303.182C352.698 274.754 345.418 248.027 332.62 224.762C332.164 225.323 331.713 225.889 331.268 226.459C343.659 249.266 350.698 275.402 350.698 303.182C350.698 343.43 335.923 380.227 311.502 408.446C311.653 409.286 311.807 410.123 311.964 410.957ZM309.429 395.6C329.193 370.045 340.953 337.987 340.953 303.182C340.953 278.824 335.193 255.811 324.961 235.432C324.542 236.096 324.13 236.765 323.725 237.439C333.477 257.273 338.953 279.588 338.953 303.182C338.953 336.82 327.821 367.859 309.039 392.813C309.166 393.744 309.296 394.673 309.429 395.6ZM307.314 378.228C321.174 356.562 329.209 330.81 329.209 303.182C329.209 283.694 325.211 265.14 317.992 248.294C317.61 249.124 317.239 249.96 316.876 250.803C323.535 266.946 327.209 284.635 327.209 303.182C327.209 329.491 319.817 354.074 306.997 374.966C307.099 376.054 307.204 377.141 307.314 378.228ZM305.645 356.374C313.088 340.185 317.239 322.168 317.239 303.182C317.239 290.159 315.286 277.592 311.657 265.758C311.379 266.78 311.113 267.81 310.861 268.846C310.803 269.087 310.745 269.33 310.687 269.574C313.654 280.27 315.239 291.541 315.239 303.182C315.239 320.459 311.747 336.92 305.431 351.899C305.495 353.387 305.566 354.879 305.645 356.374ZM444.638 318.743C444.747 316.94 444.836 315.131 444.907 313.318L446.929 312.776C446.781 316.816 446.54 320.831 446.208 324.82C446.107 324.3 445.988 323.78 445.849 323.26L444.638 318.743ZM454.679 268.979C451.005 240.237 442.763 212.923 430.704 187.789C431.524 187.95 432.345 188.122 433.165 188.304C445.118 213.586 453.248 241.029 456.809 269.887C456.116 269.548 455.406 269.245 454.679 268.979ZM582.712 246.597C583.42 251.558 584.037 256.548 584.559 261.566C585.09 260.729 585.676 259.927 586.314 259.166C585.877 255.185 585.382 251.223 584.829 247.278C584.111 247.086 583.405 246.858 582.712 246.597ZM594.715 247.625C594.945 249.321 595.165 251.02 595.375 252.722C596.004 252.482 596.65 252.269 597.311 252.085C597.107 250.439 596.893 248.796 596.67 247.156C596.538 247.194 596.405 247.231 596.272 247.267C595.753 247.406 595.234 247.525 594.715 247.625ZM605.978 241.762C606.457 245.039 606.899 248.328 607.302 251.629C608.003 251.759 608.695 251.923 609.376 252.118C608.882 248.014 608.329 243.927 607.718 239.859C607.176 240.525 606.596 241.16 605.978 241.762ZM628.412 233.048C629.358 239.007 630.184 245.006 630.89 251.042C631.374 250.042 631.932 249.079 632.559 248.162C631.974 243.406 631.315 238.673 630.581 233.964C629.842 233.697 629.118 233.391 628.412 233.048ZM640.619 235.136C640.892 236.963 641.155 238.793 641.406 240.627C642.025 240.337 642.663 240.073 643.317 239.837C643.085 238.161 642.844 236.487 642.593 234.816C641.935 234.953 641.276 235.06 640.619 235.136ZM652.002 230.379C652.431 233.126 652.837 235.88 653.218 238.643C653.913 238.718 654.601 238.825 655.281 238.965C654.816 235.559 654.314 232.165 653.776 228.783C653.216 229.345 652.624 229.878 652.002 230.379ZM665.802 244.327C661.152 206.32 652.055 169.687 639.048 134.964C639.835 135.153 640.621 135.352 641.405 135.559C654.514 170.865 663.601 208.124 668.11 246.782C667.401 245.902 666.629 245.082 665.802 244.327Z" fill="#5AC8FA"/>
<path fill-rule="evenodd" clip-rule="evenodd" d="M311.114 269.162C297.145 326.665 306.063 482.862 360.645 496.123C397.889 505.169 446.771 445.327 478.505 388.125C486.136 374.371 498.656 363.819 513.85 359.748L563.216 346.52C578.41 342.449 594.528 345.327 608.014 353.423C664.098 387.094 736.352 414.479 764.083 388.022C804.722 349.247 734.347 209.517 693.497 166.702C652.647 123.883 586.586 120.608 545.945 159.379C540.043 165.012 535.001 171.221 530.819 177.852C523.149 190.017 512.608 200.819 498.718 204.541C484.827 208.263 470.297 204.178 457.573 197.479C450.636 193.827 443.164 190.97 435.236 189.043C380.654 175.787 325.082 211.654 311.114 269.162ZM402.393 246.072C390.572 249.24 383.557 261.39 386.724 273.212L389.274 282.726L379.761 285.275C367.94 288.443 360.924 300.593 364.092 312.415C367.259 324.236 379.41 331.251 391.231 328.084L400.744 325.535L403.293 335.046C406.46 346.867 418.611 353.883 430.432 350.715C442.254 347.548 449.269 335.397 446.101 323.576L443.553 314.064L453.066 311.515C464.887 308.348 471.902 296.197 468.735 284.376C465.567 272.554 453.417 265.539 441.595 268.707L432.082 271.256L429.533 261.741C426.365 249.92 414.215 242.905 402.393 246.072ZM659.756 207.697C662.923 219.518 655.908 231.669 644.087 234.837C632.265 238.004 620.115 230.989 616.947 219.168C613.78 207.346 620.795 195.196 632.616 192.028C644.437 188.861 656.588 195.876 659.756 207.697ZM612.193 220.443C615.361 232.264 608.346 244.415 596.524 247.582C584.703 250.75 572.552 243.734 569.385 231.913C566.217 220.092 573.233 207.941 585.054 204.774C596.875 201.606 609.026 208.621 612.193 220.443ZM609.267 295.145C621.088 291.978 628.103 279.827 624.936 268.006C621.768 256.184 609.617 249.169 597.796 252.337C585.975 255.504 578.96 267.655 582.127 279.476C585.295 291.297 597.445 298.313 609.267 295.145ZM672.501 255.26C675.669 267.082 668.653 279.232 656.832 282.4C645.011 285.567 632.86 278.552 629.693 266.731C626.525 254.91 633.54 242.759 645.362 239.591C657.183 236.424 669.334 243.439 672.501 255.26Z" fill="url(#paint1_radial)"/>
<path fill-rule="evenodd" clip-rule="evenodd" d="M311.114 269.162C297.145 326.665 306.063 482.862 360.645 496.123C397.889 505.169 446.771 445.327 478.505 388.125C486.136 374.371 498.656 363.819 513.85 359.748L563.216 346.52C578.41 342.449 594.528 345.327 608.014 353.423C664.098 387.094 736.352 414.479 764.083 388.022C804.722 349.247 734.347 209.517 693.497 166.702C652.647 123.883 586.586 120.608 545.945 159.379C540.043 165.012 535.001 171.221 530.819 177.852C523.149 190.017 512.608 200.819 498.718 204.541C484.827 208.263 470.297 204.178 457.573 197.479C450.636 193.827 443.164 190.97 435.236 189.043C380.654 175.787 325.082 211.654 311.114 269.162ZM402.393 246.072C390.572 249.24 383.557 261.39 386.724 273.212L389.274 282.726L379.761 285.275C367.94 288.443 360.924 300.593 364.092 312.415C367.259 324.236 379.41 331.251 391.231 328.084L400.744 325.535L403.293 335.046C406.46 346.867 418.611 353.883 430.432 350.715C442.254 347.548 449.269 335.397 446.101 323.576L443.553 314.064L453.066 311.515C464.887 308.348 471.902 296.197 468.735 284.376C465.567 272.554 453.417 265.539 441.595 268.707L432.082 271.256L429.533 261.741C426.365 249.92 414.215 242.905 402.393 246.072ZM659.756 207.697C662.923 219.518 655.908 231.669 644.087 234.837C632.265 238.004 620.115 230.989 616.947 219.168C613.78 207.346 620.795 195.196 632.616 192.028C644.437 188.861 656.588 195.876 659.756 207.697ZM612.193 220.443C615.361 232.264 608.346 244.415 596.524 247.582C584.703 250.75 572.552 243.734 569.385 231.913C566.217 220.092 573.233 207.941 585.054 204.774C596.875 201.606 609.026 208.621 612.193 220.443ZM609.267 295.145C621.088 291.978 628.103 279.827 624.936 268.006C621.768 256.184 609.617 249.169 597.796 252.337C585.975 255.504 578.96 267.655 582.127 279.476C585.295 291.297 597.445 298.313 609.267 295.145ZM672.501 255.26C675.669 267.082 668.653 279.232 656.832 282.4C645.011 285.567 632.86 278.552 629.693 266.731C626.525 254.91 633.54 242.759 645.362 239.591C657.183 236.424 669.334 243.439 672.501 255.26Z" fill="url(#paint2_radial)"/>
<circle cx="491.5" cy="83.5" r="33.5" fill="url(#paint3_linear)"/>
<circle cx="259.5" cy="172.5" r="22.5" fill="url(#paint4_linear)"/>
<circle cx="178.5" cy="384.221" r="65.5" transform="rotate(-15 178.5 384.221)" fill="url(#paint5_linear)"/>
<path fill-rule="evenodd" clip-rule="evenodd" d="M677.742 98.1002C698.512 87.6743 717.514 74.2453 734.179 58.3828C734.067 57.592 733.929 56.8003 733.767 56.0086C716.694 72.4467 697.108 86.2922 675.642 96.9116C676.329 97.3293 677.03 97.7257 677.742 98.1002ZM690.781 102.239C706.174 93.7179 720.546 83.579 733.668 72.0517C733.412 73.2185 733.103 74.37 732.743 75.5028C720.87 85.6816 708.015 94.7466 694.338 102.536C693.143 102.492 691.956 102.392 690.781 102.239ZM667.149 89.9353C690.671 78.8932 711.937 63.8431 730.069 45.6647C729.745 45.0495 729.405 44.4454 729.051 43.8528C710.864 62.1788 689.473 77.3194 665.787 88.3639C666.228 88.9008 666.682 89.4247 667.149 89.9353ZM660.575 80.0361C684.016 69.2707 705.135 54.3184 722.975 36.1368C722.498 35.6689 722.01 35.214 721.512 34.7724C703.86 52.7531 682.97 67.543 659.785 78.1973C660.034 78.8197 660.297 79.4328 660.575 80.0361ZM657.306 68.6017C678.234 58.7591 697.163 45.3667 713.316 29.2006C712.684 28.8801 712.044 28.5768 711.395 28.291C695.682 43.9039 677.342 56.8765 657.097 66.4878C657.147 67.1911 657.216 67.8959 657.306 68.6017ZM657.965 55.1925C673.529 47.2178 687.827 37.1212 700.477 25.2844C699.586 25.1755 698.689 25.0973 697.786 25.0508C686.041 35.8292 672.897 45.1069 658.657 52.5801C658.397 53.4409 658.165 54.3122 657.965 55.1925Z" fill="#5AC8FA"/>
<path fill-rule="evenodd" clip-rule="evenodd" d="M178.896 516.557C213.071 501.695 243.559 479.946 268.607 453.061C268.697 452.009 268.764 450.954 268.807 449.895C243.092 478.007 211.443 500.599 175.843 515.691C176.853 516.001 177.871 516.29 178.896 516.557ZM197.441 518.858C222.164 506.356 244.774 490.283 264.594 471.317C264.056 472.806 263.469 474.275 262.836 475.722C244.684 492.569 224.303 507.047 202.184 518.664C200.598 518.782 199.016 518.846 197.441 518.858ZM163.014 510.341C204.078 494.75 240.115 468.95 268.027 436.042C267.894 435.184 267.746 434.325 267.581 433.466C239.385 467.154 202.66 493.46 160.728 509.064C161.482 509.503 162.244 509.929 163.014 510.341ZM150.927 502.209C196.108 486.817 235.366 458.628 264.382 421.962C264.113 421.233 263.833 420.51 263.543 419.795C234.455 456.918 194.827 485.386 149.162 500.694C149.743 501.209 150.331 501.714 150.927 502.209ZM141.606 492.897C188.844 478.116 229.637 448.753 258.715 410.081C258.347 409.464 257.971 408.854 257.587 408.251C228.574 447.109 187.664 476.565 140.255 491.222C140.698 491.788 141.148 492.346 141.606 492.897ZM134.445 482.559C182.007 468.559 222.928 439.054 251.358 399.893C250.911 399.377 250.457 398.867 249.996 398.364C221.728 437.465 180.914 466.899 133.457 480.764C133.779 481.368 134.108 481.966 134.445 482.559ZM129.443 471.778C175.777 458.561 215.574 429.841 242.868 391.585C242.353 391.158 241.833 390.739 241.307 390.328C214.249 428.3 174.76 456.799 128.779 469.887C128.992 470.522 129.214 471.152 129.443 471.778ZM126.299 460.458C169.975 447.979 207.494 420.906 233.244 384.851C232.665 384.512 232.081 384.182 231.494 383.86C206.046 419.412 169.029 446.119 125.946 458.479C126.054 459.138 126.172 459.798 126.299 460.458ZM125.021 448.595C164.605 436.812 198.685 412.251 222.479 379.695C221.83 379.448 221.178 379.211 220.521 378.982C197.11 410.806 163.737 434.849 125.001 446.512C124.997 447.205 125.004 447.899 125.021 448.595ZM125.867 435.79C159.647 424.779 188.902 403.751 210.125 376.214C209.383 376.075 208.638 375.948 207.89 375.832C187.178 402.37 158.879 422.698 126.255 433.556C126.114 434.298 125.985 435.042 125.867 435.79ZM129.441 422.079C155.473 412.208 178.317 395.859 196.007 375C195.105 375.012 194.201 375.042 193.296 375.088C176.384 394.583 154.862 409.97 130.427 419.554C130.083 420.389 129.754 421.231 129.441 422.079ZM138.132 405.521C152.72 398.372 165.988 388.941 177.471 377.695C176.005 378.106 174.563 378.561 173.145 379.056C163.483 388.022 152.632 395.724 140.853 401.898C139.908 403.078 139 404.286 138.132 405.521Z" fill="#4CD964"/>
</g>
<defs>
<linearGradient id="paint0_linear" x1="257.84" y1="75.3472" x2="257.84" y2="625.177" gradientUnits="userSpaceOnUse">
<stop stop-color="#4CD964"/>
<stop offset="1" stop-color="#4CD964" stop-opacity="0"/>
</linearGradient>
<radialGradient id="paint1_radial" cx="0" cy="0" r="1" gradientUnits="userSpaceOnUse" gradientTransform="translate(387 442) rotate(-95.0199) scale(371.425)">
<stop stop-color="#3DB0F0"/>
<stop offset="0.782422" stop-color="#1DA3EF" stop-opacity="0"/>
</radialGradient>
<radialGradient id="paint2_radial" cx="0" cy="0" r="1" gradientUnits="userSpaceOnUse" gradientTransform="translate(785 330.5) rotate(-163.257) scale(637.477)">
<stop stop-color="#3DF0B0"/>
<stop offset="0.502144" stop-color="#1DEFA3" stop-opacity="0"/>
</radialGradient>
<linearGradient id="paint3_linear" x1="678" y1="190" x2="394" y2="50" gradientUnits="userSpaceOnUse">
<stop offset="0.380595" stop-color="#3DF0B0"/>
<stop offset="0.779884" stop-color="#1DEFA3" stop-opacity="0"/>
</linearGradient>
<linearGradient id="paint4_linear" x1="259" y1="217.5" x2="205.688" y2="132.226" gradientUnits="userSpaceOnUse">
<stop stop-color="#3DB0F0"/>
<stop offset="0.653156" stop-color="#1DA3EF" stop-opacity="0"/>
</linearGradient>
<linearGradient id="paint5_linear" x1="207.111" y1="672.173" x2="-20.7916" y2="290.152" gradientUnits="userSpaceOnUse">
<stop offset="0.359755" stop-color="#3DB0F0"/>
<stop offset="0.779583" stop-color="#1DA3EF" stop-opacity="0"/>
</linearGradient>
<clipPath id="clip0">
<rect width="800" height="429.268" fill="white"/>
</clipPath>
</defs>
</svg>
