<svg width="516" height="440" viewBox="0 0 516 440" fill="none" xmlns="http://www.w3.org/2000/svg">
<path fill-rule="evenodd" clip-rule="evenodd" d="M274.374 120.008C273.706 120.017 273.039 120.03 272.374 120.046V152.807L274.374 153.788V120.008ZM278.949 156.031V120C279.617 120.007 280.284 120.017 280.949 120.03V157.011L278.949 156.031ZM274.374 190.201L272.374 189.215V223.974H154.365C154.482 224.643 154.601 225.309 154.721 225.974H268.975L274.374 223.274V190.201ZM278.949 220.987V192.456L280.949 193.442V219.987L278.949 220.987ZM348.877 225.974H398.441C398.578 225.309 398.713 224.643 398.846 223.974H348.877V225.974ZM340.759 231.22H397.313C397.162 231.889 397.01 232.556 396.856 233.22H336.758L340.759 231.22ZM258.482 231.22H155.715C155.847 231.89 155.982 232.556 156.118 233.22H254.483L258.482 231.22ZM272.374 265.406L274.374 264.406V282.395L272.374 281.433V265.406ZM243.652 238.636L157.342 238.927C157.492 239.596 157.643 240.262 157.797 240.925L239.625 240.649L243.652 238.636ZM264.218 269.483L266.215 268.485L266.247 278.487L264.244 277.524L264.218 269.483ZM228.706 246.109L159.169 246.602C159.337 247.271 159.507 247.936 159.679 248.599L224.649 248.138L228.706 246.109ZM256.082 273.55L258.075 272.554L258.089 274.564L256.082 273.599L256.082 273.55ZM213.628 253.648L161.201 254.237C161.389 254.905 161.578 255.57 161.769 256.231L213.563 255.649L213.558 253.684L213.628 253.648ZM248.21 305.939L250.22 306.905L251.049 383.568C250.386 383.132 249.715 382.685 249.035 382.226L248.21 305.939ZM213.58 261.032L163.446 261.828C163.654 262.494 163.863 263.157 164.074 263.818L213.586 263.033L213.58 261.032ZM240.054 302.019L242.069 302.988L243.216 378.13C242.547 377.64 241.873 377.14 241.193 376.628L240.054 302.019ZM213.601 268.351L165.907 269.356C166.135 270.021 166.365 270.683 166.597 271.342L213.607 270.351L213.601 268.351ZM231.79 298.047L233.81 299.018L235.289 371.999C234.615 371.449 233.936 370.888 233.255 370.317L231.79 298.047ZM213.623 275.597L168.588 276.811C168.838 277.475 169.089 278.135 169.343 278.792L213.629 277.598L213.623 275.597ZM223.461 294.044L225.486 295.018L227.306 365.127C226.625 364.509 225.941 363.881 225.256 363.241L223.461 294.044ZM213.645 282.75L171.487 284.171C171.759 284.832 172.033 285.49 172.309 286.144L213.651 284.751L213.645 282.75ZM214.96 289.959L216.993 290.936L219.145 357.296C218.456 356.597 217.766 355.887 217.075 355.166L214.96 289.959ZM210.821 348.342L208.531 290.975L208.491 289.974L207.491 290.016L174.586 291.381C174.882 292.039 175.179 292.694 175.478 293.346L206.573 292.056L208.723 345.911C209.422 346.733 210.121 347.543 210.821 348.342ZM202.199 337.849L200.275 298.312L200.227 297.311L199.226 297.362L177.887 298.44C178.206 299.096 178.527 299.747 178.849 300.394L198.326 299.41L200.059 335.023C200.77 335.979 201.484 336.921 202.199 337.849ZM193.222 325.301L192.063 305.651L192.004 304.651L191.004 304.712L181.365 305.302C181.708 305.953 182.053 306.6 182.4 307.243L190.126 306.769L191.019 321.917C191.749 323.061 192.484 324.189 193.222 325.301ZM256.858 387.221L256.329 309.841L258.336 310.806L258.866 388.41C258.21 388.028 257.54 387.631 256.858 387.221ZM264.614 391.604C265.306 391.97 265.975 392.316 266.618 392.643L266.365 314.664L264.362 313.701L264.614 391.604ZM272.374 317.552V395.395C273.126 395.729 273.794 396.017 274.374 396.259V318.513L272.374 317.552ZM278.949 320.712V396.327C279.505 396.039 280.175 395.684 280.949 395.262V321.673L278.949 320.712ZM278.949 284.595V262.119L280.949 261.119V285.557L278.949 284.595ZM286.425 324.305L286.644 391.979C287.283 391.592 287.949 391.184 288.64 390.753L288.428 325.268L286.425 324.305ZM288.31 289.096L286.307 288.133L286.211 258.489L288.208 257.49L288.31 289.096ZM293.898 327.897L294.302 387.08C294.952 386.643 295.616 386.19 296.293 385.722L295.905 328.861L293.898 327.897ZM295.657 292.629L293.651 291.664L293.4 254.895L295.393 253.899L295.657 292.629ZM301.368 331.487L301.911 381.706C302.563 381.224 303.225 380.729 303.895 380.222L303.378 332.453L301.368 331.487ZM302.986 296.153L300.975 295.186L300.566 257.388L300.555 256.389L301.555 256.378L390.774 255.375C390.56 256.047 390.344 256.716 390.126 257.383L302.577 258.366L302.986 296.153ZM308.836 335.076L309.459 375.873C310.112 375.347 310.771 374.809 311.435 374.262L310.851 336.045L308.836 335.076ZM310.296 299.668L308.281 298.699L307.779 265.785L307.763 264.786L308.763 264.77L388.04 263.513C387.801 264.186 387.561 264.857 387.319 265.524L309.794 266.754L310.296 299.668ZM316.3 338.663L316.927 369.588C317.578 369.016 318.233 368.435 318.892 367.844L318.32 339.634L316.3 338.663ZM317.58 303.171L315.56 302.199L314.992 274.184L314.972 273.185L315.971 273.164L384.991 271.71C384.727 272.385 384.462 273.058 384.194 273.727L317.012 275.142L317.58 303.171ZM323.76 342.249L324.294 362.845C324.943 362.226 325.593 361.599 326.246 360.962L325.786 343.222L323.76 342.249ZM324.837 306.66L322.811 305.686L322.212 282.589L322.186 281.59L323.185 281.563L381.597 279.988C381.306 280.666 381.012 281.341 380.717 282.013L324.237 283.535L324.837 306.66ZM331.213 345.831L331.531 355.646C332.175 354.978 332.82 354.301 333.467 353.615L333.246 346.808L331.213 345.831ZM332.056 310.131L330.023 309.154L329.434 290.997L329.402 289.999L330.4 289.965L377.821 288.367C377.499 289.049 377.176 289.727 376.85 290.401L331.466 291.93L332.056 310.131ZM373.627 296.848L337.589 298.343L336.592 298.384L336.632 299.382L337.159 312.585L339.199 313.566L338.67 300.3L372.556 298.894C372.915 298.216 373.272 297.534 373.627 296.848ZM368.932 305.508L344.785 306.728L343.788 306.779L343.837 307.776L344.236 315.988L346.287 316.974L345.883 308.675L367.749 307.57C368.145 306.887 368.539 306.2 368.932 305.508ZM363.64 314.407L351.986 315.121L350.991 315.182L351.049 316.178L351.237 319.354L353.299 320.346L353.105 317.056L362.328 316.491C362.767 315.801 363.205 315.106 363.64 314.407ZM392.637 249.293C392.833 248.628 393.026 247.96 393.218 247.289L307.396 247.898L303.338 249.927L392.637 249.293ZM320.209 241.493L394.875 241.241C395.049 240.577 395.222 239.909 395.392 239.24L324.237 239.479L320.209 241.493ZM348.877 218.398L399.93 218.226C400.049 217.561 400.166 216.894 400.281 216.225L348.877 216.398V218.398ZM348.877 210.891L401.207 210.52C401.309 209.854 401.409 209.187 401.507 208.518L348.877 208.891V210.891ZM302.481 209.22L298.423 211.249L296.409 211.263L295.408 211.27L295.402 210.27L295.335 200.532L297.342 201.521L297.395 209.256L302.481 209.22ZM348.877 203.399L402.29 202.799C402.376 202.134 402.459 201.466 402.54 200.796L348.877 201.399V203.399ZM305.262 168.931L303.252 167.946L302.751 121.65C303.421 121.735 304.088 121.823 304.754 121.914L305.262 168.931ZM348.877 195.994L403.178 195.133C403.247 194.467 403.315 193.799 403.38 193.129L348.877 193.993V195.994ZM313.518 172.979L311.503 171.991L310.752 122.817C311.423 122.927 312.091 123.04 312.758 123.156L313.518 172.979ZM345.572 188.694L403.885 187.466C403.939 186.8 403.99 186.132 404.041 185.462L341.66 186.776L345.572 188.694ZM321.872 177.075L319.851 176.084L318.801 124.289C319.474 124.425 320.143 124.563 320.81 124.703L321.872 177.075ZM331.577 181.832L328.321 180.236L326.915 126.072C327.59 126.232 328.261 126.395 328.929 126.559L330.312 179.866L404.524 177.865C404.488 178.535 404.451 179.203 404.413 179.869L331.577 181.832ZM335.109 128.17L336.582 173.562L336.614 174.563L337.615 174.529L404.774 172.266C404.798 171.6 404.821 170.932 404.842 170.262L338.548 172.496L337.129 128.733C336.459 128.544 335.786 128.356 335.109 128.17ZM343.378 130.59L344.801 166.227L344.841 167.228L345.841 167.186L404.972 164.734C404.983 164.068 404.991 163.4 404.999 162.731L346.759 165.147L345.405 131.229C344.734 131.014 344.058 130.801 343.378 130.59ZM351.785 133.359L353.026 158.862L353.075 159.863L354.076 159.813L402.783 157.35C401.979 156.847 400.966 156.224 399.754 155.501L354.975 157.765L353.823 134.077C353.149 133.837 352.47 133.597 351.785 133.359ZM360.375 136.512L361.261 151.543L361.32 152.543L362.32 152.482L391.286 150.707C390.211 150.128 389.078 149.528 387.89 148.912L363.199 150.425L362.425 137.314C361.748 137.046 361.065 136.779 360.375 136.512ZM369.217 140.105L369.512 144.228L369.583 145.228L370.583 145.154L379.048 144.526C377.843 143.955 376.601 143.378 375.324 142.797L371.435 143.085L371.286 140.997C370.605 140.7 369.916 140.403 369.217 140.105ZM296.792 120.978L297.092 164.926L295.085 163.942L294.791 120.79C295.459 120.849 296.126 120.912 296.792 120.978ZM288.859 120.348C288.193 120.308 287.527 120.271 286.858 120.238L286.987 159.972L288.99 160.954L288.859 120.348ZM289.109 197.463L289.169 215.877L287.172 216.875L287.106 196.476L289.109 197.463ZM153.37 217.942L266.146 217.562L267.145 217.558L267.142 216.558L267.045 186.588L265.042 185.601L265.139 215.565L153.065 215.943C153.165 216.611 153.267 217.278 153.37 217.942ZM152.221 209.939L258.949 209.182L259.949 209.175L259.942 208.175L259.77 183.003L257.763 182.014L257.935 207.189L151.964 207.941C152.048 208.609 152.134 209.275 152.221 209.939ZM257.346 120.966C258.011 120.901 258.677 120.839 259.345 120.779L259.521 146.506L257.514 145.522L257.346 120.966ZM151.257 201.902L251.726 200.774L252.725 200.763L252.714 199.763L252.494 179.417L250.484 178.426L250.704 198.785L151.045 199.905C151.114 200.573 151.185 201.239 151.257 201.902ZM249.872 121.832C250.535 121.743 251.201 121.658 251.869 121.575L252.099 142.867L250.088 141.882L249.872 121.832ZM150.476 193.893L244.538 192.401L245.537 192.386L245.522 191.386L245.285 175.863L243.269 174.87L243.507 190.418L150.308 191.896C150.363 192.564 150.418 193.229 150.476 193.893ZM242.477 122.948C243.14 122.837 243.805 122.728 244.472 122.622L244.726 139.252L242.71 138.264L242.477 122.948ZM149.865 185.848L237.327 184.005L238.326 183.984L238.305 182.985L238.089 172.316L236.068 171.321L236.285 182.027L149.739 183.85C149.78 184.518 149.822 185.184 149.865 185.848ZM235.115 124.31C235.777 124.176 236.441 124.045 237.108 123.917L237.345 135.634L235.325 134.644L235.115 124.31ZM149.422 177.824L230.155 175.647L231.153 175.62L231.127 174.621L230.977 168.811L228.95 167.812L229.102 173.675L149.337 175.825C149.364 176.493 149.392 177.159 149.422 177.824ZM227.862 125.892C228.522 125.737 229.185 125.585 229.851 125.435L230.022 132.044L227.996 131.051L227.862 125.892ZM149.137 169.731L222.938 167.244L223.936 167.21L223.904 166.212L223.874 165.31L221.841 164.308L221.872 165.279L149.091 167.731C149.105 168.4 149.12 169.066 149.137 169.731ZM149.008 161.628L211.171 159.049L207.425 157.203L149 159.626C149.001 160.295 149.004 160.962 149.008 161.628ZM158.633 152.968L195.093 151.124L191.408 149.308L162.63 150.763C161.192 151.538 159.858 152.276 158.633 152.968ZM177.027 143.563L179.451 143.415L178.436 142.915C177.962 143.131 177.492 143.348 177.027 143.563ZM222.679 128.444L220.981 127.611C221.531 127.466 222.083 127.321 222.638 127.178L222.679 128.444ZM264.924 149.155L264.83 120.368C265.495 120.327 266.162 120.289 266.83 120.255L266.927 150.137L264.924 149.155Z" fill="#485597"/>
<path fill-rule="evenodd" clip-rule="evenodd" d="M256.336 273.541L350.311 227.443V190.846L220.859 128.569C237.987 124.113 257.231 121 277.569 121C349.127 121 407.137 159.536 407.137 159.536C407.137 232.374 385.428 285.272 359.783 322.351L256.336 273.541ZM339.036 348.419L213.453 289.195L213.345 253.785L308.617 207.039L177.796 143.769C159.188 152.105 148.001 159.536 148.001 159.536C148.001 352.217 277.569 396.42 277.569 396.42C277.569 396.42 307.786 382.675 339.036 348.419Z" fill="url(#paint0_radial)"/>
<path fill-rule="evenodd" clip-rule="evenodd" d="M256.336 273.541L350.311 227.443V190.846L220.859 128.569C237.987 124.113 257.231 121 277.569 121C349.127 121 407.137 159.536 407.137 159.536C407.137 232.374 385.428 285.272 359.783 322.351L256.336 273.541ZM339.036 348.419L213.453 289.195L213.345 253.785L308.617 207.039L177.796 143.769C159.188 152.105 148.001 159.536 148.001 159.536C148.001 352.217 277.569 396.42 277.569 396.42C277.569 396.42 307.786 382.675 339.036 348.419Z" fill="url(#paint1_radial)"/>
<path d="M260 45.3919L462.978 143.159L516 169V122.651L260 0V45.3919Z" fill="url(#paint2_linear)"/>
<path d="M53 84.2598L214.748 162.358L257 183V145.976L53 48V84.2598Z" fill="url(#paint3_linear)"/>
<path d="M304 331.26L465.748 409.358L508 430V392.976L304 295V331.26Z" fill="url(#paint4_linear)"/>
<path d="M0 317.855L199.807 414.465L252 440V394.2L0 273V317.855Z" fill="url(#paint5_linear)"/>
<defs>
<radialGradient id="paint0_radial" cx="0" cy="0" r="1" gradientUnits="userSpaceOnUse" gradientTransform="translate(134.5 146) rotate(40.4116) scale(278.432)">
<stop stop-color="#1AACFF"/>
<stop offset="1" stop-color="#00487C" stop-opacity="0"/>
</radialGradient>
<radialGradient id="paint1_radial" cx="0" cy="0" r="1" gradientUnits="userSpaceOnUse" gradientTransform="translate(439 425.5) rotate(-135) scale(364.867)">
<stop stop-color="#FF251F" stop-opacity="0.9375"/>
<stop offset="1" stop-color="#8D4400" stop-opacity="0"/>
</radialGradient>
<linearGradient id="paint2_linear" x1="525.5" y1="197" x2="320.5" y2="85" gradientUnits="userSpaceOnUse">
<stop stop-color="#FF3B30" stop-opacity="0.59"/>
<stop offset="1" stop-color="#FF3B30" stop-opacity="0"/>
</linearGradient>
<linearGradient id="paint3_linear" x1="20" y1="82.5" x2="249.084" y2="123.815" gradientUnits="userSpaceOnUse">
<stop stop-color="#008E87"/>
<stop offset="1" stop-color="#02645F" stop-opacity="0"/>
</linearGradient>
<linearGradient id="paint4_linear" x1="582.5" y1="483" x2="325.07" y2="491.832" gradientUnits="userSpaceOnUse">
<stop stop-color="#035685" stop-opacity="0.56"/>
<stop offset="0.0001" stop-color="#2CB3FF" stop-opacity="0.6"/>
<stop offset="1" stop-color="#179EFF" stop-opacity="0"/>
</linearGradient>
<linearGradient id="paint5_linear" x1="-93" y1="391" x2="67.2269" y2="214.128" gradientUnits="userSpaceOnUse">
<stop stop-color="#008E87"/>
<stop offset="1" stop-color="#02645F" stop-opacity="0"/>
</linearGradient>
</defs>
</svg>
