<svg width="298" height="348" viewBox="0 0 298 348" fill="none" xmlns="http://www.w3.org/2000/svg">
<path d="M137.035 321.729C88.5907 316.902 44.6721 291.442 20.9941 254.459C11.3341 239.371 3.87069 220.317 1.5215 204.746C0.467971 197.763 -0.250634 181.492 0.0820584 172.153C1.28581 138.365 9.18144 112.16 25.1513 88.9507C30.7428 80.8244 34.3952 76.5629 42.258 68.991C54.8247 56.8892 67.4638 48.3433 85.3761 39.8371C101.359 32.2471 114.347 28.289 131.244 25.8589C139.857 24.6202 159.522 24.7423 168.491 26.0899C197.122 30.3926 222.317 42.635 246.351 63.9219C272.006 86.644 289.016 113.182 295.223 140.17C297.555 150.309 297.972 154.309 297.998 166.771C298.026 179.403 297.7 182.871 295.431 194.152L293.983 201.35L288.597 202.394C273.876 205.245 255.023 210.35 243.133 214.704C233.96 218.064 232.098 218.824 218.81 224.627C206.065 230.194 200.289 232.395 193.382 234.317C178.946 238.333 163.534 238.674 153.122 235.206C139.109 230.538 128.628 219.382 126.348 206.706C125.582 202.449 126.041 194.154 127.289 189.696C130.291 178.967 136.928 167.915 147.212 156.519C149.115 154.411 150.712 152.726 150.762 152.776C150.81 152.823 151.426 157.408 152.127 162.958C152.829 168.509 153.437 173.099 153.478 173.159C153.52 173.22 155.308 172.648 157.452 171.891C170.009 167.454 182.952 166.639 196.117 169.456C202.558 170.833 214.435 174.578 225.991 178.874C230.45 180.532 235.454 182.167 237.11 182.508C245.004 184.13 257.902 182.528 266.124 178.907C268.365 177.92 268.533 177.727 269.131 175.456C269.94 172.38 269.95 163.632 269.144 159.758L268.528 156.783L259.42 150.725C204.557 114.231 158.53 92.6075 119.411 84.949C108.773 82.8663 90.238 81.0795 90.238 82.1367C90.238 82.3904 90.1264 82.8791 89.9898 83.2231C89.8102 83.6769 95.1546 86.4294 109.439 93.2396C120.272 98.4046 129.139 102.732 129.144 102.855C129.149 102.978 125.348 104.361 120.699 105.929C107.452 110.394 98.5724 113.922 89.5394 118.312C82.0677 121.943 71.2541 128.211 71.2454 128.916C71.2435 129.065 75.2893 129.554 80.2359 130.004L89.2298 130.823L84.2851 136.013C77.6185 143.012 73.7585 147.493 64.358 159.146L56.3975 169.013L63.3565 169.137C67.1839 169.205 70.311 169.407 70.3056 169.585C70.3002 169.764 67.0871 180.507 63.1653 193.458C59.2436 206.409 56.0744 217.045 56.1226 217.093C56.1711 217.14 59.5156 216.466 63.5553 215.592C68.3345 214.558 71.003 214.164 71.1946 214.465C71.3568 214.718 72.1908 225.183 73.0483 237.72C73.9059 250.256 74.6745 260.588 74.7564 260.679C74.8383 260.771 77.7499 258.5 81.2268 255.633C84.7036 252.767 87.6843 250.423 87.8506 250.425C88.0169 250.426 93.7821 258.894 100.662 269.241C107.542 279.587 113.322 288.063 113.505 288.075C113.689 288.089 116.379 285.159 119.482 281.566C123.998 276.339 125.236 275.151 125.676 275.623C125.978 275.947 128.288 278.735 130.809 281.819C133.33 284.902 137.795 289.774 140.73 292.644L146.067 297.863L157.418 297.871C175.055 297.884 186.238 299.707 201.092 304.996L205.617 306.607L204.104 307.708C195.176 314.207 183.856 318.509 169.464 320.873C164.928 321.618 161.212 321.856 152.321 321.973C146.078 322.055 139.198 321.946 137.032 321.729L137.035 321.729Z" fill="url(#paint0_radial)"/>
<path d="M137.035 321.729C88.5907 316.902 44.6721 291.442 20.9941 254.459C11.3341 239.371 3.87069 220.317 1.5215 204.746C0.467971 197.763 -0.250634 181.492 0.0820584 172.153C1.28581 138.365 9.18144 112.16 25.1513 88.9507C30.7428 80.8244 34.3952 76.5629 42.258 68.991C54.8247 56.8892 67.4638 48.3433 85.3761 39.8371C101.359 32.2471 114.347 28.289 131.244 25.8589C139.857 24.6202 159.522 24.7423 168.491 26.0899C197.122 30.3926 222.317 42.635 246.351 63.9219C272.006 86.644 289.016 113.182 295.223 140.17C297.555 150.309 297.972 154.309 297.998 166.771C298.026 179.403 297.7 182.871 295.431 194.152L293.983 201.35L288.597 202.394C273.876 205.245 255.023 210.35 243.133 214.704C233.96 218.064 232.098 218.824 218.81 224.627C206.065 230.194 200.289 232.395 193.382 234.317C178.946 238.333 163.534 238.674 153.122 235.206C139.109 230.538 128.628 219.382 126.348 206.706C125.582 202.449 126.041 194.154 127.289 189.696C130.291 178.967 136.928 167.915 147.212 156.519C149.115 154.411 150.712 152.726 150.762 152.776C150.81 152.823 151.426 157.408 152.127 162.958C152.829 168.509 153.437 173.099 153.478 173.159C153.52 173.22 155.308 172.648 157.452 171.891C170.009 167.454 182.952 166.639 196.117 169.456C202.558 170.833 214.435 174.578 225.991 178.874C230.45 180.532 235.454 182.167 237.11 182.508C245.004 184.13 257.902 182.528 266.124 178.907C268.365 177.92 268.533 177.727 269.131 175.456C269.94 172.38 269.95 163.632 269.144 159.758L268.528 156.783L259.42 150.725C204.557 114.231 158.53 92.6075 119.411 84.949C108.773 82.8663 90.238 81.0795 90.238 82.1367C90.238 82.3904 90.1264 82.8791 89.9898 83.2231C89.8102 83.6769 95.1546 86.4294 109.439 93.2396C120.272 98.4046 129.139 102.732 129.144 102.855C129.149 102.978 125.348 104.361 120.699 105.929C107.452 110.394 98.5724 113.922 89.5394 118.312C82.0677 121.943 71.2541 128.211 71.2454 128.916C71.2435 129.065 75.2893 129.554 80.2359 130.004L89.2298 130.823L84.2851 136.013C77.6185 143.012 73.7585 147.493 64.358 159.146L56.3975 169.013L63.3565 169.137C67.1839 169.205 70.311 169.407 70.3056 169.585C70.3002 169.764 67.0871 180.507 63.1653 193.458C59.2436 206.409 56.0744 217.045 56.1226 217.093C56.1711 217.14 59.5156 216.466 63.5553 215.592C68.3345 214.558 71.003 214.164 71.1946 214.465C71.3568 214.718 72.1908 225.183 73.0483 237.72C73.9059 250.256 74.6745 260.588 74.7564 260.679C74.8383 260.771 77.7499 258.5 81.2268 255.633C84.7036 252.767 87.6843 250.423 87.8506 250.425C88.0169 250.426 93.7821 258.894 100.662 269.241C107.542 279.587 113.322 288.063 113.505 288.075C113.689 288.089 116.379 285.159 119.482 281.566C123.998 276.339 125.236 275.151 125.676 275.623C125.978 275.947 128.288 278.735 130.809 281.819C133.33 284.902 137.795 289.774 140.73 292.644L146.067 297.863L157.418 297.871C175.055 297.884 186.238 299.707 201.092 304.996L205.617 306.607L204.104 307.708C195.176 314.207 183.856 318.509 169.464 320.873C164.928 321.618 161.212 321.856 152.321 321.973C146.078 322.055 139.198 321.946 137.032 321.729L137.035 321.729Z" fill="url(#paint1_radial)"/>
<path d="M137.035 321.729C88.5907 316.902 44.6721 291.442 20.9941 254.459C11.3341 239.371 3.87069 220.317 1.5215 204.746C0.467971 197.763 -0.250634 181.492 0.0820584 172.153C1.28581 138.365 9.18144 112.16 25.1513 88.9507C30.7428 80.8244 34.3952 76.5629 42.258 68.991C54.8247 56.8892 67.4638 48.3433 85.3761 39.8371C101.359 32.2471 114.347 28.289 131.244 25.8589C139.857 24.6202 159.522 24.7423 168.491 26.0899C197.122 30.3926 222.317 42.635 246.351 63.9219C272.006 86.644 289.016 113.182 295.223 140.17C297.555 150.309 297.972 154.309 297.998 166.771C298.026 179.403 297.7 182.871 295.431 194.152L293.983 201.35L288.597 202.394C273.876 205.245 255.023 210.35 243.133 214.704C233.96 218.064 232.098 218.824 218.81 224.627C206.065 230.194 200.289 232.395 193.382 234.317C178.946 238.333 163.534 238.674 153.122 235.206C139.109 230.538 128.628 219.382 126.348 206.706C125.582 202.449 126.041 194.154 127.289 189.696C130.291 178.967 136.928 167.915 147.212 156.519C149.115 154.411 150.712 152.726 150.762 152.776C150.81 152.823 151.426 157.408 152.127 162.958C152.829 168.509 153.437 173.099 153.478 173.159C153.52 173.22 155.308 172.648 157.452 171.891C170.009 167.454 182.952 166.639 196.117 169.456C202.558 170.833 214.435 174.578 225.991 178.874C230.45 180.532 235.454 182.167 237.11 182.508C245.004 184.13 257.902 182.528 266.124 178.907C268.365 177.92 268.533 177.727 269.131 175.456C269.94 172.38 269.95 163.632 269.144 159.758L268.528 156.783L259.42 150.725C204.557 114.231 158.53 92.6075 119.411 84.949C108.773 82.8663 90.238 81.0795 90.238 82.1367C90.238 82.3904 90.1264 82.8791 89.9898 83.2231C89.8102 83.6769 95.1546 86.4294 109.439 93.2396C120.272 98.4046 129.139 102.732 129.144 102.855C129.149 102.978 125.348 104.361 120.699 105.929C107.452 110.394 98.5724 113.922 89.5394 118.312C82.0677 121.943 71.2541 128.211 71.2454 128.916C71.2435 129.065 75.2893 129.554 80.2359 130.004L89.2298 130.823L84.2851 136.013C77.6185 143.012 73.7585 147.493 64.358 159.146L56.3975 169.013L63.3565 169.137C67.1839 169.205 70.311 169.407 70.3056 169.585C70.3002 169.764 67.0871 180.507 63.1653 193.458C59.2436 206.409 56.0744 217.045 56.1226 217.093C56.1711 217.14 59.5156 216.466 63.5553 215.592C68.3345 214.558 71.003 214.164 71.1946 214.465C71.3568 214.718 72.1908 225.183 73.0483 237.72C73.9059 250.256 74.6745 260.588 74.7564 260.679C74.8383 260.771 77.7499 258.5 81.2268 255.633C84.7036 252.767 87.6843 250.423 87.8506 250.425C88.0169 250.426 93.7821 258.894 100.662 269.241C107.542 279.587 113.322 288.063 113.505 288.075C113.689 288.089 116.379 285.159 119.482 281.566C123.998 276.339 125.236 275.151 125.676 275.623C125.978 275.947 128.288 278.735 130.809 281.819C133.33 284.902 137.795 289.774 140.73 292.644L146.067 297.863L157.418 297.871C175.055 297.884 186.238 299.707 201.092 304.996L205.617 306.607L204.104 307.708C195.176 314.207 183.856 318.509 169.464 320.873C164.928 321.618 161.212 321.856 152.321 321.973C146.078 322.055 139.198 321.946 137.032 321.729L137.035 321.729Z" fill="url(#paint2_radial)"/>
<circle opacity="0.2" cx="276.5" cy="15.5" r="15.5" fill="#007AFF"/>
<circle opacity="0.2" cx="52.5" cy="295.5" r="52.5" fill="#FF2D55"/>
<circle opacity="0.2" cx="251" cy="315" r="9" fill="#FFCC00"/>
<defs>
<radialGradient id="paint0_radial" cx="0" cy="0" r="1" gradientUnits="userSpaceOnUse" gradientTransform="translate(313.481 7.58633) rotate(143) scale(340.19 166.268)">
<stop stop-color="#035685" stop-opacity="0.56"/>
<stop offset="1" stop-color="#00487C" stop-opacity="0"/>
</radialGradient>
<radialGradient id="paint1_radial" cx="0" cy="0" r="1" gradientUnits="userSpaceOnUse" gradientTransform="translate(-55.8135 267.715) rotate(-47.5875) scale(320.883 192.551)">
<stop stop-color="#008E87" stop-opacity="0.51"/>
<stop offset="1" stop-color="#02645F" stop-opacity="0"/>
</radialGradient>
<radialGradient id="paint2_radial" cx="0" cy="0" r="1" gradientUnits="userSpaceOnUse" gradientTransform="translate(302.838 314.261) rotate(-135.145) scale(275.698 165.435)">
<stop stop-color="#8E4400" stop-opacity="0.51"/>
<stop offset="1" stop-color="#8D4400" stop-opacity="0"/>
</radialGradient>
</defs>
</svg>
