<svg width="477" height="387" viewBox="0 0 477 387" fill="none" xmlns="http://www.w3.org/2000/svg">
<rect x="72" y="-5" width="108.894" height="108.894" rx="13" transform="rotate(45 72 -5)" fill="url(#paint0_linear)"/>
<rect x="402" y="237" width="106.066" height="106.066" rx="13" transform="rotate(45 402 237)" fill="url(#paint1_linear)"/>
<path d="M244.612 316.76L369.866 191.505L346.339 167.978L342.704 171.614C327.921 186.396 303.953 186.396 289.17 171.614C274.387 156.831 274.387 132.863 289.17 118.08L292.806 114.444L262.633 84.2711L151.855 195.049C148.092 198.812 141.991 198.812 138.228 195.049C134.466 191.287 134.466 185.186 138.228 181.423L249.006 70.6444C241.48 63.1185 229.278 63.1185 221.753 70.6444L122.543 169.855C107.152 185.246 107.152 210.199 122.543 225.59L213.713 316.76C222.245 325.292 236.079 325.292 244.612 316.76Z" fill="url(#paint2_linear)"/>
<path d="M329.077 157.987L349.517 137.547L323.237 111.267L302.797 131.707C295.54 138.964 295.54 150.73 302.797 157.987C310.054 165.244 321.82 165.244 329.077 157.987Z" fill="url(#paint3_linear)"/>
<path fill-rule="evenodd" clip-rule="evenodd" d="M345.394 134.96C345.774 136.329 346.109 137.706 346.4 139.09L345.552 139.937C345.12 137.768 344.576 135.615 343.921 133.487L345.394 134.96ZM283.624 106.799C284.823 110.447 286.353 114.016 288.212 117.464L287.615 118.061C287.568 118.108 287.521 118.155 287.475 118.202C285.209 114.044 283.417 109.71 282.099 105.274L283.624 106.799ZM242.043 66.8162C240.838 70.6634 239.997 74.5934 239.52 78.5561L238.389 79.6873C238.842 75.204 239.753 70.7554 241.122 66.4114C241.431 66.5379 241.739 66.6729 242.043 66.8162ZM109.444 197.706C110.852 193.566 112.681 189.53 114.929 185.658C117.989 180.39 120.259 174.812 121.739 169.085L123.102 167.721C121.623 174.102 119.187 180.318 115.794 186.16C113.104 190.793 111.024 195.664 109.555 200.667C109.481 199.681 109.444 198.694 109.444 197.706ZM114.215 216.52C114.628 205.846 117.62 195.247 123.189 185.658C128.013 177.351 130.874 168.273 131.77 159.053L132.871 157.952C132.1 167.724 129.16 177.367 124.053 186.16C118.286 196.091 115.325 207.121 115.171 218.181C114.838 217.634 114.519 217.08 114.215 216.52ZM122.965 227.549C121.131 213.274 123.959 198.552 131.448 185.658C137.756 174.796 140.707 162.618 140.299 150.524L141.261 149.563C141.861 162.145 138.879 174.855 132.313 186.16C124.708 199.253 121.983 214.258 124.137 228.721L122.965 227.549ZM134.967 239.55L133.44 238.024C129.131 223.539 129.873 207.959 135.667 193.851C135.888 194.156 136.128 194.451 136.388 194.734C130.631 209.088 130.157 224.948 134.967 239.55ZM150.51 255.093L148.002 252.586C147.99 252.565 147.978 252.545 147.966 252.524C138.2 235.708 136.361 215.784 142.45 197.797C142.795 197.835 143.141 197.853 143.487 197.853C137.382 215.638 139.163 235.375 148.831 252.022C149.419 253.035 149.979 254.059 150.51 255.093ZM163.911 268.494L162.472 267.055C161.002 262.044 158.92 257.164 156.225 252.524C145.513 234.078 144.338 211.893 152.702 192.628L154.734 190.597C145.299 210.118 146.085 233.072 157.09 252.022C160.133 257.262 162.407 262.803 163.911 268.494ZM174.018 278.602L172.883 277.467C171.819 268.82 169.019 260.332 164.484 252.524C152.453 231.808 152.453 206.374 164.484 185.658C166.227 182.658 167.712 179.559 168.942 176.388L170.632 174.698C169.252 178.633 167.492 182.471 165.349 186.16C153.498 206.566 153.498 231.616 165.349 252.022C170.172 260.326 173.062 269.389 174.018 278.602ZM182.609 287.193L181.628 286.212C181.762 274.596 178.801 262.953 172.744 252.524C160.712 231.808 160.712 206.374 172.744 185.658C176.557 179.092 179.143 172.046 180.503 164.828L181.737 163.594C180.439 171.416 177.729 179.065 173.608 186.16C161.757 206.566 161.757 231.616 173.608 252.022C179.926 262.9 182.927 275.079 182.609 287.193ZM190.228 294.812L189.34 293.924C191.183 279.821 188.404 265.267 181.003 252.524C168.971 231.808 168.971 206.374 181.003 185.658C186.447 176.284 189.39 165.931 189.833 155.498L190.869 154.462C190.582 165.418 187.582 176.321 181.868 186.16C170.016 206.566 170.016 231.616 181.868 252.022C189.514 265.187 192.301 280.258 190.228 294.812ZM197.129 301.713L196.303 300.887C200.236 284.693 197.889 267.378 189.262 252.524C177.23 231.808 177.23 206.374 189.262 185.658C196.115 173.859 199.005 160.507 197.933 147.397L198.855 146.475C200.14 160.053 197.23 173.929 190.127 186.16C178.275 206.566 178.275 231.616 190.127 252.022C198.99 267.283 201.324 285.103 197.129 301.713ZM203.451 308.035L202.669 307.253C209.007 289.323 207.291 269.345 197.521 252.524C185.489 231.808 185.489 206.374 197.521 185.658C205.644 171.671 208.2 155.503 205.187 140.143L206.036 139.294C209.299 155.083 206.749 171.761 198.386 186.16C186.535 206.566 186.535 231.616 198.386 252.022C208.386 269.24 210.074 289.717 203.451 308.035ZM209.284 313.868L208.532 313.116C217.547 293.777 216.63 271.204 205.78 252.524C193.749 231.808 193.749 206.374 205.78 185.658C215.078 169.649 217.081 150.781 211.79 133.54L212.589 132.741C218.157 150.381 216.175 169.751 206.645 186.16C194.794 206.566 194.794 231.616 206.645 252.022C217.721 271.093 218.601 294.162 209.284 313.868ZM214.828 319.018C214.557 318.822 214.29 318.619 214.026 318.409C214.03 318.401 214.035 318.393 214.039 318.385C225.891 297.98 225.891 272.93 214.039 252.524C202.008 231.808 202.008 206.374 214.039 185.658C224.441 167.748 225.713 146.26 217.856 127.474L218.619 126.711C226.773 145.872 225.534 167.857 214.904 186.16C203.053 206.566 203.053 231.616 214.904 252.022C226.936 272.738 226.936 298.171 214.904 318.887C214.879 318.931 214.854 318.975 214.828 319.018ZM221.349 322.229C221.026 322.133 220.705 322.029 220.386 321.918C220.985 320.727 221.623 319.549 222.299 318.385C234.15 297.98 234.15 272.93 222.299 252.524C210.267 231.808 210.267 206.374 222.299 185.658C233.751 165.94 234.136 141.885 223.456 121.874L224.194 121.136C235.185 141.504 234.841 166.054 223.163 186.16C211.312 206.566 211.312 231.616 223.163 252.022C235.195 272.738 235.195 298.171 223.163 318.887C222.524 319.988 221.919 321.103 221.349 322.229ZM229.183 323.084C228.805 323.111 228.426 323.129 228.047 323.136C228.816 321.528 229.653 319.944 230.558 318.385C242.409 297.98 242.409 272.93 230.558 252.524C218.526 231.808 218.526 206.374 230.558 185.658C242.409 165.252 242.409 140.202 230.558 119.797C229.935 118.724 229.345 117.64 228.786 116.544L229.531 115.799C230.124 116.978 230.754 118.144 231.423 119.294C243.454 140.011 243.454 165.444 231.423 186.16C219.571 206.566 219.571 231.616 231.423 252.022C243.454 272.738 243.454 298.171 231.423 318.887C230.622 320.266 229.875 321.666 229.183 323.084ZM239.126 319.863C238.591 320.196 238.044 320.503 237.488 320.785C237.913 319.979 238.356 319.178 238.817 318.385C250.668 297.98 250.668 272.93 238.817 252.524C226.785 231.808 226.785 206.374 238.817 185.658C250.668 165.252 250.668 140.202 238.817 119.797C237.134 116.9 235.687 113.91 234.475 110.855L235.247 110.083C236.472 113.233 237.95 116.313 239.682 119.294C251.713 140.011 251.713 165.444 239.682 186.16C227.83 206.566 227.83 231.616 239.682 252.022C251.713 272.738 251.713 298.171 239.682 318.887C239.494 319.211 239.308 319.537 239.126 319.863ZM253.661 306.137L252.046 307.752C258.593 289.694 256.936 269.501 247.076 252.524C235.045 231.808 235.045 206.374 247.076 185.658C258.927 165.252 258.927 140.202 247.076 119.797C244.278 114.979 242.131 109.906 240.634 104.696L241.444 103.886C242.923 109.205 245.089 114.384 247.941 119.294C259.973 140.011 259.973 165.444 247.941 186.16C236.09 206.566 236.09 231.616 247.941 252.022C257.597 268.647 259.503 288.311 253.661 306.137ZM263.281 296.516C265.839 281.615 263.191 266.049 255.335 252.524C243.304 231.808 243.304 206.374 255.335 185.658C267.187 165.252 267.187 140.202 255.335 119.797C251.348 112.932 248.683 105.549 247.338 97.9918L248.204 97.1263C249.486 104.811 252.152 112.324 256.2 119.294C268.232 140.011 268.232 165.444 256.2 186.16C244.349 206.566 244.349 231.616 256.2 252.022C263.933 265.337 266.696 280.601 264.488 295.309L263.281 296.516ZM272.456 287.342C272.802 275.352 269.848 263.292 263.594 252.524C251.563 231.808 251.563 206.374 263.594 185.658C275.446 165.252 275.446 140.202 263.594 119.797C258.319 110.714 255.357 100.724 254.708 90.6223L255.655 89.6751C256.174 99.9249 259.109 110.083 264.459 119.294C276.491 140.011 276.491 165.444 264.459 186.16C252.608 206.566 252.608 231.616 264.459 252.022C270.625 262.639 273.631 274.495 273.477 286.32L272.456 287.342ZM281.369 278.428L280.456 279.342C279.583 270.048 276.716 260.895 271.854 252.524C259.822 231.808 259.822 206.374 271.854 185.658C276.318 177.972 279.1 169.627 280.201 161.12C280.452 161.645 280.715 162.167 280.991 162.683C279.757 170.822 276.999 178.79 272.718 186.16C260.867 206.566 260.867 231.616 272.718 252.022C277.511 260.274 280.395 269.275 281.369 278.428ZM288.479 271.318L287.636 272.162C286.223 265.36 283.716 258.727 280.113 252.524C268.081 231.808 268.081 206.374 280.113 185.658C282.923 180.819 285.067 175.719 286.545 170.481C286.806 170.764 287.072 171.045 287.344 171.322C285.851 176.439 283.729 181.423 280.978 186.16C269.126 206.566 269.126 231.616 280.978 252.022C284.522 258.125 287.023 264.638 288.479 271.318ZM294.973 264.824L294.179 265.618C292.744 261.111 290.809 256.719 288.372 252.524C276.34 231.808 276.34 206.374 288.372 185.658C290.176 182.551 291.706 179.336 292.961 176.047C293.243 176.241 293.528 176.431 293.814 176.616C292.555 179.882 291.03 183.073 289.237 186.16C277.385 206.566 277.385 231.616 289.237 252.022C291.622 256.128 293.534 260.42 294.973 264.824ZM300.954 258.843L300.194 259.603C299.157 257.193 297.97 254.829 296.631 252.524C284.6 231.808 284.6 206.374 296.631 185.658C297.757 183.72 298.776 181.739 299.688 179.725C299.996 179.854 300.305 179.98 300.615 180.101C299.685 182.158 298.646 184.181 297.496 186.16C285.645 206.566 285.645 231.616 297.496 252.022C298.787 254.245 299.94 256.523 300.954 258.843ZM306.485 253.312L305.749 254.048C305.47 253.537 305.184 253.029 304.89 252.524C292.859 231.808 292.859 206.374 304.89 185.658C305.601 184.434 306.269 183.194 306.895 181.939C307.235 182.007 307.575 182.07 307.916 182.129C307.245 183.49 306.525 184.835 305.755 186.16C293.904 206.566 293.904 231.616 305.755 252.022C306.004 252.45 306.247 252.88 306.485 253.312ZM311.839 247.958L311.093 248.704C301.162 228.74 301.848 205.118 313.149 185.658C313.72 184.676 314.263 183.683 314.778 182.68C315.158 182.676 315.536 182.666 315.915 182.651C315.319 183.834 314.685 185.005 314.014 186.16C302.939 205.23 302.214 228.357 311.839 247.958ZM317.602 242.195L316.827 242.969C309.645 224.325 311.172 203.284 321.409 185.658C322.193 184.307 322.926 182.936 323.607 181.547C324.033 181.44 324.459 181.326 324.882 181.204C324.087 182.882 323.217 184.536 322.273 186.16C312.266 203.391 310.709 223.933 317.602 242.195ZM323.853 235.944L323.038 236.759C318.343 219.752 320.553 201.352 329.668 185.658C331.229 182.969 332.585 180.2 333.735 177.371C334.216 177.084 334.693 176.786 335.163 176.476C333.895 179.79 332.351 183.029 330.533 186.16C321.653 201.45 319.426 219.347 323.853 235.944ZM330.677 229.12L329.805 229.992C327.302 214.964 330.01 199.29 337.927 185.658C341.153 180.103 343.502 174.203 344.971 168.147L345.797 168.972C344.297 174.914 341.962 180.701 338.792 186.16C331.118 199.373 328.413 214.534 330.677 229.12ZM337.252 222.545C336.592 209.868 339.57 197.05 346.186 185.658C348.27 182.07 349.987 178.338 351.338 174.514L352.121 175.296C350.775 179.022 349.085 182.658 347.051 186.16C340.691 197.11 337.744 209.397 338.21 221.587L337.252 222.545ZM345.602 214.194C346.334 204.311 349.281 194.55 354.445 185.658C355.449 183.929 356.368 182.167 357.202 180.378L357.954 181.129C357.149 182.833 356.268 184.512 355.31 186.16C350.427 194.568 347.556 203.765 346.697 213.1L345.602 214.194ZM355.306 204.49C356.764 198.023 359.203 191.719 362.623 185.798L363.356 186.531C360.332 191.815 358.099 197.405 356.656 203.14L355.306 204.49ZM367.654 192.143C367.788 191.841 367.924 191.539 368.063 191.238L368.311 191.486L367.654 192.143ZM339.24 146.25C338.39 137.581 335.829 129.037 331.558 121.124L328.935 118.501C329.174 118.935 329.418 119.367 329.668 119.797C334.627 128.335 337.511 137.686 338.32 147.17L339.24 146.25ZM331.281 154.209C331.549 142.18 328.547 130.096 322.273 119.294C321.193 117.433 320.21 115.534 319.327 113.603L318.573 114.356C319.429 116.201 320.375 118.016 321.409 119.797C327.771 130.752 330.718 143.046 330.249 155.241L331.281 154.209ZM322.446 161.576C324.382 147.179 321.571 132.306 314.014 119.294C313.968 119.214 313.921 119.134 313.875 119.054L313.143 119.786C313.145 119.79 313.147 119.793 313.149 119.797C320.7 132.797 323.44 147.683 321.37 162.052C321.732 161.905 322.091 161.746 322.446 161.576ZM313.914 163.405C316.048 150.313 314.232 136.741 308.465 124.465L307.712 125.217C313.288 137.257 315.02 150.54 312.91 163.353C313.244 163.379 313.579 163.397 313.914 163.405ZM305.951 161.395C307.323 150.982 306.212 140.326 302.62 130.309L301.837 131.093C305.206 140.705 306.263 150.901 305.009 160.88C305.319 161.061 305.633 161.233 305.951 161.395ZM298.247 154.058C298.349 148.956 297.863 143.846 296.789 138.829C296.548 139.538 296.351 140.259 296.198 140.987C296.866 144.648 297.219 148.351 297.257 152.057C297.545 152.739 297.875 153.407 298.247 154.058ZM283.173 123.394C282.492 122.009 281.76 120.642 280.978 119.294C276.727 111.976 274.001 104.06 272.799 95.9747L271.628 94.8031C272.738 103.468 275.567 111.969 280.113 119.797C280.982 121.294 281.788 122.816 282.53 124.359C282.739 124.035 282.953 123.713 283.173 123.394ZM278.584 132.495C277.13 127.952 275.175 123.525 272.718 119.294C266.905 109.284 263.943 98.157 263.833 87.0084L262.831 86.0062C262.768 97.6626 265.776 109.331 271.854 119.797C274.52 124.387 276.586 129.212 278.052 134.167C278.216 133.606 278.394 133.049 278.584 132.495ZM230.8 87.2768C230.694 79.7488 231.89 72.2072 234.385 64.9896C234.033 64.9794 233.681 64.9788 233.329 64.9878C230.766 72.5259 229.596 80.406 229.82 88.2562L230.8 87.2768ZM223.103 94.973C221.856 85.583 222.658 75.9896 225.51 66.861C225.09 67.0621 224.675 67.2792 224.267 67.5125C221.534 76.7405 220.851 86.4106 222.217 95.8596L223.103 94.973ZM216.153 101.923C214.043 93.3115 213.711 84.3796 215.156 75.6671L213.958 76.8649C212.713 85.4763 213.17 94.2712 215.329 102.748L216.153 101.923ZM209.798 108.279C207.098 100.686 205.843 92.7242 206.035 84.7882L205.018 85.8049C204.952 93.6726 206.284 101.549 209.016 109.061L209.798 108.279ZM203.944 114.133C200.747 107.307 198.789 100.076 198.07 92.7535L197.159 93.6638C197.964 100.937 199.975 108.11 203.192 114.884L203.944 114.133ZM198.531 119.546C198.483 119.462 198.434 119.378 198.386 119.294C194.827 113.167 192.337 106.621 190.916 99.9075L190.075 100.748C191.538 107.342 194.02 113.769 197.521 119.797C197.614 119.957 197.707 120.117 197.798 120.278L198.531 119.546ZM193.082 124.994C192.195 123.061 191.209 121.158 190.127 119.294C187.732 115.17 185.82 110.857 184.393 106.43L183.6 107.223C185.031 111.547 186.918 115.761 189.262 119.797C190.391 121.741 191.413 123.728 192.327 125.749L193.082 124.994ZM187.194 130.882C185.808 126.904 184.033 123.023 181.868 119.294C180.568 117.057 179.411 114.764 178.397 112.427L177.637 113.186C178.629 115.433 179.751 117.641 181.003 119.797C183.219 123.612 185.02 127.59 186.408 131.669L187.194 130.882ZM180.807 137.27C179.319 131.052 176.919 124.994 173.608 119.294C173.352 118.854 173.102 118.411 172.857 117.966L172.121 118.702C172.325 119.068 172.533 119.433 172.744 119.797C176.111 125.594 178.521 131.767 179.975 138.102L180.807 137.27ZM173.829 144.248C172.903 137.06 170.796 129.987 167.506 123.317L166.759 124.064C170.029 130.783 172.087 137.911 172.932 145.145L173.829 144.248ZM166.109 151.967C166.021 144.203 164.569 136.45 161.755 129.068L160.979 129.844C163.764 137.301 165.142 145.134 165.113 152.964L166.109 151.967ZM157.374 160.703C158.4 152.225 157.784 143.598 155.526 135.298L154.709 136.115C156.922 144.538 157.423 153.291 156.213 161.864L157.374 160.703ZM147.013 171.064C149.727 161.618 150.302 151.723 148.737 142.086L147.862 142.962C149.353 152.833 148.571 162.96 145.514 172.563L147.013 171.064Z" fill="#5AC8FA"/>
<path fill-rule="evenodd" clip-rule="evenodd" d="M292.98 319.464C291.947 315.771 290.62 312.138 289 308.598C289.063 308.024 289.164 307.453 289.303 306.89C291.479 311.416 293.176 316.102 294.394 320.877L292.98 319.464ZM304.619 331.103C303.485 321.046 300.276 311.163 294.994 302.091C294.559 301.342 294.137 300.589 293.729 299.83L294.468 299.091C294.914 299.929 295.378 300.762 295.859 301.588C301.428 311.153 304.722 321.608 305.742 332.226L304.619 331.103ZM314.437 340.921C314.716 327.541 311.357 314.105 304.363 302.091C302.735 299.296 301.302 296.424 300.063 293.495L300.827 292.732C302.085 295.752 303.552 298.71 305.227 301.588C312.482 314.049 315.877 328.02 315.411 341.895L314.437 340.921ZM323.325 347.938C325.149 332.291 321.951 316.21 313.731 302.091C310.852 297.145 308.58 291.962 306.917 286.642L307.717 285.842C309.371 291.268 311.663 296.553 314.595 301.588C322.956 315.949 326.19 332.316 324.297 348.228C323.97 348.144 323.646 348.047 323.325 347.938ZM332.736 347.555C334.464 332.03 331.252 316.095 323.099 302.091C318.889 294.861 315.98 287.122 314.369 279.19L315.22 278.339C316.78 286.394 319.694 294.256 323.963 301.588C332.115 315.59 335.393 331.498 333.798 347.034C333.45 347.225 333.096 347.399 332.736 347.555ZM342.557 339.002C342.491 326.26 339.127 313.531 332.467 302.091C327.054 292.794 323.79 282.657 322.675 272.346C322.994 272.218 323.317 272.102 323.644 272C324.719 282.255 327.949 292.342 333.331 301.588C339.91 312.888 343.315 325.429 343.545 338.014L342.557 339.002ZM351.353 330.205C350.132 320.458 346.96 310.893 341.835 302.091C336.397 292.751 333.128 282.562 332.028 272.202C332.384 272.333 332.736 272.48 333.082 272.644C334.224 282.677 337.429 292.536 342.699 301.588C347.758 310.277 350.94 319.701 352.245 329.313L351.353 330.205ZM359.285 322.274C357.622 315.292 354.929 308.49 351.203 302.091C347.395 295.55 344.651 288.593 342.97 281.453L344.338 282.821C346.018 289.307 348.594 295.622 352.067 301.588C355.737 307.89 358.419 314.579 360.113 321.446L359.285 322.274ZM365.802 313.029C364.373 309.285 362.63 305.626 360.571 302.091C359.365 300.018 358.265 297.904 357.272 295.755L359.433 297.916C360.064 299.154 360.731 300.378 361.435 301.588C363.23 304.669 364.788 307.843 366.109 311.085C366.056 311.738 365.954 312.389 365.802 313.029Z" fill="#F637FA"/>
<path fill-rule="evenodd" clip-rule="evenodd" d="M93.9804 97.4639C92.9465 93.7712 91.6197 90.1381 90 86.5984C90.0629 86.0242 90.1639 85.4533 90.3031 84.89C92.4787 89.4163 94.1755 94.102 95.3935 98.877L93.9804 97.4639ZM105.619 109.103C104.485 99.0459 101.276 89.1631 95.9945 80.0908C95.5588 79.3424 95.137 78.5886 94.7291 77.8296L95.468 77.0907C95.9144 77.9294 96.378 78.7619 96.8587 79.5877C102.428 89.153 105.722 99.6078 106.742 110.226L105.619 109.103ZM115.437 118.921C115.716 105.541 112.357 92.1053 105.363 80.0908C103.735 77.2956 102.302 74.4245 101.063 71.4955L101.827 70.7316C103.085 73.7516 104.552 76.7104 106.227 79.5877C113.482 92.0491 116.877 106.02 116.411 119.895L115.437 118.921ZM124.325 125.938C126.149 110.291 122.951 94.2096 114.731 80.0908C111.852 75.1454 109.58 69.9622 107.917 64.6417L108.717 63.842C110.371 69.2677 112.663 74.5525 115.595 79.5877C123.956 93.949 127.19 110.316 125.297 126.228C124.97 126.144 124.646 126.047 124.325 125.938ZM133.736 125.555C135.464 110.03 132.252 94.0946 124.099 80.0908C119.889 72.8607 116.98 65.1223 115.369 57.1895L116.22 56.3388C117.78 64.3939 120.694 72.2555 124.963 79.5877C133.115 93.5899 136.393 109.498 134.798 125.034C134.45 125.225 134.096 125.399 133.736 125.555ZM143.557 117.002C143.491 104.26 140.127 91.531 133.467 80.0908C128.054 70.7938 124.79 60.6565 123.675 50.346C123.994 50.2175 124.317 50.1022 124.644 50C125.719 60.2553 128.949 70.3424 134.331 79.5877C140.91 90.8875 144.315 103.429 144.545 116.014L143.557 117.002ZM152.353 108.205C151.132 98.4584 147.96 88.8931 142.835 80.0908C137.397 70.7507 134.128 60.5624 133.028 50.2025C133.384 50.3334 133.736 50.4804 134.082 50.6436C135.224 60.6771 138.429 70.5359 143.699 79.5877C148.758 88.2771 151.94 97.7006 153.245 107.313L152.353 108.205ZM160.285 100.274C158.622 93.2918 155.929 86.4897 152.203 80.0908C148.395 73.5501 145.651 66.5933 143.97 59.453L145.338 60.8214C147.018 67.3066 149.594 73.6224 153.067 79.5877C156.737 85.8901 159.419 92.5787 161.113 99.4457L160.285 100.274ZM166.802 91.0294C165.373 87.2852 163.63 83.6265 161.571 80.0908C160.365 78.0182 159.265 75.9038 158.272 73.7551L160.433 75.9165C161.064 77.1536 161.731 78.3779 162.435 79.5877C164.23 82.6692 165.788 85.8431 167.109 89.0849C167.056 89.7384 166.954 90.3885 166.802 91.0294Z" fill="#F637FA"/>
<defs>
<linearGradient id="paint0_linear" x1="204.583" y1="-141.825" x2="48.2312" y2="95.107" gradientUnits="userSpaceOnUse">
<stop offset="0.0001" stop-color="#379DFB"/>
<stop offset="1" stop-color="#379FFF" stop-opacity="0"/>
</linearGradient>
<linearGradient id="paint1_linear" x1="496.615" y1="249.221" x2="400.34" y2="343.314" gradientUnits="userSpaceOnUse">
<stop offset="0.0001" stop-color="#379DFB"/>
<stop offset="1" stop-color="#379FFF" stop-opacity="0"/>
</linearGradient>
<linearGradient id="paint2_linear" x1="205" y1="208" x2="370" y2="281" gradientUnits="userSpaceOnUse">
<stop offset="0.0001" stop-color="#F737FB"/>
<stop offset="1" stop-color="#37B7FF" stop-opacity="0.09"/>
</linearGradient>
<linearGradient id="paint3_linear" x1="205" y1="208" x2="370" y2="281" gradientUnits="userSpaceOnUse">
<stop offset="0.0001" stop-color="#F737FB"/>
<stop offset="1" stop-color="#37B7FF" stop-opacity="0.09"/>
</linearGradient>
</defs>
</svg>
