<svg width="800" height="430" viewBox="0 0 800 430" fill="none" xmlns="http://www.w3.org/2000/svg">
<g clip-path="url(#clip0)">
<path fill-rule="evenodd" clip-rule="evenodd" d="M641.713 84.2456C635.545 61.3575 606.854 53.6698 590.069 70.4078L427.328 232.691C410.543 249.429 418.252 278.039 441.205 284.189L663.742 343.818C686.695 349.968 707.676 329.046 701.509 306.158L641.713 84.2456ZM601.728 126.349C613.081 129.391 619.673 141.194 616.282 152.408L596.91 216.47C593.976 226.172 583.845 231.787 574.023 229.155C564.169 226.515 558.202 216.534 560.565 206.644L576.116 141.548C578.829 130.189 590.41 123.316 601.728 126.349ZM568.352 249.817C577.701 252.322 583.08 262.204 580.288 271.439C577.619 280.263 568.359 285.522 559.425 283.129C550.463 280.727 545.073 271.493 547.222 262.498C549.457 253.144 559.032 247.32 568.352 249.817Z" fill="url(#paint0_radial)"/>
<path fill-rule="evenodd" clip-rule="evenodd" d="M641.713 84.2456C635.545 61.3575 606.854 53.6698 590.069 70.4078L427.328 232.691C410.543 249.429 418.252 278.039 441.205 284.189L663.742 343.818C686.695 349.968 707.676 329.046 701.509 306.158L641.713 84.2456ZM601.728 126.349C613.081 129.391 619.673 141.194 616.282 152.408L596.91 216.47C593.976 226.172 583.845 231.787 574.023 229.155C564.169 226.515 558.202 216.534 560.565 206.644L576.116 141.548C578.829 130.189 590.41 123.316 601.728 126.349ZM568.352 249.817C577.701 252.322 583.08 262.204 580.288 271.439C577.619 280.263 568.359 285.522 559.425 283.129C550.463 280.727 545.073 271.493 547.222 262.498C549.457 253.144 559.032 247.32 568.352 249.817Z" fill="url(#paint1_radial)"/>
<path d="M762.171 154.427C749.978 166.586 729.136 161.002 724.656 144.375L681.218 -16.8291C676.738 -33.4557 691.979 -48.6545 708.653 -44.1869L870.311 -0.870674C886.985 3.59698 892.585 24.3803 880.391 36.5393L762.171 154.427Z" fill="url(#paint2_radial)"/>
<path d="M496.285 583.104C480.766 598.58 454.238 591.472 448.535 570.31L393.247 365.128C387.545 343.965 406.944 324.62 428.167 330.306L633.927 385.44C655.149 391.126 662.277 417.579 646.758 433.055L496.285 583.104Z" fill="url(#paint3_radial)"/>
<path d="M398.56 133.499C390.657 141.38 377.148 137.76 374.244 126.984L346.09 22.5001C343.186 11.7235 353.065 1.87249 363.872 4.76819L468.65 32.8434C479.457 35.7391 483.087 49.2098 475.184 57.0906L398.56 133.499Z" fill="url(#paint4_radial)"/>
<path d="M778.571 328.33C775.569 331.324 770.438 329.949 769.335 325.855L758.64 286.166C757.537 282.073 761.29 278.331 765.395 279.431L805.196 290.095C809.301 291.195 810.68 296.312 807.678 299.306L778.571 328.33Z" fill="url(#paint5_radial)"/>
<path opacity="0.5" d="M-2.69339 491.205C-32.9188 483.061 -43.0709 445.172 -20.9672 423.006L193.339 208.095C215.443 185.929 253.225 196.11 261.347 226.42L340.091 520.297C348.212 550.607 320.583 578.315 290.357 570.17L-2.69339 491.205Z" fill="url(#paint6_linear)"/>
</g>
<defs>
<radialGradient id="paint0_radial" cx="0" cy="0" r="1" gradientUnits="userSpaceOnUse" gradientTransform="translate(374.845 270.712) rotate(-17.0987) scale(433.786 309.209)">
<stop stop-color="#3DB0F0"/>
<stop offset="0.782422" stop-color="#1DA3EF" stop-opacity="0"/>
</radialGradient>
<radialGradient id="paint1_radial" cx="0" cy="0" r="1" gradientUnits="userSpaceOnUse" gradientTransform="translate(685.792 346.306) rotate(-125.442) scale(419.809 465.435)">
<stop stop-color="#F03D3D"/>
<stop offset="0.557946" stop-color="#EF4F1D" stop-opacity="0"/>
</radialGradient>
<radialGradient id="paint2_radial" cx="0" cy="0" r="1" gradientUnits="userSpaceOnUse" gradientTransform="translate(892.169 97.5941) rotate(-165.705) scale(288.658 205.76)">
<stop stop-color="#3DB0F0"/>
<stop offset="0.782422" stop-color="#1DA3EF" stop-opacity="0"/>
</radialGradient>
<radialGradient id="paint3_radial" cx="0" cy="0" r="1" gradientUnits="userSpaceOnUse" gradientTransform="translate(661.748 510.767) rotate(-165.705) scale(367.407 261.893)">
<stop stop-color="#3DB0F0"/>
<stop offset="0.782422" stop-color="#1DA3EF" stop-opacity="0"/>
</radialGradient>
<radialGradient id="paint4_radial" cx="0" cy="0" r="1" gradientUnits="userSpaceOnUse" gradientTransform="translate(218.037 -29.7264) rotate(28.1237) scale(407.654 451.959)">
<stop stop-color="#F03D3D" stop-opacity="0.35"/>
<stop offset="0.83748" stop-color="#EF4F1D" stop-opacity="0"/>
</radialGradient>
<radialGradient id="paint5_radial" cx="0" cy="0" r="1" gradientUnits="userSpaceOnUse" gradientTransform="translate(877 337) rotate(-153.287) scale(175.503 125.101)">
<stop stop-color="#3DB0F0"/>
<stop offset="0.782422" stop-color="#1DA3EF" stop-opacity="0"/>
</radialGradient>
<linearGradient id="paint6_linear" x1="272.425" y1="648.974" x2="175.437" y2="-39.1614" gradientUnits="userSpaceOnUse">
<stop stop-color="#3DB0F0"/>
<stop offset="0.782422" stop-color="#1DA3EF" stop-opacity="0"/>
</linearGradient>
<clipPath id="clip0">
<rect width="800" height="429.268" fill="white"/>
</clipPath>
</defs>
</svg>
