<svg width="800" height="430" viewBox="0 0 800 430" fill="none" xmlns="http://www.w3.org/2000/svg">
<g clip-path="url(#clip0)">
<path fill-rule="evenodd" clip-rule="evenodd" d="M551.499 109.641L552.233 108.909L555.13 110.564L630.234 67.6456C630.531 67.8565 630.824 68.073 631.114 68.2949L555.378 111.574L555.13 111.716L554.882 111.574L551.499 109.641ZM544.345 116.774L545.08 116.042L555.13 121.786L637.38 74.7839C637.573 75.0557 637.762 75.3315 637.947 75.6112L555.378 122.796L555.13 122.937L554.882 122.796L544.345 116.774ZM537.192 123.908L537.926 123.176L555.13 133.007L641.69 83.5418C641.791 83.8675 641.888 84.1964 641.979 84.5286L555.378 134.017L555.13 134.159L554.882 134.017L537.192 123.908ZM530.038 131.041L530.773 130.309L555.13 144.228L644.331 93.2543L644.6 94.2524L555.378 145.238L555.13 145.38L554.882 145.238L530.038 131.041ZM522.885 138.175L523.619 137.443L555.13 155.45L576.078 143.479L575.759 144.813L555.378 156.46L555.13 156.602L554.882 156.46L522.885 138.175ZM515.731 145.308L516.465 144.576L555.13 166.671L572.973 156.475L572.655 157.809L555.378 167.681L555.13 167.823L554.882 167.681L515.731 145.308ZM508.578 152.442L509.312 151.709L555.13 177.893L569.869 169.47L569.55 170.804L555.378 178.903L555.13 179.044L554.882 178.903L508.578 152.442ZM501.424 159.575L502.158 158.843L555.13 189.114L566.764 182.466L566.446 183.799L555.378 190.124L555.13 190.266L554.882 190.124L501.424 159.575ZM494.27 166.709L495.005 165.976L555.13 200.335L563.66 195.461L563.341 196.795L555.378 201.345L555.13 201.487L554.882 201.345L494.27 166.709ZM487.117 173.842L487.851 173.11L555.13 211.557L560.612 208.424C560.544 208.839 560.49 209.255 560.45 209.669L555.378 212.567L555.13 212.709L554.882 212.567L487.117 173.842ZM479.963 180.975L480.698 180.243L555.13 222.778L561.912 218.903C562.045 219.21 562.186 219.513 562.335 219.812L555.378 223.788L555.13 223.93L554.882 223.788L479.963 180.975ZM472.81 188.109L473.544 187.377L555.13 234L568.062 226.61C568.359 226.828 568.664 227.038 568.976 227.239L555.378 235.01L555.13 235.151L554.882 235.01L472.81 188.109ZM465.656 195.242L466.39 194.51L555.13 245.221L581.562 230.116C582.667 229.978 583.751 229.743 584.802 229.416L555.378 246.231L555.13 246.373L554.882 246.231L465.656 195.242ZM445.105 215.736L447.81 213.038L463.245 204.218L463.493 204.076L463.741 204.218L552.151 254.74C551.908 254.981 551.671 255.23 551.442 255.487L463.493 205.228L445.105 215.736ZM422.501 239.874C422.84 239.276 423.201 238.685 423.585 238.103L463.245 215.439L463.493 215.297L463.741 215.439L547.462 263.281C547.386 263.628 547.321 263.975 547.267 264.322L463.493 216.449L422.501 239.874ZM418.636 253.304C418.655 252.905 418.681 252.506 418.716 252.107L463.245 226.66L463.493 226.519L463.741 226.66L549.39 275.605C549.762 276.25 550.175 276.871 550.627 277.463L463.493 227.67L418.636 253.304ZM419.94 263.781C419.84 263.452 419.746 263.122 419.658 262.79L463.245 237.882L463.493 237.74L463.741 237.882L555.13 290.107L565.649 284.095C566.652 284.004 567.64 283.824 568.601 283.56L555.378 291.117L555.13 291.258L554.882 291.117L463.493 238.892L419.94 263.781ZM424.19 272.573C423.999 272.299 423.812 272.021 423.631 271.741L463.245 249.103L463.493 248.961L463.741 249.103L555.13 301.328L646.519 249.103L646.767 248.961L647.015 249.103L693.481 275.656L693.847 277.017L646.767 250.113L555.378 302.338L555.13 302.48L554.882 302.338L463.493 250.113L424.19 272.573ZM431.232 279.77C430.938 279.556 430.649 279.338 430.364 279.115L463.245 260.325L463.493 260.183L463.741 260.325L555.13 312.549L646.519 260.325L646.767 260.183L647.015 260.325L697.055 288.92L697.421 290.281L646.767 261.335L555.378 313.559L555.13 313.701L554.882 313.559L463.493 261.335L431.232 279.77ZM442.074 284.796L441.519 284.648C441.249 284.575 440.981 284.5 440.715 284.421L463.245 271.546L463.493 271.404L463.741 271.546L526.528 307.426L522.733 306.409L463.493 272.556L442.074 284.796ZM455.442 288.378L454.07 288.011L463.245 282.767L463.493 282.626L463.741 282.767L489.555 297.519L485.761 296.502L463.493 283.777L455.442 288.378ZM593.581 325.392L592.209 325.025L646.519 293.989L646.767 293.847L647.015 293.989L701.139 324.918C701.024 325.236 700.905 325.552 700.78 325.865L646.767 294.999L593.581 325.392ZM606.949 328.974L605.577 328.607L646.519 305.21L646.767 305.068L647.015 305.21L696.422 333.444C696.214 333.71 696.002 333.973 695.785 334.232L646.767 306.22L606.949 328.974ZM620.317 332.556L618.945 332.189L646.519 316.432L646.767 316.29L647.015 316.432L688.896 340.365C688.58 340.571 688.26 340.772 687.936 340.968L646.767 317.442L620.317 332.556ZM633.686 336.138L632.313 335.771L646.519 327.653L646.767 327.511L647.015 327.653L677.266 344.94C676.732 345.03 676.193 345.107 675.651 345.169L646.767 328.663L633.686 336.138ZM649.769 340.448L645.682 339.353L646.519 338.874L646.767 338.733L647.015 338.874L649.769 340.448ZM702.894 315.851L646.767 283.777L580.212 321.81L578.84 321.443L646.519 282.767L646.767 282.626L647.015 282.767L702.914 314.711C702.914 315.093 702.908 315.473 702.894 315.851ZM700.629 302.184L700.996 303.545L646.767 272.556L566.844 318.228L565.472 317.861L646.519 271.546L646.767 271.404L647.015 271.546L700.629 302.184ZM689.907 262.392L690.273 263.754L646.767 238.892L576.107 279.271C576.826 278.574 577.487 277.812 578.08 276.992L646.519 237.882L646.767 237.74L647.015 237.882L689.907 262.392ZM686.332 249.128L686.699 250.49L646.767 227.67L581.245 265.114C581.207 264.755 581.158 264.399 581.098 264.046L646.519 226.66L646.767 226.519L647.015 226.66L686.332 249.128ZM682.758 235.865L683.125 237.226L646.767 216.449L577.495 256.035C577.282 255.771 577.061 255.513 576.833 255.261L646.519 215.439L646.767 215.297L647.015 215.439L682.758 235.865ZM679.184 222.601L679.551 223.962L646.767 205.228L568.16 250.148C567.655 250.029 567.149 249.934 566.644 249.863L646.519 204.218L646.767 204.076L647.015 204.218L679.184 222.601ZM675.61 209.337L675.977 210.698L646.767 194.006L591.907 225.356C592.72 224.617 593.471 223.804 594.148 222.924L646.519 192.996L646.767 192.854L647.015 192.996L675.61 209.337ZM672.036 196.073L672.403 197.435L646.767 182.785L599.356 209.878L599.777 208.486L646.519 181.775L646.767 181.633L647.015 181.775L672.036 196.073ZM668.462 182.809L668.829 184.171L646.767 171.563L603.458 196.313L603.879 194.92L646.519 170.553L646.767 170.412L647.015 170.553L668.462 182.809ZM664.888 169.546L665.255 170.907L646.767 160.342L607.56 182.747L607.981 181.355L646.519 159.332L646.767 159.19L647.015 159.332L664.888 169.546ZM661.314 156.282L661.681 157.643L646.767 149.121L611.662 169.182L612.083 167.789L646.519 148.111L646.767 147.969L647.015 148.111L661.314 156.282ZM657.74 143.018L658.107 144.379L646.767 137.899L615.764 155.616L616.185 154.224L646.519 136.889L646.767 136.748L647.015 136.889L657.74 143.018ZM654.166 129.754L654.533 131.116L646.767 126.678L617.219 143.563C617.163 143.215 617.097 142.868 617.023 142.524L646.519 125.668L646.767 125.526L647.015 125.668L654.166 129.754ZM650.592 116.49L650.959 117.852L646.767 115.457L613.398 134.526C613.198 134.255 612.991 133.989 612.777 133.728L646.519 114.447L646.767 114.305L647.015 114.447L650.592 116.49ZM647.018 103.227L647.385 104.588L646.767 104.235L605.26 127.955C604.878 127.782 604.489 127.62 604.093 127.47L646.519 103.225L646.767 103.083L647.015 103.225L647.018 103.227ZM620.65 63.053L568.109 93.0782L570.814 90.3804L619.265 62.6929C619.729 62.8025 620.191 62.9225 620.65 63.053Z" fill="#FF2D55"/>
<path fill-rule="evenodd" clip-rule="evenodd" d="M641.713 84.2456C635.545 61.3575 606.854 53.6698 590.069 70.4078L427.328 232.691C410.543 249.429 418.252 278.039 441.205 284.189L663.742 343.818C686.695 349.968 707.676 329.046 701.509 306.158L641.713 84.2456ZM601.728 126.349C613.081 129.391 619.673 141.194 616.282 152.408L596.91 216.47C593.976 226.172 583.845 231.787 574.023 229.155C564.169 226.515 558.202 216.534 560.565 206.644L576.116 141.548C578.829 130.189 590.41 123.316 601.728 126.349ZM568.352 249.817C577.701 252.322 583.08 262.204 580.288 271.439C577.619 280.263 568.359 285.522 559.425 283.129C550.463 280.727 545.073 271.493 547.222 262.498C549.457 253.144 559.032 247.32 568.352 249.817Z" fill="url(#paint0_radial)"/>
<path fill-rule="evenodd" clip-rule="evenodd" d="M641.713 84.2456C635.545 61.3575 606.854 53.6698 590.069 70.4078L427.328 232.691C410.543 249.429 418.252 278.039 441.205 284.189L663.742 343.818C686.695 349.968 707.676 329.046 701.509 306.158L641.713 84.2456ZM601.728 126.349C613.081 129.391 619.673 141.194 616.282 152.408L596.91 216.47C593.976 226.172 583.845 231.787 574.023 229.155C564.169 226.515 558.202 216.534 560.565 206.644L576.116 141.548C578.829 130.189 590.41 123.316 601.728 126.349ZM568.352 249.817C577.701 252.322 583.08 262.204 580.288 271.439C577.619 280.263 568.359 285.522 559.425 283.129C550.463 280.727 545.073 271.493 547.222 262.498C549.457 253.144 559.032 247.32 568.352 249.817Z" fill="url(#paint1_radial)"/>
<path d="M762.171 154.427C749.978 166.586 729.136 161.002 724.656 144.375L681.218 -16.8291C676.738 -33.4557 691.979 -48.6545 708.653 -44.1869L870.311 -0.870674C886.985 3.59698 892.585 24.3803 880.391 36.5393L762.171 154.427Z" fill="url(#paint2_radial)"/>
<path d="M496.285 583.104C480.766 598.58 454.238 591.472 448.535 570.31L393.247 365.128C387.545 343.965 406.944 324.62 428.167 330.306L633.927 385.44C655.149 391.126 662.277 417.579 646.758 433.055L496.285 583.104Z" fill="url(#paint3_radial)"/>
<path d="M398.56 133.499C390.657 141.38 377.148 137.76 374.244 126.984L346.09 22.5001C343.186 11.7235 353.065 1.87249 363.872 4.76819L468.65 32.8434C479.457 35.7391 483.087 49.2098 475.184 57.0906L398.56 133.499Z" fill="url(#paint4_radial)"/>
<path d="M778.571 328.331C775.569 331.324 770.438 329.949 769.335 325.856L758.64 286.167C757.537 282.073 761.29 278.331 765.395 279.431L805.196 290.096C809.301 291.196 810.68 296.313 807.678 299.306L778.571 328.331Z" fill="url(#paint5_radial)"/>
<path opacity="0.5" d="M-2.69315 491.205C-32.9185 483.061 -43.0707 445.172 -20.967 423.006L193.34 208.095C215.443 185.929 253.225 196.11 261.347 226.42L340.091 520.297C348.212 550.607 320.583 578.315 290.357 570.17L-2.69315 491.205Z" fill="url(#paint6_linear)"/>
<path fill-rule="evenodd" clip-rule="evenodd" d="M369.436 17.4825C369.936 17.3624 370.445 17.2686 370.962 17.2026L419.545 44.9658L438.439 34.1687L439.811 34.5364L419.793 45.9758L419.545 46.1175L419.297 45.9758L369.436 17.4825ZM360.659 23.6879C360.843 23.4077 361.036 23.134 361.238 22.8673L419.545 56.1872L451.807 37.7508L453.18 38.1184L419.793 57.1972L419.545 57.3389L419.297 57.1972L360.659 23.6879ZM358.473 33.66C358.411 33.2484 358.367 32.839 358.34 32.4326L419.545 67.4086L465.176 41.3328L466.548 41.7004L419.793 68.4186L419.545 68.5603L419.297 68.4186L358.473 33.66ZM361.929 46.8566L361.562 45.4952L419.545 78.6299L478.544 44.9148L479.916 45.2825L419.793 79.6399L419.545 79.7817L419.297 79.6399L361.929 46.8566ZM365.503 60.1204L365.136 58.759L419.545 89.8513L488.738 50.3109C488.955 50.5693 489.163 50.8346 489.361 51.1062L419.793 90.8613L419.545 91.0031L419.297 90.8613L365.503 60.1204ZM369.077 73.3842L368.71 72.0228L419.545 101.073L492.173 59.5692C492.178 59.9589 492.167 60.3494 492.14 60.7396L419.793 102.083L419.545 102.224L419.297 102.083L369.077 73.3842ZM372.651 86.648L372.284 85.2866L419.545 112.294L480.168 77.6511L477.462 80.3489L419.793 113.304L419.545 113.446L419.297 113.304L372.651 86.648ZM376.225 99.9118L375.858 98.5504L419.545 123.515L453.81 103.935L451.104 106.633L419.793 124.525L419.545 124.667L419.297 124.525L376.225 99.9118ZM379.799 113.176L379.433 111.814L419.545 134.737L427.452 130.219L424.746 132.916L419.793 135.747L419.545 135.889L419.297 135.747L379.799 113.176ZM383.373 126.439L383.007 125.078L414.538 143.097L413.803 143.829L383.373 126.439ZM386.947 139.703L386.581 138.342L406.294 149.607C405.875 149.77 405.451 149.912 405.024 150.033L386.947 139.703ZM426.443 30.9544L419.793 34.7544L419.545 34.8961L419.297 34.7544L400.468 23.9945L404.263 25.0113L419.545 33.7444L425.071 30.5867L426.443 30.9544Z" fill="#007AFF"/>
<path fill-rule="evenodd" clip-rule="evenodd" d="M731.852 -38.3574C732.748 -38.2791 733.652 -38.1479 734.561 -37.9609L800.741 -0.142224L824.722 -13.8465L826.094 -13.4789L800.989 0.867771L800.741 1.00953L800.493 0.867771L731.852 -38.3574ZM717.931 -35.0915C718.26 -35.2922 718.595 -35.4849 718.935 -35.6693L800.741 11.0792L838.091 -10.2645L839.463 -9.89687L800.989 12.0892L800.741 12.2309L800.493 12.0892L717.931 -35.0915ZM710.599 -28.0601C710.785 -28.3386 710.976 -28.613 711.174 -28.883L800.741 22.3005L851.459 -6.68251L852.831 -6.31485L800.989 23.3105L800.741 23.4523L800.493 23.3105L710.599 -28.0601ZM706.76 -16.3535C706.777 -16.7555 706.804 -17.1551 706.842 -17.5519L708.856 -18.7028L709.104 -18.8445L709.352 -18.7028L800.741 33.5219L864.827 -3.10049L866.199 -2.73284L800.989 34.5319L800.741 34.6737L800.493 34.5319L709.104 -17.6928L706.76 -16.3535ZM708.427 -6.0846L708.158 -7.08267L708.856 -7.4814L709.104 -7.62316L709.352 -7.4814L800.741 44.7433L878.195 0.481517L879.567 0.849178L800.989 45.7533L800.741 45.8951L800.493 45.7533L709.104 -6.4714L708.427 -6.0846ZM711.755 6.26479L711.388 4.9034L800.741 55.9647L891.564 4.06353L894.63 4.88513L917.435 17.9174C917.748 18.4564 918.039 19.0071 918.308 19.5678L892.378 4.74998L800.989 56.9747L800.741 57.1165L800.493 56.9747L711.755 6.26479ZM715.329 19.5286L714.962 18.1672L800.741 67.1861L892.13 14.9614L892.378 14.8196L892.626 14.9614L920.584 30.9381C920.564 31.306 920.536 31.6738 920.499 32.0413L892.378 15.9714L800.989 68.1961L800.741 68.3378L800.493 68.1961L715.329 19.5286ZM718.903 32.7924L718.536 31.431L800.741 78.4075L892.13 26.1828L892.378 26.041L892.626 26.1828L917.855 40.6C917.696 40.8914 917.53 41.1805 917.357 41.4672L892.378 27.1928L800.989 79.4175L800.741 79.5592L800.493 79.4175L718.903 32.7924ZM722.477 46.0562L722.11 44.6948L800.741 89.6289L892.13 37.4042L892.378 37.2624L892.626 37.4042L911.556 48.2218L910.822 48.954L892.378 38.4142L800.989 90.6389L800.741 90.7806L800.493 90.6389L722.477 46.0562ZM726.051 59.32L725.684 57.9586L800.741 100.85L892.13 48.6255L892.378 48.4838L892.626 48.6255L904.402 55.3552L903.668 56.0874L892.378 49.6355L800.989 101.86L800.741 102.002L800.493 101.86L726.051 59.32ZM729.625 72.5838L729.258 71.2224L800.741 112.072L892.13 59.8469L892.378 59.7052L892.626 59.8469L897.249 62.4887L896.514 63.2209L892.378 60.8569L800.989 113.082L800.741 113.223L800.493 113.082L729.625 72.5838ZM733.199 85.8476L732.832 84.4862L800.741 123.293L883.967 75.7329L881.262 78.4307L800.989 124.303L800.741 124.445L800.493 124.303L733.199 85.8476ZM736.773 99.1114L736.406 97.75L800.741 134.514L857.609 102.017L854.904 104.714L800.989 135.524L800.741 135.666L800.493 135.524L736.773 99.1114ZM740.347 112.375L739.98 111.014L800.741 145.736L831.251 128.3L828.546 130.998L800.989 146.746L800.741 146.888L800.493 146.746L740.347 112.375ZM743.921 125.639L743.554 124.278L800.741 156.957L804.893 154.584L802.188 157.282L800.989 157.967L800.741 158.109L800.493 157.967L743.921 125.639ZM747.495 138.903L747.128 137.541L794.714 164.735L793.98 165.467L747.495 138.903ZM751.069 152.167L750.702 150.805L786.964 171.527C786.631 171.729 786.296 171.921 785.957 172.103L751.069 152.167ZM757.717 167.187C757.111 166.518 756.541 165.809 756.011 165.06L772.93 174.729C772.007 174.644 771.09 174.504 770.185 174.312L757.717 167.187ZM812.726 -17.0609L800.989 -10.3536L800.741 -10.2119L800.493 -10.3536L767.593 -29.1542L771.388 -28.1373L800.741 -11.3636L811.354 -17.4286L812.726 -17.0609Z" fill="#FF2D55"/>
<path fill-rule="evenodd" clip-rule="evenodd" d="M463.826 351.478C464.722 351.556 465.626 351.687 466.535 351.874L532.715 389.693L556.696 375.988L558.068 376.356L532.963 390.703L532.715 390.844L532.467 390.703L463.826 351.478ZM449.905 354.743C450.234 354.543 450.569 354.35 450.909 354.166L532.715 400.914L570.065 379.57L571.437 379.938L532.963 401.924L532.715 402.066L532.467 401.924L449.905 354.743ZM442.573 361.775C442.759 361.496 442.95 361.222 443.148 360.952L532.715 412.135L583.433 383.152L584.805 383.52L532.963 413.145L532.715 413.287L532.467 413.145L442.573 361.775ZM438.734 373.481C438.751 373.079 438.778 372.68 438.816 372.283L440.83 371.132L441.078 370.99L441.326 371.132L532.715 423.357L596.801 386.734L598.173 387.102L532.963 424.367L532.715 424.509L532.467 424.367L441.078 372.142L438.734 373.481ZM440.401 383.75L440.132 382.752L440.83 382.354L441.078 382.212L441.326 382.354L532.715 434.578L610.169 390.316L611.542 390.684L532.963 435.588L532.715 435.73L532.467 435.588L441.078 383.364L440.401 383.75ZM443.729 396.1L443.362 394.738L532.715 445.8L623.538 393.898L626.604 394.72L649.409 407.752C649.722 408.291 650.013 408.842 650.282 409.403L624.352 394.585L532.963 446.81L532.715 446.951L532.467 446.81L443.729 396.1ZM447.303 409.364L446.936 408.002L532.715 457.021L624.104 404.796L624.352 404.655L624.6 404.796L652.558 420.773C652.538 421.141 652.51 421.509 652.473 421.876L624.352 405.806L532.963 458.031L532.715 458.173L532.467 458.031L447.303 409.364ZM450.877 422.627L450.51 421.266L532.715 468.242L624.104 416.018L624.352 415.876L624.6 416.018L649.829 430.435C649.67 430.726 649.504 431.015 649.331 431.302L624.352 417.028L532.963 469.252L532.715 469.394L532.467 469.252L450.877 422.627ZM454.451 435.891L454.084 434.53L532.715 479.464L624.104 427.239L624.352 427.097L624.6 427.239L643.53 438.057L642.796 438.789L624.352 428.249L532.963 480.474L532.715 480.616L532.467 480.474L454.451 435.891ZM458.025 449.155L457.658 447.794L532.715 490.685L624.104 438.46L624.352 438.319L624.6 438.46L636.376 445.19L635.642 445.922L624.352 439.47L532.963 491.695L532.715 491.837L532.467 491.695L458.025 449.155ZM461.599 462.419L461.232 461.057L532.715 501.907L624.104 449.682L624.352 449.54L624.6 449.682L629.223 452.324L628.489 453.056L624.352 450.692L532.963 502.917L532.715 503.058L532.467 502.917L461.599 462.419ZM465.173 475.683L464.806 474.321L532.715 513.128L615.941 465.568L613.236 468.266L532.963 514.138L532.715 514.28L532.467 514.138L465.173 475.683ZM468.747 488.946L468.38 487.585L532.715 524.349L589.583 491.852L586.878 494.549L532.963 525.359L532.715 525.501L532.467 525.359L468.747 488.946ZM472.321 502.21L471.954 500.849L532.715 535.571L563.225 518.135L560.52 520.833L532.963 536.581L532.715 536.722L532.467 536.581L472.321 502.21ZM475.895 515.474L475.528 514.113L532.715 546.792L536.867 544.419L534.162 547.117L532.963 547.802L532.715 547.944L532.467 547.802L475.895 515.474ZM479.469 528.738L479.102 527.376L526.688 554.57L525.954 555.302L479.469 528.738ZM483.043 542.002L482.677 540.64L518.938 561.362C518.606 561.564 518.27 561.756 517.931 561.938L483.043 542.002ZM489.691 557.022C489.085 556.353 488.515 555.644 487.985 554.895L504.905 564.564C503.981 564.479 503.064 564.339 502.159 564.147L489.691 557.022ZM544.7 372.774L532.963 379.481L532.715 379.623L532.467 379.481L499.568 360.681L503.362 361.698L532.715 378.471L543.328 372.406L544.7 372.774Z" fill="#FF2D55"/>
</g>
<defs>
<radialGradient id="paint0_radial" cx="0" cy="0" r="1" gradientUnits="userSpaceOnUse" gradientTransform="translate(374.845 270.712) rotate(-17.0987) scale(433.786 309.209)">
<stop stop-color="#3DB0F0"/>
<stop offset="0.782422" stop-color="#1DA3EF" stop-opacity="0"/>
</radialGradient>
<radialGradient id="paint1_radial" cx="0" cy="0" r="1" gradientUnits="userSpaceOnUse" gradientTransform="translate(685.792 346.306) rotate(-125.442) scale(419.809 465.435)">
<stop stop-color="#F03D3D"/>
<stop offset="0.557946" stop-color="#EF4F1D" stop-opacity="0"/>
</radialGradient>
<radialGradient id="paint2_radial" cx="0" cy="0" r="1" gradientUnits="userSpaceOnUse" gradientTransform="translate(892.169 97.5941) rotate(-165.705) scale(288.658 205.76)">
<stop stop-color="#3DB0F0"/>
<stop offset="0.782422" stop-color="#1DA3EF" stop-opacity="0"/>
</radialGradient>
<radialGradient id="paint3_radial" cx="0" cy="0" r="1" gradientUnits="userSpaceOnUse" gradientTransform="translate(661.748 510.767) rotate(-165.705) scale(367.407 261.893)">
<stop stop-color="#3DB0F0"/>
<stop offset="0.782422" stop-color="#1DA3EF" stop-opacity="0"/>
</radialGradient>
<radialGradient id="paint4_radial" cx="0" cy="0" r="1" gradientUnits="userSpaceOnUse" gradientTransform="translate(218.037 -29.7264) rotate(28.1237) scale(407.654 451.959)">
<stop stop-color="#F03D3D" stop-opacity="0.35"/>
<stop offset="0.83748" stop-color="#EF4F1D" stop-opacity="0"/>
</radialGradient>
<radialGradient id="paint5_radial" cx="0" cy="0" r="1" gradientUnits="userSpaceOnUse" gradientTransform="translate(877 337) rotate(-153.287) scale(175.503 125.101)">
<stop stop-color="#3DB0F0"/>
<stop offset="0.782422" stop-color="#1DA3EF" stop-opacity="0"/>
</radialGradient>
<linearGradient id="paint6_linear" x1="272.425" y1="648.974" x2="175.438" y2="-39.1614" gradientUnits="userSpaceOnUse">
<stop stop-color="#3DB0F0"/>
<stop offset="0.782422" stop-color="#1DA3EF" stop-opacity="0"/>
</linearGradient>
<clipPath id="clip0">
<rect width="800" height="429.268" fill="white"/>
</clipPath>
</defs>
</svg>
