<svg width="260" height="259" viewBox="0 0 260 259" fill="none" xmlns="http://www.w3.org/2000/svg">
<path d="M119.561 258.764C77.2939 254.554 38.9757 232.352 18.317 200.101C9.88881 186.943 3.37711 170.327 1.32748 156.748C0.408297 150.658 -0.218674 136.469 0.0715946 128.326C1.12184 98.8602 8.01065 76.0081 21.9441 55.7684C26.8226 48.6819 30.0092 44.9657 36.8694 38.3625C47.8336 27.8091 58.861 20.3566 74.4892 12.9387C88.4339 6.31987 99.7656 2.86822 114.508 0.749045C122.023 -0.331238 139.18 -0.224757 147.005 0.950417C171.985 4.70266 193.968 15.3786 214.937 33.942C237.321 53.7569 252.161 76.8991 257.577 100.435C259.612 109.276 259.976 112.764 259.999 123.632C260.023 134.648 259.738 137.672 257.758 147.51L256.496 153.787L251.796 154.697C238.952 157.184 222.503 161.636 212.13 165.432C204.126 168.362 202.501 169.025 190.908 174.086C179.788 178.94 174.749 180.859 168.723 182.535C156.128 186.038 142.681 186.335 133.596 183.311C121.37 179.241 112.226 169.512 110.236 158.458C109.568 154.745 109.969 147.512 111.057 143.623C113.677 134.267 119.467 124.629 128.44 114.691C130.1 112.853 131.494 111.384 131.537 111.428C131.579 111.469 132.116 115.466 132.729 120.307C133.341 125.147 133.871 129.15 133.907 129.203C133.944 129.256 135.504 128.757 137.374 128.097C148.33 124.228 159.622 123.517 171.109 125.973C176.729 127.175 187.091 130.44 197.173 134.187C201.064 135.633 205.43 137.058 206.875 137.355C213.762 138.77 225.015 137.373 232.189 134.215C234.144 133.354 234.291 133.186 234.812 131.205C235.519 128.523 235.526 120.894 234.824 117.517L234.286 114.922L226.339 109.639C178.473 77.8142 138.315 58.9574 104.184 52.2787C94.9026 50.4625 78.7312 48.9043 78.7312 49.8263C78.7312 50.0476 78.6338 50.4737 78.5146 50.7737C78.3579 51.1694 83.0208 53.5698 95.4833 59.5086C104.935 64.0128 112.672 67.7861 112.676 67.8936C112.68 68.0013 109.364 69.2074 105.308 70.574C93.7497 74.4679 86.0028 77.5452 78.1217 81.373C71.6026 84.5392 62.168 90.0052 62.1604 90.6202C62.1588 90.7502 65.6886 91.1769 70.0045 91.5695L77.8515 92.283L73.5374 96.8097C67.7209 102.913 64.3531 106.82 56.1513 116.982L49.2059 125.587L55.2775 125.695C58.6168 125.754 61.3452 125.93 61.3405 126.086C61.3357 126.242 58.5324 135.61 55.1107 146.904C51.6891 158.199 48.9239 167.474 48.966 167.516C49.0083 167.556 51.9264 166.968 55.4509 166.206C59.6207 165.305 61.9489 164.962 62.1161 165.223C62.2576 165.445 62.9853 174.571 63.7334 185.503C64.4816 196.436 65.1523 205.445 65.2237 205.525C65.2952 205.605 67.8355 203.625 70.869 201.125C73.9025 198.625 76.5031 196.581 76.6482 196.583C76.7933 196.584 81.8233 203.969 87.8261 212.991C93.829 222.014 98.8714 229.405 99.0316 229.416C99.1919 229.427 101.539 226.872 104.246 223.739C108.186 219.181 109.266 218.145 109.65 218.557C109.914 218.839 111.929 221.271 114.129 223.96C116.329 226.649 120.224 230.897 122.785 233.4L127.441 237.951L137.344 237.958C152.733 237.97 162.49 239.559 175.45 244.171L179.397 245.576L178.077 246.537C170.287 252.204 160.411 255.956 147.854 258.017C143.897 258.666 140.654 258.874 132.898 258.976C127.451 259.048 121.448 258.953 119.558 258.764L119.561 258.764Z" fill="url(#paint0_radial)"/>
<path d="M119.561 258.764C77.2939 254.554 38.9757 232.352 18.317 200.101C9.88881 186.943 3.37711 170.327 1.32748 156.748C0.408297 150.658 -0.218674 136.469 0.0715946 128.326C1.12184 98.8602 8.01065 76.0081 21.9441 55.7684C26.8226 48.6819 30.0092 44.9657 36.8694 38.3625C47.8336 27.8091 58.861 20.3566 74.4892 12.9387C88.4339 6.31987 99.7656 2.86822 114.508 0.749045C122.023 -0.331238 139.18 -0.224757 147.005 0.950417C171.985 4.70266 193.968 15.3786 214.937 33.942C237.321 53.7569 252.161 76.8991 257.577 100.435C259.612 109.276 259.976 112.764 259.999 123.632C260.023 134.648 259.738 137.672 257.758 147.51L256.496 153.787L251.796 154.697C238.952 157.184 222.503 161.636 212.13 165.432C204.126 168.362 202.501 169.025 190.908 174.086C179.788 178.94 174.749 180.859 168.723 182.535C156.128 186.038 142.681 186.335 133.596 183.311C121.37 179.241 112.226 169.512 110.236 158.458C109.568 154.745 109.969 147.512 111.057 143.623C113.677 134.267 119.467 124.629 128.44 114.691C130.1 112.853 131.494 111.384 131.537 111.428C131.579 111.469 132.116 115.466 132.729 120.307C133.341 125.147 133.871 129.15 133.907 129.203C133.944 129.256 135.504 128.757 137.374 128.097C148.33 124.228 159.622 123.517 171.109 125.973C176.729 127.175 187.091 130.44 197.173 134.187C201.064 135.633 205.43 137.058 206.875 137.355C213.762 138.77 225.015 137.373 232.189 134.215C234.144 133.354 234.291 133.186 234.812 131.205C235.519 128.523 235.526 120.894 234.824 117.517L234.286 114.922L226.339 109.639C178.473 77.8142 138.315 58.9574 104.184 52.2787C94.9026 50.4625 78.7312 48.9043 78.7312 49.8263C78.7312 50.0476 78.6338 50.4737 78.5146 50.7737C78.3579 51.1694 83.0208 53.5698 95.4833 59.5086C104.935 64.0128 112.672 67.7861 112.676 67.8936C112.68 68.0013 109.364 69.2074 105.308 70.574C93.7497 74.4679 86.0028 77.5452 78.1217 81.373C71.6026 84.5392 62.168 90.0052 62.1604 90.6202C62.1588 90.7502 65.6886 91.1769 70.0045 91.5695L77.8515 92.283L73.5374 96.8097C67.7209 102.913 64.3531 106.82 56.1513 116.982L49.2059 125.587L55.2775 125.695C58.6168 125.754 61.3452 125.93 61.3405 126.086C61.3357 126.242 58.5324 135.61 55.1107 146.904C51.6891 158.199 48.9239 167.474 48.966 167.516C49.0083 167.556 51.9264 166.968 55.4509 166.206C59.6207 165.305 61.9489 164.962 62.1161 165.223C62.2576 165.445 62.9853 174.571 63.7334 185.503C64.4816 196.436 65.1523 205.445 65.2237 205.525C65.2952 205.605 67.8355 203.625 70.869 201.125C73.9025 198.625 76.5031 196.581 76.6482 196.583C76.7933 196.584 81.8233 203.969 87.8261 212.991C93.829 222.014 98.8714 229.405 99.0316 229.416C99.1919 229.427 101.539 226.872 104.246 223.739C108.186 219.181 109.266 218.145 109.65 218.557C109.914 218.839 111.929 221.271 114.129 223.96C116.329 226.649 120.224 230.897 122.785 233.4L127.441 237.951L137.344 237.958C152.733 237.97 162.49 239.559 175.45 244.171L179.397 245.576L178.077 246.537C170.287 252.204 160.411 255.956 147.854 258.017C143.897 258.666 140.654 258.874 132.898 258.976C127.451 259.048 121.448 258.953 119.558 258.764L119.561 258.764Z" fill="url(#paint1_radial)"/>
<defs>
<radialGradient id="paint0_radial" cx="0" cy="0" r="1" gradientUnits="userSpaceOnUse" gradientTransform="translate(247.123 31.8788) rotate(146.791) scale(184.692 184.674)">
<stop stop-color="#2CB9B0"/>
<stop offset="1" stop-color="#2CB9B0" stop-opacity="0"/>
</radialGradient>
<radialGradient id="paint1_radial" cx="0" cy="0" r="1" gradientUnits="userSpaceOnUse" gradientTransform="translate(24.5283 232.961) rotate(-42.0446) scale(202.304 202.299)">
<stop stop-color="#3D67FF"/>
<stop offset="1" stop-color="#6184FF" stop-opacity="0"/>
</radialGradient>
</defs>
</svg>
