<svg width="800" height="430" viewBox="0 0 800 430" fill="none" xmlns="http://www.w3.org/2000/svg">
<g clip-path="url(#clip0)">
<circle cx="755.5" cy="399.5" r="291.5" fill="url(#paint0_linear)"/>
<path fill-rule="evenodd" clip-rule="evenodd" d="M374.149 318.031C374.643 319.239 375.259 320.386 375.982 321.459C381.243 324.57 386.6 327.539 392.046 330.358C392.377 330.373 392.709 330.381 393.044 330.381L396.495 330.381C388.87 326.551 381.416 322.43 374.149 318.031ZM408.169 330.381C395.931 324.729 384.11 318.325 372.766 311.229C372.758 310.622 372.778 310.007 372.829 309.386C372.841 309.234 372.854 309.082 372.867 308.93C385.662 316.997 399.073 324.177 413.013 330.381L408.169 330.381ZM675.873 330.381C686.199 325.612 696.227 320.308 705.923 314.505C706.081 313.683 706.185 312.842 706.231 311.985C694.938 318.82 683.185 324.971 671.029 330.381L675.873 330.381ZM687.684 330.313C692.628 327.826 697.501 325.217 702.297 322.49C698.901 326.879 693.628 329.835 687.684 330.313ZM658.36 330.381C674.967 323.72 690.87 315.674 705.926 306.388C705.853 305.641 705.777 304.905 705.696 304.177C689.07 314.504 671.397 323.303 652.873 330.381L658.36 330.381ZM638.173 330.381C661.87 322.536 684.282 311.871 705.012 298.783C704.906 298.053 704.796 297.333 704.683 296.624C682.161 310.934 657.628 322.359 631.602 330.381L638.173 330.381ZM447.468 328.801C447.465 329.325 447.464 329.852 447.464 330.381L445.869 330.381C420.423 321.957 396.459 310.281 374.468 295.845C374.589 295.118 374.714 294.403 374.843 293.698C397.166 308.442 421.549 320.318 447.468 328.801ZM472.004 330.487C469.046 329.776 466.106 329.022 463.183 328.224C463.188 327.529 463.194 326.839 463.202 326.155C469.11 327.779 475.092 329.225 481.141 330.487L472.004 330.487ZM615.587 329.611C614.407 329.91 613.224 330.202 612.038 330.487L602.901 330.487C607.16 329.599 611.386 328.619 615.576 327.55C615.581 328.232 615.585 328.919 615.587 329.611ZM631.52 325.098C657.255 317.025 681.489 305.563 703.701 291.234C703.555 290.526 703.405 289.829 703.25 289.143C681.177 303.462 657.08 314.926 631.483 323.012C631.497 323.703 631.51 324.398 631.52 325.098ZM631.335 317.879C656.549 309.779 680.267 298.341 701.969 284.086C701.777 283.405 701.579 282.737 701.376 282.082C679.838 296.293 656.29 307.707 631.251 315.804C631.281 316.491 631.309 317.183 631.335 317.879ZM630.979 310.701C655.532 302.635 678.611 291.321 699.709 277.266C699.459 276.62 699.204 275.989 698.943 275.372C678.041 289.341 655.173 300.598 630.842 308.64C630.89 309.322 630.936 310.009 630.979 310.701ZM615.142 313.326C615.18 314.001 615.215 314.681 615.247 315.368C591.882 321.567 567.337 324.871 542.021 324.871C514.818 324.871 488.505 321.057 463.589 313.934C463.625 313.245 463.664 312.562 463.705 311.886C488.575 319.039 514.85 322.871 542.021 322.871C567.307 322.871 591.818 319.552 615.142 313.326ZM630.428 303.576C654.144 295.622 676.432 284.556 696.807 270.863C696.488 270.263 696.163 269.678 695.831 269.109C676.148 282.354 654.664 293.129 631.824 300.989L630.42 303.482C630.423 303.513 630.426 303.545 630.428 303.576ZM614.652 306.274C614.709 306.944 614.763 307.62 614.815 308.303C591.614 314.585 567.209 317.936 542.021 317.936C514.957 317.936 488.797 314.067 464.064 306.851C464.12 306.167 464.179 305.489 464.24 304.818C488.909 312.054 515.012 315.936 542.021 315.936C567.158 315.936 591.51 312.574 614.652 306.274ZM635.615 294.257C656.025 286.739 675.28 276.833 693.041 264.877C692.635 264.334 692.222 263.809 691.802 263.3C674.85 274.697 656.53 284.215 637.138 291.553L635.615 294.257ZM613.923 299.143C614.003 299.806 614.081 300.477 614.155 301.155C591.189 307.486 567 310.868 542.021 310.868C515.181 310.868 489.254 306.963 464.775 299.691C464.855 299.012 464.938 298.341 465.023 297.677C489.416 304.958 515.262 308.868 542.021 308.868C566.925 308.868 591.037 305.481 613.923 299.143ZM641.26 284.635C657.871 277.887 673.64 269.496 688.364 259.663C687.851 259.19 687.33 258.736 686.8 258.301C673.058 267.438 658.402 275.31 643 281.753L641.26 284.635ZM612.945 292.215C613.052 292.87 613.156 293.534 613.256 294.205C590.596 300.544 566.705 303.934 542.021 303.934C515.496 303.934 489.885 300.02 465.735 292.737C465.842 292.066 465.953 291.403 466.066 290.748C490.106 298.023 515.607 301.934 542.021 301.934C566.6 301.934 590.389 298.547 612.945 292.215ZM647.406 274.46C659.629 268.955 671.344 262.522 682.462 255.251C681.813 254.863 681.155 254.497 680.486 254.15C670.529 260.605 660.092 266.383 649.241 271.421L647.406 274.46ZM611.654 285.372C611.793 286.018 611.929 286.672 612.061 287.336C589.796 293.631 566.302 296.999 542.021 296.999C515.923 296.999 490.734 293.108 467.003 285.874C467.143 285.211 467.287 284.558 467.435 283.914C491.026 291.121 516.071 294.999 542.021 294.999C566.163 294.999 589.521 291.643 611.654 285.372ZM653.914 263.685C661.147 260.058 668.18 256.091 674.992 251.804C674.167 251.518 673.331 251.255 672.483 251.012C667.081 254.361 661.54 257.508 655.872 260.442L653.914 263.685ZM609.984 278.636C610.163 279.269 610.338 279.913 610.509 280.566C588.744 286.753 565.769 290.065 542.021 290.065C516.487 290.065 491.847 286.236 468.644 279.122C468.824 278.471 469.009 277.83 469.198 277.199C492.225 284.263 516.679 288.065 542.021 288.065C565.588 288.065 588.386 284.777 609.984 278.636ZM661.037 251.892C662.459 251.091 663.872 250.276 665.277 249.448C664.436 249.315 663.587 249.196 662.729 249.09L661.037 251.892ZM470.79 272.385C492.294 278.971 515.068 282.653 538.653 282.974L537.437 280.954C514.534 280.527 492.413 276.903 471.501 270.511C471.259 271.124 471.022 271.749 470.79 272.385ZM607.798 271.907C608.027 272.525 608.253 273.154 608.473 273.795C587.353 279.789 565.062 282.997 542.021 282.997C541.904 282.997 541.786 282.997 541.668 282.996L542.873 280.995C565.375 280.917 587.15 277.754 607.798 271.907ZM473.485 265.955C492.861 271.827 513.29 275.273 534.42 275.942L533.19 273.899C512.819 273.143 493.113 269.782 474.396 264.141C474.087 264.732 473.783 265.337 473.485 265.955ZM605.045 265.476C605.339 266.074 605.628 266.686 605.911 267.311C586.768 272.683 566.641 275.7 545.861 276.031L547.079 274.009C567.123 273.583 586.546 270.638 605.045 265.476ZM476.951 259.753C493.94 264.777 511.751 267.885 530.136 268.825L528.889 266.754C511.364 265.755 494.371 262.768 478.132 258.015C477.731 258.578 477.338 259.157 476.951 259.753ZM601.488 259.26C601.87 259.833 602.245 260.422 602.613 261.027C585.801 265.627 568.219 268.36 550.101 268.988L551.334 266.94C568.62 266.243 585.408 263.613 601.488 259.26ZM659.799 228.429C653.576 232.328 647.146 235.928 640.53 239.208C639.9 239.262 639.267 239.29 638.63 239.29C637.772 239.29 636.921 239.24 636.078 239.142C645.698 234.588 654.936 229.357 663.73 223.51C662.485 225.268 661.172 226.914 659.799 228.429ZM443.293 239.099C433.056 234.01 423.268 228.156 414.002 221.609C413.098 220.222 412.234 218.773 411.413 217.272C422.374 225.365 434.113 232.465 446.496 238.44C445.442 238.735 444.374 238.956 443.293 239.099ZM481.488 253.844C495.726 257.868 510.546 260.508 525.792 261.609L524.527 259.508C510.281 258.388 496.417 255.911 483.063 252.208C482.529 252.733 482.004 253.278 481.488 253.844ZM487.79 248.229C498.649 251.05 509.841 253.044 521.295 254.139L520.009 252.002C509.784 250.952 499.774 249.18 490.03 246.736C489.271 247.206 488.524 247.703 487.79 248.229ZM496.933 243.293C503.447 244.732 510.076 245.865 516.804 246.678L515.492 244.499C510.458 243.852 505.48 243.023 500.566 242.02C499.332 242.401 498.121 242.824 496.933 243.293ZM460.583 229.476C460.079 229.999 459.567 230.504 459.048 230.991C438.592 222.088 419.846 209.994 403.438 195.337C403.21 194.257 403.003 193.17 402.817 192.079C419.722 207.57 439.219 220.277 460.583 229.476ZM564.558 244.972C569.82 244.4 575.023 243.63 580.158 242.669C581.329 243.082 582.477 243.536 583.603 244.036C576.934 245.388 570.15 246.421 563.266 247.119L564.558 244.972ZM560.106 252.368L558.836 254.477C570.262 253.594 581.438 251.817 592.293 249.217C591.595 248.672 590.885 248.154 590.162 247.663C580.384 249.922 570.348 251.507 560.106 252.368ZM626.337 235.789C627.085 236.224 627.843 236.621 628.611 236.98C643.233 230.54 657.001 222.52 669.7 213.134C670.265 211.922 670.803 210.682 671.313 209.42C657.546 219.948 642.456 228.835 626.337 235.789ZM674.248 200.79C674.556 199.692 674.843 198.583 675.108 197.466C658.716 211.342 640.127 222.704 619.936 230.954C620.482 231.468 621.037 231.961 621.599 232.433C640.759 224.498 658.477 213.782 674.248 200.79ZM676.587 189.625C659.016 205.447 638.641 218.217 616.299 227.099C615.852 226.569 615.413 226.025 614.981 225.469C638.058 216.379 659.028 203.105 676.958 186.582C676.853 187.599 676.729 188.613 676.587 189.625ZM401.87 184.401C419.697 201.717 440.722 215.759 463.974 225.556C464.393 225.018 464.806 224.467 465.211 223.905C441.322 213.911 419.794 199.396 401.698 181.43C401.737 182.42 401.794 183.411 401.87 184.401ZM401.744 174.435C420.289 193.793 442.801 209.32 467.975 219.709C468.32 219.136 468.659 218.554 468.991 217.963C443.407 207.448 420.591 191.574 401.941 171.738C401.859 172.624 401.793 173.523 401.744 174.435ZM402.88 165.273C421.623 186.092 444.971 202.682 471.321 213.44C471.604 212.839 471.88 212.231 472.15 211.618C445.604 200.793 422.134 183.986 403.415 162.87C403.221 163.658 403.043 164.459 402.88 165.273ZM676.521 167.352C676.657 168.179 676.777 169.019 676.881 169.872C657.882 189.609 634.591 205.186 608.511 215.099C608.212 214.504 607.919 213.902 607.633 213.293C634 203.299 657.491 187.458 676.521 167.352ZM405.108 157.303C423.64 178.929 447.208 196.113 473.994 207.039C474.223 206.414 474.446 205.785 474.661 205.151C447.876 194.209 424.349 176.937 405.939 155.193C405.648 155.883 405.371 156.586 405.108 157.303ZM674.579 159.232C674.816 159.966 675.038 160.714 675.246 161.475C656.28 182.279 632.506 198.624 605.681 208.754C605.438 208.135 605.202 207.512 604.972 206.883C631.884 196.721 655.691 180.233 674.579 159.232ZM408.324 150.353C426.33 172.16 449.568 189.488 476.117 200.413C476.295 199.765 476.466 199.114 476.63 198.46C450.271 187.565 427.225 170.281 409.421 148.538C409.043 149.129 408.677 149.734 408.324 150.353ZM671.637 152.085C671.965 152.724 672.28 153.378 672.583 154.045C654.002 175.315 630.308 192.004 603.418 202.194C603.227 201.554 603.043 200.911 602.866 200.264C629.652 190.083 653.223 173.376 671.637 152.085ZM412.436 144.424C429.654 165.781 452.044 182.795 477.703 193.561C477.83 192.889 477.949 192.215 478.059 191.54C452.777 180.849 430.726 164.013 413.78 142.904C413.321 143.395 412.873 143.902 412.436 144.424ZM667.78 145.922C668.192 146.466 668.593 147.025 668.982 147.598C651.077 168.722 627.994 185.318 601.694 195.428C601.554 194.766 601.421 194.102 601.297 193.437C627.307 183.376 650.117 166.888 667.78 145.922ZM417.495 139.435C433.664 159.674 454.663 175.885 478.748 186.321C478.818 185.62 478.879 184.919 478.931 184.218C455.417 173.911 434.909 158.018 419.084 138.219C418.545 138.608 418.015 139.013 417.495 139.435ZM662.965 140.663C663.459 141.108 663.943 141.569 664.416 142.045C647.46 162.379 625.531 178.422 600.498 188.306C600.413 187.62 600.336 186.933 600.268 186.245C624.819 176.452 646.323 160.653 662.965 140.663ZM423.311 135.602C438.19 154.071 457.29 168.995 479.146 178.91C479.147 178.737 479.148 178.563 479.148 178.39C479.148 177.823 479.142 177.26 479.129 176.702C458.051 166.982 439.605 152.528 425.155 134.702C424.532 134.984 423.917 135.284 423.311 135.602ZM657.377 136.535C657.954 136.879 658.521 137.24 659.079 137.618C643.308 156.526 623.041 171.554 599.921 181.06C599.897 180.344 599.882 179.628 599.877 178.913C622.316 169.551 642 154.907 657.377 136.535ZM430.064 132.906C443.313 148.869 459.911 161.952 478.78 171.079C478.698 170.279 478.601 169.489 478.491 168.711C460.649 159.881 444.907 147.449 432.217 132.364C431.492 132.523 430.774 132.703 430.064 132.906ZM650.856 133.503C651.527 133.735 652.189 133.986 652.843 134.257C638.559 151.05 620.526 164.556 600.038 173.479C600.09 172.713 600.154 171.956 600.229 171.209C619.808 162.505 637.075 149.545 650.856 133.503ZM438.037 131.561C449.091 144.118 462.385 154.656 477.293 162.552C477.064 161.642 476.815 160.751 476.546 159.878C463.028 152.474 450.901 142.848 440.654 131.492C440.567 131.491 440.48 131.491 440.393 131.491C439.602 131.491 438.816 131.514 438.037 131.561ZM643.153 131.752C643.951 131.845 644.741 131.963 645.523 132.106C633.177 145.982 618.083 157.36 601.095 165.383C601.261 164.542 601.444 163.715 601.644 162.902C617.419 155.229 631.494 144.607 643.153 131.752ZM448.407 132.328C455.905 139.937 464.323 146.636 473.482 152.245C472.827 150.954 472.121 149.719 471.368 148.541C464.556 144.095 458.189 139.024 452.349 133.41C451.063 132.977 449.748 132.616 448.407 132.328ZM633.282 131.858C634.306 131.715 635.344 131.614 636.392 131.554C626.91 141.335 615.92 149.647 603.798 156.115C604.207 155.086 604.644 154.087 605.11 153.119C615.46 147.329 624.934 140.159 633.282 131.858ZM496.175 161.156C496.181 161.873 496.196 162.591 496.219 163.309C510.481 168.612 525.913 171.51 542.021 171.51C556.132 171.51 569.724 169.286 582.464 165.17C582.503 164.459 582.532 163.747 582.553 163.036C569.803 167.237 556.178 169.51 542.021 169.51C525.878 169.51 510.426 166.555 496.175 161.156ZM582.55 157.829C569.845 162.202 556.211 164.576 542.021 164.576C525.878 164.576 510.452 161.503 496.297 155.91C496.336 155.204 496.384 154.506 496.441 153.814C510.53 159.466 525.912 162.576 542.021 162.576C556.191 162.576 569.799 160.17 582.458 155.744C582.498 156.432 582.528 157.127 582.55 157.829ZM611.662 143.289C614.768 139.865 618.377 137.151 622.35 135.194C618.94 138.077 615.372 140.781 611.662 143.289ZM497.038 148.727C510.895 154.471 526.088 157.641 542.021 157.641C556.057 157.641 569.518 155.181 581.997 150.669C581.911 149.987 581.816 149.311 581.713 148.644C569.335 153.171 555.967 155.641 542.021 155.641C526.197 155.641 511.115 152.46 497.381 146.703C497.258 147.37 497.143 148.045 497.038 148.727ZM498.484 141.809C511.846 147.536 526.563 150.706 542.021 150.706C555.651 150.706 568.705 148.241 580.762 143.733C580.608 143.073 580.445 142.422 580.272 141.78C568.375 146.257 555.484 148.706 542.021 148.706C526.753 148.706 512.22 145.556 499.038 139.87C498.844 140.508 498.659 141.154 498.484 141.809ZM500.733 135.08C513.382 140.586 527.345 143.639 542.021 143.639C554.954 143.639 567.332 141.268 578.746 136.937C578.516 136.305 578.276 135.683 578.027 135.071C566.836 139.315 554.7 141.639 542.021 141.639C527.625 141.639 513.929 138.643 501.521 133.241C501.249 133.844 500.986 134.457 500.733 135.08ZM503.776 128.839C515.504 133.9 528.435 136.704 542.021 136.704C553.959 136.704 565.391 134.539 575.947 130.58C575.631 129.978 575.306 129.388 574.971 128.809C564.71 132.621 553.609 134.704 542.021 134.704C528.815 134.704 516.241 131.998 504.823 127.111C504.464 127.676 504.115 128.251 503.776 128.839ZM507.775 122.999C518.327 127.362 529.893 129.769 542.021 129.769C552.609 129.769 562.768 127.935 572.198 124.566C571.779 123.996 571.349 123.441 570.909 122.899C561.863 126.054 552.143 127.769 542.021 127.769C530.392 127.769 519.292 125.506 509.137 121.395C508.673 121.915 508.218 122.45 507.775 122.999ZM512.997 117.601C522.028 120.985 531.809 122.835 542.021 122.835C550.812 122.835 559.283 121.464 567.231 118.924C566.665 118.387 566.086 117.869 565.496 117.37C558.067 119.623 550.186 120.835 542.021 120.835C532.472 120.835 523.309 119.177 514.806 116.134C514.191 116.603 513.588 117.093 512.997 117.601ZM520.317 112.609C527.192 114.663 534.478 115.767 542.021 115.767C548.278 115.767 554.358 115.008 560.173 113.576C559.306 113.061 558.42 112.58 557.518 112.134C552.521 113.204 547.337 113.767 542.021 113.767C535.461 113.767 529.102 112.91 523.048 111.301C522.121 111.701 521.211 112.138 520.317 112.609ZM533.852 108.352C536.531 108.669 539.257 108.832 542.021 108.832C543.667 108.832 545.3 108.774 546.917 108.661C544.47 108.222 541.952 108 539.382 108C537.508 108 535.663 108.118 533.852 108.352ZM582.007 170.627C569.361 174.496 555.934 176.578 542.021 176.578C526.085 176.578 510.787 173.847 496.57 168.828C496.639 169.562 496.717 170.296 496.803 171.028C510.974 175.921 526.187 178.578 542.021 178.578C555.824 178.578 569.154 176.559 581.734 172.8C581.834 172.077 581.925 171.353 582.007 170.627ZM580.833 178.199C568.489 181.661 555.471 183.513 542.021 183.513C526.522 183.513 511.596 181.054 497.614 176.506C497.747 177.254 497.889 178 498.039 178.743C511.914 183.141 526.691 185.513 542.021 185.513C555.296 185.513 568.155 183.734 580.374 180.402C580.535 179.671 580.689 178.936 580.833 178.199ZM578.997 185.867C567.168 188.858 554.78 190.447 542.021 190.447C527.194 190.447 512.869 188.301 499.338 184.303C499.539 185.063 499.75 185.819 499.969 186.57C513.326 190.397 527.434 192.447 542.021 192.447C554.536 192.447 566.699 190.938 578.337 188.093C578.565 187.355 578.786 186.613 578.997 185.867ZM576.436 193.606C565.36 196.078 553.843 197.382 542.021 197.382C528.121 197.382 514.641 195.579 501.804 192.194C502.083 192.964 502.371 193.727 502.668 194.484C515.254 197.682 528.439 199.382 542.021 199.382C553.522 199.382 564.738 198.163 575.548 195.847C575.853 195.107 576.149 194.36 576.436 193.606ZM572.955 201.543C562.937 203.451 552.596 204.45 542.021 204.45C529.364 204.45 517.04 203.019 505.204 200.31C505.578 201.09 505.963 201.86 506.357 202.618C517.846 205.128 529.779 206.45 542.021 206.45C552.18 206.45 562.126 205.539 571.782 203.795C572.182 203.056 572.574 202.305 572.955 201.543ZM568.446 209.359C559.833 210.692 551.008 211.384 542.021 211.384C530.954 211.384 520.132 210.335 509.649 208.33C510.153 209.121 510.67 209.895 511.197 210.651C521.2 212.447 531.501 213.384 542.021 213.384C550.462 213.384 558.763 212.781 566.881 211.614C567.414 210.88 567.936 210.128 568.446 209.359ZM562.303 217.177C555.647 217.931 548.879 218.319 542.021 218.319C533.092 218.319 524.317 217.662 515.741 216.395C516.473 217.207 517.221 217.986 517.984 218.73C525.847 219.778 533.871 220.319 542.021 220.319C548.105 220.319 554.119 220.017 560.048 219.429C560.814 218.713 561.566 217.962 562.303 217.177ZM552.587 224.957C549.09 225.154 545.567 225.253 542.021 225.253C536.426 225.253 530.888 225.005 525.419 224.519C527.011 225.467 528.646 226.264 530.316 226.893C534.187 227.132 538.09 227.253 542.021 227.253C543.915 227.253 545.803 227.225 547.683 227.169C549.354 226.594 550.991 225.852 552.587 224.957ZM610.974 219.585C636.062 209.941 658.617 195.189 677.363 176.603C677.378 177.193 677.385 177.789 677.385 178.39C677.385 178.724 677.382 179.057 677.378 179.391C658.806 197.44 636.637 211.807 612.048 221.315C611.683 220.748 611.325 220.171 610.974 219.585ZM405.674 203.785C420.466 216.119 436.956 226.486 454.741 234.483C454.078 234.941 453.406 235.369 452.725 235.766C436.235 228.228 420.863 218.668 406.927 207.401C406.484 206.213 406.066 205.007 405.674 203.785ZM596.793 253.324C597.302 253.864 597.802 254.423 598.293 255.002C584.16 258.693 569.478 261.026 554.396 261.854L555.645 259.778C569.762 258.916 583.519 256.723 596.793 253.324ZM410.127 250.118C413.602 252.305 417.136 254.408 420.724 256.424L422.796 259.855C417.555 257.006 412.427 253.974 407.42 250.769C408.311 250.531 409.213 250.315 410.127 250.118ZM401.467 252.782C400.741 253.086 400.025 253.41 399.32 253.755C408.982 260.221 419.108 266.049 429.636 271.179L427.713 267.995C418.641 263.436 409.88 258.352 401.467 252.782ZM434.233 278.79C420.33 272.502 407.073 265.035 394.592 256.516C394.014 256.915 393.444 257.333 392.884 257.771C406.415 267.059 420.855 275.118 436.043 281.787L434.233 278.79ZM440.395 288.992C422.224 281.565 405.047 272.206 389.121 261.171C388.66 261.65 388.206 262.147 387.761 262.662C404.553 274.321 422.726 284.13 441.987 291.791L441.098 290.156L440.395 288.992ZM445.725 298.662C423.947 290.549 403.47 279.762 384.693 266.702C384.328 267.249 383.97 267.811 383.619 268.391C403.13 281.953 424.462 293.079 447.175 301.327L445.725 298.662ZM448.306 306.972C424.312 298.547 401.798 286.978 381.259 272.76C380.97 273.36 380.687 273.975 380.411 274.605C401.164 288.934 423.912 300.579 448.154 309.039C448.202 308.344 448.252 307.656 448.306 306.972ZM447.85 314.157C423.061 305.641 399.793 293.858 378.558 279.32C378.332 279.964 378.111 280.62 377.896 281.291C399.31 295.89 422.769 307.712 447.753 316.238C447.783 315.539 447.815 314.846 447.85 314.157ZM463.304 321.061C479.7 325.645 496.679 328.833 514.104 330.487L569.938 330.487C585.513 329.008 600.732 326.305 615.497 322.474C615.481 321.784 615.462 321.1 615.442 320.421C591.994 326.545 567.388 329.805 542.021 329.805C514.76 329.805 488.378 326.04 463.368 319.002C463.344 319.682 463.323 320.369 463.304 321.061ZM447.578 321.39C447.56 322.083 447.544 322.781 447.531 323.483C421.959 314.961 397.926 303.075 375.955 288.35C376.12 287.648 376.289 286.958 376.462 286.281C398.282 300.982 422.162 312.86 447.578 321.39ZM373.679 301.221C391.652 312.832 410.901 322.637 431.169 330.381L425.683 330.381C407.335 323.022 389.847 313.973 373.411 303.427C373.496 302.682 373.586 301.946 373.679 301.221Z" fill="#4CD964"/>
<path d="M582.588 160.553C582.588 193.78 563.239 228.528 539.37 228.528C515.502 228.528 496.153 193.78 496.153 160.553C496.153 127.327 515.502 108.205 539.37 108.205C563.239 108.205 582.588 127.327 582.588 160.553Z" fill="url(#paint1_linear)"/>
<path d="M512.496 239.467C483.661 243.059 463.15 259.048 463.15 330.205L615.591 330.205C615.591 260.253 595.767 243.617 567.7 239.66L540.156 285.306L512.496 239.467Z" fill="url(#paint2_linear)"/>
<path d="M440.363 239.207C461.77 239.207 479.125 208.144 479.125 178.441C479.125 148.739 461.77 131.645 440.363 131.645C418.955 131.645 401.6 148.739 401.6 178.441C401.6 208.144 418.955 239.207 440.363 239.207Z" fill="url(#paint3_linear)"/>
<path d="M638.637 239.207C617.23 239.207 599.875 208.144 599.875 178.441C599.875 148.739 617.23 131.645 638.637 131.645C660.045 131.645 677.4 148.739 677.4 178.441C677.4 208.144 660.045 239.207 638.637 239.207Z" fill="url(#paint4_linear)"/>
<path d="M637.933 289.962L662.742 248.986C685.958 251.868 703.158 263.681 706.434 312.086C707.105 322.005 698.941 330.1 689 330.1L631.565 330.1C631.563 320.315 631.185 311.391 630.426 303.259L637.933 289.962Z" fill="url(#paint5_linear)"/>
<path d="M441.067 289.962L416.258 248.986C393.042 251.868 375.842 263.681 372.566 312.086C371.895 322.005 380.059 330.1 390 330.1L447.435 330.1C447.437 320.476 447.803 311.685 448.537 303.662L441.067 289.962Z" fill="url(#paint6_linear)"/>
<circle cx="421.5" cy="65.5" r="21.5" fill="url(#paint7_linear)"/>
<circle cx="779.5" cy="43.5" r="64.5" fill="url(#paint8_linear)"/>
<circle cx="458.5" cy="474.5" r="100.5" fill="url(#paint9_linear)"/>
<path fill-rule="evenodd" clip-rule="evenodd" d="M765.679 128.068C798.2 113.669 827.334 93.0157 851.555 67.6327C851.725 66.5148 851.87 65.3907 851.988 64.2613C826.966 91.0251 796.502 112.637 762.36 127.334C763.459 127.604 764.565 127.849 765.679 128.068ZM786.44 129.103C807.937 117.811 827.779 103.797 845.511 87.5196C844.709 89.2317 843.84 90.9116 842.909 92.5553C827.395 106.268 810.355 118.293 792.076 128.344C790.195 128.673 788.315 128.925 786.44 129.103ZM748.554 122.42C788.894 107.03 824.367 81.7839 852.028 49.6253C851.939 48.7243 851.833 47.8222 851.709 46.9194C823.7 79.9592 787.439 105.782 746.108 121.204C746.916 121.624 747.731 122.03 748.554 122.42ZM735.651 114.58C780.736 99.3165 819.949 71.3171 849.006 34.8645C848.766 34.1015 848.515 33.3451 848.252 32.5954C819.088 69.586 779.43 97.918 733.769 113.102C734.388 113.605 735.016 114.098 735.651 114.58ZM725.698 105.451C773.342 90.7952 814.498 61.3271 843.79 22.4214C843.445 21.7752 843.092 21.1356 842.729 20.5028C813.479 59.6649 772.144 89.2734 724.25 103.801C724.725 104.359 725.208 104.909 725.698 105.451ZM717.992 95.2493C766.4 81.4023 808.041 51.5251 836.804 11.7275C836.376 11.1843 835.941 10.6478 835.498 10.1183C806.881 49.9196 765.291 79.7681 716.918 93.4748C717.268 94.0724 717.626 94.664 717.992 95.2493ZM712.506 84.5863C760.08 71.5526 800.916 42.2174 828.633 2.95918C828.137 2.50759 827.634 2.06313 827.126 1.62591C799.629 40.6603 759.049 69.8156 711.762 82.7157C712.002 83.3442 712.25 83.9677 712.506 84.5863ZM708.897 73.3941C754.194 61.112 793.057 33.1866 819.327 -4.22434C818.767 -4.58841 818.203 -4.94478 817.633 -5.29333C791.647 31.6759 753.233 59.2768 708.462 71.4391C708.598 72.0908 708.743 72.7426 708.897 73.3941ZM707.114 61.7009C748.725 50.0929 784.474 24.4283 808.921 -9.85273C808.296 -10.128 807.667 -10.3946 807.034 -10.6524C782.939 22.9644 747.838 48.157 707 59.6553C707.028 60.3363 707.066 61.0182 707.114 61.7009ZM707.327 49.1727C743.63 38.2328 774.951 15.7984 797.059 -13.8997C796.352 -14.0745 795.642 -14.2389 794.929 -14.3926C773.276 14.3902 742.833 36.1845 707.587 47.0027C707.49 47.7237 707.403 48.4471 707.327 49.1727ZM709.962 35.9798C739.226 25.8943 764.717 7.70661 783.755 -15.9029C782.924 -15.9496 782.091 -15.982 781.255 -16C762.866 6.38021 738.555 23.7104 710.718 33.5958C710.452 34.3855 710.2 35.1803 709.962 35.9798ZM716.372 20.9206C735.82 12.583 753.167 0.283708 767.398 -14.9621C766.266 -14.7671 765.134 -14.5447 764.003 -14.2942C750.973 -0.847225 735.434 10.1546 718.142 17.9567C717.528 18.9307 716.938 19.9189 716.372 20.9206Z" fill="#5AC8FA"/>
<path fill-rule="evenodd" clip-rule="evenodd" d="M251.099 369.667C264.457 362.19 276.963 353.37 288.434 343.392C288.213 342.707 287.965 342.038 287.689 341.387C275.979 351.644 263.17 360.678 249.463 368.289C249.988 368.773 250.534 369.233 251.099 369.667ZM262.7 374.451C271.912 368.879 280.705 362.684 289.02 355.924C288.762 357.081 288.418 358.214 287.994 359.312C281.049 364.815 273.785 369.932 266.232 374.631C265.042 374.659 263.862 374.597 262.7 374.451ZM243.776 360.296C257.559 352.737 270.402 343.677 282.086 333.337C281.595 332.875 281.086 332.435 280.56 332.017C269.107 342.126 256.534 350.995 243.049 358.413C243.267 359.055 243.51 359.683 243.776 360.296ZM241.95 347.845C252.247 341.898 261.96 335.053 270.982 327.416C270.133 327.222 269.27 327.074 268.397 326.974C260.264 333.74 251.576 339.862 242.411 345.261C242.21 346.109 242.056 346.972 241.95 347.845Z" fill="#5AC8FA"/>
</g>
<defs>
<linearGradient id="paint0_linear" x1="865.173" y1="1080.63" x2="47.3259" y2="225.736" gradientUnits="userSpaceOnUse">
<stop stop-color="#3DB0F0"/>
<stop offset="0.706891" stop-color="#1DA3EF" stop-opacity="0"/>
</linearGradient>
<linearGradient id="paint1_linear" x1="262.495" y1="253.798" x2="700.616" y2="308.581" gradientUnits="userSpaceOnUse">
<stop stop-color="#14C7FF"/>
<stop offset="1" stop-color="#2BCCFF" stop-opacity="0"/>
</linearGradient>
<linearGradient id="paint2_linear" x1="262.495" y1="253.798" x2="700.616" y2="308.581" gradientUnits="userSpaceOnUse">
<stop stop-color="#14C7FF"/>
<stop offset="1" stop-color="#2BCCFF" stop-opacity="0"/>
</linearGradient>
<linearGradient id="paint3_linear" x1="262.495" y1="253.798" x2="700.616" y2="308.581" gradientUnits="userSpaceOnUse">
<stop stop-color="#14C7FF"/>
<stop offset="1" stop-color="#2BCCFF" stop-opacity="0"/>
</linearGradient>
<linearGradient id="paint4_linear" x1="262.495" y1="253.798" x2="700.616" y2="308.581" gradientUnits="userSpaceOnUse">
<stop stop-color="#14C7FF"/>
<stop offset="1" stop-color="#2BCCFF" stop-opacity="0"/>
</linearGradient>
<linearGradient id="paint5_linear" x1="262.495" y1="253.798" x2="700.616" y2="308.581" gradientUnits="userSpaceOnUse">
<stop stop-color="#14C7FF"/>
<stop offset="1" stop-color="#2BCCFF" stop-opacity="0"/>
</linearGradient>
<linearGradient id="paint6_linear" x1="262.495" y1="253.798" x2="700.616" y2="308.581" gradientUnits="userSpaceOnUse">
<stop stop-color="#14C7FF"/>
<stop offset="1" stop-color="#2BCCFF" stop-opacity="0"/>
</linearGradient>
<linearGradient id="paint7_linear" x1="541.194" y1="133.851" x2="358.925" y2="44" gradientUnits="userSpaceOnUse">
<stop offset="0.380595" stop-color="#3DF0B0"/>
<stop offset="0.779884" stop-color="#1DEFA3" stop-opacity="0"/>
</linearGradient>
<linearGradient id="paint8_linear" x1="803.767" y1="194.213" x2="621.327" y2="-62.5139" gradientUnits="userSpaceOnUse">
<stop stop-color="#3DB0F0"/>
<stop offset="0.706891" stop-color="#1DA3EF" stop-opacity="0"/>
</linearGradient>
<linearGradient id="paint9_linear" x1="496.312" y1="709.332" x2="212.045" y2="309.316" gradientUnits="userSpaceOnUse">
<stop stop-color="#3DB0F0"/>
<stop offset="0.706891" stop-color="#1DA3EF" stop-opacity="0"/>
</linearGradient>
<clipPath id="clip0">
<rect width="800" height="429.268" fill="white"/>
</clipPath>
</defs>
</svg>
