<svg width="800" height="430" viewBox="0 0 800 430" fill="none" xmlns="http://www.w3.org/2000/svg">
<g clip-path="url(#clip0)">
<path d="M582.588 160.553C582.588 193.78 563.239 228.528 539.37 228.528C515.502 228.528 496.153 193.78 496.153 160.553C496.153 127.327 515.502 108.205 539.37 108.205C563.239 108.205 582.588 127.327 582.588 160.553Z" fill="url(#paint0_linear)"/>
<path d="M512.496 239.467C483.661 243.059 463.15 259.048 463.15 330.205L615.591 330.205C615.591 260.253 595.767 243.617 567.7 239.66L540.156 285.306L512.496 239.467Z" fill="url(#paint1_linear)"/>
<path d="M440.363 239.207C461.77 239.207 479.125 208.144 479.125 178.441C479.125 148.739 461.77 131.645 440.363 131.645C418.955 131.645 401.6 148.739 401.6 178.441C401.6 208.144 418.955 239.207 440.363 239.207Z" fill="url(#paint2_linear)"/>
<path d="M638.637 239.207C617.23 239.207 599.875 208.144 599.875 178.441C599.875 148.739 617.23 131.645 638.637 131.645C660.045 131.645 677.4 148.739 677.4 178.441C677.4 208.144 660.045 239.207 638.637 239.207Z" fill="url(#paint3_linear)"/>
<path d="M637.933 289.962L662.742 248.986C685.958 251.868 703.158 263.681 706.434 312.086C707.105 322.005 698.941 330.1 689 330.1L631.565 330.1C631.563 320.315 631.185 311.391 630.426 303.259L637.933 289.962Z" fill="url(#paint4_linear)"/>
<path d="M441.067 289.962L416.258 248.986C393.042 251.868 375.842 263.681 372.566 312.086C371.895 322.005 380.059 330.1 390 330.1L447.435 330.1C447.437 320.476 447.803 311.685 448.537 303.662L441.067 289.962Z" fill="url(#paint5_linear)"/>
<circle cx="421.5" cy="65.5" r="21.5" fill="url(#paint6_linear)"/>
<circle cx="779.5" cy="43.5" r="64.5" fill="url(#paint7_linear)"/>
</g>
<defs>
<linearGradient id="paint0_linear" x1="262.495" y1="253.798" x2="700.616" y2="308.581" gradientUnits="userSpaceOnUse">
<stop stop-color="#14C7FF"/>
<stop offset="1" stop-color="#2BCCFF" stop-opacity="0"/>
</linearGradient>
<linearGradient id="paint1_linear" x1="262.495" y1="253.798" x2="700.616" y2="308.581" gradientUnits="userSpaceOnUse">
<stop stop-color="#14C7FF"/>
<stop offset="1" stop-color="#2BCCFF" stop-opacity="0"/>
</linearGradient>
<linearGradient id="paint2_linear" x1="262.495" y1="253.798" x2="700.616" y2="308.581" gradientUnits="userSpaceOnUse">
<stop stop-color="#14C7FF"/>
<stop offset="1" stop-color="#2BCCFF" stop-opacity="0"/>
</linearGradient>
<linearGradient id="paint3_linear" x1="262.495" y1="253.798" x2="700.616" y2="308.581" gradientUnits="userSpaceOnUse">
<stop stop-color="#14C7FF"/>
<stop offset="1" stop-color="#2BCCFF" stop-opacity="0"/>
</linearGradient>
<linearGradient id="paint4_linear" x1="262.495" y1="253.798" x2="700.616" y2="308.581" gradientUnits="userSpaceOnUse">
<stop stop-color="#14C7FF"/>
<stop offset="1" stop-color="#2BCCFF" stop-opacity="0"/>
</linearGradient>
<linearGradient id="paint5_linear" x1="262.495" y1="253.798" x2="700.616" y2="308.581" gradientUnits="userSpaceOnUse">
<stop stop-color="#14C7FF"/>
<stop offset="1" stop-color="#2BCCFF" stop-opacity="0"/>
</linearGradient>
<linearGradient id="paint6_linear" x1="541.194" y1="133.851" x2="358.925" y2="44" gradientUnits="userSpaceOnUse">
<stop offset="0.380595" stop-color="#3DF0B0"/>
<stop offset="0.779884" stop-color="#1DEFA3" stop-opacity="0"/>
</linearGradient>
<linearGradient id="paint7_linear" x1="803.767" y1="194.213" x2="621.327" y2="-62.5139" gradientUnits="userSpaceOnUse">
<stop stop-color="#3DB0F0"/>
<stop offset="0.706891" stop-color="#1DA3EF" stop-opacity="0"/>
</linearGradient>
<clipPath id="clip0">
<rect width="800" height="429.268" fill="white"/>
</clipPath>
</defs>
</svg>
