<svg width="800" height="800" viewBox="0 0 800 800" fill="none" xmlns="http://www.w3.org/2000/svg">
<path d="M386.046 135.38C391.04 122.718 408.96 122.718 413.954 135.38L467.857 272.051C474.12 287.933 477.25 295.874 482.047 302.57C486.297 308.505 491.493 313.702 497.43 317.953C504.127 322.748 512.067 325.88 527.95 332.144L664.62 386.046C677.282 391.04 677.282 408.96 664.62 413.954L527.95 467.857C512.067 474.12 504.127 477.25 497.43 482.047C491.493 486.297 486.297 491.493 482.047 497.43C477.25 504.127 474.12 512.067 467.857 527.95L413.954 664.62C408.96 677.282 391.04 677.282 386.046 664.62L332.144 527.95C325.88 512.067 322.748 504.127 317.953 497.43C313.702 491.493 308.505 486.297 302.57 482.047C295.874 477.25 287.933 474.12 272.051 467.857L135.38 413.954C122.718 408.96 122.718 391.04 135.381 386.046L272.051 332.144C287.933 325.88 295.874 322.748 302.57 317.953C308.505 313.702 313.702 308.505 317.953 302.57C322.748 295.874 325.88 287.933 332.144 272.051L386.046 135.38Z" stroke="black" stroke-width="66.6667" stroke-linecap="round" stroke-linejoin="round"/>
</svg>

