<svg width="800" height="800" viewBox="0 0 800 800" fill="none" xmlns="http://www.w3.org/2000/svg">
<g clip-path="url(#clip0_75_500)">
<path d="M400 0C620.915 0 800 179.086 800 400C800 407.979 799.765 415.904 799.305 423.767C796.64 469.298 755.475 500.195 709.87 500.195H550.53C461.438 500.195 416.821 607.91 479.817 670.905C524.115 715.2 509.9 789.795 447.694 797.185C432.055 799.045 416.139 800 400 800C179.086 800 0 620.915 0 400C0 179.086 179.086 0 400 0ZM400 100C234.315 100 100 234.315 100 400C100 557.69 221.665 686.965 376.246 699.075C302.95 572.53 391.161 400.196 550.53 400.196H700C700 234.315 565.685 100 400 100ZM250 400C277.614 400 300 422.385 300 450C300 477.614 277.614 500 250 500C222.386 500 200 477.614 200 450C200 422.385 222.386 400 250 400ZM300 250C327.614 250 350 272.386 350 300C350 327.614 327.614 350 300 350C272.386 350 250 327.614 250 300C250 272.386 272.386 250 300 250ZM450 200C477.614 200 500 222.386 500 250C500 277.614 477.614 300 450 300C422.385 300 400 277.614 400 250C400 222.386 422.385 200 450 200Z" fill="black"/>
</g>
<defs>
<clipPath id="clip0_75_500">
<rect width="800" height="800" fill="white"/>
</clipPath>
</defs>
</svg>

