<svg width="12" height="20" viewBox="0 0 12 20" fill="none" xmlns="http://www.w3.org/2000/svg">
<path d="M0.238979 9.99609C0.238979 9.83203 0.266323 9.67969 0.321011 9.53906C0.383511 9.39062 0.481167 9.25391 0.613979 9.12891L9.33273 0.609375C9.55148 0.382813 9.82101 0.269531 10.1413 0.269531C10.3601 0.269531 10.5554 0.320312 10.7273 0.421875C10.9069 0.523438 11.0476 0.660156 11.1491 0.832031C11.2585 1.00391 11.3132 1.20313 11.3132 1.42969C11.3132 1.74219 11.196 2.01562 10.9616 2.25L3.03976 9.99609L10.9616 17.7422C11.196 17.9766 11.3132 18.25 11.3132 18.5625C11.3132 18.7812 11.2585 18.9766 11.1491 19.1484C11.0476 19.3281 10.9069 19.4688 10.7273 19.5703C10.5554 19.6719 10.3601 19.7227 10.1413 19.7227C9.82101 19.7227 9.55148 19.6094 9.33273 19.3828L0.613979 10.8633C0.481167 10.7383 0.383511 10.6055 0.321011 10.4648C0.266323 10.3164 0.238979 10.1602 0.238979 9.99609Z" fill="#C73AFE"/>
</svg>
