<svg width="600" height="600" viewBox="60 285 660 660" fill="none" xmlns="http://www.w3.org/2000/svg">
  <path fill-rule="evenodd" clip-rule="evenodd" fill="currentColor" d="M246.617 320.288C258.161 329.799 266.94 341.286 273 355C272.67 355.66 272.34 356.32 272 357C271.401 356.49 270.801 355.979 270.184 355.453C256.146 344.191 239.362 335.711 222 331C221.229 330.771 220.458 330.541 219.664 330.305C201.574 325.228 180.517 326.409 163.953 335.211C150.031 343.645 140.689 356.048 136.188 371.688C133.002 385.77 134.516 401.058 141 414C141.66 414.66 142.32 415.32 143 416C142.979 415.432 142.958 414.864 142.937 414.279C142.444 398.866 142.96 384.639 153 372C158.738 366.461 165.122 361.912 173.312 361.75C177 362 177 362 179 363C174.743 356.04 174.743 356.04 168 352C168 351.34 168 350.68 168 350C178.852 346.533 191.78 348.841 202 353C203.305 353.526 203.305 353.526 204.637 354.063C220.979 361.451 231.514 375.747 240.188 390.848C241.39 392.939 242.662 394.993 244 397C247.435 396.381 250.607 395.516 253.887 394.328C254.815 393.996 255.744 393.664 256.701 393.321C257.687 392.968 258.672 392.614 259.688 392.25C284.482 383.537 309.247 378.326 335.562 377.438C336.762 377.394 337.961 377.351 339.197 377.307C342.131 377.201 345.066 377.099 348 377C345.842 379.158 345.028 379.418 342.16 380.121C340.958 380.432 340.958 380.432 339.731 380.749C338.85 380.976 337.97 381.203 337.062 381.438C302.424 390.896 266.518 408.075 238 430C237.062 430.717 236.123 431.433 235.156 432.172C233.091 433.766 231.038 435.372 229 437C230.174 436.553 231.349 436.105 232.559 435.645C253.516 427.741 272.466 422.549 295 423C291.872 425.628 288.49 427.311 284.856 429.108C262.079 440.274 262.079 440.274 245 458C245.967 457.954 246.934 457.907 247.93 457.859C263.285 457.434 263.285 457.434 270 462C271.789 463.926 273.379 465.924 275 468C274.412 468.095 273.824 468.19 273.219 468.288C241.843 473.443 214.383 484.741 195 511C194.292 512.312 193.606 513.638 193 515C193.871 514.541 194.743 514.082 195.641 513.609C203.256 509.662 210.749 506.442 219 504C220.237 503.608 221.475 503.216 222.75 502.813C250.239 495.94 274.832 505.721 298.292 519.632C299.597 520.419 300.899 521.208 302.2 522.001C309.055 526.14 316.141 529.822 323.25 533.5C323.846 533.81 324.443 534.119 325.057 534.438C337.61 541.508 337.61 541.508 351.535 541.012C352.699 540.575 353.863 540.138 355.062 539.688C356.229 539.258 357.396 538.829 358.598 538.387C361.825 537.071 364.908 535.605 368 534C363.459 521.449 353.926 510.901 345.488 500.796C343.449 498.335 341.475 495.825 339.5 493.313C336.843 489.984 334.095 486.936 331 484C330.502 483.482 330.005 482.964 329.492 482.43C325.288 478.069 320.767 474.36 315.941 470.699C315.301 470.139 314.66 469.578 314 469C314 468.34 314 467.68 314 467C320.691 468.98 326.679 471.693 332.812 475C333.645 475.438 334.477 475.877 335.334 476.328C339.116 478.342 342.612 480.362 346 483C344.255 477.407 342.238 472.119 339.672 466.848C339.45 466.238 339.228 465.628 339 465C339.33 464.34 339.66 463.68 340 463C340.678 463.557 341.356 464.114 342.055 464.688C342.985 465.451 343.916 466.214 344.875 467C345.878 467.822 346.881 468.645 347.914 469.492C350.671 471.733 353.455 473.932 356.25 476.125C359.847 478.99 363.112 481.997 366.305 485.301C368.05 487.05 369.87 488.648 371.75 490.25C379.047 496.551 386.047 503.405 392 511C396.357 509.332 399.182 506.079 402.375 502.813C403.249 501.93 403.249 501.93 404.141 501.029C406.976 498.146 409.736 495.244 412.312 492.125C415.505 488.291 419.165 485.179 423 482C423.592 481.506 424.184 481.013 424.794 480.504C426.857 478.787 428.927 477.08 431 475.375C431.664 474.824 432.329 474.274 433.013 473.707C437.464 470.076 442.058 466.926 447 464C444.925 470.449 442.577 476.735 440 483C440.608 482.588 441.217 482.175 441.844 481.75C447.508 478.018 453.266 474.693 459.312 471.625C460.316 471.107 460.316 471.107 461.34 470.578C465.226 468.643 468.626 467.475 473 467C469.667 470.391 466.239 473.645 462.735 476.858C444.607 493.522 430.314 512.726 418 534C419.666 534.669 421.333 535.335 423 536C423.899 536.36 423.899 536.36 424.816 536.728C426.852 537.538 428.894 538.332 430.938 539.125C431.628 539.402 432.318 539.679 433.029 539.965C439.468 542.443 443.974 542.772 450.505 539.969C451.205 539.649 451.904 539.329 452.625 539C453.381 538.66 454.138 538.319 454.917 537.969C468.005 531.87 480.391 524.219 492.835 516.925C515.07 503.908 538.153 497.28 564 503C574.166 505.873 583.725 509.961 593 515C582.215 494.932 560.991 480.294 539.551 473.453C535.742 472.397 531.895 471.67 528 471C526.414 470.706 524.828 470.41 523.242 470.113C519.168 469.364 515.088 468.668 511 468C514.969 462.694 518.605 459.865 525 458C530.656 457.428 536.334 457.704 542 458C527.592 443.31 510.295 433.079 492 424C492 423.67 492 423.34 492 423C500.908 422.738 509.252 423.313 518 425C518.704 425.134 519.407 425.268 520.132 425.407C528.932 427.119 537.155 429.119 545.363 432.828C549.158 434.515 553.043 435.747 557 437C546.954 427.786 535.702 420.908 524 414C523.25 413.551 522.5 413.103 521.727 412.64C496.023 397.346 467.559 386.617 439 378C439 377.67 439 377.34 439 377C474.441 377.596 509.235 384.372 542 398C542.594 396.935 543.189 395.871 543.801 394.773C555.284 374.517 568.23 357.343 591.438 350.188C600.536 347.932 608.981 348.809 618 351C615.781 353.219 613.558 355.432 611.312 357.625C608.987 359.773 608.987 359.773 608 362C609.217 361.897 610.434 361.794 611.688 361.688C623.681 361.706 633.446 368.546 641.75 376.5C644.621 379.45 646.86 382.49 649 386C649.86 370.064 645.84 358.69 636.75 345.813C625.275 334.077 610.234 328.049 593.971 327.698C564.935 327.58 537.972 338.569 515 356C514.67 355.34 514.34 354.68 514 354C515.066 351.741 516.177 349.648 517.438 347.5C517.804 346.87 518.171 346.24 518.549 345.591C521.894 339.971 525.641 334.884 530 330C530.737 329.169 531.475 328.337 532.234 327.481C546.109 312.722 566.56 301.816 587 301C588.096 300.937 589.191 300.874 590.32 300.809C613.473 300.059 636.69 309.978 654 325C654.821 325.665 655.642 326.33 656.488 327.016C672.61 340.555 684.642 362.082 687 383C687.83 396.251 686.737 408.271 683 421C683.736 420.457 684.472 419.915 685.23 419.356C686.206 418.64 687.182 417.925 688.188 417.188C689.15 416.48 690.113 415.772 691.105 415.043C693.678 413.227 696.277 411.578 699 410C698.326 430.899 686.997 451.953 673 467C672.56 467.481 672.119 467.963 671.666 468.459C662.383 478.522 651.953 486.334 640 493C641.731 497.947 644.405 502.262 647.062 506.75C664.635 536.865 679.427 568.908 690.818 601.874C692.252 605.992 693.813 610.003 695.562 614C698.059 619.863 699.814 625.868 701.551 631.984C702.938 636.851 704.442 641.678 705.949 646.508C709.411 657.604 712.687 668.716 715.495 679.997C715.842 681.375 716.203 682.749 716.575 684.12C717.565 687.831 718.24 691.154 718 695C716.396 693.979 714.792 692.958 713.188 691.938C712.179 691.298 711.171 690.659 710.133 690C708.161 688.741 706.197 687.472 704.242 686.188C697.724 681.931 691.026 678.348 684 675C684.254 675.862 684.508 676.725 684.77 677.613C692.224 704.054 694.365 733.061 688 760C685.408 757.529 683.355 755.181 681.5 752.125C678.62 747.698 675.36 743.698 671.938 739.688C671.431 739.089 670.924 738.49 670.402 737.874C667.507 734.521 664.576 731.657 661 729C660.876 730.442 660.876 730.442 660.75 731.914C660.047 736.777 658.06 740.95 656 745.375C655.599 746.248 655.198 747.12 654.785 748.02C646.569 765.708 636.876 781.498 625 797C624.225 798.056 623.451 799.112 622.652 800.199C614.497 811.145 604.781 820.516 595 830C593.832 826.496 594.234 825.534 595.25 822.063C596.762 816.35 597.799 810.648 598.688 804.813C598.819 803.982 598.95 803.151 599.085 802.295C599.897 796.807 600.117 791.547 600 786C599.49 786.632 598.979 787.263 598.453 787.914C593.543 793.956 588.539 799.901 583.451 805.794C580.334 809.414 577.3 813.085 574.312 816.813C570.816 821.125 567.075 825.031 563.102 828.902C561.213 830.787 559.474 832.716 557.75 834.75C550.744 842.9 542.945 850.507 534.758 857.461C532.921 859.069 531.211 860.758 529.5 862.5C525.837 866.212 521.966 869.617 518 873C517.507 873.424 517.013 873.847 516.505 874.284C510.15 879.738 503.783 885.079 497 890C499.589 882.095 502.38 874.267 505.188 866.438C505.656 865.13 506.124 863.822 506.592 862.514C507.727 859.342 508.863 856.171 510 853C506.496 855.78 503.156 858.647 499.875 861.688C474.724 884.653 445.937 904.148 417 922C416.04 922.598 415.081 923.196 414.092 923.812C411.113 925.662 408.121 927.49 405.125 929.313C404.192 929.894 403.258 930.476 402.296 931.076C401.417 931.604 400.538 932.132 399.633 932.676C398.858 933.149 398.084 933.623 397.286 934.111C394.403 935.233 392.925 934.905 390 934C387.559 932.791 385.228 931.548 382.875 930.188C381.834 929.592 381.834 929.592 380.773 928.985C344.637 908.103 310.682 883.054 279.551 855.305C277.821 853.801 277.821 853.801 275 852C276.041 854.688 277.082 857.375 278.125 860.063C278.439 860.872 278.753 861.682 279.077 862.516C281.606 869.022 284.203 875.497 286.836 881.961C287.739 884.32 288.478 886.537 289 889C285.552 887.5 283.176 885.496 280.438 882.938C277.025 879.803 273.568 876.815 269.938 873.938C255.683 862.311 242.88 848.978 229.875 836C229.145 835.272 228.414 834.545 227.662 833.795C225.54 831.679 223.422 829.559 221.305 827.438C220.673 826.808 220.041 826.178 219.39 825.529C215.064 821.18 210.998 816.651 207 812C206.003 810.859 205.006 809.718 204.008 808.578C197.667 801.277 191.678 793.829 186 786C187.546 801.213 189.466 816.113 193 831C181.157 821.04 170.446 810.148 161.25 797.69C160.048 796.066 158.822 794.46 157.594 792.855C145.53 776.821 135.209 758.719 128 740C127.697 739.238 127.394 738.476 127.082 737.691C125.896 734.656 125 732.289 125 729C123.824 730.238 123.824 730.238 122.625 731.5C120 734 120 734 118 734C117.617 734.866 117.617 734.866 117.227 735.75C115.874 738.231 114.32 739.954 112.375 742C108.234 746.534 104.946 751.416 101.664 756.594C100 759 100 759 98 760C95.9604 748.649 95.6025 737.565 95.625 726.063C95.6243 724.71 95.6243 724.71 95.6236 723.331C95.6487 706.32 96.6192 689.961 103 674C93.0505 678.987 83.7665 684.251 74.8555 690.934C72.5934 692.571 70.5391 693.875 68 695C68.6741 686.952 70.8556 679.275 72.9375 671.5C73.1346 670.759 73.3318 670.018 73.5349 669.254C79.0225 648.68 85.3704 628.38 92.3125 608.25C92.6136 607.376 92.9147 606.503 93.2249 605.603C95.2068 599.971 97.4302 594.465 99.7522 588.965C100.897 586.244 102.012 583.513 103.113 580.773C114.088 553.708 126.784 527.503 141 502C141.965 500.262 142.93 498.524 143.895 496.785C144.596 495.523 145.298 494.262 146 493C145.105 492.443 144.211 491.886 143.289 491.313C116.372 474.399 96.7053 452.249 88.6406 420.981C87.852 417.312 87.2992 413.74 87 410C92.6694 413.581 97.8046 417.77 103 422C102.711 421.256 102.423 420.512 102.125 419.746C94.9156 398.543 98.2589 374.99 107.883 355.182C120.777 329.625 143.363 312.918 170.172 303.938C197.295 296.145 224.75 302.871 246.617 320.288Z M394.379 563.625C408.206 570.879 421.402 583.634 432 595C432.797 595.841 432.797 595.841 433.609 596.7C438.484 602.05 442.725 607.887 447.001 613.717C447.503 614.398 448.006 615.08 448.523 615.782C449.203 616.711 449.203 616.711 449.896 617.658C450.26 618.101 450.625 618.544 451 619C451.33 619 451.66 619 452 619C451.045 614.812 450.085 610.625 449.125 606.438C448.856 605.256 448.586 604.075 448.309 602.858C447.007 597.192 445.683 591.565 444 586C448.99 589.107 453.173 592.717 457.437 596.75C458.106 597.38 458.774 598.01 459.462 598.659C463.927 602.903 468.133 607.199 472 612C472.92 613.097 473.841 614.193 474.762 615.289C481.292 623.151 486.904 631.189 491.914 640.091C493.019 642.034 494.159 643.951 495.309 645.867C501.027 655.522 505.358 665.393 509 676C509.404 677.176 509.404 677.176 509.816 678.375C513.149 688.277 515.609 698.213 517.437 708.5C517.614 709.486 517.79 710.472 517.971 711.487C519.228 719.088 519.228 719.088 518 723C517.455 722.117 516.909 721.234 516.348 720.324C511.395 712.406 506.085 705.107 500 698C498.329 696.004 496.664 694.002 495 692C495.265 693.039 495.531 694.078 495.805 695.149C496.162 696.558 496.518 697.966 496.875 699.375C497.049 700.055 497.223 700.734 497.402 701.434C497.954 703.619 498.482 705.808 499 708C499.188 708.782 499.376 709.563 499.57 710.369C500.996 716.77 501.302 722.893 501.25 729.438C501.258 730.397 501.265 731.357 501.273 732.346C501.236 746.207 497.983 758.576 491.625 770.813C491.25 771.543 490.875 772.272 490.488 773.024C488.138 777.41 485.703 780.67 482 784C481.527 783.178 481.054 782.355 480.566 781.508C476.059 773.899 471.29 767.29 465 761C464.376 760.376 463.752 759.752 463.109 759.11C447.778 744.809 427.06 738.4 407 734C405.68 733.67 404.36 733.34 403 733C403 725.08 403 717.16 403 709C406.3 707.68 409.6 706.36 413 705C416.623 702.859 416.623 702.859 419.812 700.5C420.871 699.747 421.929 698.995 423.019 698.219C426.919 695.316 430.56 692.441 434 689C433.34 692.96 432.68 696.92 432 701C441.95 693.336 451.662 685.099 454 672C454.864 659.965 453.809 651.201 445.875 641.75C433.206 628.544 414.798 624.334 397.055 623.797C378.381 623.513 358.624 625.906 343.672 638.344C336.365 645.582 331.956 652.501 331.625 662.875C331.959 673.961 336.03 683.377 343.375 691.688C344.241 692.451 345.107 693.214 346 694C346.69 694.611 347.379 695.222 348.09 695.852C350.049 697.58 352.023 699.292 354 701C353.67 697.7 353.34 694.4 353 691C356.878 692.939 360.162 695.25 363.625 697.813C370.017 702.468 376.451 706.484 384 709C384 716.92 384 724.84 384 733C382.061 733.372 380.122 733.743 378.125 734.125C359.416 738.18 341.145 745.044 326 757C325.245 757.58 324.489 758.16 323.711 758.758C315.452 765.541 309.585 774.398 305 784C298.535 781.73 295.834 773.812 293 768C282.987 746.02 283.165 724.071 289 701C289.191 700.232 289.382 699.465 289.579 698.674C290.05 696.782 290.525 694.891 291 693C283.91 700.122 278.284 707.713 272.849 716.156C272.361 716.913 271.873 717.67 271.371 718.449C270.937 719.134 270.503 719.818 270.056 720.522C269.533 721.254 269.533 721.254 269 722C268.67 722 268.34 722 268 722C267.822 716.013 268.41 710.607 269.625 704.75C269.804 703.883 269.983 703.016 270.167 702.123C279.617 657.968 303.454 615.535 339 587C339.99 586.67 340.98 586.34 342 586C340.707 593.231 338.881 600.263 336.953 607.348C335.774 611.867 334.822 616.404 334 621C334.766 619.945 334.766 619.945 335.547 618.867C348.597 601.143 363.22 584.566 380.898 571.328C382.793 569.906 384.661 568.445 386.476 566.922C387.165 566.35 387.853 565.777 388.562 565.188C389.121 564.707 389.679 564.226 390.254 563.731C392 563 392 563 394.379 563.625Z M449 776C452.185 778.846 455.124 781.844 458 785C458.866 785.907 459.732 786.815 460.625 787.75C462 790 462 790 461.933 792.242C460.639 796.066 458.19 798.53 455.437 801.375C454.897 801.945 454.357 802.515 453.801 803.102C445.34 811.939 445.34 811.939 441 815C440.34 815 439.68 815 439 815C439.33 809.06 439.66 803.12 440 797C438.205 798.402 436.411 799.805 434.562 801.25C421.864 810.862 408.223 813.537 392.437 813.375C391.309 813.386 390.18 813.398 389.017 813.41C378.203 813.372 368.492 811.449 359.062 806.062C358.443 805.728 357.823 805.393 357.185 805.048C353.491 803.011 350.214 800.726 347 798C346.887 804.076 347.307 809.964 348 816C342.539 812.252 337.854 808.047 333.187 803.375C332.343 802.531 332.343 802.531 331.481 801.671C329.964 800.134 328.478 798.574 327 797C326.336 796.311 325.672 795.623 324.988 794.914C324 793 324 793 324.574 790.547C333.655 774.324 353.012 764.799 370.187 759.562C397.328 752.771 426.829 759.259 449 776Z M582 575C607.519 594.417 623.336 633.675 630 664C630.125 667 630.125 667 630 669C626.019 666.109 622.187 663.211 618.625 659.812C594.601 638.634 559.296 626.982 528 623C528 622.34 528 621.68 528 621C528.655 620.914 529.31 620.827 529.984 620.738C546.579 618.184 561.705 610.045 572.074 596.785C576.648 590.171 579.301 582.528 582 575Z M203 575C206.234 576.617 206.532 580.115 207.625 583.375C212.888 598.166 222.184 607.839 236 615C243.134 618.159 250.3 619.868 258 621C258 621.66 258 622.32 258 623C257.077 623.159 256.154 623.317 255.203 623.48C218.701 629.924 182.734 643.266 156 670C156.47 661.224 159.175 653.248 162 645C162.343 643.995 162.343 643.995 162.692 642.969C166.299 632.54 170.799 622.727 176 613C176.322 612.394 176.645 611.788 176.977 611.164C184.108 597.886 192.593 585.91 203 575Z M244 546C246.708 546.46 249.406 546.943 252.101 547.473C255.158 548.079 255.158 548.079 258.937 548.312C262 550 262 550 263.136 552.773C263.805 555.084 264.445 557.404 265.058 559.73C266.83 565.884 269.725 569.459 275.062 572.938C281.329 576.086 287.941 576.19 294.625 574.23C298.169 572.767 300.508 571.584 303 568.625C305 567 305 567 307.058 567.125C311.195 567.994 315.143 569.258 319 571C317.915 577.024 313.478 581.129 308.734 584.711C298.339 591.317 287.272 594.952 275.031 592.375C264.855 589.438 255.747 583.798 250.281 574.535C245.382 564.843 243.196 556.914 244 546Z M543 546C544.021 558.56 539.947 570.263 532 580C524.387 587.487 516.114 592.425 505.3 592.658C503.976 592.642 503.976 592.642 502.625 592.625C501.702 592.618 500.779 592.611 499.827 592.604C492.28 592.363 487.039 590.636 481 586C479.902 585.281 479.902 585.281 478.781 584.547C473.759 581.136 470.363 577.019 467 572C468.91 571.132 470.829 570.281 472.75 569.437C473.817 568.962 474.885 568.486 475.984 567.996C479.034 566.989 480.128 566.708 483 568C484.485 569.259 485.97 570.519 487.445 571.789C492.509 575.733 498.892 575.578 505 575C511.026 573.907 514.647 571.035 518.461 566.324C521.295 562.044 523.706 557.003 524.211 551.844C525 550 525 550 527.766 548.734C528.915 548.41 530.065 548.085 531.25 547.75C532.39 547.415 533.529 547.08 534.703 546.734C537.617 546.085 540.035 545.844 543 546Z M377.34 636.832C378.339 636.829 379.338 636.825 380.368 636.822C382.481 636.817 384.595 636.814 386.709 636.815C389.895 636.812 393.081 636.794 396.268 636.775C429.142 636.68 429.142 636.68 439 645C442.34 648.518 444.552 652.074 445 657C444.34 657 443.68 657 443 657C441.917 655.855 441.917 655.855 440.812 654.687C435.486 649.597 431.329 648.803 424.125 648.625C413.397 648.919 406.747 652.506 398.016 658.453C395 660 395 660 392.547 659.98C389.158 658.676 386.099 656.933 383 655.062C373.808 649.573 366.69 647.905 356 649C350.675 650.766 346.416 653.601 342 657C342.54 652.407 344.081 649.576 347 646C356.631 638.421 365.342 636.846 377.34 636.832Z"/>
</svg>
