<svg width="800" height="800" viewBox="0 0 800 800" fill="none" xmlns="http://www.w3.org/2000/svg">
<path fill-rule="evenodd" clip-rule="evenodd" d="M309.888 157.576V175.114C220.227 211.881 157.586 332.645 159.859 437.306L159.859 495.436C113.96 554.443 116.66 642.423 231.172 642.423H309.888C309.888 666.533 319.284 689.656 336.01 706.706C352.733 723.756 375.416 733.333 399.07 733.333C422.723 733.333 445.406 723.756 462.13 706.706C478.853 689.656 488.25 666.533 488.25 642.423H567.183C681.476 642.423 683.133 554.26 637.24 495.253L638.516 437.386C640.826 332.603 578.063 211.731 488.25 175.016V157.576C488.25 133.465 478.853 110.342 462.13 93.2932C445.406 76.2445 422.723 66.6665 399.07 66.6665C375.416 66.6665 352.733 76.2445 336.01 93.2932C319.284 110.342 309.888 133.465 309.888 157.576ZM428.796 157.576C428.796 157.576 428.776 158.805 428.74 159.415C419.06 158.201 409.196 157.576 399.19 157.576C389.1 157.576 379.156 158.211 369.4 159.445C369.36 158.825 369.343 158.201 369.343 157.576C369.343 149.539 372.473 141.831 378.05 136.148C383.623 130.465 391.186 127.273 399.07 127.273C406.953 127.273 414.513 130.465 420.09 136.148C425.663 141.831 428.796 149.539 428.796 157.576ZM369.343 642.423C369.343 650.46 372.473 658.17 378.05 663.853C383.623 669.533 391.186 672.727 399.07 672.727C406.953 672.727 414.513 669.533 420.09 663.853C425.663 658.17 428.796 650.46 428.796 642.423H369.343ZM567.183 581.816C592.58 581.816 606.28 551.45 589.753 531.793C581.72 522.243 577.443 510.093 577.72 497.62L579.076 436.026C581.346 333.138 500.146 218.182 399.19 218.182C298.255 218.182 217.065 333.1 219.299 435.963L220.638 497.63C220.909 510.1 216.631 522.246 208.602 531.793C192.073 551.45 205.775 581.816 231.172 581.816H567.183ZM565.996 106.734C576.483 91.6042 597.253 87.8412 612.383 98.3292C650.64 124.848 696.52 188.449 721.57 263.753C727.38 281.221 717.93 300.093 700.463 305.904C682.993 311.715 664.123 302.265 658.31 284.796C636.306 218.649 597.403 169.063 574.403 153.119C559.273 142.631 555.51 121.864 565.996 106.734ZM181.01 98.3292C196.14 87.8412 216.907 91.6042 227.395 106.734C237.883 121.864 234.12 142.631 218.99 153.119C195.989 169.063 157.085 218.649 135.08 284.796C129.269 302.265 110.398 311.715 92.9294 305.904C75.4611 300.093 66.0111 281.221 71.8221 263.753C96.8728 188.449 142.753 124.848 181.01 98.3292Z" fill="black"/>
</svg>

