<svg width="800" height="800" viewBox="0 0 800 800" fill="none" xmlns="http://www.w3.org/2000/svg">
<path d="M389.733 334.6C383.533 331.967 376.333 333.433 371.566 338.2L338.233 371.533C331.733 378.033 331.733 388.6 338.233 395.1C344.733 401.6 355.3 401.6 361.8 395.1L366.667 390.233V450C366.667 459.2 374.134 466.667 383.334 466.667C392.534 466.667 400 459.2 400.033 450V350C400.033 343.267 395.967 337.167 389.733 334.6Z" fill="black"/>
<path d="M489.733 334.6C483.566 331.967 476.333 333.433 471.566 338.2L438.233 371.533C431.733 378.033 431.733 388.6 438.233 395.1C444.733 401.6 455.3 401.6 461.8 395.1L466.667 390.233V450C466.667 459.2 474.134 466.667 483.334 466.667C492.534 466.667 500 459.2 500.033 450V350C500.033 343.267 495.967 337.167 489.733 334.6Z" fill="black"/>
<path d="M589.733 334.6C583.533 331.967 576.366 333.433 571.566 338.2L538.233 371.533C531.733 378.033 531.733 388.6 538.233 395.1C544.733 401.6 555.3 401.6 561.8 395.1L566.667 390.233V450C566.667 459.2 574.134 466.667 583.334 466.667C592.534 466.667 600.002 459.2 600.034 450V350C600.033 343.267 595.967 337.167 589.733 334.6Z" fill="black"/>
<path d="M283.333 333.333H216.666C207.466 333.333 199.998 340.8 199.998 350V450C199.998 459.2 207.466 466.667 216.666 466.667H283.333C292.533 466.667 300 459.2 300 450V350C300 340.8 292.533 333.333 283.333 333.333ZM266.667 433.333H233.334V366.666H266.667V433.333Z" fill="black"/>
<path d="M489.733 534.6C483.566 532 476.333 533.433 471.566 538.2L438.233 571.533C431.733 578.033 431.733 588.6 438.233 595.1C444.733 601.6 455.3 601.6 461.8 595.1L466.667 590.233V650C466.667 659.2 474.134 666.667 483.334 666.667C492.534 666.667 500 659.2 500.033 650V550C500.033 543.267 495.967 537.167 489.733 534.6Z" fill="black"/>
<path d="M589.733 534.6C583.533 532 576.366 533.433 571.566 538.2L538.233 571.533C531.733 578.033 531.733 588.6 538.233 595.1C544.733 601.6 555.3 601.6 561.8 595.1L566.667 590.233V650C566.667 659.2 574.134 666.667 583.334 666.667C592.534 666.667 600.002 659.2 600.034 650V550C600.033 543.267 595.967 537.167 589.733 534.6Z" fill="black"/>
<path d="M256.4 534.6C250.2 532 243 533.433 238.233 538.2L204.9 571.533C198.4 578.033 198.4 588.6 204.9 595.1C211.4 601.6 221.967 601.6 228.467 595.1L233.334 590.233V650C233.334 659.2 240.802 666.667 250.002 666.667C259.202 666.667 266.669 659.2 266.702 650V550C266.7 543.267 262.633 537.167 256.4 534.6Z" fill="black"/>
<path d="M383.333 533.333H316.666C307.466 533.333 299.998 540.8 299.998 550V650C299.998 659.2 307.466 666.667 316.666 666.667H383.333C392.533 666.667 400 659.2 400 650V550C400 540.8 392.533 533.333 383.333 533.333ZM366.667 633.333H333.334V566.666H366.667V633.333Z" fill="black"/>
<path d="M683.333 0H316.667C314.434 0 312.234 0.467188 310.2 1.3C309.567 1.56719 309.1 2.06719 308.533 2.43281C307.266 3.16563 305.933 3.83281 304.866 4.86563L104.866 204.866C104.098 205.633 103.666 206.666 103.066 207.566C102.466 208.466 101.698 209.233 101.298 210.233C100.466 212.266 99.9984 214.433 99.9984 216.666V783.333C100 792.533 107.467 800 116.667 800H683.334C692.534 800 700.002 792.533 700.002 783.333V16.6672C700 7.46719 692.533 0 683.333 0ZM300 56.9V200H156.9L300 56.9ZM666.667 766.667H133.333V233.333H316.666C325.866 233.333 333.333 225.866 333.333 216.666V33.3328H666.666V766.667H666.667Z" fill="black"/>
</svg>
