<svg width="800" height="800" viewBox="0 0 800 800" fill="none" xmlns="http://www.w3.org/2000/svg">
<path d="M473.333 319.763L366.667 400V254.115C366.667 222.287 366.667 206.373 376.717 201.333C386.767 196.293 399.46 205.841 424.85 224.938L473.333 261.409C491.11 274.782 500 281.468 500 290.586C500 299.704 491.11 306.39 473.333 319.763Z" stroke="#1C274C" stroke-width="50"/>
<path d="M473.333 538.59L424.85 575.063C399.46 594.16 386.767 603.707 376.717 598.667C366.667 593.627 366.667 577.713 366.667 545.887V400L473.333 480.237C491.11 493.61 500 500.297 500 509.413C500 518.53 491.11 525.217 473.333 538.59Z" stroke="#1C274C" stroke-width="50"/>
<path d="M282.671 297.461C272.064 288.622 256.3 290.055 247.461 300.662C238.622 311.269 240.055 327.033 250.662 335.873L282.671 297.461ZM382.67 380.793L282.671 297.461L250.662 335.873L350.663 419.207L382.67 380.793Z" fill="#1C274C"/>
<path d="M282.671 502.54C272.064 511.377 256.3 509.943 247.461 499.337C238.622 488.73 240.055 472.967 250.662 464.127L282.671 502.54ZM382.67 419.207L282.671 502.54L250.662 464.127L350.663 380.793L382.67 419.207Z" fill="#1C274C"/>
<path d="M400 733.333C584.095 733.333 733.333 584.095 733.333 400C733.333 215.905 584.095 66.6666 400 66.6666C215.905 66.6666 66.6667 215.905 66.6667 400C66.6667 584.095 215.905 733.333 400 733.333Z" stroke="#1C274C" stroke-width="50"/>
</svg>
