<svg width="800" height="800" viewBox="0 0 800 800" fill="none" xmlns="http://www.w3.org/2000/svg">
<path d="M407.414 434.94L421.906 418.283C414.9 420.819 407.663 422.336 400.009 422.336C392.36 422.336 385.132 420.765 378.071 418.229L392.577 434.94H392.976L355.581 525.394L400.036 569.763L444.514 525.394L407.092 434.94H407.414Z" fill="black"/>
<path d="M635.685 0H164.329C113.959 0 73.0093 40.9225 73.0093 91.265V112.016H130.054C148.971 112.016 164.279 127.378 164.279 146.254C164.279 165.144 148.976 180.447 130.054 180.447H73.0093V238.896H130.054C148.971 238.896 164.279 254.258 164.279 273.12C164.279 292.01 148.976 307.317 130.054 307.317H73.0093V365.78H130.054C148.971 365.78 164.279 381.11 164.279 400.005C164.279 418.894 148.976 434.229 130.054 434.229H73.0093V492.687H130.054C148.971 492.687 164.279 507.994 164.279 526.884C164.279 545.747 148.976 561.109 130.054 561.109H73.0093V619.544H130.054C148.971 619.544 164.279 634.879 164.279 653.737C164.279 672.604 148.976 687.988 130.054 687.988H73.0093V708.726C73.0093 759.082 113.959 800 164.333 800H635.689C686.046 800 726.995 759.082 726.995 708.726V91.265C727.018 40.9225 686.068 0 635.685 0ZM241.391 530.688C241.391 486.564 292.282 426.915 360.812 409.515C332.185 390.254 312.412 352.139 312.412 317.852C312.412 269.506 351.614 230.201 400.009 230.201C448.436 230.201 487.651 269.511 487.651 317.852C487.651 352.139 467.851 390.254 439.17 409.515C507.782 426.915 558.636 486.564 558.636 530.688C558.609 582.915 241.391 582.915 241.391 530.688Z" fill="black"/>
</svg>

