
<svg width="22" height="22" viewBox="0 0 22 22" fill="none" xmlns="http://www.w3.org/2000/svg">
<path d="M19.8086 2.16016C20.3477 2.70703 20.6914 3.35937 20.8398 4.11719C20.9961 4.86719 21.0742 5.72656 21.0742 6.69531V15.2969C21.0742 16.2734 20.9961 17.1406 20.8398 17.8984C20.6914 18.6484 20.3477 19.293 19.8086 19.832C19.2617 20.3867 18.6055 20.7383 17.8398 20.8867C17.082 21.043 16.2188 21.1211 15.25 21.1211H6.64844C5.67969 21.1211 4.8125 21.043 4.04688 20.8867C3.28906 20.7383 2.64062 20.3867 2.10156 19.832C1.54688 19.293 1.19531 18.6484 1.04688 17.8984C0.898438 17.1406 0.824219 16.2734 0.824219 15.2969V6.66016C0.824219 5.71484 0.898438 4.86719 1.04688 4.11719C1.20312 3.35937 1.55469 2.71094 2.10156 2.17188C2.64062 1.625 3.28906 1.27344 4.04688 1.11719C4.80469 0.960938 5.65625 0.882812 6.60156 0.882812H15.25C16.2188 0.882812 17.082 0.960938 17.8398 1.11719C18.5977 1.26563 19.2539 1.61328 19.8086 2.16016ZM19.457 6.39062C19.457 5.78906 19.3984 5.21875 19.2812 4.67969C19.1719 4.13281 18.9531 3.6875 18.625 3.34375C18.2891 3.00781 17.8438 2.78125 17.2891 2.66406C16.7344 2.54688 16.1562 2.48828 15.5547 2.48828H6.39062C5.77344 2.48828 5.18359 2.54688 4.62109 2.66406C4.06641 2.77344 3.61719 3 3.27344 3.34375C2.9375 3.67969 2.71484 4.125 2.60547 4.67969C2.50391 5.23438 2.45312 5.82422 2.45312 6.44922V15.6016C2.45312 16.2109 2.50391 16.7891 2.60547 17.3359C2.71484 17.875 2.94141 18.3125 3.28516 18.6484C3.62109 18.9922 4.0625 19.2188 4.60938 19.3281C5.16406 19.4453 5.74609 19.5039 6.35547 19.5039H15.5547C16.1562 19.5039 16.7344 19.4453 17.2891 19.3281C17.8438 19.2188 18.2891 18.9922 18.625 18.6484C18.9531 18.3125 19.1719 17.875 19.2812 17.3359C19.3984 16.7891 19.457 16.2109 19.457 15.6016V6.39062ZM5.86328 10.9961C5.86328 10.7461 5.94141 10.543 6.09766 10.3867C6.26172 10.2227 6.46875 10.1406 6.71875 10.1406H10.1172V6.75391C10.1172 6.49609 10.1953 6.28906 10.3516 6.13281C10.5078 5.96875 10.7031 5.88672 10.9375 5.88672C11.1953 5.88672 11.4023 5.96875 11.5586 6.13281C11.7227 6.28906 11.8047 6.49609 11.8047 6.75391V10.1406H15.2031C15.4531 10.1406 15.6562 10.2227 15.8125 10.3867C15.9688 10.543 16.0469 10.7461 16.0469 10.9961C16.0469 11.2383 15.9688 11.4375 15.8125 11.5938C15.6562 11.75 15.4531 11.8281 15.2031 11.8281H11.8047V15.2266C11.8047 15.4844 11.7227 15.6914 11.5586 15.8477C11.4023 16.0039 11.1953 16.082 10.9375 16.082C10.7031 16.082 10.5078 16.0039 10.3516 15.8477C10.1953 15.6836 10.1172 15.4766 10.1172 15.2266V11.8281H6.71875C6.46875 11.8281 6.26172 11.75 6.09766 11.5938C5.94141 11.4375 5.86328 11.2383 5.86328 10.9961Z" fill="#C73AFE"/>
</svg>
