<svg width="800" height="800" viewBox="0 0 800 800" fill="none" xmlns="http://www.w3.org/2000/svg">
<path d="M733.333 708.333C733.333 722 722 733.333 708.333 733.333H91.6665C77.9998 733.333 66.6665 722 66.6665 708.333C66.6665 694.667 77.9998 683.333 91.6665 683.333H708.333C722 683.333 733.333 694.667 733.333 708.333Z" fill="#292D32"/>
<path d="M513.047 150.724L155.047 508.723C141.381 522.39 119.381 522.39 106.047 508.723H105.714C59.3805 462.057 59.3805 386.723 105.714 340.39L344.047 102.057C390.714 55.3907 466.047 55.3907 512.714 102.057C526.38 115.057 526.38 137.391 513.047 150.724Z" fill="#292D32"/>
<path d="M694.047 283.01L592.38 181.344C578.713 167.677 556.713 167.677 543.38 181.344L185.38 539.343C171.714 552.677 171.714 574.677 185.38 588.343L287.047 690.343C333.713 736.677 409.047 736.677 455.713 690.343L693.713 452.01C741.047 405.343 741.047 329.677 694.047 283.01ZM425.38 584.01L385.047 624.677C376.713 633.01 363.047 633.01 354.38 624.677C346.047 616.343 346.047 602.677 354.38 594.01L395.047 553.343C403.047 545.343 417.047 545.343 425.38 553.343C433.713 561.677 433.713 576.01 425.38 584.01ZM557.713 451.677L476.38 533.343C468.047 541.343 454.38 541.343 445.713 533.343C437.38 525.01 437.38 511.343 445.713 502.677L527.38 421.01C535.38 413.01 549.38 413.01 557.713 421.01C566.047 429.677 566.047 443.343 557.713 451.677Z" fill="#292D32"/>
</svg>
