<svg width="800" height="800" viewBox="0 0 800 800" fill="none" xmlns="http://www.w3.org/2000/svg">
<path fill-rule="evenodd" clip-rule="evenodd" d="M400 733.333C242.865 733.333 164.297 733.333 115.482 684.517C66.6665 635.703 66.6665 557.133 66.6665 400C66.6665 242.865 66.6665 164.298 115.482 115.482C164.297 66.6666 242.865 66.6666 400 66.6666C557.133 66.6666 635.703 66.6666 684.516 115.482C733.333 164.298 733.333 242.865 733.333 400C733.333 557.133 733.333 635.703 684.516 684.517C635.703 733.333 557.133 733.333 400 733.333ZM482.477 280.633C493.173 289.365 494.763 305.114 486.033 315.809L295.557 549.143C290.809 554.96 283.699 558.333 276.19 558.333C268.682 558.333 261.572 554.96 256.824 549.143L180.633 455.81C171.902 445.113 173.495 429.363 184.191 420.633C194.886 411.903 210.635 413.493 219.366 424.19L276.19 493.8L447.3 284.191C456.03 273.495 471.78 271.902 482.477 280.633ZM615.81 280.634C626.506 289.365 628.096 305.114 619.366 315.81L428.883 549.143C423.84 555.32 416.153 558.723 408.19 558.297C400.226 557.873 392.943 553.677 388.583 546.997L379.063 532.413C371.516 520.853 374.773 505.36 386.337 497.813C393.13 493.38 401.28 492.677 408.38 495.193L580.633 284.19C589.367 273.495 605.113 271.902 615.81 280.634Z" fill="#1C274C"/>
</svg>
