<svg width="800" height="800" viewBox="0 0 800 800" fill="none" xmlns="http://www.w3.org/2000/svg">
<path d="M152.5 152.5C161.876 143.126 174.592 137.861 187.85 137.861C201.108 137.861 213.824 143.126 223.2 152.5L400 329.3L576.8 152.5C586.23 143.392 598.86 138.352 611.97 138.466C625.08 138.58 637.62 143.839 646.891 153.109C656.161 162.379 661.42 174.92 661.534 188.03C661.648 201.14 656.608 213.77 647.5 223.2L470.7 400L647.5 576.8C656.608 586.23 661.648 598.86 661.534 611.97C661.42 625.08 656.161 637.62 646.891 646.891C637.62 656.161 625.08 661.42 611.97 661.534C598.86 661.648 586.23 656.608 576.8 647.5L400 470.7L223.2 647.5C213.77 656.608 201.14 661.648 188.03 661.534C174.92 661.42 162.379 656.161 153.109 646.891C143.839 637.62 138.58 625.08 138.466 611.97C138.352 598.86 143.392 586.23 152.5 576.8L329.3 400L152.5 223.2C143.126 213.824 137.861 201.108 137.861 187.85C137.861 174.592 143.126 161.876 152.5 152.5Z" fill="black"/>
</svg>

