<svg width="800" height="800" viewBox="0 0 800 800" fill="none" xmlns="http://www.w3.org/2000/svg">
<path fill-rule="evenodd" clip-rule="evenodd" d="M53.534 202.687C70.455 195.436 90.051 203.274 97.303 220.195L66.6647 233.326C97.303 220.195 97.3077 220.206 97.303 220.195L97.2857 220.155C97.2764 220.133 97.2834 220.149 97.2857 220.155L97.4164 220.45C97.55 220.751 97.7794 221.262 98.106 221.968C98.759 223.382 99.7987 225.578 101.232 228.445C104.1 234.182 108.531 242.574 114.579 252.734C126.712 273.118 145.146 300.267 170.258 327.311C176.177 333.683 182.441 340.03 189.057 346.26C189.334 346.513 189.607 346.77 189.877 347.03C239.367 393.373 308.409 433.327 400 433.327C440.296 433.327 475.943 425.633 507.363 413.267C548.23 397.18 582.483 372.963 610.52 346.65C642.173 316.938 665.423 284.994 680.773 260.359C688.42 248.089 694.023 237.765 697.663 230.629C699.48 227.064 700.803 224.306 701.636 222.513C702.056 221.616 702.353 220.961 702.526 220.568L702.693 220.195C709.95 203.283 729.546 195.437 746.463 202.687C763.383 209.939 771.223 229.535 763.97 246.456L733.333 233.326C763.97 246.456 763.973 246.449 763.97 246.456L763.896 246.624L763.78 246.898L763.396 247.759C763.08 248.47 762.633 249.451 762.06 250.683C760.913 253.145 759.246 256.61 757.05 260.917C752.663 269.522 746.133 281.528 737.353 295.615C723.933 317.153 705.066 343.867 680.32 370.803L706.903 397.383C719.92 410.4 719.92 431.507 706.903 444.523C693.883 457.54 672.78 457.54 659.76 444.523L631.756 416.517C612.946 431.71 591.9 446.037 568.526 458.4L594.603 498.48C604.643 513.91 600.276 534.557 584.843 544.6C569.413 554.64 548.766 550.27 538.726 534.84L505.876 484.353C483.243 491.293 459.066 496.21 433.333 498.513V549.993C433.333 568.403 418.406 583.327 400 583.327C381.59 583.327 366.666 568.403 366.666 549.993V498.52C340.843 496.213 316.671 491.287 294.111 484.367L261.271 534.84C251.231 550.27 230.582 554.64 215.152 544.6C199.721 534.557 195.352 513.91 205.392 498.48L231.472 458.397C208.135 446.047 187.081 431.717 168.248 416.51L140.235 444.523C127.218 457.54 106.112 457.54 93.0947 444.523C80.077 431.507 80.077 410.4 93.0947 397.383L119.676 370.803C91.5094 340.143 70.9237 309.733 57.2927 286.833C50.3197 275.119 45.1147 265.282 41.603 258.259C39.846 254.745 38.5094 251.928 37.5837 249.924C37.1207 248.922 36.7604 248.122 36.5014 247.539L36.1884 246.83L36.0887 246.6L36.053 246.518L36.0387 246.484C36.0324 246.47 36.0267 246.456 66.6647 233.326L36.0387 246.484C28.7868 229.563 36.613 209.939 53.534 202.687Z" fill="white"/>
</svg>

