<svg width="800" height="800" viewBox="0 0 800 800" fill="none" xmlns="http://www.w3.org/2000/svg">
<path d="M219.987 379.913C219.987 289.04 219.987 243.603 248.104 215.373C276.222 187.142 321.477 187.142 411.986 187.142H507.986C598.496 187.142 643.75 187.142 671.87 215.373C699.986 243.603 699.986 289.04 699.986 379.913V540.557C699.986 631.43 699.986 676.867 671.87 705.097C643.75 733.327 598.496 733.327 507.986 733.327H411.986C321.477 733.327 276.222 733.327 248.104 705.097C219.987 676.867 219.987 631.43 219.987 540.557V379.913Z" fill="#1C274C"/>
<path opacity="0.5" d="M139.052 105.719C100 144.772 100 207.625 100 333.333V400C100 525.707 100 588.563 139.052 627.613C159.638 648.2 186.837 657.933 226.368 662.537C219.987 634.51 219.987 595.987 219.987 540.557V379.913C219.987 289.04 219.987 243.603 248.105 215.373C276.222 187.142 321.477 187.142 411.987 187.142H507.987C563.05 187.142 601.363 187.142 629.257 193.498C624.677 153.715 614.947 126.385 594.28 105.719C555.23 66.6666 492.373 66.6666 366.667 66.6666C240.959 66.6666 178.105 66.6666 139.052 105.719Z" fill="#1C274C"/>
</svg>
