<svg width="800" height="800" viewBox="0 0 800 800" fill="none" xmlns="http://www.w3.org/2000/svg">
<path d="M316.666 250H458.333C499.753 250 533.333 283.578 533.333 325C533.333 366.42 499.753 400 458.333 400H316.666H475C516.42 400 550 433.58 550 475C550 516.42 516.42 550 475 550H316.666M316.666 250H266.666M316.666 250V550M316.666 550H266.666M333.333 200V250M333.333 550V600M433.333 200V250M433.333 550V600M733.333 400C733.333 584.093 584.093 733.333 400 733.333C215.905 733.333 66.6665 584.093 66.6665 400C66.6665 215.905 215.905 66.6665 400 66.6665C584.093 66.6665 733.333 215.905 733.333 400Z" stroke="black" stroke-width="66.6667" stroke-linecap="round" stroke-linejoin="round"/>
</svg>

