
<svg width="800" height="800" viewBox="0 0 800 800" fill="none" xmlns="http://www.w3.org/2000/svg">
<path fill-rule="evenodd" clip-rule="evenodd" d="M364.837 41.6667H435.163C480.75 41.666 517.493 41.6654 546.393 45.5507C576.397 49.5847 601.657 58.2144 621.723 78.2784C631.67 88.2274 638.807 99.4544 643.967 111.904C675.037 115.796 701.12 124.345 721.723 144.947C741.787 165.011 750.417 190.273 754.45 220.277C758.333 249.176 758.333 285.92 758.333 331.506V468.497C758.333 514.083 758.333 550.827 754.45 579.727C750.417 609.73 741.787 634.993 721.723 655.057C701.12 675.66 675.037 684.207 643.967 688.1C638.807 700.547 631.67 711.773 621.723 721.723C601.657 741.787 576.397 750.417 546.393 754.45C517.493 758.333 480.75 758.333 435.163 758.333H364.837C319.251 758.333 282.507 758.333 253.608 754.45C223.605 750.417 198.342 741.787 178.278 721.723C168.33 711.773 161.193 700.547 156.034 688.1C124.965 684.207 98.8811 675.66 78.2784 655.057C58.2144 634.993 49.5848 609.73 45.5508 579.727C41.6654 550.827 41.6661 514.083 41.6668 468.497V331.506C41.6661 285.92 41.6654 249.176 45.5508 220.277C49.5848 190.273 58.2144 165.011 78.2784 144.947C98.8808 124.345 124.964 115.796 156.032 111.904C161.192 99.4544 168.329 88.2274 178.278 78.2784C198.342 58.2144 223.605 49.5847 253.608 45.5507C282.507 41.6654 319.251 41.666 364.837 41.6667ZM144.281 164.682C129.694 168.198 120.6 173.336 113.634 180.302C104.408 189.528 98.3934 202.48 95.1051 226.939C91.7198 252.117 91.6668 285.488 91.6668 333.337V466.67C91.6668 514.517 91.7198 547.887 95.1051 573.063C98.3934 597.523 104.408 610.477 113.634 619.7C120.6 626.667 129.694 631.807 144.282 635.32C141.666 608.28 141.666 575.117 141.667 535.163V264.837C141.666 224.884 141.666 191.723 144.281 164.682ZM655.72 635.32C670.307 631.807 679.4 626.667 686.367 619.7C695.593 610.477 701.607 597.523 704.897 573.063C708.28 547.887 708.333 514.517 708.333 466.67V333.337C708.333 285.488 708.28 252.117 704.897 226.939C701.607 202.48 695.593 189.528 686.367 180.302C679.4 173.336 670.307 168.198 655.72 164.682C658.333 191.723 658.333 224.884 658.333 264.838V535.163C658.333 575.117 658.333 608.28 655.72 635.32ZM260.271 95.105C235.812 98.3934 222.859 104.408 213.634 113.634C204.408 122.859 198.393 135.812 195.105 160.271C191.72 185.449 191.667 218.819 191.667 266.667V533.333C191.667 581.18 191.72 614.55 195.105 639.73C198.393 664.19 204.408 677.14 213.634 686.367C222.859 695.593 235.812 701.607 260.271 704.897C285.449 708.28 318.819 708.333 366.667 708.333H433.333C481.18 708.333 514.55 708.28 539.73 704.897C564.19 701.607 577.14 695.593 586.367 686.367C595.593 677.14 601.607 664.19 604.897 639.73C608.28 614.55 608.333 581.18 608.333 533.333V266.667C608.333 218.82 608.28 185.449 604.897 160.271C601.607 135.812 595.593 122.859 586.367 113.634C577.14 104.408 564.19 98.3934 539.73 95.105C514.55 91.7197 481.18 91.6667 433.333 91.6667H366.667C318.819 91.6667 285.449 91.7197 260.271 95.105ZM275 300C275 286.193 286.193 275 300 275H500C513.807 275 525 286.193 525 300C525 313.807 513.807 325 500 325H300C286.193 325 275 313.807 275 300ZM275 433.333C275 419.527 286.193 408.333 300 408.333H500C513.807 408.333 525 419.527 525 433.333C525 447.14 513.807 458.333 500 458.333H300C286.193 458.333 275 447.14 275 433.333ZM275 566.667C275 552.86 286.193 541.667 300 541.667H400C413.807 541.667 425 552.86 425 566.667C425 580.473 413.807 591.667 400 591.667H300C286.193 591.667 275 580.473 275 566.667Z" fill="#1C274C"/>
</svg>
