<svg width="800" height="800" viewBox="0 0 800 800" fill="none" xmlns="http://www.w3.org/2000/svg">
<path d="M606 267.978L621.45 252.53C647.043 226.935 688.543 226.935 714.137 252.53C739.733 278.125 739.733 319.623 714.137 345.217L698.69 360.667M606 267.978C606 267.978 607.933 300.805 636.897 329.77C665.863 358.733 698.69 360.667 698.69 360.667M606 267.978L463.98 409.997C454.36 419.617 449.55 424.427 445.413 429.73C440.537 435.987 436.353 442.757 432.94 449.917C430.047 455.99 427.893 462.44 423.593 475.347L409.82 516.667L405.363 530.033M698.69 360.667L556.67 502.687C547.05 512.307 542.24 517.117 536.937 521.253C530.68 526.13 523.91 530.313 516.75 533.727C510.677 536.62 504.227 538.773 491.32 543.073L450 556.847L436.633 561.303M405.363 530.033L400.907 543.403C398.79 549.753 400.443 556.757 405.177 561.49C409.91 566.223 416.913 567.877 423.263 565.76L436.633 561.303M405.363 530.033L436.633 561.303" stroke="#1C274C" stroke-width="50"/>
<path d="M266.667 433.333H350" stroke="#1C274C" stroke-width="50" stroke-linecap="round"/>
<path d="M266.667 300H483.333" stroke="#1C274C" stroke-width="50" stroke-linecap="round"/>
<path d="M266.667 566.667H316.667" stroke="#1C274C" stroke-width="50" stroke-linecap="round"/>
<path d="M100 466.667V333.333C100 207.625 100 144.772 139.052 105.719C178.105 66.6667 240.959 66.6667 366.667 66.6667H433.333C559.04 66.6667 621.897 66.6667 660.947 105.719M700 466.667C700 592.373 700 655.23 660.947 694.28M660.947 694.28C621.897 733.333 559.04 733.333 433.333 733.333H366.667C240.959 733.333 178.105 733.333 139.052 694.28M660.947 694.28C692.383 662.843 698.513 615.987 699.71 533.333" stroke="#1C274C" stroke-width="50" stroke-linecap="round"/>
</svg>
