<svg width="800" height="800" viewBox="0 0 800 800" fill="none" xmlns="http://www.w3.org/2000/svg">
<path fill-rule="evenodd" clip-rule="evenodd" d="M400 700C400 681.59 414.923 666.667 433.333 666.667H700C718.41 666.667 733.333 681.59 733.333 700C733.333 718.41 718.41 733.333 700 733.333H433.333C414.923 733.333 400 718.41 400 700Z" fill="#323232"/>
<path fill-rule="evenodd" clip-rule="evenodd" d="M692.453 269.998C746.113 216.127 743.833 145.384 703.767 102.061C684.227 80.9369 656.42 67.4436 624.923 66.6996C593.31 65.9529 560.557 78.0426 530.333 103.329C529.56 103.975 528.817 104.657 528.107 105.371L95.8153 539.387C77.1476 558.127 66.6666 583.504 66.6666 609.957V666.407C66.6666 703.124 96.399 733.334 133.461 733.334H189.422C216.012 733.334 241.508 722.743 260.273 703.903L692.453 269.998ZM573.57 193.099C560.553 180.081 539.447 180.081 526.43 193.099C513.413 206.116 513.413 227.222 526.43 240.239L559.763 273.573C572.78 286.59 593.887 286.59 606.903 273.573C619.92 260.555 619.92 239.45 606.903 226.432L573.57 193.099Z" fill="#323232"/>
</svg>

