<svg width="800" height="800" viewBox="0 0 800 800" fill="none" xmlns="http://www.w3.org/2000/svg">
<g clip-path="url(#clip0_6_10)">
<path d="M133.333 533.333C150.428 533.333 164.517 546.201 166.442 562.779L166.667 566.667V633.333H233.333C251.743 633.333 266.667 648.257 266.667 666.667C266.667 683.762 253.799 697.85 237.221 699.776L233.333 700H166.667C131.521 700 102.728 672.805 100.183 638.309L100 633.333V566.667C100 548.257 114.924 533.333 133.333 533.333ZM666.667 533.333C685.077 533.333 700 548.257 700 566.667V633.333C700 670.153 670.153 700 633.333 700H566.667C548.257 700 533.333 685.077 533.333 666.667C533.333 648.257 548.257 633.333 566.667 633.333H633.333V566.667C633.333 548.257 648.257 533.333 666.667 533.333ZM493.333 461.89C506.477 449.003 527.583 449.213 540.47 462.36C553.357 475.503 553.147 496.61 540 509.497C503.96 544.827 454.497 566.67 400 566.67C345.503 566.67 296.039 544.827 259.999 509.497C246.852 496.61 246.643 475.503 259.53 462.36C272.417 449.213 293.522 449.003 306.668 461.89C330.752 485.5 363.65 500.003 400 500.003C436.35 500.003 469.247 485.5 493.333 461.89ZM283.333 266.667C310.948 266.667 333.333 289.052 333.333 316.667C333.333 344.28 310.948 366.667 283.333 366.667C255.719 366.667 233.333 344.28 233.333 316.667C233.333 289.052 255.719 266.667 283.333 266.667ZM516.667 266.667C544.28 266.667 566.667 289.052 566.667 316.667C566.667 344.28 544.28 366.667 516.667 366.667C489.053 366.667 466.667 344.28 466.667 316.667C466.667 289.052 489.053 266.667 516.667 266.667ZM233.333 100C251.743 100 266.667 114.924 266.667 133.333C266.667 151.743 251.743 166.667 233.333 166.667H166.667V233.333C166.667 251.743 151.743 266.667 133.333 266.667C114.924 266.667 100 251.743 100 233.333V166.667C100 129.848 129.848 100 166.667 100H233.333ZM633.333 100C670.153 100 700 129.848 700 166.667V233.333C700 251.743 685.077 266.667 666.667 266.667C648.257 266.667 633.333 251.743 633.333 233.333V166.667H566.667C548.257 166.667 533.333 151.743 533.333 133.333C533.333 114.924 548.257 100 566.667 100H633.333Z" fill="#09244B"/>
</g>
<defs>
<clipPath id="clip0_6_10">
<rect width="800" height="800" fill="white"/>
</clipPath>
</defs>
</svg>
