<svg width="800" height="800" viewBox="0 0 800 800" fill="none" xmlns="http://www.w3.org/2000/svg">
<g clip-path="url(#clip0_6_17)">
<path d="M578.5 243.5C575.428 246.213 572.924 249.508 571.134 253.194C569.343 256.881 568.302 260.886 568.069 264.978C567.837 269.07 568.418 273.167 569.779 277.033C571.141 280.899 573.255 284.456 576 287.5C626 343 631 527 601.5 648.5C599.536 656.587 600.853 665.124 605.162 672.244C609.472 679.364 616.424 684.489 624.5 686.5H632C638.967 686.507 645.74 684.204 651.258 679.952C656.777 675.7 660.731 669.738 662.5 663C692.5 539 695 325.5 622.5 245C616.814 239.053 609.028 235.567 600.806 235.287C592.583 235.007 584.577 237.954 578.5 243.5ZM400 205C432.514 204.849 464.701 211.491 494.5 224.5C502.059 227.815 510.625 227.992 518.314 224.991C526.003 221.991 532.185 216.058 535.5 208.5C538.815 200.941 538.992 192.375 535.991 184.686C532.991 176.997 527.059 170.815 519.5 167.5C481.855 150.897 441.144 142.38 400 142.5C250 142.5 128.5 250 128.5 382C133.919 460.335 125.628 539.015 104 614.5C102.449 618.274 101.659 622.318 101.674 626.399C101.689 630.48 102.51 634.517 104.09 638.28C105.669 642.043 107.976 645.457 110.878 648.326C113.78 651.195 117.22 653.463 121 655C124.744 656.778 128.858 657.635 133 657.5C139.162 657.517 145.194 655.726 150.349 652.348C155.504 648.971 159.555 644.156 162 638.5C187.105 555.458 196.93 468.55 191 382C191 284.5 285 205 400 205Z" fill="black"/>
<path d="M680 122C603.409 52.3874 503.498 14.0285 400 14.4999C335.957 14.3822 272.714 28.7398 215 56.4999C211.01 58.1985 207.421 60.7153 204.464 63.8877C201.507 67.0602 199.249 70.8176 197.836 74.9173C196.422 79.017 195.884 83.3677 196.257 87.6882C196.63 92.0088 197.905 96.203 200 99.9999C203.663 107.477 210.138 113.199 218.008 115.917C225.878 118.634 234.504 118.124 242 114.5C291.229 90.4225 345.202 77.6123 400 76.9999C582.5 76.9999 736.5 216.5 736.5 382C736.631 390.267 740.008 398.152 745.901 403.951C751.794 409.751 759.732 413.001 768 413C772.154 413.134 776.293 412.431 780.171 410.933C784.048 409.436 787.584 407.174 790.57 404.281C793.555 401.389 795.928 397.926 797.548 394.099C799.168 390.271 800.002 386.156 800 382C799.459 332.651 788.488 283.975 767.807 239.166C747.126 194.357 717.202 154.428 680 122ZM108 177C101.114 172.477 92.7483 170.785 84.6454 172.275C76.5426 173.765 69.3267 178.323 64.5 185C23.8367 242.578 1.36946 311.024 2.50332e-07 381.5C-0.00104144 389.768 3.24898 397.706 9.04866 403.599C14.8484 409.492 22.7326 412.869 31 413C35.071 413 39.1021 412.198 42.8632 410.64C46.6243 409.082 50.0417 406.799 52.9203 403.92C55.7989 401.042 58.0824 397.624 59.6403 393.863C61.1982 390.102 62 386.071 62 382C63.247 323.943 82.076 267.63 116 220.5C118.367 217.131 120.039 213.324 120.919 209.301C121.798 205.279 121.868 201.122 121.123 197.072C120.378 193.023 118.834 189.162 116.581 185.716C114.328 182.269 111.411 179.306 108 177ZM400 270.5C379.892 269.157 359.724 272.02 340.785 278.908C321.845 285.795 304.549 296.554 290 310.5C287.036 313.346 284.677 316.762 283.066 320.543C281.455 324.323 280.625 328.39 280.625 332.5C280.625 336.609 281.455 340.677 283.066 344.457C284.677 348.238 287.036 351.654 290 354.5C292.882 357.402 296.309 359.706 300.085 361.278C303.86 362.85 307.91 363.66 312 363.66C316.09 363.66 320.14 362.85 323.915 361.278C327.691 359.706 331.118 357.402 334 354.5C352.322 338.943 376.03 331.22 400 333C418.414 331.973 436.627 337.261 451.628 347.989C466.629 358.717 477.52 374.243 482.5 392C499 438.5 482.5 638.5 455 712C452.267 719.826 452.728 728.414 456.285 735.902C459.842 743.39 466.207 749.174 474 752C477.484 752.473 481.016 752.473 484.5 752C490.998 752.033 497.341 750.023 502.635 746.255C507.928 742.487 511.904 737.15 514 731C532.17 672.06 544.234 611.407 550 550C557.609 491.232 555.582 431.616 544 373.5C534.973 342.701 515.882 315.818 489.778 297.146C463.673 278.474 432.064 269.092 400 270.5ZM284 417C275.861 417.64 268.304 421.464 262.968 427.642C257.632 433.821 254.948 441.855 255.5 450C259.157 529.436 245.686 608.729 216 682.5C213.759 685.912 212.214 689.732 211.454 693.743C210.693 697.753 210.732 701.874 211.568 705.869C212.404 709.865 214.021 713.655 216.326 717.024C218.631 720.393 221.579 723.273 225 725.5C229.977 729.017 235.906 730.936 242 731C247.212 731.006 252.338 729.676 256.889 727.138C261.441 724.599 265.266 720.937 268 716.5C305.668 631.155 322.793 538.165 318 445C317.625 440.922 316.445 436.958 314.529 433.339C312.613 429.719 309.999 426.515 306.837 423.912C303.676 421.308 300.03 419.357 296.11 418.171C292.191 416.984 288.074 416.586 284 417Z" fill="black"/>
<path d="M395 383C386.79 384.351 379.449 388.894 374.577 395.639C369.706 402.384 367.701 410.782 369 419C375.3 519.754 362.056 620.775 330 716.5C326.376 723.996 325.866 732.622 328.583 740.492C331.3 748.363 337.023 754.837 344.5 758.5C351.943 761.969 360.446 762.395 368.198 759.686C375.949 756.978 382.337 751.349 386 744C423.888 636.445 439.206 522.237 431 408.5C430.335 404.45 428.872 400.573 426.697 397.093C424.522 393.613 421.677 390.6 418.328 388.228C414.98 385.856 411.193 384.172 407.188 383.275C403.184 382.377 399.041 382.284 395 383Z" fill="black"/>
</g>
<defs>
<clipPath id="clip0_6_17">
<rect width="800" height="800" fill="white"/>
</clipPath>
</defs>
</svg>

