<svg width="12" height="20" viewBox="0 0 12 20" fill="none" xmlns="http://www.w3.org/2000/svg">
<g clip-path="url(#clip0_103_177)">
<path d="M11.7607 10.0039C11.7607 10.168 11.7334 10.3203 11.6787 10.4609C11.6162 10.6094 11.5186 10.7461 11.3857 10.8711L2.66699 19.3906C2.44824 19.6172 2.17871 19.7305 1.85842 19.7305C1.63962 19.7305 1.44432 19.6797 1.27242 19.5781C1.09282 19.4766 0.952121 19.3398 0.850621 19.168C0.741221 18.9961 0.686522 18.7969 0.686522 18.5703C0.686522 18.2578 0.803721 17.9844 1.03812 17.75L8.95996 10.0039L1.03812 2.2578C0.803721 2.0234 0.686522 1.75 0.686522 1.4375C0.686522 1.2188 0.741221 1.0234 0.850621 0.851601C0.952121 0.671901 1.09282 0.531201 1.27242 0.429701C1.44432 0.328101 1.63962 0.2773 1.85842 0.2773C2.17871 0.2773 2.44824 0.390601 2.66699 0.617201L11.3857 9.1367C11.5186 9.2617 11.6162 9.3945 11.6787 9.5352C11.7334 9.6836 11.7607 9.8398 11.7607 10.0039Z" fill="#C73AFE"/>
</g>
<defs>
<clipPath id="clip0_103_177">
<rect width="12" height="20" fill="white" transform="matrix(-1 0 0 -1 12 20)"/>
</clipPath>
</defs>
</svg>

