
<svg width="24" height="24" viewBox="0 0 24 24" fill="none" xmlns="http://www.w3.org/2000/svg">
<path d="M11.0241 23.5508C10.7273 23.5508 10.4773 23.4688 10.2741 23.3047C10.0788 23.1406 9.94992 22.9141 9.88742 22.625L9.3132 20.2109C9.11007 20.1406 8.90695 20.0664 8.70382 19.9883C8.50851 19.9102 8.32101 19.8281 8.14132 19.7422L6.03195 21.043C5.78976 21.1992 5.53976 21.2617 5.28195 21.2305C5.02414 21.207 4.79367 21.0977 4.59054 20.9023L3.14914 19.4492C2.9382 19.2539 2.82101 19.0234 2.79757 18.7578C2.77414 18.4922 2.84835 18.2383 3.02023 17.9961L4.30929 15.8984C4.22335 15.7109 4.14132 15.5234 4.0632 15.3359C3.98507 15.1406 3.91867 14.9453 3.86398 14.75L1.42648 14.1758C1.1296 14.1133 0.903042 13.9844 0.746792 13.7891C0.590542 13.5859 0.512417 13.3359 0.512417 13.0391V11.0117C0.512417 10.7227 0.590542 10.4805 0.746792 10.2852C0.903042 10.082 1.1296 9.94922 1.42648 9.88672L3.84054 9.3125C3.91085 9.09375 3.98507 8.88672 4.0632 8.69141C4.14132 8.49609 4.21554 8.31641 4.28585 8.15234L2.99679 6.03125C2.83273 5.78125 2.76242 5.53125 2.78585 5.28125C2.80929 5.02344 2.92257 4.78906 3.1257 4.57812L4.59054 3.13672C4.80148 2.94141 5.02804 2.82813 5.27023 2.79688C5.51242 2.76562 5.7546 2.82422 5.99679 2.97266L8.1296 4.28516C8.30929 4.19922 8.5007 4.11719 8.70382 4.03906C8.90695 3.96094 9.11007 3.88281 9.3132 3.80469L9.88742 1.39062C9.94992 1.10156 10.0788 0.875 10.2741 0.710938C10.4773 0.546875 10.7273 0.464844 11.0241 0.464844H13.0866C13.3835 0.464844 13.6296 0.546875 13.8249 0.710938C14.028 0.875 14.1609 1.10156 14.2234 1.39062L14.7859 3.82812C15.0046 3.90625 15.2116 3.98437 15.4069 4.0625C15.6023 4.13281 15.7859 4.21094 15.9577 4.29688L18.1023 2.97266C18.3444 2.82422 18.5866 2.76562 18.8288 2.79688C19.071 2.82813 19.2976 2.94141 19.5085 3.13672L20.9734 4.57812C21.1765 4.78906 21.2898 5.02344 21.3132 5.28125C21.3366 5.53125 21.2663 5.78125 21.1023 6.03125L19.8132 8.15234C19.8913 8.31641 19.9694 8.49609 20.0476 8.69141C20.1257 8.88672 20.196 9.09375 20.2585 9.3125L22.6726 9.88672C22.9694 9.94922 23.196 10.082 23.3523 10.2852C23.5085 10.4805 23.5866 10.7227 23.5866 11.0117V13.0391C23.5866 13.3359 23.5085 13.5859 23.3523 13.7891C23.196 13.9844 22.9694 14.1133 22.6726 14.1758L20.2468 14.75C20.1921 14.9453 20.1257 15.1406 20.0476 15.3359C19.9694 15.5234 19.8835 15.7109 19.7898 15.8984L21.0905 17.9961C21.2546 18.2383 21.3249 18.4922 21.3015 18.7578C21.278 19.0234 21.1609 19.2539 20.9499 19.4492L19.5085 20.9023C19.3054 21.0977 19.0749 21.207 18.8171 21.2305C18.5593 21.2617 18.3093 21.1992 18.0671 21.043L15.9577 19.7422C15.778 19.8281 15.5866 19.9102 15.3835 19.9883C15.1882 20.0664 14.989 20.1406 14.7859 20.2109L14.2234 22.625C14.1609 22.9141 14.028 23.1406 13.8249 23.3047C13.6296 23.4688 13.3835 23.5508 13.0866 23.5508H11.0241ZM12.0554 15.9336C12.7741 15.9336 13.4304 15.7539 14.0241 15.3945C14.6179 15.0352 15.0944 14.5586 15.4538 13.9648C15.8132 13.3711 15.9929 12.7109 15.9929 11.9844C15.9929 11.2734 15.8132 10.625 15.4538 10.0391C15.0944 9.44531 14.6179 8.96875 14.0241 8.60938C13.4304 8.25 12.7741 8.07031 12.0554 8.07031C11.3366 8.07031 10.6765 8.25 10.0749 8.60938C9.48117 8.96875 9.00851 9.44531 8.65695 10.0391C8.30539 10.625 8.1296 11.2734 8.1296 11.9844C8.1296 12.7109 8.30539 13.3711 8.65695 13.9648C9.00851 14.5586 9.48117 15.0352 10.0749 15.3945C10.6765 15.7539 11.3366 15.9336 12.0554 15.9336Z" fill="#C73AFE"/>
</svg>
