<svg width="815" height="815" viewBox="0 0 815 815" fill="none" xmlns="http://www.w3.org/2000/svg">
<path d="M570.5 464.551C531.38 464.551 497.965 492.261 490.63 529.751H383.05C378.16 529.751 374.9 533.826 374.9 538.716C374.9 541.161 374.9 543.606 374.9 546.051C374.9 554.201 374.085 561.536 372.455 568.871C371.64 573.761 375.715 578.651 380.605 578.651H495.52C507.745 607.176 537.085 627.551 570.5 627.551C615.325 627.551 652 590.876 652 546.051C652 501.226 615.325 464.551 570.5 464.551Z" fill="black"/>
<path d="M352.895 370.825C343.115 366.75 334.15 361.045 326 354.525C321.925 351.265 316.22 352.895 313.775 356.97L255.91 465.365C252.65 464.55 248.575 464.55 244.5 464.55C199.675 464.55 163 501.225 163 546.05C163 590.875 199.675 627.55 244.5 627.55C289.325 627.55 326 590.875 326 546.05C326 522.415 316.22 502.04 300.735 486.555L356.97 382.235C358.6 378.16 356.97 373.27 352.895 370.825Z" fill="black"/>
<path d="M407.5 334.15C415.65 334.15 422.985 333.335 430.32 330.89L486.555 434.395C489 438.47 493.89 440.1 497.965 437.655C506.93 431.95 515.895 427.06 525.675 423.8C530.565 422.17 532.195 416.465 529.75 412.39L471.07 303.18C481.665 289.325 489 271.395 489 252.65C489 207.825 452.325 171.15 407.5 171.15C362.675 171.15 326 207.825 326 252.65C326 297.475 362.675 334.15 407.5 334.15Z" fill="black"/>
</svg>

