<svg width="800" height="800" viewBox="0 0 800 800" fill="none" xmlns="http://www.w3.org/2000/svg">
<path d="M417.677 348.99C412.99 344.3 406.63 341.667 400 341.667C393.37 341.667 387.01 344.3 382.323 348.99L298.989 432.323C289.226 442.087 289.226 457.913 298.989 467.677C308.752 477.44 324.581 477.44 334.343 467.677L375 427.023V566.667C375 580.473 386.193 591.667 400 591.667C413.807 591.667 425 580.473 425 566.667V427.023L465.657 467.677C475.42 477.44 491.247 477.44 501.01 467.677C510.773 457.913 510.773 442.087 501.01 432.323L417.677 348.99Z" fill="#1C274C"/>
<path fill-rule="evenodd" clip-rule="evenodd" d="M401.913 41.6667H398.087C321.141 41.6663 260.84 41.666 213.79 47.9917C165.632 54.4663 127.632 67.9777 97.8046 97.8047C67.9776 127.632 54.4663 165.632 47.9916 213.79C41.666 260.84 41.6663 321.141 41.6666 398.087V400H42.0306C41.6666 419.293 41.6666 440.997 41.6666 465.547V467.787C41.6666 513.51 41.6663 549.357 44.0203 578.17C46.4173 607.507 51.3793 631.743 62.557 653.68C80.933 689.747 110.254 719.067 146.319 737.443C168.256 748.62 192.493 753.583 221.831 755.98C250.642 758.333 286.49 758.333 332.212 758.333H467.787C513.51 758.333 549.357 758.333 578.17 755.98C607.507 753.583 631.743 748.62 653.68 737.443C689.747 719.067 719.067 689.747 737.443 653.68C748.62 631.743 753.583 607.507 755.98 578.17C758.333 549.357 758.333 513.51 758.333 467.787V465.547C758.333 441.007 758.333 419.29 757.97 400H758.333V398.087C758.333 321.141 758.333 260.84 752.01 213.79C745.533 165.632 732.023 127.632 702.197 97.8047C672.37 67.9777 634.367 54.4663 586.21 47.9917C539.16 41.666 478.86 41.6663 401.913 41.6667ZM146.319 195.89C127.542 205.457 110.594 217.991 96.0656 232.899C96.5123 228.628 97.004 224.481 97.5456 220.453C103.275 177.839 114.171 152.148 133.16 133.16C152.148 114.171 177.839 103.275 220.453 97.5457C263.785 91.7197 320.726 91.6667 400 91.6667C479.273 91.6667 536.213 91.7197 579.547 97.5457C622.16 103.275 647.85 114.171 666.84 133.16C685.83 152.148 696.727 177.839 702.453 220.453C702.997 224.482 703.487 228.628 703.933 232.899C689.407 217.992 672.457 205.457 653.68 195.89C631.743 184.713 607.507 179.751 578.17 177.354C549.357 175 513.51 175 467.787 175H332.215C286.491 175 250.643 175 221.831 177.354C192.493 179.751 168.256 184.713 146.319 195.89ZM169.018 240.441C182.732 233.453 199.657 229.332 225.903 227.188C252.441 225.019 286.25 225 333.333 225H466.667C513.75 225 547.56 225.019 574.097 227.188C600.343 229.332 617.267 233.453 630.983 240.441C657.637 254.023 679.31 275.695 692.893 302.351C699.88 316.066 704 332.99 706.147 359.237C708.313 385.773 708.333 419.583 708.333 466.667C708.333 513.75 708.313 547.56 706.147 574.097C704 600.343 699.88 617.267 692.893 630.983C679.31 657.637 657.637 679.31 630.983 692.893C617.267 699.88 600.343 704 574.097 706.147C547.56 708.313 513.75 708.333 466.667 708.333H333.333C286.25 708.333 252.441 708.313 225.903 706.147C199.657 704 182.732 699.88 169.018 692.893C142.362 679.31 120.689 657.637 107.107 630.983C100.12 617.267 95.9986 600.343 93.8543 574.097C91.686 547.56 91.6666 513.75 91.6666 466.667C91.6666 419.583 91.686 385.773 93.8543 359.237C95.9986 332.99 100.12 316.066 107.107 302.351C120.689 275.695 142.362 254.023 169.018 240.441Z" fill="#1C274C"/>
</svg>
