<svg width="800" height="800" viewBox="0 0 800 800" fill="none" xmlns="http://www.w3.org/2000/svg">
<path fill-rule="evenodd" clip-rule="evenodd" d="M733.333 400C733.333 584.094 584.093 733.334 400 733.334C346.676 733.334 296.279 720.814 251.584 698.55C239.707 692.637 226.131 690.667 213.313 694.097L139.111 713.95C106.9 722.567 77.4315 693.1 86.0502 660.89L105.904 586.687C109.334 573.87 107.364 560.294 101.448 548.417C79.1872 503.72 66.6665 453.324 66.6665 400C66.6665 215.905 215.905 66.667 400 66.667C584.093 66.667 733.333 215.905 733.333 400ZM250 370.28C250 415.894 293.961 463.754 334.286 498.057C361.746 521.42 375.48 533.104 400 533.104C424.52 533.104 438.253 521.42 465.713 498.057C506.04 463.754 550 415.894 550 370.28C550 281.042 467.496 247.724 400 316.66C332.502 247.724 250 281.042 250 370.28Z" fill="#1C274C"/>
</svg>

