<svg width="800" height="800" viewBox="0 0 800 800" fill="none" xmlns="http://www.w3.org/2000/svg">
<path fill-rule="evenodd" clip-rule="evenodd" d="M489.737 166.667H310.269C271.972 166.878 235.327 182.295 208.397 209.525C181.466 236.756 166.456 273.569 166.669 311.866V488.133C166.456 526.43 181.466 563.243 208.397 590.473C235.327 617.703 271.972 633.123 310.269 633.333H489.737C528.034 633.123 564.677 617.703 591.607 590.473C618.54 563.243 633.547 526.43 633.337 488.133V311.866C633.547 273.569 618.54 236.756 591.607 209.525C564.677 182.295 528.034 166.878 489.737 166.667Z" stroke="black" stroke-width="50" stroke-linecap="round" stroke-linejoin="round"/>
<path d="M266.671 300C252.864 300 241.671 311.193 241.671 325C241.671 338.807 252.864 350 266.671 350V300ZM400.004 350C413.81 350 425.004 338.807 425.004 325C425.004 311.193 413.81 300 400.004 300V350ZM375.004 325C375.004 338.807 386.197 350 400.004 350C413.81 350 425.004 338.807 425.004 325H375.004ZM425.004 266.667C425.004 252.86 413.81 241.667 400.004 241.667C386.197 241.667 375.004 252.86 375.004 266.667H425.004ZM400.004 300C386.197 300 375.004 311.193 375.004 325C375.004 338.807 386.197 350 400.004 350V300ZM516.67 350C530.477 350 541.67 338.807 541.67 325C541.67 311.193 530.477 300 516.67 300V350ZM516.67 300C502.864 300 491.67 311.193 491.67 325C491.67 338.807 502.864 350 516.67 350V300ZM533.337 350C547.144 350 558.337 338.807 558.337 325C558.337 311.193 547.144 300 533.337 300V350ZM537.127 339.37C545.064 328.074 542.34 312.481 531.044 304.543C519.744 296.606 504.154 299.33 496.214 310.628L537.127 339.37ZM375.79 442.61C365.264 451.547 363.977 467.323 372.914 477.846C381.85 488.373 397.627 489.66 408.15 480.723L375.79 442.61ZM309.991 496.676C298.951 504.966 296.723 520.64 305.014 531.68C313.306 542.72 328.977 544.95 340.017 536.657L309.991 496.676ZM408.564 480.233C418.89 471.07 419.834 455.27 410.67 444.943C401.51 434.613 385.707 433.67 375.38 442.833L408.564 480.233ZM372.304 476.97C380.83 487.83 396.544 489.723 407.407 481.2C418.267 472.673 420.16 456.96 411.637 446.097L372.304 476.97ZM372.867 381.557C367.284 368.927 352.52 363.22 339.894 368.803C327.266 374.387 321.556 389.15 327.14 401.776L372.867 381.557ZM412.03 446.746C403.79 435.666 388.13 433.367 377.05 441.607C365.974 449.847 363.67 465.506 371.91 476.586L412.03 446.746ZM463.177 555.36C475.34 561.89 490.497 557.326 497.03 545.16C503.56 532.996 498.997 517.84 486.834 511.306L463.177 555.36ZM266.671 350H400.004V300H266.671V350ZM425.004 325V266.667H375.004V325H425.004ZM400.004 350H516.67V300H400.004V350ZM516.67 350H533.337V300H516.67V350ZM496.214 310.628C461.84 359.556 421.374 403.907 375.79 442.61L408.15 480.723C456.97 439.273 500.31 391.773 537.127 339.37L496.214 310.628ZM340.017 536.657C357.044 523.87 381.77 504.003 408.564 480.233L375.38 442.833C349.57 465.73 325.898 484.73 309.991 496.676L340.017 536.657ZM411.637 446.097C396.08 426.28 383.057 404.597 372.867 381.557L327.14 401.776C339.01 428.62 354.184 453.88 372.304 476.97L411.637 446.097ZM371.91 476.586C396.184 509.223 427.344 536.117 463.177 555.36L486.834 511.306C457.464 495.536 431.927 473.493 412.03 446.746L371.91 476.586Z" fill="black"/>
</svg>

