<svg width="460" height="460" viewBox="0 0 460 460" fill="none" xmlns="http://www.w3.org/2000/svg">
<path d="M183.691 58.8871C184.186 58.8179 185.478 58.8636 186.566 58.9599C191.319 59.3159 192.49 59.343 192.936 59.1565C193.159 59.0633 193.532 59.1487 193.757 59.33C193.951 59.5247 194.451 59.5569 194.865 59.3837C195.311 59.1973 195.907 59.1894 196.228 59.3308C196.549 59.4722 197.081 59.491 197.399 59.3579C197.75 59.2114 198.37 59.2622 198.792 59.4649C199.245 59.6543 199.865 59.7051 200.184 59.572C200.471 59.4521 200.907 59.5109 201.1 59.7055C201.326 59.8869 201.667 59.9856 201.89 59.8924C202.113 59.7992 203.265 59.8688 204.422 60.0398C205.61 60.1974 206.89 60.2138 207.272 60.054C207.654 59.8942 208.118 59.8383 208.287 59.9743C208.444 60.081 208.855 60.0812 209.174 59.948C209.493 59.8148 210.113 59.8656 210.566 60.055C211.02 60.2444 211.475 60.2606 211.598 60.106C211.721 59.9514 212.032 59.8902 212.316 59.9436C212.6 59.997 213.26 59.9626 213.838 59.8242C214.385 59.699 216.961 59.4146 219.561 59.1889C222.13 58.9764 225.836 58.5298 227.728 58.2212C229.62 57.9125 232.12 57.6254 233.279 57.6231C235.629 57.6052 240.276 56.903 244.597 55.958C246.205 55.596 248.372 55.1382 249.413 54.9439L251.281 54.5767L254.98 57.3367C261.186 61.9768 264.419 65.4138 270.803 74.1483C272.58 76.6092 274.105 78.5556 274.132 78.441C274.445 77.7587 264.444 64.129 262.054 61.9931C261.441 61.4225 260.917 60.8838 260.988 60.7852C261.242 60.2309 271.684 65.512 277.662 69.2485C285.249 73.9663 288.558 76.5103 293.889 81.6539C295.708 83.4085 297.247 84.7631 297.274 84.6485C297.412 84.3499 291.35 78.4437 288.075 75.7131C280.962 69.7986 269.9 63.1231 261.723 59.8578C260.066 59.2069 253.607 55.8436 252.73 55.1769C252.472 55.0089 253.747 55.3718 255.512 56.0121C257.32 56.6684 259.112 57.1941 259.536 57.2236C259.96 57.253 261.034 57.4932 261.936 57.7708C262.794 58.0323 263.678 58.1791 263.838 58.1125C264.571 57.8062 273.485 59.523 275.715 60.3821C276.112 60.5261 279.38 61.5374 283.007 62.6048C288.811 64.3126 298.895 68.0209 304.631 70.5497C312.481 74.0201 325.352 81.3519 332.836 86.6295C337.076 89.611 347.126 97.9841 350.055 100.963C351.036 101.965 353.073 103.973 354.553 105.455C356.054 106.895 357.765 108.661 358.363 109.375C358.98 110.047 360.422 111.615 361.552 112.796C363.812 115.159 372.232 125.901 374.708 129.586C381.986 140.461 385.269 146.702 390.934 160.525C395.541 171.725 397.203 176.507 399.15 184.478C401.183 192.654 402.265 199.54 403.104 209.696C404.419 225.199 403.392 245.127 400.641 256.991C400.325 258.294 400.036 259.931 399.95 260.621C399.865 261.312 399.615 262.415 399.409 263.087C399.191 263.729 398.48 266.506 397.866 269.244C396.726 274.129 395.675 277.704 394.129 281.795C393.676 282.949 392.99 284.889 392.529 286.115C391.238 289.652 384.382 304.231 382.676 307.045C381.814 308.474 380.755 310.329 380.311 311.237C376.69 318.332 364.986 334.386 357.594 342.402C349.174 351.537 338.062 361.487 331.58 365.678C330.161 366.581 326.968 368.88 325.821 369.808C323.046 372.035 315.307 376.442 301.19 383.858C295.855 386.674 287.134 390.526 285.235 390.906C284.269 391.103 282.191 391.593 280.564 391.998C278.948 392.432 277.316 392.735 276.936 392.722C275.664 392.633 266.118 394.419 264.78 394.978C264.015 395.298 263.106 395.988 262.603 396.577C261.888 397.462 261.256 397.83 258.28 399.039C255.369 400.221 254.609 400.642 253.575 401.66C252.925 402.345 251.607 403.31 250.668 403.84C248.229 405.169 248.205 405.558 250.33 407.15C253.897 409.862 252.338 411.685 247.387 410.585C244.615 409.953 242.277 409.552 242.053 409.645C241.926 409.699 240.928 409.461 239.838 409.09C238.759 408.749 236.747 408.143 235.365 407.791C234.002 407.396 232.387 406.934 231.769 406.71C231.151 406.486 229.749 406.176 228.681 406.037C227.568 405.882 226.078 405.541 225.359 405.255C224.654 404.999 223.972 404.802 223.813 404.868C223.685 404.922 222.44 404.719 221.114 404.412C218.222 403.76 217.394 404.107 217.176 406.092C217.112 407.015 217.37 408.078 218.166 409.984C219.196 412.448 219.218 412.68 218.669 413.426C217.856 414.524 216.968 414.55 213.473 413.531C211.814 413.053 209.662 412.471 208.632 412.247C206.257 411.759 203.728 410.99 197.397 408.917C194.61 407.981 191.808 407.188 191.22 407.124C190.62 407.03 189.642 406.75 189.012 406.497C188.382 406.243 186.896 406.003 185.713 405.947C184.529 405.89 183.428 405.765 183.227 405.642C183.07 405.535 182.578 405.431 182.186 405.388C181.566 405.337 181.411 405.505 181.323 406.369C181.166 407.606 181.598 410.25 182.41 412.908C183.148 415.39 182.922 416.104 181.265 416.797C180.182 417.25 179.714 417.204 177.256 416.337C175.743 415.763 174.025 414.966 173.442 414.555C172.89 414.131 171.733 413.512 170.959 413.182C170.152 412.864 169.417 412.448 169.356 412.302C169.282 412.126 167.748 411.32 165.929 410.461C164.142 409.589 162.458 408.605 162.191 408.234C161.657 407.493 159.093 404.672 157.475 403.04C156.906 402.486 155.423 401.176 154.195 400.208C152.955 399.211 151.472 397.902 150.91 397.275C150.317 396.662 147.557 394.267 144.758 391.958C141.927 389.662 139.586 387.643 139.537 387.526C139.488 387.409 138.564 386.451 137.451 385.401L135.451 383.481L135.571 385.291C135.652 386.291 135.877 387.368 136.132 387.709C136.711 388.466 136.191 389.82 135.204 390.233C134.344 390.593 133.275 390.006 132.444 388.734C132.096 388.259 130.735 387.243 129.377 386.502C128.039 385.718 126.865 384.968 126.804 384.822C126.742 384.675 125.764 383.947 124.647 383.243C123.517 382.51 122.338 381.659 122.031 381.374C121.705 381.131 121.291 380.856 121.063 380.848C120.583 380.773 119.978 382.818 119.912 384.809C119.811 386.539 119.36 387.072 118.083 386.882C117.047 386.73 116.647 386.311 115.495 384.003C114.318 381.635 111.597 377.812 106.699 371.557C104.459 368.704 103.503 367.312 101.368 363.726C100.309 361.999 99.1883 360.124 98.828 359.62C98.4995 359.103 97.3473 356.794 96.3029 354.475C94.2068 349.908 94.3391 349.508 96.8395 352.804C97.8029 354.124 98.2784 354.545 98.347 354.172C98.4082 353.871 97.3859 350.887 96.1404 347.55C94.3629 342.85 93.7108 341.469 93.3505 341.413C93.0343 341.373 92.505 342.076 91.9169 343.355C91.3949 344.435 90.8877 345.37 90.7603 345.424C90.1231 345.69 89.7183 342.931 89.4701 336.696C89.2956 332.876 89.0894 329.517 88.9668 329.224C88.6358 328.432 87.805 328.952 86.793 330.65C86.2808 331.484 85.3986 332.955 84.8399 333.946L83.7568 335.743L83.4895 334.476C82.6557 330.691 82.7632 327.098 83.929 319.858C85.0263 312.992 85.0577 308.948 83.979 306.368C83.6726 305.635 83.3391 305.016 83.2509 304.984C83.1504 304.923 82.7338 305.269 82.3662 305.733C81.5109 306.641 80.8198 306.689 81.5868 305.748C82.0573 305.173 82.0573 305.173 81.2509 305.303C80.4887 305.45 80.4838 305.348 81.3879 302.318C83.637 294.626 88.06 285.508 93.6546 276.865C94.9877 274.861 96.039 273.078 96.0536 272.934C96.0365 272.804 95.3576 272.881 94.5365 273.155C92.8062 273.671 92.218 273.607 92.7596 272.933C92.9532 272.68 93.7594 271.206 94.4969 269.658C95.9721 266.561 97.5919 264.437 100.726 261.37C101.863 260.24 102.783 259.304 102.758 259.246C102.66 259.011 94.986 259.635 93.6184 260.035C92.741 260.263 91.9861 260.338 91.9248 260.191C91.7164 259.693 96.2038 256.37 101.527 253.077C107.47 249.387 116.315 245.655 120.372 245.062C121.222 244.948 121.222 244.948 119.54 243.79C111.917 238.537 103.586 230.066 101.99 225.979C101.654 225.086 101.558 224.678 101.793 225.062C105.002 230.231 112.493 237.228 120.771 242.794C124.869 245.525 128.232 247.392 131.896 248.995C135.039 250.334 136.544 251.427 137.095 252.747C137.733 254.272 137.287 255.354 135.821 255.967C134.196 256.646 130.27 257.46 127.848 257.577C126.758 257.654 125.851 257.723 125.819 257.736C125.437 257.896 130.758 262.837 132.935 264.373C134.641 265.589 135.786 266.626 135.825 266.989C135.916 267.743 136.3 267.858 139.041 268.056C140.193 268.126 140.906 268.31 140.651 268.417C140.193 268.574 138.774 268.581 135.229 268.34L133.729 268.244L134.411 267.546L135.092 266.847L132.66 265.418C130.028 263.866 128.408 262.407 126.398 259.837C125.694 258.96 124.645 257.882 124.074 257.501C122.706 256.557 122.574 256.061 123.753 256.464C125.216 256.92 128.26 256.681 132.429 255.731C136.458 254.805 136.848 254.573 136.554 252.973C136.348 251.854 135.833 251.518 130.892 249.725C128.629 248.879 125.683 247.562 124.345 246.777L121.933 245.305L116.57 247.34C110.928 249.423 106.367 251.674 101.9 254.506C100.5 255.367 98.4611 256.667 97.3362 257.378L95.2849 258.649L97.4221 258.479C104.429 257.961 105.265 257.991 104.778 258.884C104.596 259.166 103.04 260.816 101.273 262.588C98.195 265.7 96.7124 267.526 94.9676 270.425C94.0536 271.91 94.0536 272.358 94.882 272.011C98.7298 270.472 99.8058 270.091 99.8671 270.238C99.9161 270.355 99.2569 271.285 98.3992 272.367C94.1252 277.633 88.5112 287.662 84.5981 297.014L81.714 303.904L82.9468 303.63C84.0841 303.396 84.5203 303.007 87.7037 299.161C92.1369 293.829 93.4383 293.181 94.4214 295.802C94.8603 297.031 94.8602 297.031 94.2646 296.143C93.9483 295.655 93.5414 295.308 93.414 295.362C93.2866 295.415 92.6322 295.999 91.9828 296.683C91.3652 297.355 90.3849 298.144 89.8041 298.455C88.7576 298.996 84.6821 303.214 84.5645 303.918C84.5302 304.105 84.8 305.198 85.2216 306.296C86.1533 308.973 86.2762 311.953 85.6003 316.783C84.819 322.346 83.8079 333 84.0041 333.469C84.1021 333.703 84.4526 333.109 84.7956 332.139C85.369 330.556 89.3289 323.733 91.5026 320.516C92.4142 319.205 92.4142 319.205 91.809 320.354C91.4389 320.991 90.4955 322.763 89.6574 324.25L88.1431 326.985L88.9764 327.635C90.104 328.542 90.2683 329.472 90.4455 336.254C90.5023 339.434 90.6349 342.169 90.7084 342.345C90.782 342.521 91.0516 342.27 91.2868 341.758C91.8602 340.623 93.3258 340.01 94.0784 340.557C94.799 341.117 97.562 347.817 98.8394 352.037C99.3592 353.818 99.9722 355.732 100.205 356.289C101.014 358.224 104.49 364.66 106.348 367.673C113.509 379.252 117.029 384.36 118.468 385.206C119.103 385.56 119.12 385.243 118.441 381.738C117.631 377.563 117.639 377.043 118.347 377.126C118.619 377.15 121.22 379.164 124.132 381.564C129.718 386.153 134.022 389.108 134.522 388.692C134.689 388.553 134.65 387.295 134.397 385.885C133.818 382.441 133.987 379.89 134.744 380.09C135.59 380.322 139.066 383.623 144.177 389.135C146.692 391.839 149.976 395.22 151.489 396.689C154.545 399.614 162.095 405.587 168.549 410.193C176.854 416.092 179.861 417.108 181.008 414.39C181.388 413.507 181.309 413.23 180.463 411.655C179.61 410.151 179.054 408.282 178.357 404.646C178.306 404.254 178.524 403.612 178.864 403.263C179.443 402.677 179.734 402.658 181.533 403.112C185.404 404.043 194.017 406.472 199 408.006C201.718 408.868 205.181 409.9 206.708 410.33C209.762 411.189 217.713 412.93 218.032 412.797C218.127 412.757 217.998 412.535 217.716 412.309C215.948 410.946 215.041 407.432 215.877 405.223C216.33 404.069 216.639 403.733 217.658 403.307C218.55 402.934 218.852 402.67 218.717 402.348C218.312 401.38 218.906 401.545 226.278 404.32C230.992 406.105 234.798 407.063 241.977 408.299C244.644 408.769 247.644 409.41 248.659 409.778C249.693 410.104 250.482 410.29 250.433 410.173C250.397 410.085 248.803 408.96 246.901 407.722C242.702 404.93 239.734 402.485 239.305 401.458C239.121 401.019 239.138 400.254 239.297 399.739C239.589 398.825 239.8 398.702 243.106 397.389C246.081 396.18 247.162 395.901 250.824 395.438C254.917 394.933 264.333 393.374 272.539 391.873C274.622 391.484 278.083 390.899 280.223 390.556C284.343 389.936 290.12 388.624 290.245 388.296C290.316 388.197 289.487 387.648 288.431 387.09C287.374 386.533 286.225 385.842 285.886 385.57C285.134 385.023 284.531 383.76 284.815 383.365C285.041 383.099 290.202 381.837 295.278 380.818L298.067 380.237L296.886 379.56C296.27 379.163 295.687 378.752 295.638 378.635C295.442 378.165 296.253 376.345 296.848 375.889C297.182 375.612 298.54 374.562 299.853 373.497L302.23 371.573L299.62 372.492C295.902 373.805 297.52 372.75 307.401 367.379C308.161 366.958 309.534 366.212 310.44 365.695C311.359 365.208 315.001 362.996 318.491 360.78C326.263 355.912 329.993 353.733 333.802 351.831C337.017 350.211 336.88 350.062 333.037 350.807C324.417 352.481 322.608 352.72 322.424 352.28C322.375 352.163 322.882 351.675 323.529 351.164C328.833 347.018 336.947 334.463 340.994 324.089C347.564 307.391 349.199 291.516 345.879 277.573C344.849 273.319 341.848 265.513 339.779 261.727C336.95 256.571 332.962 250.969 329.224 246.951C327.52 245.114 324.824 242.693 325.939 244.018C331.891 251.004 334.921 257.626 336.819 267.718C338.597 277.345 338.11 285.85 335.185 295.685C328.996 316.427 311.729 337.08 288.608 351.43C275.418 359.631 257.921 365.945 241.206 368.488C218.91 371.917 194.855 367.917 176.046 357.659C160.976 349.455 152.186 341.141 142.471 326.048C140.946 323.653 138.72 320.209 137.561 318.42C135.416 315.079 133.499 312.642 131.693 310.917L130.661 309.97L131.604 310.437C133.901 311.544 137.931 316.439 143.096 324.408C148.435 332.615 153.492 338.803 158.801 343.715C161.172 345.893 161.944 346.398 163.88 347.001C165.091 347.39 167.309 347.772 168.753 347.823C171.216 347.896 171.527 347.835 174.745 346.489C178.25 345.025 179.483 344.303 179.299 343.863C179.238 343.716 178.37 343.252 177.375 342.841C176.38 342.43 175.512 341.966 175.451 341.82C175.389 341.673 174.519 341.382 173.502 341.187C171.828 340.853 171.061 340.451 171.698 340.184C171.857 340.118 173.085 340.19 174.502 340.356C176.539 340.572 177.401 340.487 179.107 339.912C181.526 339.073 181.624 338.86 180.193 337.047C179.21 335.77 176.92 334.143 174.729 333.199L173.477 332.62L174.048 331.658C174.449 331.008 175.065 330.509 175.969 330.166L177.288 329.649L176.101 330.662C175.467 331.202 174.996 331.778 175.057 331.925C175.119 332.071 176.067 332.639 177.124 333.197C179.344 334.301 180.847 335.568 181.933 337.181C182.521 338.141 182.58 338.46 182.227 339.228C181.835 340.081 181.573 340.259 179.524 340.909C178.264 341.298 177.264 341.682 177.313 341.799C177.35 341.887 177.978 342.314 178.693 342.772C179.397 343.202 180.034 343.831 180.081 344.121C180.289 345.068 178.096 346.536 174.446 347.923C171.689 348.938 170.907 349.127 169.116 349.049C167.964 348.98 166.491 348.769 165.841 348.558C165.192 348.347 164.603 348.283 164.545 348.411C164.395 348.68 169.246 351.958 173.293 354.297C178.545 357.372 182.649 359.308 188.994 361.685C205.826 368.016 223.735 369.762 242.134 366.86C251.855 365.312 258.73 363.402 268.629 359.506C277.954 355.849 283.101 353.387 282.978 352.646C282.897 352.095 279.245 344.251 269.762 324.342C263.05 310.164 251.049 284.589 235.502 251.333C230.495 240.611 224.695 228.256 216.833 211.597C215.024 207.805 210.307 197.685 206.316 189.122C196.519 168.104 189.557 153.238 184.203 142.041C181.754 136.898 176.451 125.645 172.391 117.007C168.332 108.369 164.966 101.302 164.909 101.256C164.821 101.224 162.453 102.007 159.62 103.019C145.246 108.029 129.703 117.316 117.131 128.428C105.617 138.58 100.137 144.453 90.5162 156.984C83.5982 166.042 81.3388 169.501 78.8222 175.032C76.4233 180.306 76.34 180.376 77.6116 175.986C81.0906 164.162 90.9806 144.664 99.3126 133.258C106.262 123.738 111.879 117.566 121.663 108.826C128.091 103.073 132.1 99.9505 138.867 95.3651C145.173 91.1101 145.925 90.3133 145.251 88.7004C144.847 87.7327 142.016 86.7802 139.665 86.7981C138.05 86.7842 137.986 86.8109 133.477 89.4538C130.96 90.9537 128.367 92.4509 127.703 92.8319L126.489 93.5113L127.764 92.0829C128.472 91.2701 129.354 89.799 129.793 88.7889C130.317 87.5362 130.815 86.846 131.388 86.6062C132.726 86.0469 138.694 85.5503 141.707 85.7725C143.283 85.8716 144.594 85.8747 144.653 85.7467C144.711 85.6188 144.491 85.5388 144.155 85.5413C143.832 85.5732 143.586 85.4345 143.633 85.2773C143.68 85.12 141.907 84.9995 139.677 85.0361C137.479 85.0594 135.604 85.0508 135.471 85.0028C134.961 84.7681 141.4 82.8002 145.091 82.0497C152.804 80.4448 164.586 79.1716 172.943 79.0197C174.654 78.9935 176.157 78.9167 176.252 78.8768C177.152 78.4319 165.015 78.8545 157.809 79.524C151.745 80.0606 145.949 80.9677 141.353 82.0618L137.775 82.9031L142.615 81.052C145.265 80.0479 147.897 78.9132 148.421 78.5561C149.573 77.7302 165.215 71.8121 179.043 66.9277C181.258 66.1394 181.373 66.0568 181.724 65.0147C181.91 64.3857 181.89 63.5327 181.621 62.8875C181.02 61.4505 180.946 60.3789 181.392 60.1925C181.615 60.0993 182.659 60.1796 183.696 60.3318C184.745 60.5134 186.547 60.7939 187.672 60.9782C189.625 61.264 189.689 61.2373 188.606 60.7945L187.478 60.3357L189.561 60.395C192.493 60.5132 203.218 61.8174 207.319 62.5837C210.402 63.1551 214.304 64.0733 223.716 66.4433L226.645 67.1826L222.687 65.7712C213.414 62.4816 201.963 60.5161 188.245 59.8428C185.181 59.6765 182.485 59.4945 182.245 59.4571C181.76 59.281 182.473 59.0173 183.691 58.8871ZM190.255 62.4131C191.498 63.2371 194.594 65.1813 194.802 65.232C194.966 65.2667 194.648 64.9521 194.096 64.5281C192.912 63.5761 190.267 61.9946 190.044 62.0878C189.949 62.1277 190.054 62.2904 190.255 62.4131ZM176.524 75.3183C176.977 75.5076 177.502 75.5984 177.661 75.5319C177.852 75.4519 177.615 75.2413 177.161 75.0519C176.708 74.8625 176.183 74.7717 176.024 74.8383C175.833 74.9182 176.07 75.1288 176.524 75.3183ZM147.616 87.1951C147.824 87.6936 150.209 88.3848 150.847 88.1184C151.516 87.8387 151.253 87.5694 149.697 86.9799C148.185 86.4063 147.322 86.4913 147.616 87.1951ZM147.052 88.5331C147.883 88.9091 147.94 88.5067 147.123 87.9866C146.753 87.728 146.469 87.6746 146.479 87.8771C146.489 88.0797 146.751 88.349 147.052 88.5331ZM176.715 78.8209C176.804 78.8529 177.304 78.8851 177.823 78.8746C178.723 78.8775 178.723 78.8775 177.978 78.7067C177.309 78.5385 176.122 78.6555 176.715 78.8209ZM233.645 64.9457C234.368 66.228 235.211 66.6335 234.733 65.4898C234.488 64.9033 233.066 63.2928 232.968 63.506C232.929 63.5913 233.231 64.2231 233.645 64.9457ZM243.655 62.6564C245.709 63.4514 248.932 64.8945 250.895 65.8307C254.349 67.5565 255.969 68.1194 253.385 66.6845C248.324 63.9773 240.257 60.5282 240.042 60.9973C239.971 61.0959 241.632 61.8481 243.655 62.6564ZM144.155 106.762C130.675 113.912 115.28 125.791 105.122 136.858C100.387 142.006 90.4424 154.121 87.1341 158.742L85.2472 161.391L86.291 159.232C86.8399 158.038 87.1952 157.098 87.0996 157.138C86.9722 157.191 87.771 155.341 88.8859 153.084C89.9886 150.797 90.4664 149.702 89.915 150.621C88.4987 153.142 83.0098 164.635 83.1789 164.771C83.2672 164.803 83.0319 165.314 82.7011 165.866C82.3703 166.418 82.1792 166.945 82.2993 166.964C82.4316 167.012 82.9021 166.436 83.3751 165.688C85.0806 162.873 93.1015 151.976 96.9244 147.243C112.493 127.989 132.59 112.492 152.973 104.041C179.041 93.2479 207.621 89.3624 231.587 93.331C247.514 95.975 263.808 102.633 274.084 110.74C277.611 113.537 282.349 118.068 284.435 120.641C286.708 123.48 289.703 129.394 291.216 133.998C291.895 136.16 292.548 137.988 292.592 138.004C292.837 138.143 292.461 135.544 291.954 133.345C291.191 129.908 288.068 123.601 285.734 120.614C281.464 115.234 274.9 109.469 268.794 105.786C256.759 98.4835 240.516 93.1126 225.778 91.5219C210.844 89.9098 192.033 91.4687 174.59 95.7628C164.546 98.2387 150.99 103.147 144.155 106.762ZM306.99 88.8205C307.912 92.1901 308.822 98.6651 308.806 101.669C308.799 104.428 309.169 104.687 309.289 102.019C309.509 98.0682 309.322 96.0104 308.344 91.6998L307.341 87.3306L309.392 89.1944C315.464 94.8554 319.315 100.308 326.194 113.004C326.491 113.534 326.366 112.966 325.851 111.735C322.622 103.473 313.454 90.4939 307.576 85.9232C306.066 84.7285 305.801 84.6325 305.995 85.2749C306.103 85.7121 306.537 87.2876 306.99 88.8205ZM268.822 119.106C268.95 119.5 269.911 120.546 270.994 121.436C273.294 123.266 273.389 123.226 271.504 121.223C270.761 120.431 269.96 119.319 269.739 118.792C269.249 117.618 268.491 117.866 268.822 119.106ZM263.362 124.936C262.975 125.443 263.676 126.941 264.711 127.714C265.174 128.106 265.64 128.325 265.698 128.197C265.725 128.083 265.527 127.787 265.201 127.544C264.863 127.272 264.568 127.016 264.532 126.928C264.385 126.576 266.071 124.7 266.803 124.394C267.536 124.087 267.524 124.058 266.794 123.743C266.031 123.442 263.995 124.121 263.362 124.936ZM264.067 131.635C262.915 132.909 262.535 133.791 262.817 134.466C263.062 135.052 263.062 135.052 263.283 134.237C263.39 133.778 263.971 133.019 264.554 132.534C265.721 131.564 267.522 129.605 267.436 129.4C267.326 129.136 264.87 130.783 264.067 131.635ZM264.481 136.836C264.802 136.977 264.957 137.257 264.878 137.428C264.812 137.628 264.876 137.601 265.05 137.391C265.224 137.18 266.226 137.071 267.258 137.122C269.69 137.208 270.231 136.982 268.628 136.549C267.915 136.365 267.239 136.269 267.047 136.349C266.888 136.416 266.484 136.343 266.163 136.202C265.653 135.967 265.525 136.021 265.425 136.407C265.356 136.78 265.185 136.818 264.758 136.514C264.445 136.3 264.148 136.217 264.089 136.345C264.03 136.473 264.204 136.711 264.481 136.836ZM268.592 143.627C268.896 144.981 269.485 144.597 269.475 143.051L269.433 141.518L268.903 142.222C268.651 142.603 268.465 143.232 268.592 143.627ZM336.298 124.73C337.281 127.351 339.032 133.061 339.895 136.558C340.032 137.156 340.062 136.868 339.917 135.895C339.299 130.745 336.094 121.198 335.163 121.656C335.131 121.67 335.663 123.032 336.298 124.73ZM280.174 149.396C279.809 151.478 279.02 154.426 278.442 155.907C277.863 157.389 277.427 158.674 277.464 158.762C277.599 159.085 279.662 154.708 280.186 153.008C280.743 151.294 281.69 144.697 281.494 144.228C281.291 143.83 280.916 145.262 280.174 149.396ZM351.804 129.41C350.626 140.651 349.722 144.577 345.446 156.286C344.986 157.512 345.466 156.691 346.473 154.444C349.722 147.264 351.153 140.568 353.09 123.981C353.567 119.751 353.597 118.567 353.214 119.623C352.906 120.406 352.286 124.834 351.804 129.41ZM273.213 170.081L271.853 172.648L273.304 170.388C274.593 168.368 276.134 165.519 279.204 159.344C279.707 158.307 280.229 156.78 280.361 155.932C280.53 154.725 279.893 155.887 277.592 160.948C275.926 164.573 273.98 168.693 273.213 170.081ZM346.816 130.462C344.645 134.849 343.812 136.885 343.175 139.39C342.371 142.482 341.903 144.676 342.031 144.623C342.126 144.583 342.847 142.456 343.707 139.857C344.579 137.288 346.098 133.311 347.125 131.022C348.132 128.775 348.867 126.952 348.74 127.005C348.612 127.058 347.735 128.631 346.816 130.462ZM297.233 149.017C296.745 149.462 294.819 152.197 292.878 155.075C287.357 163.446 282.686 168.12 273.03 175.015C268.339 178.389 260.57 184.426 260.041 185.13C259.737 185.567 259.749 185.596 260.166 185.25C261.773 183.992 268.795 178.853 273.593 175.469C280.843 170.337 283.171 168.296 287.195 163.686C290.427 159.958 292.074 157.719 294.939 153.111C297.816 148.532 299.044 147.709 299.889 149.733C301.304 153.206 299.269 164.185 295.618 172.911C294.564 175.315 294.383 176.046 294.985 175.07C295.939 173.501 298.083 168.333 299.418 164.364C301.013 159.494 301.784 152.833 301.032 150.048C300.345 147.51 299.127 147.192 297.233 149.017ZM254.451 171.758C250.356 176.914 244.827 184.909 242.786 188.622C238.444 196.5 236.994 204.134 238.291 212.342C238.836 215.525 241.047 223.591 241.476 223.722C241.565 223.754 241.162 221.717 240.552 219.182C238.07 208.679 238.021 204.531 240.255 196.983C242.23 190.336 246.327 183.214 253.106 174.628C254.667 172.632 256.247 170.593 256.647 170.116C257.215 169.327 257.22 169.429 256.595 171.068C255.169 174.73 251.72 185.37 252.445 183.792C252.739 183.153 254.785 177.75 257.296 170.775C258.62 167.225 258.766 166.233 257.799 167.499C257.514 167.893 255.992 169.804 254.451 171.758ZM321.809 151.939C321.216 152.669 319.836 154.83 318.758 156.728C315.854 161.869 314.43 164.014 310.97 168.63C307.446 173.272 306.713 174.474 308.961 171.881C314.119 165.867 316.582 162.357 319.951 156.091C321.103 153.922 322.625 151.563 323.358 150.809C324.264 149.844 324.382 149.588 323.774 150.015C323.269 150.329 322.402 151.208 321.809 151.939ZM341.482 146.264C341.347 147.285 341.605 147.005 341.874 145.859C341.977 145.3 341.975 145.025 341.82 145.193C341.678 145.39 341.506 145.875 341.482 146.264ZM325.437 155.245C324.991 159.014 323.496 163.945 321.166 169.294C318.887 174.587 315.02 181.991 312.886 185.123C310.428 188.734 310.35 188.904 311.965 187.127C313.876 184.984 315.469 182.527 317.87 177.975C321.027 172.005 323.906 165.462 324.91 162.045C326.101 157.999 326.691 152.068 325.926 152.388C325.831 152.428 325.623 153.72 325.437 155.245ZM295.751 178.333C293.138 181.217 291.322 183.319 291.719 183.015C292.116 182.712 294.263 180.505 296.54 178.072C298.772 175.623 300.828 173.558 301.051 173.465C301.402 173.318 301.419 173.897 301.206 175.536C300.716 179.289 299.697 185.089 299.107 187.437C298.232 191.076 298.833 189.826 300.151 185.279C301.334 181.305 302.253 174.995 301.958 172.948C301.831 172.106 301.774 172.06 301.159 172.559C300.794 172.849 298.363 175.45 295.751 178.333ZM280.651 188.951C277.189 193.292 273.895 198.217 274.64 197.94C274.831 197.86 275.057 197.594 275.091 197.407C275.194 196.847 278.811 191.891 282.222 187.605C283.847 185.583 285.376 183.6 285.616 183.189C286.155 182.241 283.734 185.044 280.651 188.951ZM349.288 161.535C347.758 163.07 345.778 166.482 341.89 174.101C341.375 175.109 340.297 177.006 339.454 178.392C338.63 179.736 337.993 180.898 338.018 180.956C338.104 181.161 340.436 177.43 344.401 170.709C347.425 165.587 349.109 162.988 351.258 160.161C352.135 159.036 350.971 159.833 349.288 161.535ZM315.225 190.897C315.335 191.161 318.212 186.135 319.633 183.267C321.126 180.3 322.564 176.22 322.355 175.721C322.27 175.516 315.139 190.692 315.225 190.897ZM243.218 218.757C244.638 220.093 247.251 224.374 248.624 227.659C250.009 230.973 250.245 233.148 249.461 235.301L249.064 236.501L248.318 235.882C247.586 235.293 247.566 235.335 248.022 237.143C248.267 238.177 248.669 239.318 248.905 239.702C249.245 240.249 249.292 240.091 249.164 238.801C249.074 237.599 249.26 236.97 249.872 236.197C250.382 235.536 250.713 234.537 250.803 233.5C250.894 232.015 250.708 231.301 249.2 227.694C247.962 224.732 247.055 223.009 245.898 221.495C244.287 219.343 242.515 217.432 242.378 217.73C242.307 217.829 242.687 218.29 243.218 218.757ZM325.517 191.969C322.503 198.19 322.086 198.984 320.324 201.305C319.613 202.291 318.849 203.506 318.658 204.034L318.315 205.004L318.756 204.269C318.996 203.858 319.952 202.563 320.88 201.383C321.777 200.215 323.368 197.931 324.372 196.306C326.22 193.294 329.881 185.666 329.685 185.197C329.415 184.552 327.879 187.055 325.517 191.969ZM343.626 180.851C340.464 183.585 333.443 191.412 334.017 191.62C334.105 191.652 334.47 191.362 334.786 190.954C336.122 189.224 341.114 183.796 342.937 182.069C344.047 181.054 345.236 179.868 345.584 179.447C346.248 178.618 346.133 178.701 343.626 180.851ZM323.752 188.642C323.884 188.69 324.183 188.599 324.369 188.418C324.587 188.224 324.455 188.176 324.104 188.322C323.742 188.439 323.587 188.607 323.752 188.642ZM320.764 190.718C320.2 191.16 320.193 191.232 320.703 191.019C321.053 190.872 321.59 190.545 321.879 190.251C322.541 189.596 321.712 189.942 320.764 190.718ZM245.281 229.332C245.742 230.793 246.759 232.331 247.142 232.171C247.524 232.011 246.656 228.86 246.038 228.188C245.315 227.354 244.849 228.031 245.281 229.332ZM279.294 216.595C279.069 216.862 279.333 217.406 280.365 218.8C283.224 222.773 284.102 227.47 282.668 231.204C281.911 233.243 282.492 232.931 285.374 229.797C288.41 226.496 290.283 223.543 290.888 221.051C291.424 218.932 291.524 215.41 291.09 213.387C290.852 212.281 290.784 212.206 289.882 212.377C289.367 212.488 288.745 212.611 288.561 212.619C287.806 212.693 279.591 216.23 279.294 216.595ZM272.4 220.339C268.864 225.399 266.97 232.599 268.044 236.869L268.404 238.269L268.304 236.416C268.029 230.744 269.8 224.595 272.939 220.285C273.591 219.427 274.064 218.678 274.039 218.62C273.929 218.356 273.446 218.902 272.4 220.339ZM333.669 196.071C333.296 196.434 333.056 196.844 333.105 196.962C333.216 197.225 334.505 196.101 334.863 195.435C335.193 194.883 334.453 195.261 333.669 196.071ZM338.228 194.442C337.887 194.791 337.86 194.905 338.179 194.772C338.434 194.665 338.831 194.362 339.024 194.109C339.451 193.517 338.941 193.73 338.228 194.442ZM334.037 198.295C334.618 198.431 335.566 198.551 336.194 198.53C337.537 198.52 337.549 198.549 333.106 201.44C329.525 203.798 329.984 204.088 333.753 201.824C334.954 201.115 337.5 199.775 339.439 198.861C341.377 197.948 342.877 197.149 342.789 197.117C342.701 197.085 341.375 197.225 339.826 197.459C338.297 197.651 336.179 197.778 335.135 197.698C333.027 197.58 332.414 197.905 334.037 198.295ZM274.285 226.819C274.036 227.923 274.614 229.576 275.492 230.242C276.156 230.757 276.416 230.752 276.842 230.16C277.281 229.598 277.643 227.241 277.398 226.655C276.712 225.013 274.658 225.113 274.285 226.819ZM317.707 210.805C315.396 212.081 313.002 213.426 312.458 213.826L311.441 214.526L312.473 214.13C313.473 213.746 324.202 207.986 325.104 207.368C326.371 206.46 321.359 208.796 317.707 210.805ZM246.503 243.806C247.861 246.339 250.16 248.168 253.396 249.193C255.786 249.985 259.876 250.549 260.072 250.123C260.112 250.037 259.195 249.904 258.011 249.848C254.264 249.657 250.827 248.062 249.244 245.796C248.721 245.084 248.756 244.897 249.623 244.018C250.704 242.843 250.711 242.323 249.584 243.208C247.976 244.465 247.976 244.465 247.39 243.332C246.748 242.154 247.037 241.861 248.616 242.234C249.197 242.37 249.785 242.435 249.912 242.381C250.072 242.315 249.993 242.037 249.763 241.755C249.532 241.472 249.199 241.302 249.04 241.368C248.848 241.448 248.699 241.269 248.709 241.024C248.714 240.678 248.581 240.63 248.331 240.837C248.113 241.032 247.643 241.16 247.263 241.146C246.794 241.101 246.412 241.261 246.084 241.639C245.684 242.116 245.731 242.407 246.503 243.806ZM270.23 237.264C270.377 237.616 272.725 237.772 272.85 237.444C272.902 237.388 272.424 237.14 271.806 236.916C271.176 236.662 270.586 236.324 270.5 236.118C270.291 235.62 270.01 236.737 270.23 237.264ZM303.476 224.125C307.905 222.722 318.333 219.017 318.858 218.66C320.073 217.808 309.412 221.403 303.868 223.72L301.16 224.852L303.476 224.125ZM318.598 219.561C317.62 220.177 318.238 219.953 320.922 218.762C323.032 217.811 324.774 216.876 325.039 216.525C325.394 216.032 324.936 216.189 322.703 217.294C321.159 218.077 319.333 219.082 318.598 219.561ZM287.13 238.744C276.562 244.711 266.651 249.027 262.29 249.609C260.729 249.814 260.136 250.096 261.359 250.067C265.523 249.911 277.258 245.213 288.047 239.325C293.894 236.123 295.897 235.183 299.654 233.784C306.009 231.438 315.793 228.52 317.663 228.427C317.955 228.408 318.121 228.27 318.06 228.123C317.827 227.566 311.575 228.905 303.979 231.149C297.421 233.099 295.82 233.836 287.13 238.744Z" fill="#8F7599" fill-opacity="0.97"/>
<path d="M126.131 87.6664C125.945 87.8482 125.646 87.9385 125.513 87.8899C125.349 87.8546 125.503 87.6861 125.866 87.5692C126.216 87.4227 126.349 87.4713 126.131 87.6664Z" fill="#8F7599" fill-opacity="0.97"/>
<path d="M118.542 213.134C119.439 213.31 122.072 213.967 124.368 214.626C129.359 216.088 134.217 217.055 137.344 217.194C138.604 217.253 143.601 217.3 148.423 217.283C153.244 217.266 158.297 217.358 159.638 217.521C162.207 217.757 162.347 217.733 161.312 216.959C160.716 216.519 159.233 214.762 155.878 210.584C154.806 209.275 154.696 209.011 154.951 208.457C155.186 207.945 155.566 207.959 157.723 208.642C159.098 209.066 162.564 210.373 165.417 211.557C168.27 212.742 170.797 213.684 170.981 213.676C171.197 213.654 171.13 213.407 170.863 213.036C170.576 212.708 170.03 211.937 169.664 211.332L168.983 210.239L170.525 210.973C171.4 211.365 173.226 212.152 174.586 212.72C185.966 217.471 189.986 220.372 194.11 226.744C197.47 231.919 200.19 240.394 201.132 248.647C201.85 254.754 202.186 256.543 203.044 258.148C203.858 259.737 203.902 259.753 206.613 260.239C209.697 260.81 208.722 266.626 204.578 272.114C202.615 274.76 196.846 278.687 191.971 280.725C186.045 283.202 180.547 284.019 172.145 283.707C163.275 283.35 161.994 283.506 152.744 286.27C145.129 288.558 143.529 288.848 143.185 288.027C142.903 287.352 144.705 284.946 147.045 282.934L148.822 281.364L146.81 282.102C144.829 282.827 144.778 282.883 143.526 284.991C139.762 291.387 138.828 293.81 138.493 298.29C138.334 300.596 139.261 308.097 139.734 308.244C139.879 308.322 140.246 307.858 140.553 307.247C141.185 305.984 142.734 304.854 143.746 304.948C144.322 304.983 144.631 304.647 145.425 303.144C145.971 302.123 146.856 300.927 147.42 300.484C150.174 298.299 154.218 299.468 154.498 302.555C154.572 303.179 154.653 303.731 154.729 303.733C154.773 303.749 155.807 303.179 157.02 302.5C158.253 301.778 159.356 301.282 159.488 301.33C159.885 301.475 159.748 303.564 159.251 305.15C158.972 306.094 158.952 306.584 159.207 306.478C159.717 306.265 162.553 307.318 163.486 308.03C164.433 308.772 164.648 309.646 164.095 310.291C163.56 310.893 163.864 312.247 164.573 312.33C164.769 312.352 165.075 312.637 165.21 312.96C165.333 313.253 165.284 313.583 165.124 313.65C164.933 313.73 164.683 313.49 164.536 313.138C164.279 312.522 164.176 312.634 163.521 314.113C163.024 315.251 162.96 315.726 163.316 315.681C164.482 315.606 165.411 316.217 165.512 317.174C165.745 319.075 162.723 321.785 159.219 322.802C156.496 323.63 151.483 324.623 148.947 324.822C147.685 324.936 146.643 325.13 146.584 325.258C146.513 325.357 146.741 325.813 147.045 326.271L147.604 327.071L151.214 325.769C155.474 324.229 156.591 324.038 159.488 324.343C161.885 324.615 163.741 325.562 164.256 326.794C164.452 327.263 164.739 327.591 164.93 327.511C165.44 327.298 168.293 328.482 169.464 329.405C170.918 330.554 171.371 331.639 169.955 330.578C169.403 330.154 168.126 329.517 167.124 329.178C165.371 328.567 165.263 328.577 162.545 329.507C158.923 330.78 158.097 330.505 160.918 329.016C162.079 328.392 163.052 327.676 163.106 327.447C163.214 326.988 161.979 326.092 160.893 325.822C159.435 325.467 156.685 325.515 154.721 325.922C151.685 326.537 146.452 328.793 145.435 329.941C144.972 330.445 144.575 330.749 144.514 330.602C144.354 330.221 145.055 329.032 145.766 328.494C146.266 328.078 146.276 327.833 145.923 327.257C141.459 320.339 137.943 310.853 137.077 303.499C136.66 299.815 136.784 297.248 137.497 294.297C138.176 291.533 141.523 284.588 142.352 284.241C142.67 284.108 142.972 283.844 143.006 283.658C143.087 283.314 142.349 283.519 137.067 285.21C135.852 285.615 134.874 285.782 134.908 285.596C134.911 285.422 135.866 284.575 136.994 283.69C138.121 282.806 139.462 281.625 139.996 281.023C140.562 280.408 141.094 279.979 141.226 280.027C141.623 280.171 141.055 281.407 140.226 282.201C139.481 282.926 139.525 282.942 141.415 282.359C142.503 282.008 145.307 281.283 147.684 280.703C151.67 279.761 152.824 279.657 151.863 280.403C149.545 282.199 144.955 286.081 144.246 286.894L143.352 287.888L145.207 287.492C146.237 287.268 149.278 286.307 151.996 285.377C160.417 282.512 164.099 282.006 172.02 282.691C180.094 283.381 185.216 282.653 191.812 279.896C196.782 277.818 200.956 275.178 203.303 272.646C205.433 270.309 208.391 264.043 207.913 262.9C207.864 262.782 207.459 263.158 206.989 263.734C205.981 265.085 205.217 265.405 204.898 264.642C204.751 264.29 204.876 263.962 205.195 263.829C206.055 263.47 207.557 262.049 207.41 261.697C207.336 261.521 206.371 261.271 205.246 261.086L203.172 260.782L202.26 258.063L201.304 255.327L200.753 256.695C200.464 257.436 200.145 258.017 200.025 257.998C199.527 257.792 197.549 253.865 196.943 251.879C196.296 249.704 195.682 241.968 196.16 241.768C196.288 241.715 197.106 242.51 197.999 243.48C199.595 245.328 199.595 245.328 199.389 244.208C198.351 237.787 195.255 230.021 192.168 226.04C189.014 221.985 184.077 218.054 179.888 216.36C178.131 215.648 174.633 213.906 171.615 212.239C170.949 211.898 170.973 211.956 171.733 212.879C172.599 213.964 176.596 217.081 177.229 217.162C177.425 217.183 177.638 217.335 177.712 217.511C177.785 217.687 177.342 217.7 176.724 217.476C175.273 217.049 161.41 211.372 158.086 209.868C156.713 209.27 155.566 208.854 155.527 208.939C155.37 209.281 160.099 213.608 161.231 214.168C162.954 215.067 165.78 216.814 168.609 218.836C172.68 221.681 170.982 220.841 163.697 216.307C162.278 215.419 161.077 214.784 161.037 214.869C160.861 215.253 163.312 217.536 164.383 217.949L165.555 218.424L162.589 218.493C155.854 218.586 141.163 218.63 139.219 218.546C134.357 218.374 127.717 217.085 121.643 215.18C120.091 214.691 118.273 214.28 117.614 214.315C116.542 214.349 116.427 214.432 115.937 215.498C115.486 216.479 115.494 216.854 116.17 218.294C117.448 221.171 120.529 224.154 128.127 229.797C130.297 231.405 132.101 232.856 132.162 233.002C132.223 233.149 132.557 233.32 132.897 233.419C133.446 233.568 133.473 233.453 133.204 232.808C133.032 232.398 132.949 232.019 133.044 231.979C134.255 231.473 154.77 235.334 159.562 236.948C162.273 237.882 162.062 238.005 158.878 237.372C157.741 237.158 153.393 236.426 149.209 235.729C145.005 235.075 139.976 234.146 138.025 233.687C134.407 232.822 133.645 232.968 134.209 234.317C134.331 234.611 134.302 234.898 134.175 234.952C134.015 235.018 131.51 234.756 128.576 234.363C125.674 233.957 123.106 233.722 122.915 233.802C122.437 234.002 120.047 232.761 120.191 232.391C120.361 232.079 123.613 232.339 127.576 232.956C129.214 233.201 130.554 233.365 130.594 233.279C130.633 233.194 129.755 232.527 128.637 231.823C123.012 228.215 117.612 223.444 115.597 220.325C114.531 218.669 114.347 218.229 114.366 216.843C114.356 215.297 115.28 213.568 116.363 213.115C116.65 212.995 117.626 213.001 118.542 213.134ZM198.924 252.946C199.713 254.924 200.169 254.045 199.796 251.272C199.568 249.473 199.259 248.465 198.565 247.343L197.656 245.794L198.026 248.74C198.245 250.336 198.63 252.242 198.924 252.946ZM147.719 302.185C147.236 302.731 146.452 303.989 145.969 304.983C145.021 307.102 144.854 307.241 144.511 306.42C144.094 305.423 142.815 306.302 141.543 308.453C140.901 309.513 140.453 310.769 140.484 311.203C140.59 312.262 144.51 321.819 145.268 322.915C145.814 323.685 146.086 323.709 148.599 323.452C156.123 322.649 162.179 320.841 163.841 318.906C164.355 318.347 164.586 317.734 164.438 317.382C164.206 316.824 162.443 316.011 161.581 316.096C161.321 316.101 161.544 315.56 162.124 314.801C162.938 313.703 163.605 311.805 163.347 311.189C163.31 311.101 162.56 311.277 161.683 311.506C160.048 311.982 158.364 311.894 158.631 311.369C158.71 311.198 159.276 311.031 159.923 310.967C161.261 310.855 163.484 309.995 163.56 309.55C163.675 309.019 161.771 307.955 160.097 307.621C157.173 306.983 157.241 307.058 158.131 305.067C158.55 304.1 158.885 303.202 158.836 303.084C158.689 302.732 156.986 303.582 155.8 304.595C155.197 305.122 154.271 306.13 153.709 306.846C152.56 308.395 152.266 308.139 153.008 306.244C153.707 304.333 153.763 303.482 153.199 302.134C152.329 300.051 149.763 300.091 147.719 302.185Z" fill="#8F7599" fill-opacity="0.97"/>
<path d="M98.982 225.616C100.59 226.15 105.485 228.1 109.887 229.946C118.981 233.792 122.358 235.068 122.964 234.815C123.346 234.655 124.305 235.425 130.702 240.881C133.607 243.353 137.46 247.289 137.485 247.796C137.534 248.361 134.056 245.681 128.768 241.001L123.856 236.681L116.451 233.92C112.4 232.375 106.465 229.998 103.274 228.541C100.063 227.128 96.7614 225.855 95.9085 225.695C94.3986 225.396 94.3986 225.396 95.227 225.05C95.8643 224.783 96.9133 224.965 98.982 225.616Z" fill="#8F7599" fill-opacity="0.97"/>
<path d="M117.027 276.397C117.147 276.416 119.716 275.755 122.75 274.866C129.461 272.922 132.416 272.203 132.774 272.433C133.233 272.724 126.779 275.283 123.142 276.252C121.292 276.75 119.368 277.072 118.811 276.995C116.858 276.709 117.814 277.205 120.691 278C125.204 279.215 131.013 280.128 135.685 280.38C139.704 280.595 139.837 280.643 138.79 281.183C135.925 282.657 125.258 281.224 119.265 278.528C117.559 277.759 116.137 277.045 116.076 276.898C115.966 276.634 116.706 276.256 117.027 276.397Z" fill="#8F7599" fill-opacity="0.97"/>
<path d="M163.613 258.818C167.368 258.041 169.9 258.188 173.342 259.437C176.298 260.509 179.71 262.941 181.735 265.368C183.218 267.125 184.818 269.97 184.968 271.044C185.071 271.828 185.039 271.841 181.784 273.098C178.211 274.489 175.963 274.842 171.118 274.801C168.115 274.781 164.507 274.119 163.005 273.3C160.389 271.879 157.44 268.495 156.303 265.594C155.881 264.496 155.994 264.587 157.129 266.317C158.904 268.951 161.88 271.325 164.716 272.378C166.921 273.179 173.061 274.436 172.902 274.055C172.853 273.938 172.262 273.599 171.564 273.271C169.292 272.223 168.294 271.089 166.994 267.981C165.842 265.224 165.258 261.679 165.775 260.498C165.873 260.285 165.915 260.026 165.866 259.909C165.731 259.586 161.687 260.657 158.065 261.93C155.849 262.718 154.788 262.955 154.69 262.72C154.322 261.841 159.128 259.728 163.613 258.818ZM170.185 264.511C169.916 265.657 170.842 267.337 171.933 267.708C172.595 267.948 172.678 267.879 172.982 266.994C173.524 265.424 172.014 262.886 170.867 263.365C170.612 263.472 170.3 263.981 170.185 264.511ZM182.022 271.965C180.966 272.751 181.576 273.047 182.752 272.28C183.941 271.542 183.909 271.555 183.409 271.075C183.159 270.836 182.963 270.814 182.897 271.014C182.875 271.23 182.495 271.664 182.022 271.965Z" fill="#8F7599" fill-opacity="0.97"/>
<path d="M196.701 272.341C197.816 272.323 199.821 273 199.255 273.168C198.478 273.458 194.593 273.567 194.483 273.303C194.299 272.863 195.466 272.341 196.701 272.341Z" fill="#8F7599" fill-opacity="0.97"/>
<path d="M167.419 332.569C167.59 332.98 162.296 335.985 161.48 335.912C160.904 335.878 160.88 335.819 161.348 335.417C162.24 334.596 167.284 332.247 167.419 332.569Z" fill="#8F7599" fill-opacity="0.97"/>
<path d="M358 216.333C358 216.495 358.062 216.649 358.171 216.763C358.281 216.877 358.43 216.941 358.585 216.941H361.509V219.98C361.509 220.142 361.571 220.296 361.681 220.41C361.79 220.524 361.939 220.588 362.094 220.588C362.249 220.588 362.398 220.524 362.508 220.41C362.618 220.296 362.679 220.142 362.679 219.98V216.941H365.604C365.759 216.941 365.908 216.877 366.017 216.763C366.127 216.649 366.189 216.495 366.189 216.333C366.189 216.172 366.127 216.018 366.017 215.904C365.908 215.79 365.759 215.725 365.604 215.725H362.679V212.686C362.679 212.525 362.618 212.37 362.508 212.256C362.398 212.142 362.249 212.078 362.094 212.078C361.939 212.078 361.79 212.142 361.681 212.256C361.571 212.37 361.509 212.525 361.509 212.686V215.725H358.585C358.43 215.725 358.281 215.79 358.171 215.904C358.062 216.018 358 216.172 358 216.333ZM371.453 209.647H369.698V211.471C369.698 211.632 369.636 211.786 369.527 211.9C369.417 212.014 369.268 212.078 369.113 212.078C368.958 212.078 368.809 212.014 368.7 211.9C368.59 211.786 368.528 211.632 368.528 211.471V209.647H366.774C366.618 209.647 366.47 209.583 366.36 209.469C366.25 209.355 366.189 209.2 366.189 209.039C366.189 208.878 366.25 208.723 366.36 208.609C366.47 208.495 366.618 208.431 366.774 208.431H368.528V206.608C368.528 206.447 368.59 206.292 368.7 206.178C368.809 206.064 368.958 206 369.113 206C369.268 206 369.417 206.064 369.527 206.178C369.636 206.292 369.698 206.447 369.698 206.608V208.431H371.453C371.608 208.431 371.757 208.495 371.866 208.609C371.976 208.723 372.038 208.878 372.038 209.039C372.038 209.2 371.976 209.355 371.866 209.469C371.757 209.583 371.608 209.647 371.453 209.647ZM361.443 225.965C361.405 226.083 361.403 226.211 361.437 226.331C362.096 228.785 363.362 231.018 365.109 232.806C366.856 234.593 369.023 235.875 371.395 236.522C373.767 237.169 376.26 237.159 378.627 236.494C380.994 235.828 383.152 234.53 384.886 232.729C386.62 230.927 387.87 228.685 388.511 226.226C389.153 223.766 389.163 221.175 388.541 218.711C387.92 216.246 386.688 213.993 384.968 212.177C383.248 210.36 381.101 209.044 378.739 208.358C378.638 208.325 378.529 208.322 378.426 208.349C378.323 208.375 378.228 208.43 378.153 208.509C378.078 208.587 378.025 208.685 377.999 208.792C377.973 208.899 377.976 209.012 378.007 209.118C378.614 211.398 378.628 213.804 378.048 216.092C377.468 218.379 376.314 220.466 374.705 222.14C373.096 223.813 371.088 225.013 368.888 225.617C366.687 226.221 364.371 226.208 362.176 225.578C362.03 225.529 361.87 225.542 361.733 225.615C361.596 225.687 361.491 225.813 361.443 225.965ZM362.87 226.997C365.134 227.463 367.473 227.343 369.681 226.646C371.889 225.949 373.898 224.697 375.53 223.002C377.162 221.306 378.366 219.218 379.037 216.924C379.707 214.629 379.823 212.198 379.374 209.846C381.406 210.617 383.218 211.907 384.643 213.598C386.068 215.289 387.06 217.326 387.527 219.521C387.994 221.716 387.921 223.998 387.315 226.155C386.709 228.313 385.59 230.277 384.061 231.867C382.531 233.456 380.641 234.619 378.565 235.249C376.488 235.879 374.293 235.954 372.181 235.469C370.069 234.983 368.109 233.953 366.481 232.472C364.854 230.991 363.612 229.108 362.87 226.997Z" fill="#CABFCF"/>
<path d="M108.75 163V168.25" stroke="#8F7599" stroke-opacity="0.97"/>
<path d="M108.75 194.5V189.25" stroke="#8F7599" stroke-opacity="0.97"/>
<path d="M124.5 178.75H119.25" stroke="#8F7599" stroke-opacity="0.97"/>
<path d="M93 178.75H98.25" stroke="#8F7599" stroke-opacity="0.97"/>
<path d="M119.887 167.614L116.172 171.328" stroke="#8F7599" stroke-opacity="0.97"/>
<path d="M97.6134 189.886L101.328 186.172" stroke="#8F7599" stroke-opacity="0.97"/>
<path d="M119.887 189.886L116.172 186.172" stroke="#8F7599" stroke-opacity="0.97"/>
<path d="M97.6134 167.614L101.328 171.328" stroke="#8F7599" stroke-opacity="0.97"/>
<path d="M108.75 184C111.649 184 114 181.649 114 178.75C114 175.851 111.649 173.5 108.75 173.5C105.851 173.5 103.5 175.851 103.5 178.75C103.5 181.649 105.851 184 108.75 184Z" stroke="#8F7599" stroke-opacity="0.97"/>
</svg>

