<svg xmlns="http://www.w3.org/2000/svg" width="24" height="24" viewBox="0 0 24 24"><path fill="#59c7f9" d="M11.988 1.176a.899.899 0 0 0-.879.947c-.03.809-.032 1.621.002 2.43a.823.823 0 0 0 .829.875a.839.839 0 0 0 .925-.875c.033-.403.008-.81.008-1.215s.023-.81-.006-1.213a.912.912 0 0 0-.879-.95M4.563 3.96a2.926 2.926 0 0 0-.65.443a.581.581 0 0 0 .103.866a51.733 51.733 0 0 0 2.527 1.906a.819.819 0 0 0 .605.035c.575-.174.804-.79.372-1.174c-.784-.695-1.65-1.31-2.49-1.947a1.73 1.73 0 0 0-.468-.13m14.804.035a.85.85 0 0 0-.568.193c-.775.527-1.507 1.115-2.225 1.71a.714.714 0 0 0-.135 1.08a.846.846 0 0 0 1.227.062a45.567 45.567 0 0 0 2.156-1.648a1.918 1.918 0 0 0 .367-.522a.85.85 0 0 0-.822-.875M11.98 6.85a4.667 4.667 0 0 0-4.667 3.734L7.17 12.65a2.463 2.463 0 0 0-.27-.02c-1.55-.03-1.74.14-1.74 1.55v6.08c0 .46-.03.93.01 1.39c.05.56.34.82.94.89a3.467 3.467 0 0 0 .56.01c3.51.01 7.02.01 10.53 0a5.921 5.921 0 0 0 .84-.05a.78.78 0 0 0 .72-.69a4.903 4.903 0 0 0 .05-.77v-6.6c0-1.75-.101-1.85-2.027-1.8a17.45 17.45 0 0 0-.123-2.068a4.67 4.67 0 0 0-4.68-3.722m-.263 2.601a2.055 2.055 0 0 1 2.312 1.803c.033.46.012.921.016 1.383L9.93 12.63l.015-1.381a2.055 2.055 0 0 1 1.772-1.799m9.5.356c-.217.002-.434.01-.65.01v.001c-.465 0-.93-.026-1.391.006a.922.922 0 0 0-.96.78c-.022.436.378.816.987.837c.896.032 1.796.034 2.692 0a.87.87 0 0 0 .9-.82a.905.905 0 0 0-.93-.799a8.215 8.215 0 0 0-.648-.015M3.43 9.809c-.404-.002-.81 0-1.213.011c-.616.016-1.021.351-1.035.793c-.015.472.413.81 1.084.836c.403.016.807.004 1.21.004v-.031c.497 0 .998.036 1.489-.012a.773.773 0 0 0 .758-.756a.751.751 0 0 0-.627-.765a1.8 1.8 0 0 0-.455-.07c-.404-.004-.807-.01-1.211-.01m8.62 6.084a1.241 1.241 0 0 1 .36.078a1.165 1.165 0 0 1 .8 1.138c-.05.12-.07.37-.22.48a1.395 1.395 0 0 0-.44 1.33a.639.639 0 0 1-.07.42a.79.79 0 0 1-.51.292a.774.774 0 0 1-.49-.32c-.08-.09-.06-.27-.05-.41a1.605 1.605 0 0 0-.46-1.34a.934.934 0 0 1 .09-1.272a1.241 1.241 0 0 1 .99-.396" class="cls-1"/></svg>
