<svg width="800" height="800" viewBox="0 0 800 800" fill="none" xmlns="http://www.w3.org/2000/svg">
<path d="M560 66.6665H473.333C366.667 66.6665 300 133.333 300 240V375H508.333C522 375 533.333 386.333 533.333 400C533.333 413.666 522 425 508.333 425H300V560C300 666.666 366.667 733.333 473.333 733.333H559.667C666.333 733.333 733 666.666 733 560V240C733.333 133.333 666.667 66.6665 560 66.6665Z" fill="#292D32"/>
<path d="M152.047 374.993L221.047 305.994C226.047 300.994 228.38 294.661 228.38 288.328C228.38 281.994 226.047 275.328 221.047 270.661C211.38 260.994 195.38 260.994 185.714 270.661L74.0469 382.326C64.3802 391.993 64.3802 407.993 74.0469 417.66L185.714 529.326C195.38 538.993 211.38 538.993 221.047 529.326C230.714 519.66 230.714 503.66 221.047 493.993L152.047 424.993H300.047V374.993H152.047Z" fill="#292D32"/>
</svg>
