<svg width="800" height="800" viewBox="0 0 800 800" fill="none" xmlns="http://www.w3.org/2000/svg">
<path d="M539.667 66.6666H260.334C139 66.6666 66.667 139 66.667 260.333V539.333C66.667 661 139 733.333 260.334 733.333H539.334C660.667 733.333 733 661 733 539.667V260.333C733.334 139 661 66.6666 539.667 66.6666ZM566.667 575H233.334C219.667 575 208.334 563.667 208.334 550C208.334 536.333 219.667 525 233.334 525H566.667C580.334 525 591.667 536.333 591.667 550C591.667 563.667 580.334 575 566.667 575ZM566.667 425H233.334C219.667 425 208.334 413.667 208.334 400C208.334 386.333 219.667 375 233.334 375H566.667C580.334 375 591.667 386.333 591.667 400C591.667 413.667 580.334 425 566.667 425ZM566.667 275H233.334C219.667 275 208.334 263.667 208.334 250C208.334 236.333 219.667 225 233.334 225H566.667C580.334 225 591.667 236.333 591.667 250C591.667 263.667 580.334 275 566.667 275Z" fill="#292D32"/>
</svg>
