<svg width="800" height="800" viewBox="0 0 800 800" fill="none" xmlns="http://www.w3.org/2000/svg">
<path d="M742.857 239.851C742.857 251.65 738.728 261.678 730.47 269.937L410.175 590.229L350.009 650.394C341.751 658.653 331.724 662.783 319.926 662.783C308.129 662.783 298.101 658.653 289.843 650.394L229.677 590.229L69.5297 430.08C61.2718 421.825 57.1428 411.798 57.1428 400C57.1428 388.202 61.2718 378.173 69.5297 369.914L129.696 309.749C137.954 301.493 147.981 297.366 159.779 297.366C171.576 297.366 181.604 301.493 189.862 309.749L319.926 440.257L610.138 149.606C618.396 141.347 628.424 137.217 640.221 137.217C652.018 137.217 662.046 141.347 670.304 149.606L730.47 209.771C738.728 218.027 742.857 228.053 742.857 239.851Z" fill="black"/>
</svg>

