<svg width="800" height="800" viewBox="0 0 800 800" fill="none" xmlns="http://www.w3.org/2000/svg">
<path d="M325 400C325 358.58 358.58 325 400 325C441.42 325 475 358.58 475 400C475 441.42 441.42 475 400 475C358.58 475 325 441.42 325 400Z" fill="currentColor"/>
<path fill-rule="evenodd" clip-rule="evenodd" d="M66.667 400C66.667 454.647 80.8323 473.05 109.163 509.857C165.732 583.347 260.604 666.667 400 666.667C539.397 666.667 634.267 583.347 690.837 509.857C719.167 473.05 733.334 454.647 733.334 400C733.334 345.353 719.167 326.951 690.837 290.144C634.267 216.652 539.397 133.333 400 133.333C260.604 133.333 165.732 216.652 109.163 290.144C80.8323 326.951 66.667 345.353 66.667 400ZM400 275C330.965 275 275 330.964 275 400C275 469.037 330.965 525 400 525C469.037 525 525 469.037 525 400C525 330.964 469.037 275 400 275Z" fill="currentColor"/>
</svg>
