<svg width="800" height="800" viewBox="0 0 800 800" fill="none" xmlns="http://www.w3.org/2000/svg">
<g clip-path="url(#clip0_6_22)">
<path d="M400 0C179.091 0 0 179.091 0 400C0 620.909 179.091 800 400 800C620.909 800 800 620.909 800 400C800 179.091 620.909 0 400 0ZM400 733.333C215.909 733.333 66.6672 584.091 66.6672 400C66.6672 215.909 215.909 66.6672 400 66.6672C584.091 66.6672 733.333 215.909 733.333 400C733.333 584.091 584.091 733.333 400 733.333Z" fill="black"/>
<path d="M470.697 262.636C457.68 249.619 436.573 249.619 423.556 262.636L400 286.192L376.43 262.622C363.413 249.605 342.306 249.605 329.289 262.622C316.272 275.639 316.272 296.745 329.289 309.762L352.859 333.333L329.289 356.903C316.272 369.92 316.272 391.026 329.289 404.044C342.306 417.061 363.413 417.061 376.43 404.044L400 380.473L423.556 404.03C436.573 417.047 457.68 417.047 470.697 404.03C483.714 391.012 483.714 369.906 470.697 356.889L447.141 333.333L470.697 309.776C483.714 296.759 483.714 275.655 470.697 262.636Z" fill="black"/>
<path d="M270.697 262.636C257.68 249.619 236.573 249.619 223.556 262.636L200 286.192L176.43 262.622C163.413 249.605 142.306 249.605 129.289 262.622C116.272 275.639 116.272 296.745 129.289 309.762L152.859 333.333L129.289 356.903C116.272 369.92 116.272 391.026 129.289 404.044C142.306 417.061 163.413 417.061 176.43 404.044L200 380.473L223.556 404.03C236.573 417.047 257.68 417.047 270.697 404.03C283.714 391.012 283.714 369.906 270.697 356.889L247.141 333.333L270.697 309.776C283.714 296.759 283.714 275.655 270.697 262.636Z" fill="black"/>
<path d="M647.141 333.333L670.697 309.776C683.714 296.759 683.714 275.653 670.697 262.636C657.68 249.619 636.573 249.619 623.556 262.636L600 286.192L576.43 262.622C563.412 249.605 542.306 249.605 529.289 262.622C516.272 275.639 516.272 296.745 529.289 309.762L552.859 333.333L529.289 356.903C516.272 369.92 516.272 391.026 529.289 404.044C542.306 417.061 563.412 417.061 576.43 404.044L600 380.473L623.556 404.03C636.573 417.047 657.68 417.047 670.697 404.03C683.714 391.012 683.714 369.906 670.697 356.889L647.141 333.333Z" fill="black"/>
<path d="M233.333 466.667H166.666C148.256 466.667 133.333 481.59 133.333 500C133.333 518.409 148.256 533.333 166.666 533.333H233.333C251.742 533.333 266.666 518.409 266.666 500C266.667 481.59 251.742 466.667 233.333 466.667Z" fill="black"/>
<path d="M433.333 466.667H366.666C348.256 466.667 333.333 481.59 333.333 500C333.333 518.409 348.256 533.333 366.666 533.333H433.333C451.742 533.333 466.666 518.409 466.666 500C466.667 481.59 451.742 466.667 433.333 466.667Z" fill="black"/>
<path d="M633.333 466.667H566.666C548.256 466.667 533.333 481.59 533.333 500C533.333 518.409 548.256 533.333 566.666 533.333H633.333C651.742 533.333 666.666 518.409 666.666 500C666.667 481.59 651.742 466.667 633.333 466.667Z" fill="black"/>
</g>
<defs>
<clipPath id="clip0_6_22">
<rect width="800" height="800" fill="white"/>
</clipPath>
</defs>
</svg>

