<svg width="25" height="24" viewBox="0 0 25 24" fill="none" xmlns="http://www.w3.org/2000/svg">
<path d="M12.5 23.5156C10.9219 23.5156 9.4375 23.2148 8.04688 22.6133C6.65625 22.0117 5.42969 21.1797 4.36719 20.1172C3.3125 19.0625 2.48438 17.8398 1.88281 16.4492C1.28125 15.0586 0.980469 13.5742 0.980469 11.9961C0.980469 10.418 1.28125 8.9375 1.88281 7.55469C2.48438 6.16406 3.3125 4.9375 4.36719 3.875C5.42969 2.8125 6.65625 1.98438 8.04688 1.39062C9.4375 0.789063 10.918 0.488281 12.4883 0.488281C14.0664 0.488281 15.5508 0.789063 16.9414 1.39062C18.332 1.98438 19.5547 2.8125 20.6094 3.875C21.6719 4.9375 22.5039 6.16406 23.1055 7.55469C23.7148 8.9375 24.0195 10.418 24.0195 11.9961C24.0195 13.5742 23.7188 15.0586 23.1172 16.4492C22.5156 17.8398 21.6836 19.0625 20.6211 20.1172C19.5586 21.1797 18.332 22.0117 16.9414 22.6133C15.5586 23.2148 14.0781 23.5156 12.5 23.5156ZM7.07422 12.0078C7.07422 12.3359 7.17969 12.6094 7.39062 12.8281C7.60938 13.0391 7.88672 13.1445 8.22266 13.1445H11.3633V16.2852C11.3633 16.6133 11.4688 16.8867 11.6797 17.1055C11.8906 17.3164 12.1602 17.4219 12.4883 17.4219C12.8242 17.4219 13.0977 17.3164 13.3086 17.1055C13.5273 16.8867 13.6367 16.6133 13.6367 16.2852V13.1445H16.7891C17.1172 13.1445 17.3867 13.0391 17.5977 12.8281C17.8164 12.6094 17.9258 12.3359 17.9258 12.0078C17.9258 11.6719 17.8203 11.3984 17.6094 11.1875C17.3984 10.9688 17.125 10.8594 16.7891 10.8594H13.6367V7.71875C13.6367 7.38281 13.5273 7.10938 13.3086 6.89844C13.0977 6.67969 12.8242 6.57031 12.4883 6.57031C12.1602 6.57031 11.8906 6.67969 11.6797 6.89844C11.4688 7.10938 11.3633 7.38281 11.3633 7.71875V10.8594H8.22266C7.88672 10.8594 7.60938 10.9688 7.39062 11.1875C7.17969 11.3984 7.07422 11.6719 7.07422 12.0078Z" fill="white"/>
</svg>
