<svg width="800" height="800" viewBox="0 0 800 800" fill="none" xmlns="http://www.w3.org/2000/svg">
<g clip-path="url(#clip0_5_61)">
<path d="M800 30.078C800 14.2968 787.195 1.51709 771.427 1.51709H482.603V116.598C489.769 112.601 498.017 110.336 506.792 110.336C534.328 110.336 556.666 132.659 556.666 160.216C556.666 187.745 534.341 210.081 506.792 210.081C498.017 210.081 489.769 207.803 482.603 203.833V318.901H597.684C593.702 326.067 591.422 334.314 591.422 343.083C591.422 370.637 613.747 392.962 641.302 392.962C668.844 392.962 691.167 370.637 691.167 343.083C691.167 334.314 688.889 326.067 684.919 318.901H800V30.078Z" fill="black"/>
<path d="M671.275 430.265H526.284C521.206 430.265 516.509 432.95 513.939 437.303L514.08 437.062L513.914 437.33C512.603 439.558 511.941 442.076 511.941 444.584C511.941 446.976 512.552 449.394 513.748 451.559L522.888 468.015C524.936 471.719 525.941 475.614 525.955 479.864C525.942 486.431 523.422 492.489 518.789 497.148C514.131 501.781 508.061 504.301 501.505 504.326C494.938 504.3 488.867 501.781 484.195 497.148L484.214 497.175C479.567 492.49 477.055 486.42 477.042 479.866C477.055 475.626 478.059 471.72 480.102 468.005L489.247 451.561C490.45 449.395 491.055 446.992 491.055 444.586C491.055 442.078 490.392 439.559 489.061 437.305C486.484 432.94 481.787 430.267 476.717 430.267H368.23V372.167C387.836 371.861 406.355 364.136 420.227 350.237C434.43 336.072 442.297 317.07 442.283 297C442.295 276.903 434.423 257.901 420.227 243.748C406.366 229.848 387.842 222.136 368.23 221.831V127.212C368.223 119.297 361.808 112.881 353.892 112.881H53.9813C39.6 112.87 25.95 118.508 15.8063 128.676C5.73283 138.758 0.0125207 152.592 2.06969e-05 166.872V744.506C-0.0124793 758.875 5.63752 772.519 15.8063 782.675C25.8875 792.742 39.7016 798.469 53.9813 798.483H631.678C645.92 798.47 659.742 792.742 669.809 782.675C679.98 772.519 685.617 758.887 685.605 744.506V444.597C685.606 436.681 679.191 430.265 671.275 430.265ZM44.3281 166.872C44.3281 163.562 45.8688 161.311 47.1281 160.05C48.4328 158.751 50.6781 157.198 53.9813 157.198H323.898V272.203C323.898 274.978 325.369 277.536 327.755 278.948C328.977 279.661 330.344 280.019 331.719 280.019C333.03 280.019 334.334 279.7 335.519 279.039L351.969 269.9C356.608 267.328 361.661 266.017 366.981 266.017C375.247 266.017 383.03 269.237 388.878 275.08C394.733 280.947 397.953 288.736 397.953 296.997C397.953 305.256 394.733 313.034 388.891 318.887C383.03 324.742 375.247 327.962 366.981 327.962C361.655 327.962 356.608 326.651 351.975 324.08L335.513 314.94C334.336 314.28 333.025 313.961 331.72 313.961C330.345 313.961 328.977 314.317 327.756 315.044C325.37 316.444 323.9 319.001 323.9 321.776V436.781H252.689C252.83 435.011 252.898 433.244 252.898 431.5C252.898 413.109 245.739 395.837 232.752 382.869C219.777 369.873 202.505 362.722 184.114 362.722C165.73 362.722 148.459 369.875 135.489 382.856C122.489 395.825 115.33 413.109 115.336 431.487C115.336 433.244 115.405 435.001 115.545 436.783H44.3281V166.872ZM323.9 754.165H53.9813C50.6781 754.165 48.4328 752.612 47.1594 751.353C45.8688 750.055 44.3281 747.801 44.3281 744.506V474.57H159.327C162.095 474.57 164.659 473.106 166.066 470.726C167.472 468.333 167.511 465.38 166.163 462.962L157.031 446.506C154.453 441.859 153.148 436.808 153.142 431.5C153.148 423.239 156.377 415.451 162.205 409.595C168.077 403.755 175.861 400.52 184.114 400.52C192.367 400.52 200.152 403.755 206.005 409.583C211.853 415.45 215.08 423.239 215.086 431.486C215.08 436.819 213.767 441.872 211.216 446.492L202.064 462.948C200.714 465.38 200.755 468.333 202.161 470.712C203.567 473.105 206.133 474.569 208.9 474.569H323.898V545.803C322.128 545.664 320.367 545.6 318.623 545.6C300.227 545.6 282.955 552.753 269.998 565.734C256.992 578.716 249.839 595.987 249.852 614.365C249.839 632.744 256.992 650.028 269.988 662.997C282.956 675.992 300.228 683.144 318.625 683.144C320.381 683.144 322.144 683.08 323.9 682.94V754.165ZM641.288 744.506C641.288 747.801 639.736 750.042 638.462 751.328C637.164 752.614 634.923 754.167 631.628 754.167H361.713V639.162C361.713 636.387 360.25 633.83 357.856 632.43C356.634 631.703 355.266 631.348 353.892 631.348C352.588 631.348 351.277 631.667 350.098 632.328L333.623 641.467C328.997 644.037 323.95 645.348 318.623 645.348C310.37 645.348 302.586 642.117 296.733 636.286C290.884 630.431 287.658 622.642 287.652 614.381C287.658 606.109 290.886 598.333 296.727 592.478C302.577 586.636 310.358 583.403 318.625 583.39C323.914 583.39 328.966 584.701 333.625 587.272L350.094 596.423C351.278 597.086 352.581 597.405 353.894 597.405C355.267 597.405 356.636 597.047 357.858 596.336C360.244 594.923 361.714 592.364 361.714 589.589V474.572H432.93C432.791 476.341 432.72 478.111 432.72 479.866C432.714 498.231 439.867 515.503 452.855 528.484C465.836 541.492 483.114 548.645 501.498 548.645C519.883 548.645 537.155 541.492 550.138 528.498C563.131 515.53 570.272 498.258 570.272 479.867C570.272 478.111 570.208 476.355 570.069 474.573H641.291V744.506H641.288Z" fill="black"/>
</g>
<defs>
<clipPath id="clip0_5_61">
<rect width="800" height="800" fill="white"/>
</clipPath>
</defs>
</svg>
