<svg width="800" height="800" viewBox="0 0 800 800" fill="none" xmlns="http://www.w3.org/2000/svg">
<path d="M567.306 90.6083L451.306 148.608C418.973 164.608 381.306 164.608 348.973 148.608L232.641 90.275C133.308 40.6083 28.3077 147.942 80.3077 246.275L107.641 297.608C111.308 304.608 117.308 310.275 124.641 313.608L546.306 503.273C563.64 510.94 583.973 503.94 592.64 487.273L719.64 245.942C771.306 147.942 666.64 40.6083 567.306 90.6083Z" fill="#292D32"/>
<path d="M520.013 543.643L244.015 419.31C213.015 405.31 181.682 438.643 197.682 468.643L299.015 660.977C342.013 742.643 458.68 742.643 501.68 660.977L537.346 592.977C546.68 574.643 538.68 552.31 520.013 543.643Z" fill="#292D32"/>
</svg>
