<svg width="18" height="24" viewBox="0 0 18 24" fill="none" xmlns="http://www.w3.org/2000/svg">
<path d="M17.5117 13.2148C17.5117 13.457 17.418 13.6719 17.2305 13.8594L9.83594 21.2656C9.74219 21.3672 9.63672 21.4414 9.51953 21.4883C9.41016 21.543 9.29297 21.5703 9.16797 21.5703C9.04297 21.5703 8.92578 21.543 8.81641 21.4883C8.70703 21.4414 8.60156 21.3672 8.5 21.2656L1.09375 13.8594C0.914062 13.6719 0.824219 13.457 0.824219 13.2148C0.824219 12.9648 0.90625 12.7578 1.07031 12.5938C1.23438 12.4219 1.44141 12.3359 1.69141 12.3359C1.80859 12.3359 1.92188 12.3594 2.03125 12.4062C2.14062 12.4453 2.23438 12.5039 2.3125 12.582L5.17188 15.3945L8.93359 19.4961L8.38281 19.6836L8.27734 16.4961V1.57812C8.27734 1.32813 8.35938 1.12109 8.52344 0.957031C8.6875 0.785156 8.90234 0.699219 9.16797 0.699219C9.42578 0.699219 9.63672 0.785156 9.80078 0.957031C9.97266 1.12109 10.0586 1.32813 10.0586 1.57812V16.4961L9.95312 19.6836L9.41406 19.4961L13.1641 15.3945L16.0117 12.582C16.0977 12.5039 16.1953 12.4453 16.3047 12.4062C16.4141 12.3594 16.5273 12.3359 16.6445 12.3359C16.8945 12.3359 17.1016 12.4219 17.2656 12.5938C17.4297 12.7578 17.5117 12.9648 17.5117 13.2148ZM17.5117 22.4609C17.5117 22.7188 17.4297 22.9297 17.2656 23.0938C17.1094 23.2656 16.9023 23.3516 16.6445 23.3516H1.71484C1.44922 23.3516 1.23438 23.2656 1.07031 23.0938C0.90625 22.9297 0.824219 22.7188 0.824219 22.4609C0.824219 22.1953 0.90625 21.9805 1.07031 21.8164C1.23438 21.6523 1.44922 21.5703 1.71484 21.5703H16.6445C16.9023 21.5703 17.1094 21.6523 17.2656 21.8164C17.4297 21.9805 17.5117 22.1953 17.5117 22.4609Z" fill="#C73AFE"/>
</svg>
