<svg width="800" height="800" viewBox="0 0 800 800" fill="none" xmlns="http://www.w3.org/2000/svg">
<path d="M150.729 233.333H233.333C251.743 233.333 266.667 248.257 266.667 266.667C266.667 285.076 251.743 300 233.333 300H100C63.181 300 33.3334 270.152 33.3334 233.333V100C33.3334 81.5903 48.2574 66.6667 66.6667 66.6667C85.076 66.6667 100 81.5903 100 100V189.18C138.07 135.006 190.286 91.903 251.327 64.827C326.248 31.5947 410.143 24.4218 489.617 44.4533C569.09 64.4847 639.56 110.566 689.78 175.339C733.163 231.3 759.27 298.425 765.313 368.507C766.893 386.847 751.59 401.727 733.18 401.637C714.773 401.547 699.967 386.503 698.013 368.197C692.133 313.112 671.067 260.494 636.857 216.368C595.81 163.424 538.21 125.759 473.25 109.385C408.29 93.012 339.717 98.875 278.479 126.038C227.441 148.677 183.951 185.024 152.665 230.743C152.052 231.638 151.406 232.502 150.729 233.333Z" fill="#0F0F0F"/>
<path d="M700 610.82C661.93 664.993 609.713 708.097 548.673 735.173C473.753 768.407 389.857 775.577 310.384 755.547C230.91 735.513 160.439 689.433 110.221 624.66C66.8354 568.7 40.7287 501.573 34.6881 431.493C33.107 413.153 48.4097 398.273 66.8187 398.363C85.2281 398.453 100.034 413.497 101.988 431.8C107.866 486.887 128.932 539.507 163.142 583.633C204.189 636.577 261.79 674.24 326.75 690.613C391.71 706.987 460.283 701.123 521.52 673.96C572.56 651.323 616.05 614.977 647.337 569.257C647.947 568.363 648.593 567.497 649.27 566.667H566.667C548.257 566.667 533.333 551.743 533.333 533.333C533.333 514.923 548.257 500 566.667 500H700C736.82 500 766.667 529.847 766.667 566.667V700C766.667 718.41 751.743 733.333 733.333 733.333C714.923 733.333 700 718.41 700 700V610.82Z" fill="#0F0F0F"/>
</svg>

