<svg width="158" height="138" viewBox="0 0 158 138" fill="none" xmlns="http://www.w3.org/2000/svg">
<path fill-rule="evenodd" clip-rule="evenodd" d="M3.05176e-05 68.6999C3.05176e-05 71.3023 1.03384 73.7982 2.87404 75.6384C4.71424 77.4786 7.21009 78.5124 9.81253 78.5124H123.5L81.3653 120.628C80.453 121.54 79.7293 122.623 79.2355 123.815C78.7418 125.007 78.4876 126.285 78.4876 127.575C78.4876 128.865 78.7418 130.143 79.2355 131.335C79.7293 132.527 80.453 133.61 81.3653 134.522C82.2776 135.434 83.3607 136.158 84.5527 136.652C85.7447 137.146 87.0223 137.4 88.3125 137.4C89.6028 137.4 90.8803 137.146 92.0724 136.652C93.2644 136.158 94.3475 135.434 95.2598 134.522L154.135 75.6471C155.049 74.7357 155.774 73.6528 156.268 72.4607C156.763 71.2686 157.018 69.9906 157.018 68.6999C157.018 67.4092 156.763 66.1312 156.268 64.9391C155.774 63.747 155.049 62.6641 154.135 61.7526L95.2598 2.87765C93.4173 1.03512 90.9183 0 88.3125 0C85.7068 0 83.2078 1.03512 81.3653 2.87765C79.5228 4.72017 78.4876 7.21918 78.4876 9.8249C78.4876 12.4306 79.5228 14.9296 81.3653 16.7722L123.5 58.8874H9.81253C7.21009 58.8874 4.71424 59.9212 2.87404 61.7614C1.03384 63.6016 3.05176e-05 66.0975 3.05176e-05 68.6999Z" fill="#59C7F9"/>
</svg>

