<svg width="800" height="800" viewBox="0 0 800 800" fill="none" xmlns="http://www.w3.org/2000/svg">
<path d="M66.6665 382V548.667C66.6665 625 128.333 686.667 204.666 686.667H595C671.333 686.667 733.333 624.667 733.333 548.333V382C733.333 359.667 715.333 341.667 693 341.667H107C84.6665 341.667 66.6665 359.667 66.6665 382ZM266.666 575H200C186.333 575 175 563.667 175 550C175 536.333 186.333 525 200 525H266.666C280.333 525 291.666 536.333 291.666 550C291.666 563.667 280.333 575 266.666 575ZM483.333 575H350C336.333 575 325 563.667 325 550C325 536.333 336.333 525 350 525H483.333C497 525 508.333 536.333 508.333 550C508.333 563.667 497 575 483.333 575Z" fill="#292D32"/>
<path d="M450 153.615V251.281C450 273.615 432 291.615 409.666 291.615H107C84.3332 291.615 66.6665 272.948 66.6665 250.615C66.9998 212.948 81.9998 178.615 107 153.615C132 128.615 166.666 113.281 204.666 113.281H409.666C432 113.281 450 131.281 450 153.615Z" fill="#292D32"/>
<path d="M665.667 66.6667H567.667C525.333 66.6667 500 92.0001 500 134.333V232.333C500 274.667 525.333 300 567.667 300H665.667C708 300 733.333 274.667 733.333 232.333V134.333C733.333 92.0001 708 66.6667 665.667 66.6667ZM687.667 148.333L608.667 240.667C605.667 244.333 601 246.667 596.333 246.667C596 246.667 596 246.667 595.667 246.667C591 246.667 586.667 245 583.333 241.667L546.667 205.667C540 199 540 188 546.667 181.333C553.333 174.667 564.333 174.333 571 181.333L594.333 204.333L661 126.333C667.333 119 678 118.333 685.333 124.333C693 130.333 693.667 141.333 687.667 148.333Z" fill="#292D32"/>
</svg>
