<svg width="24" height="24" viewBox="0 0 24 24" fill="none" xmlns="http://www.w3.org/2000/svg">
<path d="M14.4805 23.1719C14.0039 23.1719 13.6562 23 13.4375 22.6562C13.2188 22.3203 13.0312 21.8828 12.875 21.3438L10.5195 13.3398L2.43359 10.9844C1.92578 10.8203 1.50781 10.6328 1.17969 10.4219C0.859375 10.2031 0.699219 9.85547 0.699219 9.37891C0.699219 9.00391 0.84375 8.68359 1.13281 8.41797C1.42969 8.14453 1.80469 7.92188 2.25781 7.75L21.418 0.414062C21.6602 0.320312 21.8828 0.25 22.0859 0.203125C22.2891 0.148437 22.4766 0.121094 22.6484 0.121094C22.9844 0.121094 23.25 0.222656 23.4453 0.425781C23.6484 0.621094 23.75 0.886719 23.75 1.22266C23.75 1.39453 23.7227 1.58203 23.668 1.78516C23.6211 1.98828 23.5508 2.21094 23.457 2.45312L16.1562 21.5312C15.9609 22.0391 15.7266 22.4375 15.4531 22.7266C15.1797 23.0234 14.8555 23.1719 14.4805 23.1719ZM10.9766 11.8164L18.9922 3.80078C19.2578 3.53516 19.582 3.24609 19.9648 2.93359C20.3555 2.61328 20.7148 2.32031 21.043 2.05469C20.6758 2.22656 20.2969 2.40625 19.9062 2.59375C19.5234 2.77344 19.1328 2.94141 18.7344 3.09766L3.14844 9.00391C3.05469 9.04297 2.98828 9.08203 2.94922 9.12109C2.91797 9.15234 2.90234 9.19141 2.90234 9.23828C2.90234 9.28516 2.92188 9.32812 2.96094 9.36719C3 9.39844 3.08203 9.42969 3.20703 9.46094L10.9766 11.8164ZM14.6328 20.9922C14.6797 20.9922 14.7188 20.9688 14.75 20.9219C14.7891 20.8828 14.8281 20.8125 14.8672 20.7109L20.7852 5.13672C20.9336 4.73047 21.1016 4.33594 21.2891 3.95312C21.4766 3.5625 21.6523 3.17969 21.8164 2.80469C21.5508 3.14063 21.2578 3.50391 20.9375 3.89453C20.625 4.28516 20.3359 4.61328 20.0703 4.87891L12.043 12.8945L14.4102 20.6758C14.4414 20.793 14.4727 20.875 14.5039 20.9219C14.543 20.9688 14.5859 20.9922 14.6328 20.9922Z" fill="#C73AFE"/>
</svg>
