<svg width="800" height="800" viewBox="0 0 800 800" fill="none" xmlns="http://www.w3.org/2000/svg">
<path d="M567.306 709.72L451.306 651.72C418.973 635.72 381.306 635.72 348.973 651.72L232.972 709.72C133.306 759.387 28.3057 652.387 80.3057 554.053L107.639 502.72C111.306 495.72 117.306 490.053 124.639 486.72L545.973 296.721C563.306 289.055 583.64 296.055 592.306 312.721L719.306 554.053C771.306 652.387 666.64 759.387 567.306 709.72Z" fill="#292D32"/>
<path d="M520.013 256.318L244.015 380.65C213.015 394.65 181.682 361.317 197.682 331.318L299.015 138.984C342.013 57.3177 458.68 57.3177 501.68 138.984L537.346 206.984C546.68 225.318 538.68 247.984 520.013 256.318Z" fill="#292D32"/>
</svg>
