<svg xmlns="http://www.w3.org/2000/svg" width="32" height="32" viewBox="0 0 32 32"><circle cx="9" cy="26" r="1" fill="#59c7f9"/><path fill="#59c7f9" d="M26 30H6a2.002 2.002 0 0 1-2-2v-4a2.002 2.002 0 0 1 2-2h20a2.002 2.002 0 0 1 2 2v4a2.002 2.002 0 0 1-2 2M6 24v4h20v-4z"/><circle cx="9" cy="16" r="1" fill="#59c7f9"/><path fill="#59c7f9" d="M26 20H6a2.002 2.002 0 0 1-2-2v-4a2.002 2.002 0 0 1 2-2h20a2.002 2.002 0 0 1 2 2v4a2.002 2.002 0 0 1-2 2M6 14v4h20v-4z"/><circle cx="9" cy="6" r="1" fill="#59c7f9"/><path fill="#59c7f9" d="M26 10H6a2.002 2.002 0 0 1-2-2V4a2.002 2.002 0 0 1 2-2h20a2.002 2.002 0 0 1 2 2v4a2.002 2.002 0 0 1-2 2M6 4v4h20V4z"/></svg>
