<svg width="800" height="800" viewBox="0 0 800 800" fill="none" xmlns="http://www.w3.org/2000/svg">
<path d="M696.993 370.677V224.344C696.993 197.011 676.327 166.011 650.66 155.677L464.993 79.6772C423.327 62.6772 376.327 62.6772 334.66 79.6772L148.995 155.677C123.661 166.011 102.995 197.011 102.995 224.344V370.677C102.995 533.677 221.328 686.344 382.993 731.01C393.993 734.01 405.993 734.01 416.993 731.01C578.66 686.344 696.993 533.677 696.993 370.677ZM424.993 429.01V516.677C424.993 530.344 413.66 541.677 399.993 541.677C386.327 541.677 374.993 530.344 374.993 516.677V429.01C341.327 418.344 316.661 387.01 316.661 350.01C316.661 304.011 353.993 266.677 399.993 266.677C445.993 266.677 483.327 304.011 483.327 350.01C483.327 387.344 458.66 418.344 424.993 429.01Z" fill="#292D32"/>
</svg>

