
<svg width="22" height="26" viewBox="0 0 22 26" fill="none" xmlns="http://www.w3.org/2000/svg">
<path d="M0.617188 5.91797L6.32422 0.328125C6.51953 0.132812 6.74219 0.0351562 6.99219 0.0351562C7.25781 0.0351562 7.47266 0.117188 7.63672 0.28125C7.80078 0.445312 7.88281 0.660156 7.88281 0.925781C7.88281 1.17578 7.79297 1.38672 7.61328 1.55859L5.16406 3.94922L3.05469 5.80078L5.58594 5.69531H20.6094C20.8594 5.69531 21.0664 5.78125 21.2305 5.95312C21.4023 6.125 21.4883 6.33984 21.4883 6.59766C21.4883 6.86328 21.4023 7.07812 21.2305 7.24219C21.0664 7.40625 20.8594 7.48828 20.6094 7.48828H5.58594L3.05469 7.39453L5.16406 9.24609L7.61328 11.6367C7.79297 11.8164 7.88281 12.0273 7.88281 12.2695C7.88281 12.5273 7.80078 12.7422 7.63672 12.9141C7.47266 13.0781 7.25781 13.1602 6.99219 13.1602C6.74219 13.1602 6.51953 13.0625 6.32422 12.8672L0.617188 7.26562C0.429688 7.08594 0.332031 6.86719 0.324219 6.60938C0.324219 6.34375 0.421875 6.11328 0.617188 5.91797ZM21.1953 20.0859L15.5 25.6875C15.3047 25.8828 15.082 25.9805 14.832 25.9805C14.5664 25.9805 14.3516 25.8984 14.1875 25.7344C14.0312 25.5703 13.9531 25.3594 13.9531 25.1016C13.9531 24.8516 14.0391 24.6406 14.2109 24.4688L16.6602 22.0781L18.7695 20.2266L16.2383 20.3203H1.22656C0.960938 20.3203 0.742188 20.2383 0.570312 20.0742C0.40625 19.9023 0.324219 19.6836 0.324219 19.418C0.324219 19.1602 0.40625 18.9492 0.570312 18.7852C0.742188 18.6133 0.960938 18.5273 1.22656 18.5273H16.2383L18.7695 18.6211L16.6602 16.7695L14.2109 14.3789C14.0391 14.207 13.9531 13.9961 13.9531 13.7461C13.9531 13.4883 14.0312 13.2773 14.1875 13.1133C14.3516 12.9492 14.5664 12.8672 14.832 12.8672C15.082 12.8672 15.3047 12.9648 15.5 13.1602L21.1953 18.75C21.3906 18.9375 21.4883 19.1602 21.4883 19.418C21.4961 19.6758 21.3984 19.8984 21.1953 20.0859Z" fill="#C73AFE"/>
</svg>
