<svg width="800" height="800" viewBox="0 0 800 800" fill="none" xmlns="http://www.w3.org/2000/svg">
<path d="M539.667 66.6666H260.333C139 66.6666 66.6665 139 66.6665 260.333V539.333C66.6665 661 139 733.333 260.333 733.333H539.333C660.666 733.333 733 661 733 539.667V260.333C733.333 139 661 66.6666 539.667 66.6666ZM589.667 468.333C588.333 471.333 586.667 474 584.333 476.333L486 574.667C481 579.667 474.666 582 468.333 582C462 582 455.667 579.667 450.667 574.667C441 565 441 549 450.667 539.333L506.333 483.667H233.333C219.666 483.667 208.333 472.333 208.333 458.667C208.333 445 219.666 433.667 233.333 433.667H566.666C570 433.667 573 434.333 576.333 435.667C582.333 438.333 587.333 443 590 449.333C592.333 455.333 592.333 462 589.667 468.333ZM566.666 366.333H233.333C230 366.333 227 365.667 223.666 364.333C217.666 361.667 212.667 357 210 350.667C207.333 344.667 207.333 337.667 210 331.667C211.667 328.667 213.333 326 215.666 323.667L314 225.333C323.666 215.667 339.666 215.667 349.333 225.333C359 235 359 251 349.333 260.667L293.667 316.333H566.666C580.333 316.333 591.666 327.667 591.666 341.333C591.666 355 580.333 366.333 566.666 366.333Z" fill="#292D32"/>
</svg>
