<svg width="800" height="800" viewBox="0 0 800 800" fill="none" xmlns="http://www.w3.org/2000/svg">
<path d="M553.05 251C553.2 251 553.4 251 553.6 251C558.825 251 563.675 252.625 567.65 255.425L567.575 255.375C570.475 257.9 572.425 261.45 572.9 265.45V265.525C573.4 268.575 573.675 272.075 573.675 275.65C573.675 277.275 573.625 278.875 573.5 280.475V280.25C567.875 339.475 543.475 483.1 531.075 549.4C525.825 577.475 515.5 586.875 505.5 587.775C483.775 589.8 467.275 573.425 446.225 559.625C413.275 538 394.65 524.55 362.675 503.475C325.7 479.15 349.675 465.725 370.725 443.875C376.25 438.125 472.025 351 473.9 343.1C474 342.625 474.05 342.1 474.05 341.55C474.05 339.6 473.325 337.825 472.15 336.475C470.85 335.625 469.225 335.15 467.525 335.15C466.4 335.15 465.325 335.375 464.325 335.75L464.375 335.725C461.075 336.475 408.442 371.258 306.475 440.075C295.35 448.85 281.3 454.4 266 455.05H265.85C244.175 452.425 224.5 447.6 205.825 440.725L207.675 441.325C184.225 433.675 165.6 429.65 167.2 416.7C168.05 409.967 177.333 403.075 195.05 396.025C304.183 348.475 376.958 317.133 413.375 302C453.55 280.675 500.125 263.125 549.1 251.75L553.025 250.975L553.05 251ZM398.25 25.625C190.7 26.125 22.625 194.5 22.625 402.125C22.625 610.05 191.175 778.625 399.125 778.625C607.075 778.625 775.625 610.075 775.625 402.125C775.625 194.5 607.55 26.125 400.05 25.625H400C399.417 25.625 398.833 25.625 398.25 25.625Z" fill="black"/>
</svg>

