<svg width="32" height="32" viewBox="0 0 32 32" fill="none" xmlns="http://www.w3.org/2000/svg">
<path d="M7 9C7 7.89543 7.89543 7 9 7H13C14.1046 7 15 7.89543 15 9V13C15 14.1046 14.1046 15 13 15H9C7.89543 15 7 14.1046 7 13V9Z" stroke="currentColor" stroke-linecap="round" stroke-linejoin="round"/>
<path d="M7 19C7 17.8954 7.89543 17 9 17H13C14.1046 17 15 17.8954 15 19V23C15 24.1046 14.1046 25 13 25H9C7.89543 25 7 24.1046 7 23V19Z" stroke="currentColor" stroke-linecap="round" stroke-linejoin="round"/>
<path d="M17 9C17 7.89543 17.8954 7 19 7H23C24.1046 7 25 7.89543 25 9V13C25 14.1046 24.1046 15 23 15H19C17.8954 15 17 14.1046 17 13V9Z" stroke="currentColor" stroke-linecap="round" stroke-linejoin="round"/>
<path d="M17 19C17 17.8954 17.8954 17 19 17H23C24.1046 17 25 17.8954 25 19V23C25 24.1046 24.1046 25 23 25H19C17.8954 25 17 24.1046 17 23V19Z" stroke="currentColor" stroke-linecap="round" stroke-linejoin="round"/>
</svg>
