<svg width="52" height="52" viewBox="0 0 52 52" fill="none" xmlns="http://www.w3.org/2000/svg">
<path d="M26 39C27.1966 39 28.1667 38.0299 28.1667 36.8333C28.1667 35.6367 27.1966 34.6666 26 34.6666C24.8034 34.6666 23.8333 35.6367 23.8333 36.8333C23.8333 38.0299 24.8034 39 26 39Z" stroke="#949494" stroke-width="10"/>
<path d="M17.3333 21.6667C18.53 21.6667 19.5 20.6967 19.5 19.5C19.5 18.3034 18.53 17.3334 17.3333 17.3334C16.1367 17.3334 15.1667 18.3034 15.1667 19.5C15.1667 20.6967 16.1367 21.6667 17.3333 21.6667Z" stroke="#949494" stroke-width="2"/>
<path d="M24.375 34.6667C24.375 35.5641 25.1026 36.2917 26 36.2917C26.8974 36.2917 27.625 35.5641 27.625 34.6667H24.375ZM26 13L27.149 11.8509C26.5144 11.2164 25.4856 11.2164 24.851 11.8509L26 13ZM27.0177 16.3157C27.6523 16.9503 28.681 16.9503 29.3157 16.3157C29.9503 15.6811 29.9503 14.6522 29.3157 14.0176L27.0177 16.3157ZM22.6844 14.0176C22.0497 14.6522 22.0497 15.6811 22.6844 16.3157C23.319 16.9503 24.3477 16.9503 24.9823 16.3157L22.6844 14.0176ZM24.851 14.149L27.0177 16.3157L29.3157 14.0176L27.149 11.8509L24.851 14.149ZM24.851 11.8509L22.6844 14.0176L24.9823 16.3157L27.149 14.149L24.851 11.8509ZM27.625 34.6667V30.6042H24.375V34.6667H27.625ZM27.625 30.6042V13H24.375V30.6042H27.625Z" fill="#949494"/>
<path d="M17.3333 21.6666V23.8974C17.3333 25.7928 18.5651 27.4683 20.3741 28.0336L23.4149 28.9839C24.9528 29.4645 26 30.8886 26 32.5" stroke="#949494" stroke-width="2" stroke-linecap="round"/>
<path d="M34.6667 23.8334V26.0642C34.6667 27.9596 33.4349 29.6351 31.626 30.2003L28.5851 31.1506C27.0471 31.6312 26 33.0554 26 34.6667" stroke="#949494" stroke-width="2" stroke-linecap="round"/>
<path d="M32.5 21.6667C32.5 20.6453 32.5 20.1346 32.8172 19.8173C33.1346 19.5 33.6453 19.5 34.6667 19.5C35.688 19.5 36.1987 19.5 36.5161 19.8173C36.8333 20.1346 36.8333 20.6453 36.8333 21.6667C36.8333 22.688 36.8333 23.1987 36.5161 23.5161C36.1987 23.8333 35.688 23.8333 34.6667 23.8333C33.6453 23.8333 33.1346 23.8333 32.8172 23.5161C32.5 23.1987 32.5 22.688 32.5 21.6667Z" stroke="#949494" stroke-width="2"/>
<path d="M26 47.6667C37.9662 47.6667 47.6667 37.9662 47.6667 26C47.6667 14.0339 37.9662 4.33337 26 4.33337C14.0338 4.33337 4.33333 14.0339 4.33333 26C4.33333 37.9662 14.0338 47.6667 26 47.6667Z" stroke="#949494" stroke-width="2"/>
</svg>
