<svg width="800" height="800" viewBox="0 0 800 800" fill="none" xmlns="http://www.w3.org/2000/svg">
<path fill-rule="evenodd" clip-rule="evenodd" d="M366.666 433.334C366.666 451.744 381.59 466.667 400 466.667C418.41 466.667 433.333 451.744 433.333 433.334V266.667C433.333 248.258 418.41 233.334 400 233.334C381.59 233.334 366.666 248.258 366.666 266.667V433.334ZM433.333 532.96C433.333 514.55 418.41 499.627 400 499.627C381.59 499.627 366.666 514.55 366.666 532.96V533.334C366.666 551.744 381.59 566.667 400 566.667C418.41 566.667 433.333 551.744 433.333 533.334V532.96ZM241.669 79.5943C284.959 69.9737 337.476 66.667 400 66.667C462.523 66.667 515.04 69.9737 558.33 79.5943C602 89.2993 638.293 105.867 666.213 133.786C694.133 161.706 710.7 198.001 720.406 241.669C730.026 284.96 733.333 337.477 733.333 400C733.333 462.524 730.026 515.04 720.406 558.33C710.7 602 694.133 638.294 666.213 666.214C638.293 694.134 602 710.7 558.33 720.407C515.04 730.027 462.523 733.334 400 733.334C337.476 733.334 284.959 730.027 241.669 720.407C198.001 710.7 161.705 694.134 133.786 666.214C105.866 638.294 89.2988 602 79.5938 558.33C69.9732 515.04 66.6665 462.524 66.6665 400C66.6665 337.477 69.9732 284.96 79.5938 241.669C89.2988 198.001 105.866 161.706 133.786 133.786C161.705 105.867 198.001 89.2993 241.669 79.5943Z" fill="#323232"/>
</svg>

